<?xml version="1.0" standalone="no"?>
<!DOCTYPE svg PUBLIC "-//W3C//DTD SVG 1.1//EN" "http://www.w3.org/Graphics/SVG/1.1/DTD/svg11.dtd" >
<svg xmlns="http://www.w3.org/2000/svg" xmlns:xlink="http://www.w3.org/1999/xlink" version="1.1">
<metadata>
Created by FontForge 20170731 at Fri May  5 14:18:50 2017
 By Aleksey,,,
Copyright 2015, 2016 KB-Studio (www.k-b-studio.com|tarobish@gmail.com). Copyright 2015, 2016 Lasse Fister (lasse@graphicore.de). Copyright 2015, 2016 Eduardo Tunni(edu@tipo.net.ar).
</metadata>
<defs>
<font id="Mirza-Bold" horiz-adv-x="0" >
  <font-face 
    font-family="Mirza"
    font-weight="700"
    font-stretch="normal"
    units-per-em="1000"
    panose-1="0 0 8 0 0 0 0 0 0 0"
    ascent="800"
    descent="-200"
    x-height="413"
    cap-height="533"
    bbox="-650 -596 1307 1024"
    underline-thickness="50"
    underline-position="-200"
    unicode-range="U+000D-FEFE"
  />
<missing-glyph horiz-adv-x="364" 
d="M33 0v666h265v-666h-265zM66 33h199v600h-199v-600z" />
    <glyph glyph-name="fi" unicode="fi" horiz-adv-x="528" 
d="M33 -130q27 39 37 84.5t10 138.5t-7 230q-30 1 -44 4.5t-19 12.5t-5 28q41 21 68 42q14 80 66 127.5t126 47.5q87 0 153 -24q0 -24 -12.5 -64t-25.5 -57q-52 30 -84.5 44.5t-60.5 18.5q-16 -12 -23.5 -34.5t-9.5 -71.5h136q35 11 67.5 15.5t72.5 4.5q-5 -29 -8.5 -89.5
t-3.5 -135.5q0 -55 3.5 -84t11 -46t24.5 -35q-21 -19 -45.5 -27.5t-43.5 -8.5q-40 0 -56.5 18t-16.5 64q0 37 2 105q2 64 2 94q0 20 -2 54h-145v-43q0 -55 5 -155q2 -52 2 -65q0 -70 -31 -118t-110 -104z" />
    <glyph glyph-name="fl" unicode="fl" horiz-adv-x="528" 
d="M33 -130q27 39 37 84.5t10 138.5t-7 230q-30 1 -44 4.5t-19 12.5t-5 28q41 21 68 42q14 80 65.5 127.5t128.5 47.5q118 0 211 -38q-12 -106 -12 -355q0 -55 3.5 -84t11 -46t24.5 -35q-21 -19 -45.5 -27.5t-43.5 -8.5q-40 0 -56.5 18t-16.5 64q0 31 2 99q2 76 2 125
q0 100 -8 167q-34 18 -58 27t-46 12q-16 -12 -23.5 -34.5t-9.5 -72.5q68 2 105 8q0 -47 -17 -90q-35 11 -90 12v-43q0 -55 5 -155q2 -52 2 -65q0 -70 -31 -118t-110 -104z" />
    <glyph glyph-name="uniFC18" unicode="&#xfea3;&#xfee2;" horiz-adv-x="723" arabic-form="isolated" 
d="M637 279.5q-13 -18.5 -38 -44.5q-5 2 -24 6.5t-52.5 9t-74.5 4.5q-33 0 -75.5 -11.5t-76.5 -38.5q21 -8 48.5 -24t46.5 -31q-17 -45 -25.5 -62t-28.5 -44q-43 14 -62.5 19t-46.5 5q-74 0 -105 -29q16 -113 20 -160q7 -70 7 -173q0 -45 -1 -65l-56 -22q-6 69 -19 193
q-4 39 -11.5 85.5t-13.5 74.5q-5 19 -5 44q0 51 30 90q27 37 75 62q5 16 14 30.5t16 21.5q32 36 80 59q59 26 123 26l-26 15q-24 14 -35.5 19t-26.5 5q-23 0 -36 -6t-31 -22l-24 33q18 32 33.5 49.5t37.5 28.5q30 14 60 14q45 0 107 -33q92 -51 232 -70q-23 -40 -36 -58.5z
" />
    <glyph glyph-name="uniFC1F" unicode="&#xfeb3;&#xfee2;" horiz-adv-x="869" arabic-form="isolated" 
d="M819 236q0 -53 -24 -99q-17 -32 -43.5 -49.5t-59.5 -17.5q-32 0 -54.5 14t-30.5 29q-9 -17 -31.5 -35t-59.5 -18t-59 15t-43 42q-23 29 -43 44.5t-49 15.5q-26 0 -42 -8.5t-33 -22.5q32 -7 68 -27.5t51 -42.5q-9 -31 -20 -51.5t-31 -45.5q-8 3 -27.5 10.5t-34.5 10.5
t-32 3q-62 0 -98 -30q16 -109 23 -195q4 -54 7 -117.5t3 -82.5l-62 -26q-10 119 -47 354q-2 10 -2 28q0 44 21 88q27 50 82 81q4 26 18 55t31 52q19 27 50.5 51t69.5 24q27 0 51 -13t42 -32q28 -28 47.5 -38t47.5 -10q58 0 76 42q8 19 8 47l51 19q-1 -8 -2.5 -21.5
t-1.5 -21.5q0 -33 14 -47q14 -15 47 -15q21 0 32 7t21 23l-49 69q31 47 60 78q58 -61 58 -136z" />
    <glyph glyph-name="uniFC21" unicode="&#xfebb;&#xfee2;" horiz-adv-x="914" arabic-form="isolated" 
d="M856.5 262q-7.5 -24 -21.5 -48q-28 -45 -71 -78q-35 -27 -88 -47t-101 -23q-46 0 -71.5 12.5t-51.5 37.5q-30 29 -56 45t-59 16q-19 0 -41 -9t-36 -22q34 -7 72.5 -29t59.5 -44q-9 -31 -20 -51.5t-31 -45.5q-35 11 -56 15.5t-46 4.5q-39 0 -64.5 -7t-36.5 -16
q11 -78 23 -195l10 -200l-62 -26q-10 117 -47 354q-2 10 -2 28q0 44 21 88q13 24 35.5 45t49.5 35q1 12 5 30t10 30q10 25 30 53q26 37 60 56t71 19q45 0 79 -34q10 -10 26 -35q12 -19 17 -22q45 64 89 112q104 111 181 111q21 0 44 -8t42 -23q21 -17 32.5 -38.5t11.5 -46.5
q0 -20 -7.5 -44zM747 289q-22 20 -55 20q-31 0 -56.5 -14.5t-51.5 -41.5q-23 -23 -45 -54h89q51 0 96 20q26 12 46 32q-9 24 -23 38z" />
    <glyph glyph-name="uniFC2A" unicode="&#xfecb;&#xfee2;" horiz-adv-x="618" arabic-form="isolated" 
d="M528 275q-87 -21 -138 -38t-99 -50q31 -8 66 -25.5t52 -35.5q-16 -41 -26.5 -62t-29.5 -47q-37 11 -57.5 15t-47.5 4q-81 0 -109 -26q16 -113 20 -160q7 -57 7 -179q0 -42 -1 -59l-56 -22l-3 30q-9 113 -16 163l-7 49q-14 94 -18 111q-5 19 -5 44q0 51 30 90q27 37 75 62
q7 33 38 66q23 24 69 59q-29 20 -41 50t-12 58q0 33 15.5 63.5t41.5 54.5q55 52 120 52q75 0 128 -79l-46 -42q-44 15 -78 15q-52 0 -94 -24q7 -26 28 -46.5t44 -31.5q26 8 84.5 22.5t105.5 24.5q-19 -68 -40 -106z" />
    <glyph glyph-name="uniFC3B" unicode="&#xfb90;&#xfede;" horiz-adv-x="843" arabic-form="isolated" 
d="M714 39q-40 -39 -114 -39q-50 0 -73 23q3 -39 3 -63q0 -36 -9 -76q-13 -58 -51 -100q-62 -67 -175 -67q-82 0 -138 30q-58 29 -82 88q-15 38 -15 77q0 36 9.5 72t29.5 86l43 -15q-7 -34 -7 -61q0 -45 23 -74q20 -24 55 -36q36 -13 85 -13q80 0 121 26q18 11 25 24.5
t7 33.5q0 15 -3 35l-74 493q65 98 95 125l20 -197q53 47 144 99t190 98q-10 -83 -24 -138q-65 -27 -173 -88q62 -50 94 -109q17 -33 25.5 -62t8.5 -62q0 -71 -40 -110zM655.5 202q-17.5 25 -47.5 51q-32 28 -111 72l13 -125q3 -36 26 -54q20 -14 53 -14q34 0 52 8t32 26
q0 11 -17.5 36z" />
    <glyph glyph-name="uniFC3D" unicode="&#xfb90;&#xfef0;" horiz-adv-x="684" arabic-form="isolated" 
d="M99 82l43 -15q-8 -37 -8 -64q0 -54 25 -83q42 -50 140 -50q67 0 130 15q41 9 71 26t43 40q-2 19 -55 33q-35 9 -109 15q6 64 13 94q39 2 72.5 16t46.5 31q-1 42 -33 76.5t-83 73.5l-11 -24l-53 60q5 49 18 101q54 43 137.5 90.5t177.5 90.5q-10 -83 -24 -138
q-101 -41 -183 -88q62 -50 94 -109q16 -31 24.5 -58t8.5 -57q0 -55 -34 -99q36 -15 57 -42t21 -63q0 -38 -22 -79q-47 -87 -150 -127q-75 -29 -165 -29q-79 0 -136 31t-80 87q-15 34 -15 78q0 69 39 167z" />
    <glyph glyph-name="uniFC40" unicode="&#xfedf;&#xfea2;" horiz-adv-x="577" arabic-form="isolated" 
d="M542.5 230.5q-8.5 -23.5 -24.5 -54.5q-30 6 -91 6q-47 0 -92.5 -12t-83.5 -34q-48 -28 -76 -67.5t-28 -86.5q0 -26 9 -52t27 -47q42 -49 135 -65q26 -5 55 -7.5t42 -2.5q62 -2 107 -11l-17 -53q-28 0 -51 -6.5t-49 -19.5q-29 -15 -49.5 -21.5t-53.5 -6.5q-53 0 -100 19
t-81 58q-30 33 -45.5 76.5t-15.5 89.5q0 61 26.5 114t64.5 91q46 47 109 77q-58 12 -115 12q-18 0 -28.5 -1t-13.5 -1q2 28 10.5 50t24.5 49q4 1 19 3t32 2q13 0 28.5 -1.5t21.5 -1.5q10 0 14 5.5t3 11.5l-17 69q-4 15 -14 46.5t-15 44.5l70 106q7 -22 33 -59t48 -50
q0 2 -9 -3.5t-16.5 -19t-7.5 -38.5q0 -13 3 -31q1 -8 3.5 -20t5.5 -31q2 -22 2 -26q0 -15 -8 -26q37 -8 89.5 -13t105.5 -5h28q-6 -33 -14.5 -56.5z" />
    <glyph glyph-name="uniFC42" unicode="&#xfedf;&#xfee2;" horiz-adv-x="458" arabic-form="isolated" 
d="M381.5 66q-10.5 -25 -29.5 -49q-33 9 -55.5 13t-49.5 4q-38 0 -69 -8t-40 -15q11 -65 23 -215q4 -44 6.5 -103t3.5 -77l-61 -26q-8 86 -33 251l-15 103q-2 18 -2 27q0 47 22 89q29 54 82 80q6 22 13.5 34.5t22.5 26.5q18 1 25.5 2.5t12.5 7.5q-7 41 -27 125
q-22 90 -57 178l72 116q18 -42 37.5 -70t50.5 -60q-21 -16 -30.5 -29t-9.5 -31q0 -5 2 -19q1 -8 10 -49q4 -17 5 -22l15 -73q5 -25 5 -38q0 -30 -17 -41q58 -16 114 -61q-16 -46 -26.5 -71z" />
    <glyph glyph-name="uniFC43" unicode="&#xfedf;&#xfef0;" horiz-adv-x="678" arabic-form="isolated" 
d="M567.5 457.5q-11.5 -13.5 -11.5 -41.5q0 -11 1 -18l11 -74l6 -40q12 -90 12 -113q0 -30 -10 -59.5t-26 -52.5q36 -15 57 -42t21 -63q0 -38 -22 -79q-47 -87 -150 -127q-76 -29 -165 -29q-79 0 -136 31t-80 87q-15 34 -15 78q0 69 39 167l43 -15q-8 -37 -8 -64
q0 -54 25 -83q42 -50 140 -50q61 0 97 9t75 25q31 14 50 27.5t22 19.5q-2 19 -55 33q-35 9 -109 15q6 64 13 94q38 2 70 17t45 32q-7 61 -20 130t-24 115q-8 32 -18 64.5t-13 41.5l75 115q15 -39 34 -66t54 -63q-16 -8 -27.5 -21.5z" />
    <glyph glyph-name="uniFC49" unicode="&#xfee3;&#xfef0;" horiz-adv-x="824" arabic-form="isolated" 
d="M774 230q0 -15 -5 -37q-8 -36 -22.5 -51t-46.5 -17q-92 -9 -154 -65q40 -11 61 -39t21 -65q0 -41 -22 -81q-35 -66 -118 -110q-42 -22 -94.5 -34t-103.5 -12q-78 0 -136 32q-56 31 -79 86q-15 37 -15 75q0 13 4 45q10 65 35 125l43 -15q-8 -38 -8 -64q0 -53 25 -83
q41 -48 144 -48q57 0 94.5 7.5t71.5 20.5q31 12 52.5 28t21.5 23q-1 17 -36 30t-71 13q5 28 8.5 42.5t8.5 26.5q19 41 50 72q34 35 89 61q-5 22 -5 39q0 21 5 38q8 27 33 59q9 -3 35 -9l20 -5q54 -14 75 -35q19 -19 19 -53z" />
    <glyph glyph-name="uniFC53" unicode="&#xfbac;&#xfef0;" horiz-adv-x="933" arabic-form="isolated" 
d="M842 112q-14 -17 -56 -60q-24 13 -59 29t-62 24q-54 -50 -89 -62q27 -14 40 -34.5t13 -51.5q-2 -43 -24 -85q-18 -33 -48.5 -62t-69.5 -49q-41 -21 -94.5 -33t-101.5 -12q-79 0 -136 31t-80 87q-15 35 -15 80q0 72 39 165l43 -15q-8 -32 -8 -64q0 -54 25 -83
q19 -23 55.5 -36t86.5 -13q35 0 74 5.5t66 13.5q50 14 76 29t26 32q0 20 -63 38q-20 5 -36 8.5t-21 4.5q7 45 12.5 62.5t24.5 30.5q10 7 40 18q4 1 27.5 10t40.5 20q-26 14 -39 38t-13 53q0 45 28 84q23 31 57 45l-8 5q-11 7 -11 20q0 14 12 35q9 17 17 29.5t13 21.5
q15 -10 28.5 -18t34.5 -18q29 -14 61 -33q65 -39 97 -85q38 -53 38 -106q0 -52 -41 -99zM690 279.5q-4 11.5 -11 22.5q-4 10 -11 17.5t-15 7.5q-16 0 -51 -29q-20 -19 -32 -36q9 -14 26 -23q27 -14 46 -14q13 0 33 11q10 7 14.5 15.5t4.5 12.5t-4 15.5zM785 255
q-15 23 -51 49q4 -16 4 -35q0 -12 -1 -18q-5 -23 -19 -46q11 -4 26 -7l62 -17q2 41 -21 74z" />
    <glyph glyph-name="uniFC81" unicode="&#xfb91;&#xfede;" horiz-adv-x="933" arabic-form="final" 
d="M933 0h-65q-59 0 -93.5 26.5t-48.5 48.5q-8 -21 -35 -48t-76 -27q-35 0 -55 5t-33 18q3 -39 3 -63q0 -36 -9 -76q-13 -58 -51 -100q-62 -67 -175 -67q-82 0 -138 30q-58 29 -82 88q-15 38 -15 77q0 36 9.5 72t29.5 86l43 -15q-7 -34 -7 -61q0 -45 23 -74q20 -24 55 -36
q36 -13 85 -13q80 0 121 26q18 11 25 24.5t7 33.5q0 15 -3 35l-74 511q65 98 95 125l20 -216q88 77 343 198q-7 -70 -24 -138q-110 -43 -199 -98q37 -39 73 -79l80 -92q20 -23 32 -34.5t30 -19.5t43 -8h66v-139zM637.5 195.5q-14.5 17.5 -29.5 33.5l-20 21q-33 37 -90 96
q8 -88 12 -114l3 -32q3 -36 20 -51q17 -17 59 -17q26 0 42 7.5t28 22.5q-10 16 -24.5 33.5z" />
    <glyph glyph-name="uniFC83" unicode="&#xfb91;&#xfef0;" horiz-adv-x="800" arabic-form="final" 
d="M800 0h-52q-51 0 -94 28q-31 20 -65 60q-4 -15 -19.5 -33.5t-29.5 -25.5q36 -15 57 -42t21 -63q0 -60 -32 -108q-39 -58 -118 -92q-81 -35 -177 -35q-79 0 -136 31t-80 87q-15 34 -15 78q0 81 49 167l33 -15q-8 -37 -8 -64q0 -54 25 -83q42 -50 140 -50q72 0 140 17
q39 10 67 26.5t37 37.5q-2 19 -55 33q-35 9 -109 15q6 64 13 94q49 3 85 20q49 23 70 58q-33 43 -61 73t-34 36q-30 35 -81 88q4 50 13 89q84 71 315 181q-7 -70 -24 -138q-110 -43 -199 -98q37 -39 73 -79l80 -92q20 -23 32 -34.5t30 -19.5t43 -8h66v-139z" />
    <glyph glyph-name="uniFC86" unicode="&#xfee0;&#xfef0;" horiz-adv-x="758" arabic-form="final" 
d="M594 200q3 -31 18 -46t43 -15h103v-139h-69q-46 0 -73.5 23.5t-39.5 47.5q-8 -16 -17.5 -26.5t-24.5 -18.5q35 -13 54.5 -41t19.5 -67q0 -64 -41 -113q-44 -53 -111 -81q-76 -33 -168 -33q-76 0 -133 31q-56 30 -80 87q-15 34 -15 78q0 69 39 167l43 -15q-8 -37 -8 -64
q0 -54 25 -83q42 -50 140 -50q56 0 121 14q53 11 88 28.5t35 38.5q-2 19 -55 33q-35 9 -109 15q0 49 13 94q36 2 69 16.5t53 39.5l-20 154q-7 51 -20 117.5t-17 86.5q25 41 46.5 70t49.5 59z" />
    <glyph glyph-name="uniFCAA" unicode="&#xfea3;&#xfee4;" horiz-adv-x="668" arabic-form="initial" 
d="M573 281.5q-14 -19.5 -39 -47.5q-63 22 -130 22q-21 0 -31 -1q-35 -3 -66.5 -17t-49.5 -37q25 -21 38 -50t13 -53q-1 -31 -16 -59t-41 -50q-40 4 -72 17t-77 39q-24 -45 -83 -45h-30q-35 0 -52 23t-17 46q0 12 7 28.5t22.5 29t39.5 12.5h57q22 0 37.5 11t42.5 37
q19 20 37 37.5t40 35.5q55 45 113 49q-7 4 -26 17t-35 19t-32 6q-20 0 -34.5 -8.5t-25.5 -29.5l-22 39q15 27 30.5 45t37.5 29q30 14 60 14q14 0 29 -3q32 -7 77 -31q49 -26 109.5 -44.5t123.5 -24.5q-21 -36 -35 -55.5zM249.5 114.5q-6.5 17.5 -22 31.5t-40.5 14
q-28 0 -49 -26q28 -20 55.5 -30t62.5 -17q0 10 -6.5 27.5z" />
    <glyph glyph-name="uniFCB0" unicode="&#xfeb3;&#xfee4;" horiz-adv-x="743" arabic-form="initial" 
d="M693 289q0 -53 -24 -99q-17 -32 -43.5 -49.5t-59.5 -17.5q-32 0 -54.5 14t-30.5 29q-11 -20 -27.5 -34.5t-50.5 -14.5q-29 0 -46.5 15.5t-37.5 47.5q-19 27 -35.5 41.5t-43.5 14.5q-29 0 -50.5 -17t-21.5 -35q0 -20 28.5 -34t81.5 -27q0 -38 -5.5 -73t-19.5 -77
q-65 37 -114 37q-24 0 -56 -5q-53 -5 -68 -5h-25q-30 0 -50 19t-20 51q0 33 21 51t49 18h29q33 -3 55 -3l12 1q-2 37 10 68q10 26 29 53q25 36 60 56q32 18 61 18q31 0 47.5 -11.5t33.5 -34.5q16 -20 29.5 -30t38.5 -10q27 0 43.5 18t22.5 48q2 14 2 22l51 19l-4 -36
q-2 -38 14 -54q14 -15 47 -15q21 0 32 7t21 23l-49 69q31 47 60 78q58 -61 58 -136z" />
    <glyph glyph-name="uniFCB3" unicode="&#xfebb;&#xfee4;" horiz-adv-x="807" arabic-form="initial" 
d="M749.5 315q-7.5 -24 -21.5 -48q-28 -45 -71 -78q-35 -27 -88 -47t-101 -23l-18 -1q-37 0 -71 10q-19 7 -30.5 14.5t-24.5 25.5q-3 4 -17.5 23.5t-31.5 30t-35 10.5q-29 0 -50.5 -15.5t-21.5 -32.5q0 -20 28.5 -34t81.5 -27q0 -38 -5.5 -73t-19.5 -77q-40 22 -63.5 29.5
t-50.5 7.5q-14 0 -50 -4q-42 -6 -74 -6h-25q-30 0 -50 19t-20 51q0 33 21 51t49 18h19q33 -3 55 -3l12 1q-2 37 10 68q10 26 29 53q23 33 51 51q38 23 80 23q24 0 37.5 -8t26.5 -23q4 -5 12 -16t16.5 -19t18.5 -14q45 64 89 112q104 111 181 111q21 0 44 -8t42 -23
q21 -17 32.5 -38.5t11.5 -46.5q0 -20 -7.5 -44zM640 342q-22 20 -55 20q-31 0 -56.5 -14.5t-51.5 -41.5q-22 -22 -45 -54h89q51 0 96 20q26 12 46 32q-9 24 -23 38z" />
    <glyph glyph-name="uniFCBB" unicode="&#xfecb;&#xfee4;" horiz-adv-x="566" arabic-form="initial" 
d="M485 271q-80 -19 -127 -36.5t-88 -47.5q38 -36 38 -86q0 -32 -15 -61t-42 -51q-40 4 -72 17t-77 39q-24 -45 -83 -45h-30q-36 0 -53 18.5t-17 48.5t17 51t53 21h57q16 0 26.5 7t22.5 22q27 35 61 63t61 40q-21 18 -31 44.5t-10 52.5q0 33 15.5 63.5t41.5 54.5
q55 52 120 52q75 0 128 -79l-46 -42q-43 15 -78 15q-52 0 -94 -24q7 -26 28 -46.5t44 -31.5q26 8 84.5 22.5t105.5 24.5q-19 -68 -40 -106zM243 115q-6 16 -19.5 29t-36.5 13q-27 0 -46 -24q26 -18 50.5 -27t57.5 -16q0 9 -6 25z" />
    <glyph glyph-name="uniFCC7" unicode="&#xfb90;&#xfee0;" horiz-adv-x="528" arabic-form="initial" 
d="M399 39q-40 -39 -114 -39q-82 0 -114 53q-13 -22 -35 -37.5t-69 -15.5h-77q-31 0 -50.5 21t-19.5 48q0 29 20.5 49.5t49.5 20.5h51q33 0 50 19q13 14 11 35q-1 18 -5 53q-7 56 -21.5 132.5t-19.5 100.5q25 41 46.5 70t49.5 59l20 -199q93 87 336 199q-10 -83 -24 -138
q-101 -41 -183 -88q70 -45 104 -109q17 -33 25.5 -62t8.5 -62q0 -71 -40 -110zM345 199q-13 22 -37 44q-23 23 -58.5 44.5t-68.5 33.5l12 -121q3 -27 15 -42q11 -14 25 -20t39 -6q36 0 54 7.5t32 26.5q0 11 -13 33z" />
    <glyph glyph-name="uniFCCA" unicode="&#xfedf;&#xfea4;" horiz-adv-x="570" arabic-form="initial" 
d="M466 139q-48 -1 -80.5 -8.5t-57 -20t-61.5 -36.5q-50 -34 -100 -54t-125 -20h-52q-30 0 -50 20t-20 49t20.5 49.5t49.5 20.5h47q75 0 141 14q54 12 96 31q-59 18 -94 25t-70 7q-21 0 -38 -2.5t-46 -10.5q17 60 29 92q2 6 25.5 10t79.5 9q25 2 34 4.5t13 8.5q5 7 5 16
t-7 39q-13 55 -36 118l70 106q21 -42 38 -66.5t42 -43.5q-21 -17 -28 -27.5t-7 -26.5q0 -17 4 -37q1 -7 3.5 -16t4.5 -21q1 -5 1 -15q0 -16 -4 -28t-8.5 -18.5t-5.5 -7.5q44 -16 58 -20q75 -23 164 -23h19q-26 -69 -54 -117z" />
    <glyph glyph-name="uniFCCC" unicode="&#xfedf;&#xfee4;" horiz-adv-x="363" arabic-form="initial" 
d="M120 542q19 -27 54 -63q-3 -2 -14 -9t-18 -20.5t-7 -32.5q0 -11 1 -18l17 -106q8 -44 20.5 -70t35.5 -40q11 -7 34.5 -16t47.5 -15q2 -22 2 -36q0 -40 -7 -80t-20 -68q-16 17 -44.5 32t-61.5 15q-22 0 -40 -3t-22 -4q-40 -8 -71 -8h-37q-30 0 -50 18t-20 49
q0 29 17.5 50.5t52.5 21.5h61q16 0 30 3t18 4q-16 21 -28.5 82.5t-28.5 159.5q-4 24 -10.5 47.5t-12.5 38.5t-8 19l75 115q15 -39 34 -66z" />
    <glyph glyph-name="uniFCCD" unicode="&#xfedf;&#xfeec;" horiz-adv-x="459" arabic-form="initial" 
d="M378.5 94.5q-10.5 -26.5 -28.5 -46.5l-57 -60q-79 38 -130 56q-41 -44 -124 -44h-49q-30 0 -50 19.5t-20 49.5q0 29 20.5 49.5t49.5 20.5h41q-6 18 -6 35q0 28 15 58q17 33 43 55.5t54 31.5q-14 66 -58 176l73 113q18 -39 38 -68t47 -52q-20 -14 -30 -26t-10 -28
q0 -12 7.5 -38.5t14.5 -41.5q8 -17 23.5 -31t41.5 -31q5 -4 28.5 -20t40.5 -35q36 -39 36 -88q0 -28 -10.5 -54.5zM184 235q-5 11 -12.5 18t-14.5 7q-16 0 -44 -24q-14 -11 -25.5 -23t-13.5 -18q7 -13 30 -26q26 -11 42 -11q14 0 34 11q18 14 18 28t-14 38zM328 146
q0 18 -9 33.5t-24 24.5q-24 16 -36 22l-21 13q4 -28 3 -50q-3 -22 -20 -49l26 -6q14 -4 27 -7l47 -11q7 14 7 30z" />
    <glyph glyph-name="uniFCD1" unicode="&#xfee3;&#xfee4;" horiz-adv-x="421" arabic-form="initial" 
d="M241 292q-24 -10 -54 -27t-43 -36q0 -12 15.5 -25t51.5 -23q22 -7 41 -15.5t44 -26.5q2 -22 2 -34q0 -76 -27 -131q-29 21 -61.5 31.5t-58.5 10.5q-28 0 -66 -8q-36 -8 -58 -8h-37q-29 0 -49.5 20.5t-20.5 49.5q0 13 7.5 29t23.5 28t39 12h56q37 0 57 9q-25 35 -25 71
q0 59 38 105q11 13 24.5 24t22.5 17.5t13 8.5q-3 11 -3 26q0 21 3 36q8 49 37 78q18 -7 37.5 -11t26.5 -6q27 -7 47.5 -19.5t29.5 -28.5q7 -13 7 -35q0 -40 -18 -90q-70 -19 -102 -32z" />
    <glyph glyph-name="uniFCEB" unicode="&#xfb91;&#xfee0;" horiz-adv-x="615" arabic-form="medial" 
d="M615 0h-65q-59 0 -93.5 26.5t-48.5 48.5q-14 -36 -45.5 -55.5t-77.5 -19.5q-44 0 -73 12.5t-46 40.5q-10 -16 -34 -34.5t-70 -18.5h-72q-31 0 -50.5 21t-19.5 48q0 29 20.5 49.5t49.5 20.5h46q33 0 50 19q13 14 11 35q-1 18 -5 53q-7 56 -21.5 132.5t-19.5 100.5
q25 41 46.5 70t49.5 59l21 -207q50 48 145 102.5t201 104.5q-7 -70 -24 -138q-110 -43 -199 -98q37 -39 73 -79l80 -92q20 -23 32 -34.5t30 -19.5t43 -8h66v-139zM319.5 195.5q-14.5 17.5 -29.5 33.5l-20 21l-41 41q-39 37 -53 52l15 -143q3 -27 15 -42q11 -14 25 -19.5
t39 -5.5q29 0 45.5 6.5t28.5 22.5q-10 16 -24.5 33.5z" />
    <glyph glyph-name="uniFCF5" unicode="&#xfec3;&#xfef0;" horiz-adv-x="1011" arabic-form="isolated" 
d="M961 276q0 -35 -17.5 -66t-51.5 -54q-38 -27 -95 -46.5t-160 -48.5q-26 -6 -62 -17q33 -16 48 -50q7 -15 7 -37q0 -39 -24 -84q-18 -33 -49.5 -61.5t-69.5 -48.5q-41 -21 -94.5 -33t-101.5 -12q-79 0 -136 31t-80 86q-15 34 -15 80q0 13 1 19q2 26 13 68t25 79l43 -15
q-7 -44 -7 -68q0 -51 24 -79q41 -48 139 -48q60 0 124 14q51 11 84.5 28.5t36.5 36.5q0 19 -66 38q-21 5 -37.5 8.5t-21.5 4.5q0 11 8.5 42.5t27.5 48.5q25 22 96 46q20 45 48 88q-2 50 -9.5 114t-22.5 115q-10 36 -30 80l76 116q3 -6 14 -28.5t30 -51.5t43 -50
q0 2 -10.5 -6t-19 -23.5t-8.5 -39.5q0 -8 1 -13q7 -38 7 -78q0 -34 -5 -60l17 15q30 26 46 38q30 21 54 32t49 11q22 0 45 -8t41 -22q45 -34 45 -91zM773 210q53 16 74.5 25t31.5 18q-7 12 -27 24t-48 12q-33 0 -60.5 -18t-60.5 -54q-13 -14 -37 -45z" />
    <glyph glyph-name="uniFCF7" unicode="&#xfecb;&#xfef0;" horiz-adv-x="918" arabic-form="isolated" 
d="M763 413.5q31 -17.5 61 -61.5l-46 -39q-43 15 -78 15q-31 0 -53 -8t-41 -19q7 -26 28 -46.5t44 -31.5q26 8 84.5 22.5t105.5 24.5q-19 -68 -40 -106q-88 -23 -160 -51t-119 -55q39 -16 58.5 -40.5t19.5 -63.5q0 -42 -22 -80q-42 -75 -127 -115t-188 -40q-79 0 -136 31
t-80 87q-14 36 -14 75q0 41 10 86t28 84l43 -15q-8 -34 -8 -61q0 -53 26 -85q20 -25 55.5 -37.5t81.5 -12.5q63 0 129 17q51 12 84 29.5t33 35.5q0 26 -125 49q7 35 13 51t12.5 26t9.5 14q12 19 37.5 35t70.5 36q-21 18 -31 44.5t-10 52.5q0 33 15.5 63.5t41.5 54.5
q25 23 55.5 37.5t59.5 14.5q41 0 72 -17.5z" />
    <glyph glyph-name="uniFCFB" unicode="&#xfeb3;&#xfef0;" horiz-adv-x="1073" arabic-form="isolated" 
d="M1023 176q0 -53 -24 -99q-17 -32 -43.5 -49.5t-59.5 -17.5q-32 0 -54.5 14t-30.5 29q-8 -16 -30.5 -32.5t-60.5 -16.5q-32 0 -51 14t-45 44q-26 29 -49 43.5t-62 14.5q-25 0 -42 -16t-17 -36q0 -26 30 -35q15 -5 56 -8q37 -3 57 -19.5t20 -51.5q0 -42 -26 -91
q-23 -42 -61 -72q-48 -38 -102.5 -55.5t-133.5 -17.5q-115 0 -177 54q-57 49 -57 139q0 75 39 170l43 -15q-9 -34 -9 -70q0 -83 75 -111q41 -15 107 -15q46 0 93 6q51 7 83.5 21t32.5 36q-44 4 -74 13q-59 17 -74 49q-6 14 -6 32q0 32 15 69q15 39 43 82q23 36 46.5 52.5
t50.5 16.5q31 0 48 -14t29.5 -31.5t18.5 -25.5q17 -21 37 -32.5t51 -11.5q58 0 76 42q8 19 8 47l51 19l-4 -36q-2 -38 14 -54q14 -15 47 -15q21 0 32 7t21 23l-49 69q31 47 60 78q58 -61 58 -136z" />
    <glyph glyph-name="uniFCFF" unicode="&#xfea3;&#xfef0;" horiz-adv-x="973" arabic-form="isolated" 
d="M923 257q-34 -86 -58 -123h-56q-81 0 -176 -34q-50 -19 -87 -40q44 -16 64 -39t20 -61q-2 -44 -24 -86q-21 -41 -59.5 -72t-88.5 -51q-79 -32 -164 -32q-81 0 -140 31q-57 32 -79 87q-15 35 -15 80q0 76 39 165l43 -15q-8 -35 -8 -64q0 -52 25 -83q37 -48 144 -48
q60 0 119 12q53 10 87 27t34 40q0 19 -59 37q-35 9 -66 14q7 43 13 59t22 32q15 16 80 49q49 24 113 46q-44 14 -64 19q-44 12 -66 9q-20 0 -39 -16t-30 -39l-34 31q15 44 25.5 65t27.5 37q43 38 86 38q21 0 40 -6t50 -20q59 -25 116 -39t147 -11z" />
    <glyph glyph-name="uniFD05" unicode="&#xfebb;&#xfef0;" horiz-adv-x="1167" arabic-form="isolated" 
d="M1109.5 202q-7.5 -24 -21.5 -48q-27 -45 -71 -78q-39 -30 -98.5 -50.5t-115.5 -20.5q-34 0 -67 5l-6 -23h-59l7 32q-22 8 -40 23t-43 40q-21 21 -42.5 27.5t-37.5 6.5q-27 0 -44 -14t-17 -34q0 -26 30 -35q14 -4 35 -6t26 -2q37 -3 54.5 -18t17.5 -50q0 -45 -26 -94
q-23 -42 -61 -72q-47 -37 -105 -55.5t-133 -18.5q-54 0 -99 14.5t-76 41.5q-57 49 -57 137q0 76 39 171l43 -15q-9 -34 -9 -70q0 -83 75 -111q41 -15 107 -15q58 0 108 10q45 8 73 21.5t28 31.5q-41 4 -74 13q-29 8 -48 21t-26 28q-6 14 -6 32q0 32 15 69q8 21 21 44.5
t22 37.5q23 36 46.5 52.5t50.5 16.5q33 0 50 -12.5t37 -38.5l13 -17q17 -19 38 -29.5t55 -10.5q42 62 88 112q104 111 181 111q21 0 44 -8t42 -23q21 -17 32.5 -38.5t11.5 -46.5q0 -20 -7.5 -44zM1000 229q-22 20 -55 20q-31 0 -56.5 -14.5t-51.5 -41.5q-20 -20 -45 -54h89
q51 0 96 20q26 12 46 32q-9 24 -23 38z" />
    <glyph glyph-name="uniFD0E" unicode="&#xfeb3;&#xfeae;" horiz-adv-x="749" arabic-form="isolated" 
d="M685 244.5q14 -37.5 14 -70.5q0 -20 -5.5 -46.5t-18.5 -50.5q-17 -32 -43.5 -49.5t-59.5 -17.5q-32 0 -54.5 14t-30.5 29q-8 -16 -30.5 -32.5t-62.5 -16.5q-35 0 -55 15.5t-32 45.5l-71 -16q2 -53 -9.5 -105.5t-37.5 -96.5q-24 -42 -58 -65q-37 -26 -90 -26q-11 0 -27 2
l-24 1q-19 0 -43 -3t-37 -8l-30 43l129 70q9 6 21 12q68 38 98 67t30 68q0 13 -3 25l-37 -8q10 43 18 114q151 33 215 58v-13q6 -49 54 -49q27 0 41 16.5t20 45.5l3 24l51 19l-4 -35q-2 -38 14 -55q14 -15 46 -15q21 0 34.5 8.5t19.5 21.5l-49 69q31 47 60 78
q30 -30 44 -67.5z" />
    <glyph glyph-name="uniFD0F" unicode="&#xfebb;&#xfeae;" horiz-adv-x="837" arabic-form="isolated" 
d="M758 157q-27 -45 -72 -79q-44 -33 -97 -52.5t-103 -19.5h-33q-28 0 -46 4l-7 -25h-60l10 40q-25 14 -34 45l-80 -21q2 -53 -9.5 -105.5t-37.5 -96.5q-24 -42 -58 -65q-37 -26 -90 -26q-11 0 -27 2l-24 1q-19 0 -43 -3t-37 -8l-30 43l129 70q9 6 21 12q68 38 98 67t30 68
q0 13 -3 25l-37 -8q10 43 18 114q140 30 215 60q-2 -27 7 -41.5t31 -16.5q41 63 87 112q104 111 181 111q21 0 44 -8t42 -23q20 -16 32 -38t12 -48q0 -42 -29 -90zM683.5 212.5q-6.5 12.5 -16.5 20.5q-20 18 -53 18q-30 0 -58 -16t-50 -40q-14 -16 -28 -34t-16 -20h89
q52 0 95 20q29 13 46 32q-2 7 -8.5 19.5z" />
    <glyph glyph-name="uniFD13" unicode="&#xfecc;&#xfef0;" horiz-adv-x="884" arabic-form="final" 
d="M884 0h-104q-29 0 -56 10t-47 28q-23 18 -37 45q-25 -22 -77 -48q53 -23 53 -89q0 -52 -32 -102q-36 -52 -97 -83q-87 -45 -196 -45q-79 0 -136 31t-80 87q-15 35 -15 80q0 72 39 165l43 -15q-8 -32 -8 -64q0 -54 25 -83q19 -23 55.5 -36t86.5 -13q64 0 127 13
q51 11 83 28.5t32 38.5q0 20 -63 38q-20 5 -36 8.5t-21 4.5q7 45 12.5 62.5t24.5 30.5q10 7 40 18q5 2 32 11t47 22q-13 18 -34.5 26.5t-36.5 8.5q4 45 21 93q53 33 112 33q69 0 101.5 -24t32.5 -58q0 -23 -20.5 -53t-38.5 -42q11 5 28.5 8.5t29.5 3.5h110v-139z" />
    <glyph glyph-name="uniFD17" unicode="&#xfeb4;&#xfef0;" horiz-adv-x="1085" arabic-form="final" 
d="M1085 0h-45q-30 0 -54.5 12.5t-36.5 35.5q-8 -17 -26.5 -32.5t-51.5 -15.5q-49 0 -66 43q-12 -15 -33 -27t-52 -12q-44 0 -80 31q-11 10 -29 30q-13 15 -27 27q-15 12 -31.5 18t-40.5 6q-25 0 -41.5 -14.5t-16.5 -33.5q0 -26 30 -35q15 -5 56 -8q77 -7 77 -73
q0 -40 -26 -89q-23 -42 -61 -72q-93 -73 -236 -73q-115 0 -177 54q-57 49 -57 139q0 75 39 170l43 -15q-9 -34 -9 -70q0 -83 75 -111q41 -15 107 -15q57 0 108 10q101 18 101 53q-33 3 -74 13q-57 14 -73 51q-7 14 -7 34q0 27 15 65q15 39 43 82q23 36 46.5 52.5t50.5 16.5
q21 0 36.5 -8t25 -18t27.5 -33q21 -24 41.5 -37t53.5 -13q26 0 42 7t25 21q14 20 17 55l51 19q-5 -28 -5 -47q0 -29 8.5 -43.5t31.5 -14.5q28 0 43 24q14 22 14 62l51 19q-2 -16 -2 -22q-3 -16 -3 -29q0 -23 11 -35q14 -15 49 -15h43v-139z" />
    <glyph glyph-name="uniFD1B" unicode="&#xfea4;&#xfef0;" horiz-adv-x="1027" arabic-form="final" 
d="M1027 0h-123q-84 0 -126 50q-29 34 -37 87q-46 -7 -106 -34q-48 -20 -89 -43q44 -16 64 -39t20 -61q-2 -41 -24 -86q-34 -65 -110 -107q-45 -24 -97.5 -36t-104.5 -12q-81 0 -140 31q-57 32 -79 87q-15 35 -15 80q0 76 39 165l43 -15q-8 -35 -8 -64q0 -52 25 -83
q37 -48 144 -48q76 0 148 20q92 25 92 59q0 19 -59 37q-35 9 -66 14q7 43 13 59t22 32q15 16 80 49q49 24 113 46q-44 14 -64 19q-44 12 -66 9q-20 0 -39 -16t-30 -39l-34 31q15 44 25.5 65t27.5 37q43 38 86 38q21 0 40 -6t50 -20q69 -29 113.5 -39.5t110.5 -10.5
q29 0 46 1q-16 -47 -41 -93q-30 0 -54 -4q12 -21 74 -21h136v-139z" />
    <glyph glyph-name="uniFD21" unicode="&#xfebc;&#xfef0;" horiz-adv-x="1235" arabic-form="final" 
d="M1235 0h-120l-49 2l-82 2h-177q-48 0 -71 4l-6 -21h-59l7 32q-20 7 -34.5 18t-26.5 23l-17 17q-20 19 -39 29t-46 10t-44 -14t-17 -34q0 -26 30 -35q14 -4 35 -6t26 -2q37 -3 54.5 -18t17.5 -50q0 -45 -26 -94q-23 -42 -61 -72q-94 -74 -238 -74q-54 0 -99 14.5t-76 41.5
q-57 49 -57 137q0 76 39 171l43 -15q-9 -34 -9 -70q0 -83 75 -111q41 -15 107 -15q72 0 122 12q40 10 63.5 25t23.5 26q-41 4 -74 13q-29 8 -48 21t-26 28q-6 14 -6 32q0 32 15 69q8 21 21 44.5t22 37.5q23 36 46.5 52.5t50.5 16.5q33 0 50.5 -12.5t29 -27.5t15.5 -20
q17 -23 38 -35t58 -13q44 64 89 113q46 49 87 76q52 33 95 33q22 0 44.5 -7.5t40.5 -22.5q20 -16 32 -38.5t12 -45.5q0 -20 -8 -46.5t-21 -46.5q-5 -8 -17 -24q26 9 57 9h108v-139zM996.5 230q-17.5 19 -52.5 19q-30 0 -58.5 -16t-50.5 -40q-14 -16 -28 -34t-16 -20h89
q52 0 95 20q29 13 46 32q-7 20 -24.5 39z" />
    <glyph glyph-name="uniFD2A" unicode="&#xfeb4;&#xfeae;" horiz-adv-x="764" arabic-form="final" 
d="M764 1h-45q-30 0 -54.5 12.5t-36.5 35.5q-7 -16 -25.5 -33t-52.5 -17q-51 0 -68 49q-7 -16 -31.5 -32.5t-56.5 -16.5q-38 0 -59 21.5t-28 45.5l-71 -17q2 -53 -9.5 -105.5t-37.5 -96.5q-24 -42 -58 -65q-37 -26 -90 -26q-11 0 -27 2l-24 1q-19 0 -43 -3t-37 -8l-30 43
l129 70q9 6 21 12q68 38 98 67t30 68q0 13 -3 25l-37 -8q10 43 18 114q146 32 215 59v-6q0 -10 4 -24q11 -32 48 -32q31 0 49 22.5t20 63.5l51 19l-3 -27q-2 -18 -2 -24q0 -54 40 -54q29 0 43 23.5t14 62.5l51 19q-2 -16 -2 -22q-3 -16 -3 -29q0 -23 11 -35q14 -15 49 -15
h43v-139z" />
    <glyph glyph-name="uniFD2B" unicode="&#xfebc;&#xfeae;" horiz-adv-x="906" arabic-form="final" 
d="M906 0h-120l-47 2q-56 2 -84 2h-177q-48 0 -71 4l-7 -25h-60l10 40q-25 14 -34 45l-80 -19q2 -53 -9.5 -105.5t-37.5 -96.5q-24 -42 -58 -65q-37 -26 -90 -26q-11 0 -27 2l-24 1q-19 0 -43 -3t-37 -8l-30 43l129 70q9 6 21 12q68 38 98 67t30 68q0 13 -3 25l-37 -8
q10 43 18 114q151 33 215 58q-2 -27 6 -41.5t31 -16.5q47 69 88 113q46 49 87 76q52 33 95 33q22 0 44.5 -7.5t40.5 -22.5q20 -16 32 -38.5t12 -45.5q0 -20 -8 -46.5t-21 -46.5q-5 -8 -17 -24q26 9 57 9h108v-139zM667.5 230q-17.5 19 -52.5 19q-30 0 -58.5 -16t-50.5 -40
q-14 -16 -28 -34t-16 -20h89q52 0 95 20q29 13 46 32q-7 20 -24.5 39z" />
    <glyph glyph-name="uniFEFB" unicode="&#xfedf;&#x627;" horiz-adv-x="495" arabic-form="isolated" 
d="M437 389l-19 11q-6 -99 -56 -177q41 -72 41 -123l-1 -15l-8 -64q-101 -27 -268 -27q-1 71 7 140l23 2q27 1 64.5 32.5t52.5 50.5q-65 99 -143 171l-12 -19q-37 21 -98 70q11 73 21 95q8 19 24 19q20 0 59 -33q29 -24 75 -73q73 -82 114 -144q17 48 17 104q0 55 -18 119
q46 35 80 80q14 -48 33.5 -80t49.5 -50zM327 156q-7 14 -17 26q-32 -28 -69 -49q44 2 95 6q-2 3 -9 17z" />
    <glyph glyph-name="uniFEFC" unicode="&#xfee0;&#x627;" horiz-adv-x="603" arabic-form="final" 
d="M603 0h-55q-83 0 -122 43q-22 25 -31 68q-17 -34 -44.5 -67t-65.5 -54q-25 -14 -51 -20.5t-61 -11.5q-23 -3 -41 -7t-54 -15l-9 50q82 40 139.5 78.5t93.5 82.5q-15 84 -93 176q-40 47 -78 78l-14 -24q-27 18 -57.5 40t-39.5 29l9 79q2 15 11 24t23 9q24 0 76 -39
t102 -93q50 -53 77 -103q26 -46 39 -94q13 37 13 85q0 32 -7 85l-16 117q26 34 44 52t48 40l20 -197l4 -36q6 -73 14 -129q8 -58 16 -73q17 -34 52 -34h58v-139z" />
    <glyph glyph-name="uni062D06450649" unicode="&#xfea3;&#xfee4;&#xfef0;" horiz-adv-x="1168" 
d="M1073 281.5q-14 -19.5 -39 -47.5q-67 25 -129 25q-20 0 -40 -3q-32 -6 -61.5 -21.5t-46.5 -37.5q25 -21 38 -48.5t13 -50.5q-1 -59 -57 -105q-33 3 -64.5 18t-83.5 45q-11 -9 -30 -20t-36 -16q33 -14 50.5 -40t17.5 -62q0 -71 -49 -125q-44 -50 -120 -77
q-68 -25 -148 -25q-76 0 -133 31q-56 30 -80 87q-15 34 -15 78q0 69 39 167l43 -15q-8 -37 -8 -64q0 -54 25 -83q42 -50 140 -50q51 0 119 13q54 12 89.5 29.5t35.5 38.5q-2 19 -55 33q-35 9 -109 15q0 49 13 94q67 2 118 24q64 26 92 71q30 48 84 90q65 49 130 59
q-7 4 -26 17t-35 19t-32 6q-20 0 -34.5 -8.5t-25.5 -29.5l-22 39q15 27 30.5 45t37.5 29q30 14 60 14q14 0 29 -3q32 -7 77 -31q49 -26 109.5 -44.5t123.5 -24.5q-21 -36 -35 -55.5zM749.5 114.5q-6.5 17.5 -22 31.5t-40.5 14q-28 0 -49 -26q28 -20 55.5 -30t62.5 -17
q0 10 -6.5 27.5z" />
    <glyph glyph-name="uni063306450649" unicode="&#xfeb3;&#xfee4;&#xfef0;" horiz-adv-x="1293" 
d="M1243 289q0 -53 -24 -99q-17 -32 -43.5 -49.5t-59.5 -17.5q-32 0 -54.5 14t-30.5 29q-11 -20 -27.5 -34.5t-50.5 -14.5q-29 0 -46 15t-29.5 34t-17.5 26q-15 21 -31 32.5t-39 11.5q-29 0 -50.5 -17t-21.5 -35q0 -20 27 -32t83 -26q0 -79 -25 -153q-53 36 -116 56t-115 20
q30 -15 44 -36t14 -53q-2 -41 -24 -86q-42 -81 -140 -123q-76 -32 -172 -32q-81 0 -140 31q-57 32 -79 87q-15 35 -15 80q0 76 39 165l43 -15q-8 -35 -8 -64q0 -52 25 -83q37 -48 144 -48q72 0 135 15q48 11 76.5 27.5t28.5 36.5q0 19 -59 37q-35 9 -66 14q7 43 13 59t22 32
q32 26 76 36t107 9q-1 36 10 67q10 26 29 53q25 36 60 56q32 18 61 18t44.5 -10.5t31.5 -31.5q18 -23 32 -33.5t41 -10.5t43.5 18t22.5 48q2 14 2 22l51 19q-1 -8 -2.5 -21.5t-1.5 -21.5q0 -33 14 -47q14 -15 47 -15q21 0 32 7t21 23l-49 69q31 47 60 78q58 -61 58 -136z
" />
    <glyph glyph-name="uni063506450649" unicode="&#xfebb;&#xfee4;&#xfef0;" horiz-adv-x="1357" 
d="M1299.5 315q-7.5 -24 -21.5 -48q-28 -45 -71 -78q-35 -27 -88 -47t-101 -23l-18 -1q-37 0 -71 10q-19 7 -30.5 14.5t-24.5 25.5q-3 4 -17.5 23.5t-31.5 30t-35 10.5q-29 0 -50.5 -15.5t-21.5 -32.5q0 -20 28.5 -34t81.5 -27q0 -38 -5.5 -73t-19.5 -77q-48 34 -115.5 55
t-115.5 21q30 -15 44 -36t14 -53q-2 -41 -24 -86q-42 -81 -140 -123q-76 -32 -172 -32q-81 0 -140 31q-57 32 -79 87q-15 35 -15 80q0 76 39 165l43 -15q-8 -35 -8 -64q0 -52 25 -83q37 -48 144 -48q72 0 135 15q48 11 76.5 27.5t28.5 36.5q0 19 -59 37q-35 9 -66 14
q7 43 13 59t22 32q33 27 70 36.5t98 8.5q-1 36 10 67q10 26 29 53q18 26 44 49q20 17 44.5 26t47.5 9q20 0 34.5 -10.5t27.5 -28.5q4 -5 13.5 -17.5t18 -20.5t17.5 -13q45 64 89 112q104 111 181 111q21 0 44 -8t42 -23q21 -17 32.5 -38.5t11.5 -46.5q0 -20 -7.5 -44z
M1190 342q-22 20 -55 20q-31 0 -56.5 -14.5t-51.5 -41.5q-22 -22 -45 -54h89q51 0 96 20q26 12 46 32q-9 24 -23 38z" />
    <glyph glyph-name="uni063906450649" unicode="&#xfecb;&#xfee4;&#xfef0;" horiz-adv-x="1074" 
d="M984 271q-80 -19 -127 -36.5t-88 -47.5q38 -36 38 -86q0 -61 -57 -108q-40 4 -76 18t-80 40q-27 -22 -57 -31q33 -14 50.5 -40t17.5 -62q0 -71 -49 -125q-44 -50 -120 -77q-68 -25 -148 -25q-76 0 -133 31q-56 30 -80 87q-15 34 -15 78q0 69 39 167l43 -15q-8 -37 -8 -64
q0 -54 25 -83q42 -50 140 -50q51 0 119 13q54 12 89.5 29.5t35.5 38.5q-2 19 -55 33q-35 9 -109 15q0 49 13 94q57 2 112 24.5t90 78.5q43 69 122 103q-21 18 -31 44.5t-10 52.5q0 33 15.5 63.5t41.5 54.5q55 52 120 52q75 0 128 -79l-46 -42q-43 15 -78 15q-52 0 -94 -24
q7 -26 28 -46.5t44 -31.5q26 8 84.5 22.5t105.5 24.5q-19 -68 -40 -106zM742 115q-6 16 -19.5 29t-36.5 13q-27 0 -46 -24q26 -18 50.5 -27t57.5 -16q0 9 -6 25z" />
    <glyph glyph-name="uni06430643" unicode="&#xfb90;&#xfeda;" horiz-adv-x="1063" 
d="M836 382q62 -50 94 -109q17 -33 25.5 -62t8.5 -62q0 -71 -38.5 -110t-105.5 -39q-83 0 -115 53q-16 -34 -47 -47t-83 -13q-49 0 -76 -1l-78 -1h-65q-82 0 -115 5q-64 10 -109 43q-36 27 -55 66q-17 35 -17 84q0 28 7 80l45 -11q2 -44 29 -73q18 -19 48 -30.5t56 -15.5
q32 -5 142 -5h33l156 2q28 0 45 17q15 15 15 40l-1 17q-7 76 -29 187l-15 82l13 20q21 34 39 58t44 51l20 -199q93 87 336 199q-10 -83 -24 -138q-101 -41 -183 -88zM468.5 238.5q-16.5 -19.5 -54.5 -41.5q-25 -5 -57 -5q-41 0 -85 11q50 12 96.5 28.5t46.5 24.5q0 4 -6 5.5
t-20 1.5q-56 0 -56 39q0 43 55 74q43 20 94 30q-9 -20 -17 -34t-18 -27q-36 -9 -55 -26q0 -9 30 -9q63 0 63 -31q0 -21 -16.5 -40.5zM858 210q-25 32 -63.5 64t-78.5 47l12 -121q4 -37 24 -52q19 -14 65 -14q25 0 37.5 5t28.5 27q0 12 -25 44z" />
    <glyph glyph-name="uni06430643.fina" unicode="&#xfb91;&#xfeda;" horiz-adv-x="1155" 
d="M1155 0h-65q-59 0 -93.5 26.5t-48.5 48.5q-14 -36 -45.5 -55.5t-77.5 -19.5q-44 0 -73 12.5t-46 40.5q-19 -34 -48 -47t-83 -13q-49 0 -76 -1l-78 -1h-65q-82 0 -115 5q-64 10 -109 43q-36 27 -55 66q-17 35 -17 84q0 28 7 80l45 -11q2 -44 29 -73q18 -19 48 -30.5
t56 -15.5q32 -5 142 -5h33q92 2 156 2q31 0 46 17q14 15 14 47q0 14 -4 46q-8 67 -41 233q25 41 46.5 70t49.5 59l21 -207q50 48 145 102.5t201 104.5q-7 -70 -24 -138q-110 -43 -199 -98q37 -39 73 -79l80 -92q20 -23 32 -34.5t30 -19.5t43 -8h66v-139zM468.5 238.5
q-16.5 -19.5 -54.5 -41.5q-25 -5 -57 -5q-41 0 -85 11q50 12 96.5 28.5t46.5 24.5q0 4 -6 5.5t-20 1.5q-56 0 -56 39q0 43 55 74q43 20 94 30q-9 -20 -17 -34t-18 -27q-36 -9 -55 -26q0 -9 30 -9q63 0 63 -31q0 -21 -16.5 -40.5zM856.5 195.5q-14.5 17.5 -29.5 33.5l-20 21
l-41 41q-39 37 -53 52l15 -143q3 -27 15 -42q11 -14 25 -19.5t39 -5.5q29 0 45.5 6.5t28.5 22.5q-10 16 -24.5 33.5z" />
    <glyph glyph-name="uni064306440627" unicode="&#xfb90;&#xfee0;&#xfe8e;" horiz-adv-x="765" 
d="M636 44q-44 -44 -134 -44q-74 0 -113 31q-30 26 -44 80q-17 -34 -44.5 -67t-65.5 -54q-25 -14 -51 -20.5t-61 -11.5q-23 -3 -41 -7t-54 -15l-9 50q82 40 139.5 78.5t93.5 82.5q-15 84 -93 176q-40 47 -78 78l-14 -24q-27 18 -57.5 40t-39.5 29l9 79q2 15 11 24t23 9
q24 0 76 -39t102 -93q50 -53 77 -103q26 -46 39 -94q13 37 13 85q0 32 -7 85l-16 117q26 34 44 52t48 40l20 -196q94 86 336 196q-10 -83 -24 -138q-101 -41 -183 -88q53 -40 83 -78q55 -70 55 -155q0 -65 -40 -105zM574 210.5q-21 29.5 -59 56.5q-50 36 -97 54
q4 -55 12 -121q3 -27 15 -42q11 -14 25 -20t39 -6q36 0 54 7.5t32 26.5q0 15 -21 44.5z" />
    <glyph glyph-name="uni064306440627.fina" unicode="&#xfb91;&#xfee0;&#xfe8e;" horiz-adv-x="907" 
d="M907 0h-65q-59 0 -93.5 26.5t-48.5 48.5q-16 -44 -55.5 -59.5t-96.5 -15.5q-83 0 -122 43q-22 25 -31 68q-17 -34 -44.5 -67t-65.5 -54q-25 -14 -51 -20.5t-61 -11.5q-23 -3 -41 -7t-54 -15l-9 50q82 40 139.5 78.5t93.5 82.5q-15 84 -93 176q-40 47 -78 78l-14 -24
q-27 18 -57.5 40t-39.5 29l9 79q2 15 11 24t23 9q24 0 76 -39t102 -93q50 -53 77 -103q26 -46 39 -94q13 37 13 85q0 32 -7 85l-16 117q26 34 44 52t48 40l21 -207q50 48 145 102.5t201 104.5q-7 -70 -24 -138q-110 -43 -199 -98q37 -39 73 -79l80 -92q20 -23 32 -34.5
t30 -19.5t43 -8h66v-139zM614.5 195.5q-14.5 17.5 -29.5 33.5l-20 21q-11 13 -45 44l-49 49l15 -143q3 -27 15 -42q11 -14 25 -19.5t39 -5.5q29 0 45.5 6.5t28.5 22.5q-10 16 -24.5 33.5z" />
    <glyph glyph-name="uni064306440649" unicode="&#xfb90;&#xfee0;&#xfef0;" horiz-adv-x="942" 
d="M898 470q-101 -41 -183 -88q62 -50 94 -109q17 -33 25.5 -62t8.5 -62q0 -70 -38 -109.5t-104 -39.5q-33 0 -64.5 21.5t-47.5 57.5q-5 -18 -21 -36t-41 -27q38 -13 60 -38t22 -62q0 -57 -36 -106q-41 -57 -127 -90q-75 -29 -158 -29q-76 0 -133 31q-56 30 -80 87
q-15 34 -15 78q0 69 39 167l43 -15q-8 -37 -8 -64q0 -54 25 -83q42 -50 140 -50q62 0 130 14q51 12 82.5 28.5t31.5 38.5q-2 19 -55 33q-35 9 -109 15q0 49 13 94q39 2 81 17t61 39l-20 154q-7 51 -20 117.5t-17 86.5q25 41 46.5 70t49.5 59q7 -65 19 -195q50 45 140.5 97
t189.5 98q-10 -83 -24 -138zM734 212q-28 34 -66 67t-67 46q5 -46 13 -125q3 -31 18 -46q11 -11 24.5 -16.5t34.5 -5.5q26 0 42 8.5t29 25.5q0 12 -28 46z" />
    <glyph glyph-name="uni064306440649.fina" unicode="&#xfb91;&#xfee0;&#xfef0;" horiz-adv-x="1036" 
d="M911 470q-110 -43 -199 -98q37 -39 73 -79l80 -92q20 -23 32 -34.5t30 -19.5t43 -8h66v-139h-65q-59 0 -93.5 26.5t-48.5 48.5q-28 -75 -107 -75q-44 0 -79 21t-54 59q-5 -16 -20 -30t-38 -24q40 -12 57 -39t17 -69q0 -71 -49 -125q-44 -50 -120 -77q-68 -25 -148 -25
q-76 0 -133 31q-56 30 -80 87q-15 34 -15 78q0 69 39 167l43 -15q-8 -37 -8 -64q0 -54 25 -83q42 -50 140 -50q51 0 119 13q54 12 89.5 29.5t35.5 38.5q-2 19 -55 33q-35 9 -109 15q0 49 13 94q42 2 85 16.5t57 39.5l-20 154q-7 51 -20 117.5t-17 86.5q25 41 46.5 70
t49.5 59q14 -136 20 -204q82 81 342 204q-7 -70 -24 -138zM740.5 195.5q-14.5 17.5 -29.5 33.5l-20 21l-70 74l-19 19l15 -143q3 -31 18 -46q11 -11 24.5 -16.5t35.5 -5.5q26 0 42 7.5t28 22.5q-10 16 -24.5 33.5z" />
    <glyph glyph-name="uni06A90627" unicode="&#xfb90;&#xfe8e;" horiz-adv-x="500" 
d="M107 608h40l5 -189q98 84 328 189q-10 -83 -24 -138q-101 -41 -183 -88q53 -40 83 -78q55 -70 55 -155q0 -65 -40 -105q-44 -44 -134 -44q-81 0 -122 29q-27 20 -40 53t-13 84q0 88 -5.5 182t-16.5 163q30 50 67 97zM158 199q2 -32 15 -45t29 -17.5t42 -4.5q36 0 54 7.5
t32 26.5q0 15 -21 44.5t-59 56.5q-44 33 -95 53z" />
    <glyph glyph-name="uni06A90627.fina" unicode="&#xfb91;&#xfe8e;" horiz-adv-x="582" 
d="M107 609h40l5 -192q98 82 329 191q-7 -70 -24 -138q-110 -43 -199 -98q37 -39 73 -79l80 -92q20 -23 32 -34.5t30 -19.5t43 -8h66v-139h-65q-59 0 -93.5 26.5t-48.5 48.5q-14 -35 -52.5 -55t-93.5 -20q-85 0 -125 40q-42 42 -42 127q0 88 -5.5 182t-16.5 163q30 50 67 97
zM158 200q2 -25 10 -38t26 -23q18 -6 43 -6q29 0 45.5 6.5t28.5 22.5q-10 16 -24.5 33.5t-29.5 33.5l-20 21l-44 44q-14 12 -39 37z" />
    <glyph glyph-name="uni0644062D0649" unicode="&#xfedf;&#xfea4;&#xfef0;" horiz-adv-x="972" 
d="M868 139q-82 -1 -132 -10.5t-103 -28.5q-50 -19 -87 -40q44 -16 64 -39t20 -61q-2 -41 -24 -86q-42 -81 -140 -123q-76 -32 -172 -32q-81 0 -140 31q-57 32 -79 87q-15 35 -15 80q0 41 9 73t30 82l43 -15q-8 -35 -8 -61q0 -45 25 -76q37 -48 144 -48q72 0 135 15
q48 11 76.5 27.5t28.5 36.5q0 19 -59 37q-35 9 -66 14q7 43 13 59t22 32q15 16 80 49q49 24 120 49q-47 14 -78 19.5t-63 5.5q-21 0 -38 -2.5t-46 -10.5q17 60 29 92q2 6 25.5 10t79.5 9q25 2 34 4.5t13 8.5q5 7 5 16t-7 39q-13 55 -36 118l70 106q21 -42 38 -66.5t42 -43.5
q-21 -17 -28 -27.5t-7 -26.5q0 -17 4 -37q1 -7 3.5 -16t4.5 -21q1 -5 1 -15q0 -16 -4 -28t-8.5 -18.5t-5.5 -7.5q44 -16 58 -20q75 -23 164 -23h19q-23 -62 -54 -117z" />
    <glyph glyph-name="uni064406450649" unicode="&#xfedf;&#xfee4;&#xfef0;" horiz-adv-x="900" 
d="M830 108q0 -36 -6.5 -72t-20.5 -64q-48 34 -115.5 55t-115.5 21q30 -15 44 -36t14 -53q-2 -41 -24 -86q-42 -81 -140 -123q-76 -32 -172 -32q-81 0 -140 31q-57 32 -79 87q-15 35 -15 80q0 38 10.5 85t28.5 90l43 -15q-8 -35 -8 -68q0 -58 25 -89q37 -48 144 -48
q72 0 135 15q48 11 76.5 27.5t28.5 36.5q0 19 -59 37q-35 9 -66 14q7 43 13 59t22 32q32 26 80 36t113 9q-17 27 -34.5 102t-29.5 149q-4 24 -10.5 47.5t-12.5 38.5t-8 19l75 115q15 -39 34 -66t54 -63q-3 -2 -14 -9t-18 -20.5t-7 -32.5q0 -11 1 -18l17 -116q8 -44 20.5 -70
t35.5 -40q12 -8 33.5 -16.5t45.5 -14.5q2 -22 2 -34z" />
    <glyph glyph-name="uni064406470649" unicode="&#xfedf;&#xfeec;&#xfef0;" horiz-adv-x="994" 
d="M99 79l43 -15q-8 -32 -8 -64q0 -54 25 -83q19 -23 55.5 -36t86.5 -13q35 0 74 5.5t66 13.5q50 14 76 29t26 32q0 20 -63 38q-20 5 -36 8.5t-21 4.5l3 21q1 8 2 17t3 18q7 32 29 37q57 14 121 36q-23 18 -23 46q0 22 17 58q17 33 43 55.5t54 31.5q-14 66 -58 176l73 113
q18 -39 38 -68t47 -52q-20 -14 -30 -26t-10 -28q0 -12 7.5 -38.5t14.5 -41.5q8 -17 23.5 -31t41.5 -31q5 -4 28.5 -20t40.5 -35q36 -39 36 -88q0 -28 -10.5 -54.5t-28.5 -46.5l-57 -60q-23 17 -43.5 27.5t-54.5 24.5q-25 10 -57 25q-48 -19 -97 -22q27 -14 40 -34.5
t13 -51.5q-2 -43 -24 -85q-18 -33 -48.5 -62t-69.5 -49q-41 -21 -94.5 -33t-101.5 -12q-79 0 -136 31t-80 87q-15 35 -15 80q0 72 39 165zM639 169q26 -11 42 -11q14 0 34 11q18 14 18 28t-14 38q-5 11 -12.5 18t-14.5 7q-16 0 -44 -24q-14 -11 -25.5 -23t-13.5 -18
q7 -13 30 -26zM782 134q14 -4 27 -7l47 -11q7 14 7 30q0 18 -9 33.5t-24 24.5q-24 16 -36 22l-21 13q4 -28 3 -50q-3 -22 -20 -49z" />
    <glyph glyph-name="uniFC49.fina" unicode="&#xfee4;&#xfef0;" horiz-adv-x="1005" 
d="M1005 0h-50q-74 0 -103 55q-12 -27 -53 -66q-51 22 -88.5 45t-72.5 53q-16 -14 -70 -41q27 -14 40 -35.5t13 -52.5q0 -59 -37 -112q-41 -57 -109 -89q-83 -38 -184 -38q-79 0 -136 31t-80 87q-15 35 -15 80q0 72 39 165l43 -15q-8 -32 -8 -64q0 -54 25 -83
q19 -23 55.5 -36t86.5 -13q61 0 128 13q51 11 82.5 28.5t31.5 38.5q0 20 -63 38q-20 5 -36 8.5t-21 4.5q7 45 12.5 62.5t24.5 30.5q11 8 40 19q46 20 81 37l-9 10l57 62q7 11 18 21l1 -10q13 17 32.5 30.5t23.5 16.5q33 27 69 27q46 0 76 -40q13 -18 32 -68q14 -35 19 -43
q14 -18 37 -18h68v-139zM821 154q0 21 -10 38q-8 16 -22 24.5t-30 8.5q-18 0 -38 -11q-14 -7 -24 -18q19 -17 54.5 -42t59.5 -41q10 20 10 41z" />
    <glyph glyph-name="uniFC53.fina" unicode="&#xfeec;&#xfef0;" horiz-adv-x="1044" 
d="M1044 0h-54q-26 0 -38.5 4t-30.5 14q-13 7 -22.5 11t-22.5 4q-19 0 -33 -9t-20 -22q-5 -13 -5 -23q0 -5 1.5 -12t1.5 -10q4 -18 12 -29.5t24 -28.5q-38 -48 -84 -88q-61 39 -93 109q-31 65 -31 142q2 38 -10 56.5t-39 18.5q-22 0 -49.5 -5t-45.5 -12q-23 -8 -37 -19.5
t-14 -21.5q0 -12 10.5 -17.5t33.5 -11.5l20 -6q28 -10 45 -29.5t17 -57.5q0 -61 -24 -106q-34 -69 -111 -103q-63 -31 -152 -31q-114 0 -175 55q-28 25 -43 60.5t-15 79.5q0 40 10.5 84.5t29.5 85.5l45 -16q-12 -31 -12 -63q0 -44 19 -71q18 -27 58 -44q46 -19 104 -19
q49 0 88 8q77 17 112 64q-7 7 -21 11.5t-29 7.5q-12 2 -20 4q-48 11 -63 40q-8 16 -8 34q0 21 13 57q12 29 36 56.5t57 49.5q31 21 71 33t74 12q52 0 77 -34q9 -13 11 -28.5t3 -45.5q0 -38 4.5 -63t22.5 -48q8 50 45 80q40 32 110 32h147v-139z" />
    <glyph glyph-name="uni076A0627.isol" unicode="&#x76a;&#x627;" horiz-adv-x="495" 
d="M425.5 528q19.5 -32 49.5 -50l-38 -89l-19 11q-6 -99 -56 -177q41 -72 41 -123l-1 -15l-8 -64q-101 -27 -268 -27q-1 71 7 140l23 2q27 1 64.5 32.5t52.5 50.5q-65 99 -143 171l-12 -19q-37 21 -98 70q11 73 21 95q8 19 24 19q20 0 59 -33q29 -24 75 -73q73 -82 114 -144
q19 55 17 114v9h-63l-46 62h100l-9 38q46 35 80 80q14 -48 33.5 -80zM336 139q-2 3 -9 17t-17 26q-32 -28 -69 -49q44 2 95 6z" />
    <glyph glyph-name="f_f" unicode="ff" horiz-adv-x="568" 
d="M33 -130q27 39 37 84.5t10 138.5t-7 230q-30 1 -44 4.5t-19 12.5t-5 28q41 21 68 42q14 80 66 127.5t126 47.5q89 0 162 -35q48 35 111 35q65 0 113 -22q0 -24 -9.5 -64t-19.5 -57q-43 29 -68 43t-46 18q-16 -12 -23.5 -34.5t-9.5 -72.5q66 1 104 8q0 -47 -17 -90
q-35 11 -89 12v-43q0 -55 5 -155q2 -52 2 -65q0 -70 -31 -118t-110 -104l-33 29q27 39 37 84.5t10 139.5q0 93 -7 232h-146v-43q0 -55 5 -155q2 -52 2 -65q0 -70 -31 -118t-110 -104zM344 397q8 55 31 94h-137q-16 -11 -24 -31t-11 -63h141z" />
    <glyph glyph-name="f_f_i" unicode="ffi" horiz-adv-x="802" 
d="M33 -130q27 39 37 84.5t10 138.5t-7 230q-30 1 -44 4.5t-19 12.5t-5 28q41 21 68 42q14 80 66 127.5t126 47.5q91 0 163 -36q47 36 112 36q88 0 152 -24q0 -25 -12 -64.5t-25 -56.5q-52 30 -85 44.5t-61 18.5q-15 -12 -22.5 -34.5t-10.5 -71.5h136q36 11 68.5 15.5
t72.5 4.5q-5 -29 -8.5 -89.5t-3.5 -135.5q0 -55 3.5 -84t11 -46t24.5 -35q-21 -19 -45.5 -27.5t-43.5 -8.5q-41 0 -57.5 18t-16.5 64q0 37 2 105q2 64 2 94q0 37 -1 54h-146v-43q0 -55 5 -155q2 -52 2 -65q0 -70 -30.5 -118t-110.5 -104l-32 29q27 39 37 85.5t10 142.5
q0 92 -7 228h-148v-43q0 -55 5 -155q2 -52 2 -65q0 -70 -31 -118t-110 -104zM346 397q6 52 31 94h-139q-16 -11 -24 -31t-11 -63h143z" />
    <glyph glyph-name="uni066E.init" unicode="&#x66e;" horiz-adv-x="244" 
d="M142.5 328.5q19.5 -24.5 35.5 -62t16 -84.5q0 -62 -35 -117q-41 -65 -122 -65h-47q-29 0 -49.5 20.5t-20.5 49.5q0 31 21.5 50t48.5 19h55q22 0 45 10t34 27q-13 15 -28 28l-41 43q18 36 33 58.5t35 44.5q0 3 19.5 -21.5z" />
    <glyph glyph-name="uni066E.medi" unicode="&#x66e;" horiz-adv-x="325" 
d="M177.5 232.5q-1.5 -10.5 -1.5 -23.5q0 -33 14 -50q18 -20 61 -20h74v-139h-60q-49 0 -82 23q-16 12 -24 27q-2 -4 -9 -11.5t-17 -15.5q-33 -23 -75 -23h-68q-29 0 -49.5 20.5t-20.5 50.5q0 33 23.5 50.5t46.5 17.5h60q32 0 50 19.5t23.5 40.5t5.5 28l51 19
q-1 -3 -2.5 -13.5z" />
    <glyph glyph-name="uni066E.fina" unicode="&#x66e;" horiz-adv-x="924" 
d="M820 215q-4 -6 -14 -19.5t-19 -24.5q9 -14 28.5 -23t46.5 -9h62v-139h-65q-64 0 -104 34q-15 13 -21 24t-11 24q-50 -50 -128 -71q-81 -21 -211 -21q-88 0 -144 10q-112 20 -156 98q-24 44 -24 101q0 33 7 70l44 -10q4 -35 24 -64.5t74 -45.5q36 -10 83 -13.5t124 -3.5
q43 0 69 1.5t77 6.5q57 6 106 24.5t103 68.5z" />
    <glyph glyph-name="uni066F.fina" unicode="&#x66f;" horiz-adv-x="673" 
d="M480 290q21 -19 32 -40q24 -44 32 -111h129v-139h-126q-2 -53 -17.5 -102t-44.5 -87q-33 -43 -80 -66q-51 -24 -116 -24q-80 0 -135 30q-56 30 -80 88q-14 36 -14 72q0 37 8.5 73.5t18 60.5t12.5 30l43 -15q-2 -5 -5.5 -22.5t-3.5 -38.5q0 -49 25 -81q18 -23 51 -33
t85 -10q92 0 138 43q18 16 29 37.5t12 44.5h-33q-63 0 -92 27q-19 17 -28.5 46t-9.5 63q0 56 28 108q17 33 40 49t49 16q32 0 53 -19zM380.5 206.5q-13.5 -11.5 -13.5 -34.5q0 -16 11.5 -24.5t46.5 -8.5h48q-17 79 -61 79q-18 0 -31.5 -11.5z" />
    <glyph glyph-name="uni0676.fina" unicode="&#x676;" horiz-adv-x="615" 
d="M440 371q-32 -1 -72 -17q-23 -7 -43.5 -18t-26.5 -15q-12 0 -16 12l-1 6q0 10 13 21t35 25q-17 7 -25 18t-8 22q0 9 6 18q14 17 29 30q29 23 60 23q24 0 35.5 -11.5t13.5 -28.5l-14 -14q-19 7 -31 7q-23 0 -44 -12q6 -15 31 -22q12 -3 20 -3q3 0 21 2l45 7
q-8 -20 -28 -50zM615 0h-327q-4 -80 -24 -133q-28 -81 -82 -119q-19 -13 -41 -19t-53 -6l-22 1q-16 2 -24 2q-20 0 -44.5 -3t-37.5 -8l-30 43q3 1 13.5 6.5t30.5 16.5l106 58q38 21 69.5 51.5t48.5 63.5q13 25 16 46h-39q-56 0 -88 27q-38 32 -38 95t21 112q14 36 38.5 58
t57.5 22q55 0 86 -63q21 -42 30 -112h333v-139zM174.5 202.5q-8.5 5.5 -20.5 5.5q-19 0 -29.5 -12t-10.5 -24q0 -18 11 -25.5t40 -7.5h40q-3 27 -14 48q-8 10 -16.5 15.5z" />
    <glyph glyph-name="uni0677.fina" unicode="&#x677;" horiz-adv-x="457" 
d="M280 418q0 -12 -1 -22l-29 12q-12 -14 -25 -22q-13 -10 -34.5 -15.5t-62.5 -3.5q2 6 6 17.5t11 21.5q6 -1 19 -1q32 0 51 16q-29 15 -29 39q0 16 14 33q21 27 45 27q9 0 16 -4q18 -8 18 -31q0 -18 -12 -44l12 -5q1 -7 1 -18zM118 409q-25 -1 -60 -14q-19 -6 -36 -15.5
t-22 -12.5q-10 0 -14 10l-1 4q0 6 4 10q7 10 36 30q-14 6 -20.5 15t-6.5 18q0 7 5 15q10 14 24 25q25 19 50 19q19 0 29 -9.5t12 -23.5l-12 -12q-18 6 -26 6q-16 0 -36 -10q1 -4 7 -9.5t19 -8.5q11 -3 16 -3q4 0 18 2q2 0 37 6q-6 -16 -23 -42zM250 468q0 10 -5 15
q-9 8 -18 6q-6 -2 -9.5 -6.5t-2.5 -8.5q0 -4 4 -9t11 -9l15 -7q5 10 5 19zM457 0h-119q-4 -80 -24 -133q-28 -81 -82 -119q-19 -13 -41 -19t-53 -6l-22 1q-16 2 -24 2q-20 0 -44.5 -3t-37.5 -8l-30 43q3 1 13.5 6.5t30.5 16.5l106 58q38 21 69.5 51.5t48.5 63.5q13 25 16 46
h-39q-56 0 -88 27q-38 32 -38 95t21 112q14 36 38.5 58t57.5 22q55 0 86 -63q21 -42 30 -112h125v-139zM200 221q-23 0 -36 -14.5t-13 -28.5q0 -22 13.5 -31t48.5 -9h49q-3 34 -16 57q-17 26 -46 26z" />
    <glyph glyph-name="uni0678.init" unicode="&#x678;" horiz-adv-x="394" 
d="M142.5 328.5q19.5 -24.5 35.5 -62t16 -84.5q0 -62 -35 -117q-41 -65 -122 -65h-47q-29 0 -49.5 20.5t-20.5 49.5q0 31 21.5 50t48.5 19h55q22 0 45 10t34 27q-13 15 -28 28l-41 43q18 36 33 58.5t35 44.5q0 3 19.5 -21.5zM326 428q-32 -1 -72 -17q-23 -7 -43.5 -18
t-26.5 -15q-12 0 -16 12l-1 6q0 10 13 21t35 25q-17 7 -25 18t-8 22q0 9 6 18q14 17 29 30q29 23 60 23q24 0 35.5 -11.5t13.5 -28.5l-14 -14q-19 7 -31 7q-23 0 -44 -12q6 -15 31 -22q12 -3 20 -3q3 0 21 2l45 7q-8 -20 -28 -50z" />
    <glyph glyph-name="uni0678.medi" unicode="&#x678;" horiz-adv-x="598" 
d="M378 322q-32 -1 -72 -17q-23 -7 -43.5 -18t-26.5 -15q-12 0 -16 12l-1 6q0 10 13 21t35 25q-17 7 -25 18t-8 22q0 9 6 18q14 17 29 30q29 23 60 23q24 0 35.5 -11.5t13.5 -28.5l-14 -14q-19 7 -31 7q-23 0 -44 -12q6 -15 31 -22q12 -3 20 -3q3 0 21 2l45 7
q-8 -20 -28 -50zM177.5 232.5q-1.5 -10.5 -1.5 -23.5q0 -33 14 -50q18 -20 61 -20h347v-139h-333q-49 0 -82 23q-16 12 -24 27q-2 -4 -9 -11.5t-17 -15.5q-33 -23 -75 -23h-68q-29 0 -49.5 20.5t-20.5 50.5q0 33 23.5 50.5t46.5 17.5h60q32 0 50 19.5t23.5 40.5t5.5 28
l51 19q-1 -3 -2.5 -13.5z" />
    <glyph glyph-name="uni0678.fina" unicode="&#x678;" horiz-adv-x="885" 
d="M696 266q-32 -1 -72 -17q-23 -7 -43.5 -18t-26.5 -15q-12 0 -16 12l-1 6q0 10 13 21t35 25q-17 7 -25 18t-8 22q0 9 6 18q14 17 29 30q29 23 60 23q24 0 35.5 -11.5t13.5 -28.5l-14 -14q-19 7 -31 7q-23 0 -44 -12q6 -15 31 -22q12 -3 20 -3q3 0 21 2l45 7
q-8 -20 -28 -50zM885 0h-272q6 -22 6 -38q0 -41 -25 -88q-16 -31 -46.5 -59t-71.5 -50q-42 -22 -89 -34t-94 -12q-81 0 -140 31q-57 32 -79 87q-14 32 -14 83q0 32 10 75t28 87l43 -15q-7 -40 -7 -65q0 -52 24 -82q39 -48 144 -48q78 0 158 32q31 14 50 27.5t22 19.5
q-2 19 -54 36q-19 6 -44 10.5t-33 5.5q23 49 41.5 80.5t38.5 55.5h404v-139z" />
    <glyph glyph-name="uni067C.init" unicode="&#x67c;" horiz-adv-x="244" 
d="M-100 421q13 11 35 33.5t29 31.5q37 -20 60 -53q38 36 50 53q23 -12 41.5 -31t27.5 -38q-7 -10 -27 -31t-36 -33q-21 28 -53 55q-33 -35 -57 -55q-38 45 -70 68zM122 25q19 -26 19 -68q0 -27 -12 -46q-17 -28 -64 -28q-37 0 -53.5 22t-16.5 43q0 26 9 52h-14
q-29 0 -49.5 20.5t-20.5 49.5q0 31 21.5 50t48.5 19h55q22 0 45 10t34 27q-13 15 -28 28l-41 43q18 36 33 58.5t35 44.5q0 3 19.5 -21.5t35.5 -62t16 -84.5q0 -62 -35 -117q-15 -25 -37 -40zM96.5 -55q10.5 5 10.5 18q0 36 -42 36q-18 0 -25 -9.5t-7 -21.5q0 -28 32 -28
q21 0 31.5 5z" />
    <glyph glyph-name="uni067C.medi" unicode="&#x67c;" horiz-adv-x="325" 
d="M-93 348q13 11 35 33.5t29 31.5q37 -20 60 -53q38 36 50 53q23 -12 41.5 -31t27.5 -38q-7 -10 -27 -31t-36 -33q-21 28 -53 55q-33 -35 -57 -55q-38 45 -70 68zM325 139v-139h-60q-49 0 -82 23q-16 12 -24 27q-2 -4 -9 -11.5t-17 -15.5q-7 -5 -8 -5q14 -27 14 -61
q0 -27 -12 -46q-17 -28 -64 -28q-37 0 -53.5 22t-16.5 43q0 26 9 52h-12q-29 0 -49.5 20.5t-20.5 50.5q0 33 23.5 50.5t46.5 17.5h60q32 0 50 19.5t23.5 40.5t5.5 28l51 19q-1 -3 -2.5 -13.5t-1.5 -23.5q0 -33 14 -50q18 -20 61 -20h74zM94.5 -55q10.5 5 10.5 18
q0 36 -42 36q-18 0 -25 -9.5t-7 -21.5q0 -28 32 -28q21 0 31.5 5z" />
    <glyph glyph-name="uni067C.fina" unicode="&#x67c;" horiz-adv-x="924" 
d="M295 308q13 11 35 33.5t29 31.5q37 -20 60 -53q38 36 50 53q23 -12 41.5 -31t27.5 -38q-7 -10 -27 -31t-36 -33q-21 28 -53 55q-33 -35 -57 -55q-38 45 -70 68zM924 139v-139h-65q-64 0 -104 34q-15 13 -21 24t-11 24q-50 -50 -128 -71q-49 -13 -118 -18q7 -21 7 -45
q0 -27 -12 -46q-17 -28 -64 -28q-37 0 -53.5 22t-16.5 43q0 27 9 51q-66 3 -107 10q-112 20 -156 98q-24 44 -24 101q0 33 7 70l44 -10q4 -35 24 -64.5t74 -45.5q36 -10 83 -13.5t124 -3.5q43 0 69 1.5t77 6.5q57 6 106 24.5t103 68.5l49 -18q-4 -6 -14 -19.5t-19 -24.5
q9 -14 28.5 -23t46.5 -9h62zM439.5 -64q10.5 5 10.5 18q0 36 -42 36q-18 0 -25 -9.5t-7 -21.5q0 -28 32 -28q21 0 31.5 5z" />
    <glyph glyph-name="uni067D.fina" unicode="&#x67d;" horiz-adv-x="924" 
d="M820 215q-4 -6 -14 -19.5t-19 -24.5q9 -14 28.5 -23t46.5 -9h62v-139h-65q-64 0 -104 34q-15 13 -21 24t-11 24q-50 -50 -128 -71q-81 -21 -211 -21q-88 0 -144 10q-112 20 -156 98q-24 44 -24 101q0 33 7 70l44 -10q4 -35 24 -64.5t74 -45.5q36 -10 83 -13.5t124 -3.5
q43 0 69 1.5t77 6.5q57 6 106 24.5t103 68.5zM511 408q-20 -21 -36 -33q-21 28 -53 55q-33 -35 -57 -55q-36 45 -70 68q13 11 35 33.5t29 31.5q37 -20 60 -53q33 32 50 53q23 -11 41.5 -30.5t27.5 -38.5q-7 -10 -27 -31zM459.5 278q-20.5 -21 -36.5 -32q-33 41 -70 68
q14 11 36 33t29 32q22 -13 41.5 -32t27.5 -37q-7 -11 -27.5 -32z" />
    <glyph glyph-name="uni0689.fina" unicode="&#x689;" horiz-adv-x="554" 
d="M554 139v-139h-52q-54 0 -92 25q-33 21 -49 55q-27 -56 -92 -76q10 -23 10 -50t-12 -46q-17 -28 -64 -28q-37 0 -53.5 22t-16.5 43q0 30 11 58q-41 12 -64 41q-30 35 -30 95q0 32 7 63l49 18q0 -29 3 -43t13 -24q18 -20 61 -20h41q39 0 63.5 23.5t24.5 52.5l-38 134
q40 51 76 90l59 -203q19 -53 38.5 -72t55.5 -19h51zM203 -4q-18 0 -25 -9.5t-7 -21.5q0 -28 32 -28q21 0 31.5 5t10.5 18q0 36 -42 36z" />
    <glyph glyph-name="uni068A.fina" unicode="&#x68a;" horiz-adv-x="554" 
d="M409 230q19 -53 38.5 -72t55.5 -19h51v-139h-52q-54 0 -92 25q-33 21 -49 55q-40 -84 -158 -84q-84 0 -123 48q-30 35 -30 95q0 32 7 63l49 18q0 -29 3 -43t13 -24q18 -20 61 -20h41q39 0 63.5 23.5t24.5 52.5l-38 134q40 51 76 90zM242 -91q19 -19 28 -38
q-10 -13 -30 -33.5t-34 -30.5q-34 42 -70 68q13 10 33 31t32 34q22 -12 41 -31z" />
    <glyph glyph-name="uni068B.fina" unicode="&#x68b;" horiz-adv-x="554" 
d="M409 230q19 -53 38.5 -72t55.5 -19h51v-139h-52q-54 0 -92 25q-33 21 -49 55q-40 -84 -158 -84q-84 0 -123 48q-30 35 -30 95q0 32 7 63l49 18q0 -29 3 -43t13 -24q18 -20 61 -20h41q39 0 63.5 23.5t24.5 52.5l-38 134q40 51 76 90zM289 635q-10 -3 -12.5 -7.5
t-1.5 -15.5q1 -6 1 -20q0 -18 -2 -26q11 16 24 25t25 9q15 0 29.5 -11.5t14.5 -27.5q0 -32 -31 -56q-14 -10 -31 -16t-32 -6h-46l-13 52h32l5 10q0 25 -6.5 54t-14.5 43l31 37q9 -22 28 -44zM311 561q-11 0 -21.5 -9t-17.5 -21h26q12 0 24 5.5t16 11.5q-9 13 -27 13z
M242 -91q19 -19 28 -38q-10 -13 -30 -33.5t-34 -30.5q-34 42 -70 68q13 10 33 31t32 34q22 -12 41 -31z" />
    <glyph glyph-name="uni068F.fina" unicode="&#x68f;" horiz-adv-x="554" 
d="M409 230q19 -53 38.5 -72t55.5 -19h51v-139h-52q-54 0 -92 25q-33 21 -49 55q-40 -84 -158 -84q-84 0 -123 48q-30 35 -30 95q0 32 7 63l49 18q0 -29 3 -43t13 -24q18 -20 61 -20h41q39 0 63.5 23.5t24.5 52.5l-38 134q40 51 76 90zM385 639q-20 -21 -36 -33
q-21 28 -53 55q-33 -35 -57 -55q-36 45 -70 68q13 11 35 33.5t29 31.5q37 -20 60 -53q33 32 50 53q23 -11 41.5 -30.5t27.5 -38.5q-7 -10 -27 -31zM333.5 509q-20.5 -21 -36.5 -32q-33 41 -70 68q14 11 36 33t29 32q22 -13 41.5 -32t27.5 -37q-7 -11 -27.5 -32z" />
    <glyph glyph-name="uni0690.fina" unicode="&#x690;" horiz-adv-x="554" 
d="M409 230q19 -53 38.5 -72t55.5 -19h51v-139h-52q-54 0 -92 25q-33 21 -49 55q-40 -84 -158 -84q-84 0 -123 48q-30 35 -30 95q0 32 7 63l49 18q0 -29 3 -43t13 -24q18 -20 61 -20h41q39 0 63.5 23.5t24.5 52.5l-38 134q40 51 76 90zM201.5 572q20.5 21 29.5 32
q-31 36 -62 59q13 11 35 33.5t29 31.5q37 -20 60 -53q38 36 50 53q23 -12 41.5 -31t27.5 -38q-6 -9 -24 -28t-34 -32q19 -11 34.5 -28t23.5 -34q-7 -10 -27 -31t-36 -33q-21 28 -53 55q-33 -35 -57 -55q-38 45 -70 68q12 10 32.5 31zM293 553q32 30 49 51q-20 23 -46 46
q-26 -28 -52 -51q29 -17 49 -46z" />
    <glyph glyph-name="uni0693.fina" unicode="&#x693;" horiz-adv-x="426" 
d="M426 139v-139h-86q-24 0 -44 6q1 -55 -9.5 -100t-38.5 -93l-8 -13q24 -10 35.5 -36t11.5 -55q0 -27 -12 -46q-17 -28 -64 -28q-37 0 -53.5 22t-16.5 43q0 9 2 27q-22 -5 -42 -5q-10 0 -26 2l-25 1q-19 0 -43 -3t-37 -8l-30 43q14 8 56.5 30.5t93.5 51.5q68 38 98 67
t30 68q0 32 -18 61t-40 50t-22 19q36 64 77 108q0 -2 12.5 -19t32.5 -31q34 -23 67 -23h99zM211 -249q-18 0 -25 -9.5t-7 -21.5q0 -28 32 -28q21 0 31.5 5t10.5 18q0 36 -42 36z" />
    <glyph glyph-name="uni069A.fina" unicode="&#x69a;" horiz-adv-x="936" 
d="M936 0h-45q-37 0 -60.5 15t-30.5 32q-23 -47 -74 -47q-32 0 -47 14.5t-24 31.5q-13 -23 -24 -32.5t-35 -9.5q-18 0 -30 6l2 -42q4 -84 -34 -142q-38 -60 -109 -87q-58 -23 -131 -23q-76 0 -130 26q-63 31 -89 92q-15 35 -15 81q0 34 11 76.5t28 77.5l43 -15
q-7 -28 -7 -59q0 -49 23 -76q21 -25 59.5 -37.5t86.5 -12.5q56 0 99 10t68.5 29t25.5 47q0 22 -23.5 60.5t-65.5 93.5q29 55 73 104q40 -78 95 -78q59 0 68 86l51 19q-4 -34 -4 -47q0 -58 39 -58q28 0 41.5 24t15.5 62l51 19l-3 -23q-2 -24 -2 -29q0 -22 11 -34
q14 -15 49 -15h43v-139zM703 397q19 -19 28 -38q-10 -12 -29.5 -32.5t-34.5 -31.5q-34 42 -70 68q13 10 33 31t32 34q22 -12 41 -31zM726 -83q19 -19 28 -38q-10 -12 -29.5 -32.5t-34.5 -31.5q-34 42 -70 68q13 10 33 31t32 34q22 -12 41 -31z" />
    <glyph glyph-name="uni069B.fina" unicode="&#x69b;" horiz-adv-x="936" 
d="M936 0h-45q-37 0 -60.5 15t-30.5 32q-23 -47 -74 -47q-32 0 -47 14.5t-24 31.5q-13 -23 -24 -32.5t-35 -9.5q-18 0 -30 6l2 -42q4 -84 -34 -142q-38 -60 -109 -87q-58 -23 -131 -23q-76 0 -130 26q-63 31 -89 92q-15 35 -15 81q0 34 11 76.5t28 77.5l43 -15
q-7 -28 -7 -59q0 -49 23 -76q21 -25 59.5 -37.5t86.5 -12.5q56 0 99 10t68.5 29t25.5 47q0 22 -23.5 60.5t-65.5 93.5q29 55 73 104q40 -78 95 -78q59 0 68 86l51 19q-4 -34 -4 -47q0 -58 39 -58q28 0 41.5 24t15.5 62l51 19l-3 -23q-2 -24 -2 -29q0 -22 11 -34
q14 -15 49 -15h43v-139zM811.5 -152q-20.5 -21 -35.5 -33q-26 32 -53 56q-28 -32 -57 -56q-36 45 -70 68q13 11 35 33.5t29 31.5q37 -18 60 -53q33 32 50 53q23 -11 41.5 -30.5t27.5 -38.5q-7 -10 -27.5 -31zM760.5 -282q-20.5 -21 -36.5 -32q-29 39 -70 68q14 11 36 33
t29 32q22 -12 41.5 -31.5t27.5 -37.5q-7 -11 -27.5 -32z" />
    <glyph glyph-name="uni069C.fina" unicode="&#x69c;" horiz-adv-x="936" 
d="M936 0h-45q-37 0 -60.5 15t-30.5 32q-23 -47 -74 -47q-32 0 -47 14.5t-24 31.5q-13 -23 -24 -32.5t-35 -9.5q-18 0 -30 6l2 -42q4 -84 -34 -142q-38 -60 -109 -87q-58 -23 -131 -23q-76 0 -130 26q-63 31 -89 92q-15 35 -15 81q0 34 11 76.5t28 77.5l43 -15
q-7 -28 -7 -59q0 -49 23 -76q21 -25 59.5 -37.5t86.5 -12.5q56 0 99 10t68.5 29t25.5 47q0 22 -23.5 60.5t-65.5 93.5q29 55 73 104q40 -78 95 -78q59 0 68 86l51 19q-4 -34 -4 -47q0 -58 39 -58q28 0 41.5 24t15.5 62l51 19l-3 -23q-2 -24 -2 -29q0 -22 11 -34
q14 -15 49 -15h43v-139zM598 490q13 11 35 33.5t29 31.5q23 -11 41.5 -30.5t27.5 -38.5q-7 -10 -27.5 -31t-35.5 -33q-34 42 -70 68zM758 393.5q19 -19.5 28 -37.5q-7 -10 -27.5 -31.5t-35.5 -32.5q-26 32 -53 55q-33 -35 -57 -55q-38 45 -70 68q13 11 35 33.5t29 31.5
q37 -20 60 -53q38 36 50 53q22 -12 41 -31.5zM786.5 -162q-20.5 -21 -35.5 -33q-26 32 -53 56q-28 -32 -57 -56q-36 45 -70 68q13 11 35 33.5t29 31.5q37 -18 60 -53q33 32 50 53q23 -11 41.5 -30.5t27.5 -38.5q-7 -10 -27.5 -31zM735.5 -292q-20.5 -21 -36.5 -32
q-29 39 -70 68q14 11 36 33t29 32q22 -12 41.5 -31.5t27.5 -37.5q-7 -11 -27.5 -32z" />
    <glyph glyph-name="uni069D.fina" unicode="&#x69d;" horiz-adv-x="1111" 
d="M1111 0h-130q-23 0 -79 2l-215 3q-6 0 -31 -0.5t-39 0.5q-26 2 -49 9q3 -20 3 -58q0 -41 -16.5 -86t-56.5 -83q-35 -33 -81.5 -53t-118.5 -20t-134 29q-67 31 -90 90q-14 35 -14 83q0 34 10.5 76.5t27.5 76.5l43 -15q-7 -28 -7 -59q0 -49 23 -76q21 -25 59.5 -37.5
t86.5 -12.5q52 0 98 11q44 10 69.5 29.5t25.5 45.5q0 22 -23.5 60.5t-65.5 93.5q29 55 73 104q15 -24 41.5 -47t57.5 -26q8 13 33.5 47.5t53.5 64.5q35 38 84.5 74t97.5 36q22 0 44.5 -8.5t40.5 -22.5q22 -17 33 -38.5t11 -45.5q0 -21 -8 -47t-20 -45l-14 -21q23 5 51 5h125
v-139zM852 236q-18 13 -46 13q-33 0 -58.5 -15t-50.5 -41q-25 -25 -45 -54h89q41 0 77 13q41 15 65 39q-9 30 -31 45zM822 -83q19 -19 27 -37q-7 -10 -27.5 -31.5t-35.5 -32.5q-26 32 -53 55q-33 -35 -57 -55q-38 45 -70 68q13 11 35 33.5t29 31.5q37 -20 60 -53
q38 36 50 53q23 -13 42 -32z" />
    <glyph glyph-name="uni069E.fina" unicode="&#x69e;" horiz-adv-x="1111" 
d="M1111 0h-130q-23 0 -79 2l-215 3q-6 0 -31 -0.5t-39 0.5q-26 2 -49 9q3 -20 3 -58q0 -41 -16.5 -86t-56.5 -83q-35 -33 -81.5 -53t-118.5 -20t-134 29q-67 31 -90 90q-14 35 -14 83q0 34 10.5 76.5t27.5 76.5l43 -15q-7 -28 -7 -59q0 -49 23 -76q21 -25 59.5 -37.5
t86.5 -12.5q52 0 98 11q44 10 69.5 29.5t25.5 45.5q0 22 -23.5 60.5t-65.5 93.5q29 55 73 104q15 -24 41.5 -47t57.5 -26q8 13 33.5 47.5t53.5 64.5q35 38 84.5 74t97.5 36q22 0 44.5 -8.5t40.5 -22.5q22 -17 33 -38.5t11 -45.5q0 -21 -8 -47t-20 -45l-14 -21q23 5 51 5h125
v-139zM852 236q-18 13 -46 13q-33 0 -58.5 -15t-50.5 -41q-25 -25 -45 -54h89q41 0 77 13q41 15 65 39q-9 30 -31 45zM762 612q13 11 35 33.5t29 31.5q23 -11 41.5 -30.5t27.5 -38.5q-7 -10 -27.5 -31t-35.5 -33q-34 42 -70 68zM922 515.5q19 -19.5 28 -37.5
q-7 -10 -27.5 -31.5t-35.5 -32.5q-26 32 -53 55q-33 -35 -57 -55q-38 45 -70 68q13 11 35 33.5t29 31.5q37 -20 60 -53q38 36 50 53q22 -12 41 -31.5z" />
    <glyph glyph-name="uni069F.medi" unicode="&#x69f;" horiz-adv-x="563" 
d="M563 139v-139h-120l-48 1q-40 2 -67 2q-26 1 -86 1q-62 0 -94 -2l-103 -2h-56q-25 0 -40.5 12.5t-22 28.5t-6.5 28q0 22 16.5 46t52.5 24h49l36 40q-6 122 -32 226q-9 34 -18 59t-12 31l76 116q10 -27 33 -64t54 -66q-3 -1 -12.5 -8t-18 -21t-8.5 -34q0 -5 2 -19
q8 -60 9 -75q1 -10 1 -26q0 -22 -4 -41q39 42 80 67q43 25 89 25q18 0 39 -8.5t40 -22.5q45 -36 45 -80q0 -56 -37 -107q25 8 55 8h108zM342 190q-23 39 -76 39q-45 0 -102 -54q-16 -15 -35 -36h72q52 0 95 20q22 10 46 31zM237 599q13 11 35 33.5t29 31.5
q23 -11 41.5 -30.5t27.5 -38.5q-7 -10 -27.5 -31t-35.5 -33q-34 42 -70 68zM397 502.5q19 -19.5 28 -37.5q-7 -10 -27.5 -31.5t-35.5 -32.5q-26 32 -53 55q-33 -35 -57 -55q-38 45 -70 68q13 11 35 33.5t29 31.5q37 -20 60 -53q38 36 50 53q22 -12 41 -31.5z" />
    <glyph glyph-name="uni069F.fina" unicode="&#x69f;" horiz-adv-x="757" 
d="M757 0h-120l-48 1q-40 2 -67 2q-26 1 -86 1q-62 0 -94 -2l-103 -2q-31 0 -57 -3q-41 31 -72.5 71.5t-49.5 85.5q54 -10 172 -15l36 40q-6 122 -32 226q-9 34 -18 59t-12 31l76 116q10 -27 33 -64t54 -66q-3 -1 -12.5 -8t-18 -21t-8.5 -34q0 -5 2 -19q8 -60 9 -75
q1 -10 1 -26q0 -22 -4 -41q39 42 80 67q43 25 89 25q18 0 39 -8.5t40 -22.5q45 -36 45 -80q0 -56 -37 -107q25 8 55 8h108v-139zM460 229q-45 0 -102 -54q-16 -15 -35 -36h72q52 0 95 20q22 10 46 31q-23 39 -76 39zM441 599q13 11 35 33.5t29 31.5q23 -11 41.5 -30.5
t27.5 -38.5q-7 -10 -27.5 -31t-35.5 -33q-34 42 -70 68zM601 502.5q19 -19.5 28 -37.5q-7 -10 -27.5 -31.5t-35.5 -32.5q-26 32 -53 55q-33 -35 -57 -55q-38 45 -70 68q13 11 35 33.5t29 31.5q37 -20 60 -53q38 36 50 53q22 -12 41 -31.5z" />
    <glyph glyph-name="uni06A0.fina" unicode="&#x6a0;" horiz-adv-x="562" 
d="M561 0h-148q-37 0 -61 8.5t-42 29.5q-11 12 -26 39q-36 -12 -67 -35t-54 -53q-43 -57 -43 -126q0 -65 41 -110q43 -47 127 -62q26 -5 55 -7.5t42 -2.5q62 -2 107 -11l-17 -53q-28 1 -52 -6t-48 -20q-26 -14 -48 -21t-56 -7q-54 0 -100 19.5t-80 57.5q-29 32 -44.5 77.5
t-15.5 95.5q0 91 45 173q33 61 85 104q35 29 74 47q-31 29 -70 40q7 61 22 94q31 17 57 25t54 8q69 0 101.5 -24t32.5 -58q0 -22 -17 -45t-31 -36q12 -2 17 -2h160v-139zM233 554q13 11 35 33.5t29 31.5q23 -11 41.5 -30.5t27.5 -38.5q-7 -10 -27.5 -31t-35.5 -33
q-34 42 -70 68zM393 457.5q19 -19.5 28 -37.5q-7 -10 -27.5 -31.5t-35.5 -32.5q-26 32 -53 55q-33 -35 -57 -55q-38 45 -70 68q13 11 35 33.5t29 31.5q37 -20 60 -53q38 36 50 53q22 -12 41 -31.5z" />
    <glyph glyph-name="uni06A1.init" unicode="&#x6a1;" horiz-adv-x="332" 
d="M241.5 420q32.5 -51 39.5 -123q1 -10 1 -32q0 -56 -14 -107q-21 -78 -68 -116q-50 -42 -153 -42h-57q-30 0 -50 20t-20 50q0 31 21 50t48 19h99q45 0 73 12q31 14 46 50q-24 -8 -57 -8q-53 0 -82 27q-32 27 -32 77q0 27 8.5 58.5t24.5 58.5q35 57 88 57q52 0 84.5 -51z
M177.5 350q-11.5 20 -39.5 20q-20 0 -33 -13t-13 -32q0 -34 54 -34q18 0 29.5 3.5t20.5 11.5q-7 24 -18.5 44z" />
    <glyph glyph-name="uni06A1.medi" unicode="&#x6a1;" horiz-adv-x="444" 
d="M243 330q23 -19 36.5 -52.5t13.5 -76.5q0 -35 -10 -62h161v-139h-113q-38 0 -63 15.5t-30 30.5q-20 -19 -48 -32.5t-82 -13.5h-118q-32 0 -51 20t-19 48q0 30 20.5 50.5t49.5 20.5h73q-6 17 -6 36q0 25 11.5 57.5t30.5 59.5q20 27 44.5 42t49.5 15q27 0 50 -19z
M209.5 217q-19.5 16 -36.5 16q-18 0 -32.5 -14t-23.5 -29q3 -11 19.5 -26.5t37.5 -15.5q20 0 39 14t21 30q-5 9 -24.5 25z" />
    <glyph glyph-name="uni06A1.fina" unicode="&#x6a1;" horiz-adv-x="954" 
d="M954 0h-107q-35 0 -60.5 13.5t-36.5 38.5q-54 -30 -121 -42q-91 -17 -220 -17q-96 0 -170 12q-97 17 -138 61.5t-41 135.5q0 24 2 45.5t3 27.5l47 -11q0 -16 7 -39t39 -46q17 -13 41 -21t64 -14q57 -9 160 -9q101 0 180 10q-6 18 -6 37q0 29 11.5 61t31.5 59
q22 29 47.5 45t51.5 16q23 0 43.5 -12t33.5 -32q12 -18 20 -44.5t8 -54.5q0 -40 -13 -83q18 2 30 2h93v-139zM775.5 208.5q-9.5 13.5 -23.5 25.5t-30 12q-22 0 -40 -20.5t-26 -36.5q11 -16 28.5 -30t40.5 -14q18 0 31.5 9t21.5 20.5t8 16.5q-1 4 -10.5 17.5z" />
    <glyph glyph-name="uni06A2.fina" unicode="&#x6a2;" horiz-adv-x="954" 
d="M954 0h-107q-35 0 -60.5 13.5t-36.5 38.5q-54 -30 -121 -42q-91 -17 -220 -17q-96 0 -170 12q-97 17 -138 61.5t-41 135.5q0 24 2 45.5t3 27.5l47 -11q0 -16 7 -39t39 -46q17 -13 41 -21t64 -14q57 -9 160 -9q101 0 180 10q-6 18 -6 37q0 29 11.5 61t31.5 59
q22 29 47.5 45t51.5 16q23 0 43.5 -12t33.5 -32q12 -18 20 -44.5t8 -54.5q0 -40 -13 -83q18 2 30 2h93v-139zM775.5 208.5q-9.5 13.5 -23.5 25.5t-30 12q-22 0 -40 -20.5t-26 -36.5q11 -16 28.5 -30t40.5 -14q18 0 31.5 9t21.5 20.5t8 16.5q-1 4 -10.5 17.5zM737 -82
q19 -19 28 -38q-10 -12 -29.5 -32.5t-34.5 -31.5q-34 42 -70 68q13 10 33 31t32 34q22 -12 41 -31z" />
    <glyph glyph-name="uni06A3.fina" unicode="&#x6a3;" horiz-adv-x="954" 
d="M954 0h-107q-35 0 -60.5 13.5t-36.5 38.5q-54 -30 -121 -42q-91 -17 -220 -17q-96 0 -170 12q-97 17 -138 61.5t-41 135.5q0 24 2 45.5t3 27.5l47 -11q0 -16 7 -39t39 -46q17 -13 41 -21t64 -14q57 -9 160 -9q101 0 180 10q-6 18 -6 37q0 29 11.5 61t31.5 59
q22 29 47.5 45t51.5 16q23 0 43.5 -12t33.5 -32q12 -18 20 -44.5t8 -54.5q0 -40 -13 -83q18 2 30 2h93v-139zM775.5 208.5q-9.5 13.5 -23.5 25.5t-30 12q-22 0 -40 -20.5t-26 -36.5q11 -16 28.5 -30t40.5 -14q18 0 31.5 9t21.5 20.5t8 16.5q-1 4 -10.5 17.5zM778 520
q19 -19 28 -38q-10 -12 -29.5 -32.5t-34.5 -31.5q-34 42 -70 68q13 10 33 31t32 34q22 -12 41 -31zM737 -82q19 -19 28 -38q-10 -12 -29.5 -32.5t-34.5 -31.5q-34 42 -70 68q13 10 33 31t32 34q22 -12 41 -31z" />
    <glyph glyph-name="uni06A5.fina" unicode="&#x6a5;" horiz-adv-x="954" 
d="M954 0h-107q-35 0 -60.5 13.5t-36.5 38.5q-54 -30 -121 -42q-91 -17 -220 -17q-96 0 -170 12q-97 17 -138 61.5t-41 135.5q0 24 2 45.5t3 27.5l47 -11q0 -16 7 -39t39 -46q17 -13 41 -21t64 -14q57 -9 160 -9q101 0 180 10q-6 18 -6 37q0 29 11.5 61t31.5 59
q22 29 47.5 45t51.5 16q23 0 43.5 -12t33.5 -32q12 -18 20 -44.5t8 -54.5q0 -40 -13 -83q18 2 30 2h93v-139zM775.5 208.5q-9.5 13.5 -23.5 25.5t-30 12q-22 0 -40 -20.5t-26 -36.5q11 -16 28.5 -30t40.5 -14q18 0 31.5 9t21.5 20.5t8 16.5q-1 4 -10.5 17.5zM791.5 -151
q-20.5 -21 -35.5 -33q-26 32 -53 56q-28 -32 -57 -56q-36 45 -70 68q13 11 35 33.5t29 31.5q37 -18 60 -53q33 32 50 53q23 -11 41.5 -30.5t27.5 -38.5q-7 -10 -27.5 -31zM740.5 -281q-20.5 -21 -36.5 -32q-29 39 -70 68q14 11 36 33t29 32q22 -12 41.5 -31.5t27.5 -37.5
q-7 -11 -27.5 -32z" />
    <glyph glyph-name="uni06A7.fina" unicode="&#x6a7;" horiz-adv-x="673" 
d="M480 290q21 -19 32 -40q24 -44 32 -111h129v-139h-126q-2 -53 -17.5 -102t-44.5 -87q-33 -43 -80 -66q-51 -24 -116 -24q-80 0 -135 30q-56 30 -80 88q-14 36 -14 72q0 37 8.5 73.5t18 60.5t12.5 30l43 -15q-2 -5 -5.5 -22.5t-3.5 -38.5q0 -49 25 -81q18 -23 51 -33
t85 -10q92 0 138 43q18 16 29 37.5t12 44.5h-33q-63 0 -92 27q-19 17 -28.5 46t-9.5 63q0 56 28 108q17 33 40 49t49 16q32 0 53 -19zM380.5 206.5q-13.5 -11.5 -13.5 -34.5q0 -16 11.5 -24.5t46.5 -8.5h48q-17 79 -61 79q-18 0 -31.5 -11.5zM453 469q19 -19 28 -38
q-10 -12 -29.5 -32.5t-34.5 -31.5q-34 42 -70 68q13 10 33 31t32 34q22 -12 41 -31z" />
    <glyph glyph-name="uni06A8.fina" unicode="&#x6a8;" horiz-adv-x="673" 
d="M480 290q21 -19 32 -40q24 -44 32 -111h129v-139h-126q-2 -53 -17.5 -102t-44.5 -87q-33 -43 -80 -66q-51 -24 -116 -24q-80 0 -135 30q-56 30 -80 88q-14 36 -14 72q0 37 8.5 73.5t18 60.5t12.5 30l43 -15q-2 -5 -5.5 -22.5t-3.5 -38.5q0 -49 25 -81q18 -23 51 -33
t85 -10q92 0 138 43q18 16 29 37.5t12 44.5h-33q-63 0 -92 27q-19 17 -28.5 46t-9.5 63q0 56 28 108q17 33 40 49t49 16q32 0 53 -19zM380.5 206.5q-13.5 -11.5 -13.5 -34.5q0 -16 11.5 -24.5t46.5 -8.5h48q-17 79 -61 79q-18 0 -31.5 -11.5zM348 562q13 11 35 33.5t29 31.5
q23 -11 41.5 -30.5t27.5 -38.5q-7 -10 -27.5 -31t-35.5 -33q-34 42 -70 68zM508 465.5q19 -19.5 28 -37.5q-7 -10 -27.5 -31.5t-35.5 -32.5q-26 32 -53 55q-33 -35 -57 -55q-38 45 -70 68q13 11 35 33.5t29 31.5q37 -20 60 -53q38 36 50 53q22 -12 41 -31.5z" />
    <glyph glyph-name="uni06AA.init" unicode="&#x6aa;" horiz-adv-x="686" 
d="M609 62q-40 -55 -104 -58q-120 -5 -216 -5l-179 1h-120q-29 0 -49.5 20.5t-20.5 50.5q0 33 23.5 50.5t46.5 17.5l64 1l233 -2l63 1q30 0 44 1q44 0 65 1l97 3q-6 9 -18.5 21t-27.5 20q-34 18 -69 18l-58 -2q-27 -1 -88.5 -2.5t-109.5 -1.5q-29 0 -57 6q-56 11 -82 37
q-26 24 -26 61q0 29 14.5 61t41.5 63q40 45 85.5 71.5t116.5 50.5q-7 -66 -24 -130q-51 -16 -87 -34t-66 -44q13 -13 41 -19q23 -6 58 -6l211 5q126 0 184 -76q20 -27 28 -53.5t13 -71.5q-9 -30 -27 -56z" />
    <glyph glyph-name="uni06AA.medi" unicode="&#x6aa;" horiz-adv-x="741" 
d="M741 0h-63q-46 0 -75 25q-5 4 -14 14q-35 -32 -84 -35q-120 -5 -216 -5l-179 1h-120q-29 0 -49.5 20.5t-20.5 50.5q0 33 23.5 50.5t46.5 17.5l64 1l233 -2l63 1q30 0 44 1q44 0 65 1l97 3q-6 9 -18.5 21t-27.5 20q-34 18 -69 18l-58 -2q-27 -1 -88.5 -2.5t-109.5 -1.5
q-29 0 -57 6q-56 11 -82 37q-26 24 -26 61q0 29 14.5 61t41.5 63q40 45 85.5 71.5t116.5 50.5q-7 -66 -24 -130q-51 -16 -87 -34t-66 -44q13 -13 41 -19q23 -6 58 -6l211 5q126 0 184 -76q18 -24 26 -47.5t12 -56.5h108v-139z" />
    <glyph glyph-name="uni06AA.fina" unicode="&#x6aa;" horiz-adv-x="935" 
d="M935 0h-63q-46 0 -75 25q-9 7 -14 15q-34 -33 -85 -36q-140 -6 -212.5 -7.5t-182.5 -1.5q-116 0 -179 48q-37 29 -50.5 66.5t-13.5 70.5q0 40 6 88l45 -11q2 -26 6.5 -40.5t19.5 -29.5q36 -38 110 -47q54 -7 145 -7q61 0 151 3q74 2 109 4l97 3q-20 29 -46 42
q-34 18 -69 18l-58 -2q-27 -1 -88.5 -2.5t-109.5 -1.5q-29 0 -57 6q-56 11 -82 37q-26 24 -26 61q0 29 14.5 61t41.5 63q40 45 85.5 71.5t116.5 50.5q-7 -66 -24 -130q-51 -16 -87 -34t-66 -44q13 -13 41 -19q22 -6 58 -6l211 5q126 0 184 -76q18 -24 26 -47.5t12 -56.5h109
v-139z" />
    <glyph glyph-name="uni06AB.init" unicode="&#x6ab;" horiz-adv-x="319" 
d="M275 470l-26 -11q18 -22 18 -58q0 -21 -10 -36q-12 -23 -51 -23q-30 0 -43 17.5t-13 34.5q0 6 2 20q-24 -12 -60 -32q62 -50 94 -109q17 -33 25.5 -62t8.5 -62q0 -71 -38.5 -110t-105.5 -39h-86q-29 0 -49.5 20t-20.5 49t20.5 49.5t49.5 20.5h94q20 0 34 8.5t21 18.5
q0 17 -35.5 56t-73.5 68l-11 -24l-53 60q5 49 18 101q54 43 137.5 90.5t177.5 90.5q-10 -83 -24 -138zM231.5 392q8.5 4 8.5 14q0 29 -34 29q-14 0 -19.5 -7.5t-5.5 -17.5t5.5 -16t19.5 -6q17 0 25.5 4z" />
    <glyph glyph-name="uni06AB.medi" unicode="&#x6ab;" horiz-adv-x="412" 
d="M412 139v-139h-65q-59 0 -93.5 26.5t-48.5 48.5q-8 -21 -35 -48t-76 -27h-104q-29 0 -49.5 20t-20.5 49t20.5 49.5t49.5 20.5h96q19 0 32 7t20 16q-10 16 -24.5 33.5t-29.5 33.5l-20 21q-30 35 -81 88q4 50 13 89q84 71 315 181q-7 -70 -24 -138l-32 -13q17 -23 17 -57
q0 -21 -10 -36q-12 -23 -51 -23q-30 0 -43 17.5t-13 34.5q0 12 1 17q-34 -17 -68 -38q37 -39 73 -79l80 -92q20 -23 32 -34.5t30 -19.5t43 -8h66zM200 432l-4 -2q-10 -6 -10 -21q0 -10 5.5 -16t19.5 -6q17 0 25.5 4t8.5 14q0 29 -34 29q-5 0 -11 -2z" />
    <glyph glyph-name="uni06AB.fina" unicode="&#x6ab;" horiz-adv-x="893" 
d="M893 139v-139h-65q-43 0 -73.5 15.5t-44 29.5t-25.5 30q-9 -25 -33.5 -52.5t-76.5 -29.5q-34 -1 -94 -1q-20 -1 -60 -1h-68q-79 0 -112 5q-62 10 -103 39t-61 70q-17 35 -17 84q0 28 7 80l45 -11q3 -45 29 -73q18 -19 48 -30.5t56 -15.5q44 -5 143 -5h32h61q57 0 86 2
q33 2 51 26q-9 15 -22.5 30.5t-26.5 30.5l-23 25l-27 32l-8 -14l-53 60q6 50 19 102q85 73 315 181q-9 -79 -24 -138q-19 -7 -30 -13q17 -21 17 -57q0 -21 -10 -36q-12 -23 -51 -23q-30 0 -43 17.5t-13 34.5q0 12 1 18q-37 -20 -70 -40l73 -79q10 -11 49 -58l32 -38
q28 -30 49.5 -44t54.5 -14h66zM719.5 392q8.5 4 8.5 14q0 29 -34 29q-14 0 -19.5 -7.5t-5.5 -17.5t5.5 -16t19.5 -6q17 0 25.5 4z" />
    <glyph glyph-name="uni06B0.init" unicode="&#x6b0;" horiz-adv-x="319" 
d="M243 630q-131 -61 -248 -142l12 72q54 34 122.5 71t127.5 63zM275 470l-24 -10q17 -23 17 -57q0 -21 -10 -36q-12 -23 -51 -23q-30 0 -43 17.5t-13 34.5q0 12 1 18l-60 -32q62 -50 94 -109q17 -33 25.5 -62t8.5 -62q0 -71 -38.5 -110t-105.5 -39h-86q-29 0 -49.5 20
t-20.5 49t20.5 49.5t49.5 20.5h94q20 0 34 8.5t21 18.5q0 17 -35.5 56t-73.5 68l-11 -24l-53 60q5 49 18 101q54 43 137.5 90.5t177.5 90.5q-10 -83 -24 -138zM196 435l-4 -2q-10 -6 -10 -21q0 -10 5.5 -16t19.5 -6q17 0 25.5 4t8.5 14q0 29 -34 29q-5 0 -11 -2z" />
    <glyph glyph-name="uni06B0.medi" unicode="&#x6b0;" horiz-adv-x="412" 
d="M245 628q-131 -61 -248 -142l12 72q54 34 122.5 71t127.5 63zM412 139v-139h-65q-59 0 -93.5 26.5t-48.5 48.5q-8 -21 -35 -48t-76 -27h-104q-29 0 -49.5 20t-20.5 49t20.5 49.5t49.5 20.5h96q19 0 32 7t20 16q-10 16 -24.5 33.5t-29.5 33.5l-20 21q-30 35 -81 88
q4 50 13 89q84 71 315 181q-7 -70 -24 -138l-30 -12q17 -23 17 -58q0 -21 -10 -36q-12 -23 -51 -23q-30 0 -43 17.5t-13 34.5q0 12 1 19q-19 -10 -70 -40q37 -39 73 -79l80 -92q20 -23 32 -34.5t30 -19.5t43 -8h66zM238.5 391q8.5 4 8.5 14q0 29 -34 29q-14 0 -19.5 -7.5
t-5.5 -17.5t5.5 -16t19.5 -6q17 0 25.5 4z" />
    <glyph glyph-name="uni06B0.fina" unicode="&#x6b0;" horiz-adv-x="893" 
d="M736 628q-131 -61 -248 -142l12 72q54 34 122.5 71t127.5 63zM893 139v-139h-65q-43 0 -73.5 15.5t-44 29.5t-25.5 30q-9 -25 -33.5 -52.5t-76.5 -29.5q-34 -1 -94 -1q-20 -1 -60 -1h-68q-79 0 -112 5q-62 10 -103 39t-61 70q-17 35 -17 84q0 28 7 80l45 -11
q3 -45 29 -73q18 -19 48 -30.5t56 -15.5q44 -5 143 -5h32h61q57 0 86 2q33 2 51 26q-9 15 -22.5 30.5t-26.5 30.5l-23 25l-27 32l-8 -14l-53 60q6 50 19 102q85 73 315 181q-9 -79 -24 -138l-32 -13q18 -22 18 -58q0 -21 -10 -36q-12 -23 -51 -23q-30 0 -43 17.5t-13 34.5
q0 12 1 19q-26 -14 -69 -40l73 -79q10 -11 49 -58l32 -38q28 -30 49.5 -44t54.5 -14h66zM718.5 391q8.5 4 8.5 14q0 29 -34 29q-14 0 -19.5 -7.5t-5.5 -17.5t5.5 -16t19.5 -6q17 0 25.5 4z" />
    <glyph glyph-name="uni06BC.init" unicode="&#x6bc;" horiz-adv-x="244" 
d="M-46 428q13 10 33 31t32 34q22 -12 41 -31t28 -38q-10 -12 -29.5 -32.5t-34.5 -31.5q-34 42 -70 68zM127 29q19 -27 19 -68q0 -27 -12 -46q-17 -28 -64 -28q-37 0 -53.5 22t-16.5 43q0 27 8 48h-18q-29 0 -49.5 20.5t-20.5 49.5q0 31 21.5 50t48.5 19h55q22 0 45 10
t34 27q-13 15 -28 28l-41 43q18 36 33 58.5t35 44.5q0 3 19.5 -21.5t35.5 -62t16 -84.5q0 -62 -35 -117q-13 -20 -32 -36zM69 3l-12 -2q-19 -6 -19 -29q0 -28 32 -28q21 0 31.5 5t10.5 18q0 36 -42 36h-1z" />
    <glyph glyph-name="uni06BC.medi" unicode="&#x6bc;" horiz-adv-x="325" 
d="M-39 355q13 10 33 31t32 34q22 -12 41 -31t28 -38q-10 -12 -29.5 -32.5t-34.5 -31.5q-34 42 -70 68zM325 139v-139h-60q-49 0 -82 23q-16 12 -24 27q-2 -4 -9 -11.5t-17 -15.5l-3 -2q16 -28 16 -63q0 -27 -12 -46q-17 -28 -64 -28q-37 0 -53.5 22t-16.5 43q0 25 9 51h-19
q-29 0 -49.5 20.5t-20.5 50.5q0 33 23.5 50.5t46.5 17.5h60q32 0 50 19.5t23.5 40.5t5.5 28l51 19q-1 -3 -2.5 -13.5t-1.5 -23.5q0 -33 14 -50q18 -20 61 -20h74zM101.5 -54q10.5 5 10.5 18q0 36 -42 36q-18 0 -25 -9.5t-7 -21.5q0 -28 32 -28q21 0 31.5 5z" />
    <glyph glyph-name="uni06BC.fina" unicode="&#x6bc;" horiz-adv-x="698" 
d="M698 139v-139h-80q-29 0 -49 6q2 -24 2 -38q0 -104 -59 -170q-40 -44 -105 -66q-9 -3 -37 -10q9 -24 9 -49q0 -27 -12 -46q-17 -28 -64 -28q-37 0 -53.5 22t-16.5 43q0 30 10 54q-51 8 -86 27q-60 31 -82 88q-15 39 -15 80q0 31 11.5 78.5t27.5 76.5l43 -15
q-7 -40 -7 -63q0 -45 22 -72q19 -23 57 -36q42 -14 91 -14q48 0 82 7q51 9 80.5 30t29.5 51q0 47 -84 157q35 57 68 99l9 -13q42 -60 99 -60h109zM222 55q13 10 33 31t32 34q22 -12 41 -31t28 -38q-10 -12 -29.5 -32.5t-34.5 -31.5q-34 42 -70 68zM334.5 -339
q10.5 5 10.5 18q0 36 -42 36q-18 0 -25 -9.5t-7 -21.5q0 -28 32 -28q21 0 31.5 5z" />
    <glyph glyph-name="uni06C2.medi" unicode="&#x6c2;" horiz-adv-x="478" 
d="M478 0h-167q21 -30 21 -66q0 -39 -25 -74q-31 -45 -82 -45q-32 0 -62.5 16.5t-54.5 46.5q-37 48 -45 109q-20 -9 -47 -25l7 38h-33q-29 0 -49.5 20.5t-20.5 49.5q0 30 21.5 49.5t48.5 19.5h90q19 72 66 124q26 29 52 45t63 29q25 -34 36.5 -60.5t11.5 -53.5
q0 -48 -34 -94q21 10 49 10h154v-139zM221 241q-30 -25 -45 -50q-19 -25 -29 -53l26 10q30 11 48 21q23 14 23 28q0 11 -23 44zM135 1q12 -42 50 -66q37 -23 96 -26q-8 43 -52 66q-39 21 -94 26zM238 427q-32 -1 -72 -17q-23 -7 -43.5 -18t-26.5 -15q-12 0 -16 12l-1 6
q0 10 13 21t35 25q-17 7 -25 18t-8 22q0 9 6 18q14 17 29 30q29 23 60 23q24 0 35.5 -11.5t13.5 -28.5l-14 -14q-19 7 -31 7q-23 0 -44 -12q6 -15 31 -22q12 -3 20 -3q3 0 21 2l45 7q-8 -20 -28 -50z" />
    <glyph glyph-name="uni06C2.fina" unicode="&#x6c2;" horiz-adv-x="450" 
d="M450 0h-49q-62 0 -96 39q-14 16 -23 36t-22 58q-7 -17 -44 -65q-30 -4 -44 -4q-40 0 -71 13q-41 18 -41 52q0 6 1 10l10 60q3 18 16.5 34t32.5 28q18 11 42 20.5t43 13.5l-8 24q22 25 39 39.5t44 32.5q33 -115 48 -163q9 -31 18 -50t23.5 -29t38.5 -10h42v-139z
M216.5 182.5q9.5 10.5 18.5 30.5l-11 33l-10 -22q-45 0 -54 -2q-18 -4 -30.5 -17t-12.5 -27v-6h74q16 0 25.5 10.5zM200 455q-32 -1 -72 -17q-23 -7 -43.5 -18t-26.5 -15q-12 0 -16 12l-1 6q0 10 13 21t35 25q-17 7 -25 18t-8 22q0 9 6 18q14 17 29 30q29 23 60 23
q24 0 35.5 -11.5t13.5 -28.5l-14 -14q-19 7 -31 7q-23 0 -44 -12q6 -15 31 -22q12 -3 20 -3q3 0 21 2l45 7q-8 -20 -28 -50z" />
    <glyph glyph-name="uni06C3.fina" unicode="&#x6c3;" horiz-adv-x="462" 
d="M462 0h-57q-48 0 -80 30q-12 11 -20.5 24t-18.5 33q-12 22 -23.5 34t-28.5 12q-37 0 -75 -67q-19 -34 -37 -77l-62 -18q34 106 66 164q31 56 62 83t65 27q29 0 48.5 -16t37.5 -42q15 -23 31 -35.5t37 -12.5h55v-139zM295.5 395q18.5 -19 27.5 -38q-7 -10 -27 -31t-36 -33
q-21 28 -53 55q-33 -35 -57 -55q-38 45 -70 68q13 11 35 33.5t29 31.5q37 -20 60 -53q38 36 50 53q23 -12 41.5 -31z" />
    <glyph glyph-name="uni06C4.fina" unicode="&#x6c4;" horiz-adv-x="477" 
d="M477 139v-139h-119q-4 -80 -24 -133q-28 -81 -82 -119q-19 -13 -41 -19t-53 -6l-22 1q-16 2 -24 2q-20 0 -44.5 -3t-37.5 -8l-30 43q3 1 13.5 6.5t30.5 16.5l98 54q-12 8 -17.5 20.5t-5.5 22.5q0 32 15 58.5t41 26.5t40.5 -16t18.5 -41q20 21 34 48q13 25 16 46h-39
q-56 0 -88 27q-38 32 -38 95t21 112q14 36 38.5 58t57.5 22q55 0 86 -63q21 -42 30 -112h125zM282 138q-3 34 -16 57q-17 26 -46 26q-23 0 -36 -14.5t-13 -28.5q0 -22 13.5 -31t48.5 -9h49zM155.5 -88.5q-5.5 -7.5 -5.5 -17.5t5.5 -16t19.5 -6q17 0 25.5 4t8.5 14
q0 29 -34 29q-14 0 -19.5 -7.5z" />
    <glyph glyph-name="uni06CA.fina" unicode="&#x6ca;" horiz-adv-x="457" 
d="M457 0h-119q-4 -80 -24 -133q-28 -81 -82 -119q-19 -13 -41 -19t-53 -6l-22 1q-16 2 -24 2q-20 0 -44.5 -3t-37.5 -8l-30 43q3 1 13.5 6.5t30.5 16.5l106 58q38 21 69.5 51.5t48.5 63.5q13 25 16 46h-39q-56 0 -88 27q-38 32 -38 95t21 112q14 36 38.5 58t57.5 22
q55 0 86 -63q21 -42 30 -112h125v-139zM200 221q-23 0 -36 -14.5t-13 -28.5q0 -22 13.5 -31t48.5 -9h49q-3 34 -16 57q-17 26 -46 26zM310.5 464q18.5 -19 27.5 -38q-7 -10 -27 -31t-36 -33q-21 28 -53 55q-33 -35 -57 -55q-38 45 -70 68q13 11 35 33.5t29 31.5
q37 -20 60 -53q38 36 50 53q23 -12 41.5 -31z" />
    <glyph glyph-name="uni06CD.fina" unicode="&#x6cd;" horiz-adv-x="753" 
d="M753 0h-127q6 -22 6 -38q0 -41 -25 -88q-22 -42 -63.5 -74.5t-95.5 -52.5q-76 -28 -155 -28q-81 0 -140 31q-57 32 -79 87q-16 35 -14 98q2 30 8 53l-50 -23l-45 62q56 15 125 55l43 -15q-7 -40 -7 -65q0 -52 24 -82q39 -48 144 -48q62 0 119 11q49 10 81.5 27.5
t42.5 40.5q-2 19 -54 36q-19 6 -44 10.5t-33 5.5q23 49 41.5 80.5t38.5 55.5h259v-139z" />
    <glyph glyph-name="uni06CF.fina" unicode="&#x6cf;" horiz-adv-x="457" 
d="M457 0h-119q-4 -80 -24 -133q-28 -81 -82 -119q-19 -13 -41 -19t-53 -6l-22 1q-16 2 -24 2q-20 0 -44.5 -3t-37.5 -8l-30 43q3 1 13.5 6.5t30.5 16.5l106 58q38 21 69.5 51.5t48.5 63.5q13 25 16 46h-39q-56 0 -88 27q-38 32 -38 95t21 112q14 36 38.5 58t57.5 22
q55 0 86 -63q21 -42 30 -112h125v-139zM200 221q-23 0 -36 -14.5t-13 -28.5q0 -22 13.5 -31t48.5 -9h49q-3 34 -16 57q-17 26 -46 26zM255 471q19 -19 28 -38q-10 -12 -29.5 -32.5t-34.5 -31.5q-34 42 -70 68q13 10 33 31t32 34q22 -12 41 -31z" />
    <glyph glyph-name="uni06EE.fina" unicode="&#x6ee;" horiz-adv-x="554" 
d="M409 230q19 -53 38.5 -72t55.5 -19h51v-139h-52q-54 0 -92 25q-33 21 -49 55q-40 -84 -158 -84q-84 0 -123 48q-30 35 -30 95q0 32 7 63l49 18q0 -29 3 -43t13 -24q18 -20 61 -20h41q39 0 63.5 23.5t24.5 52.5l-38 134q40 51 76 90zM269 593q7 18 10 49h22q3 -26 9 -48
q15 -41 52 -84q-5 -17 -17 -37q-20 26 -28 39l-14 23q-12 26 -13 30l-13 -29q-10 -16 -16 -24q-9 -15 -27 -39q-11 20 -17 37q35 39 52 83z" />
    <glyph glyph-name="uni06FA.fina" unicode="&#x6fa;" horiz-adv-x="936" 
d="M936 0h-45q-37 0 -60.5 15t-30.5 32q-23 -47 -74 -47q-32 0 -47 14.5t-24 31.5q-13 -23 -24 -32.5t-35 -9.5q-18 0 -30 6l2 -42q4 -84 -34 -142q-38 -60 -109 -87q-58 -23 -131 -23q-76 0 -130 26q-63 31 -89 92q-15 35 -15 81q0 34 11 76.5t28 77.5l43 -15
q-7 -28 -7 -59q0 -49 23 -76q21 -25 59.5 -37.5t86.5 -12.5q56 0 99 10t68.5 29t25.5 47q0 22 -23.5 60.5t-65.5 93.5q29 55 73 104q40 -78 95 -78q59 0 68 86l51 19q-4 -34 -4 -47q0 -58 39 -58q28 0 41.5 24t15.5 62l51 19l-3 -23q-2 -24 -2 -29q0 -22 11 -34
q14 -15 49 -15h43v-139zM598 490q13 11 35 33.5t29 31.5q23 -11 41.5 -30.5t27.5 -38.5q-7 -10 -27.5 -31t-35.5 -33q-34 42 -70 68zM758 393.5q19 -19.5 28 -37.5q-7 -10 -27.5 -31.5t-35.5 -32.5q-26 32 -53 55q-33 -35 -57 -55q-38 45 -70 68q13 11 35 33.5t29 31.5
q37 -20 60 -53q38 36 50 53q22 -12 41 -31.5zM726 -83q19 -19 28 -38q-10 -12 -29.5 -32.5t-34.5 -31.5q-34 42 -70 68q13 10 33 31t32 34q22 -12 41 -31z" />
    <glyph glyph-name="uni06FB.fina" unicode="&#x6fb;" horiz-adv-x="1111" 
d="M1111 0h-130q-23 0 -79 2l-215 3q-6 0 -31 -0.5t-39 0.5q-26 2 -49 9q3 -20 3 -58q0 -41 -16.5 -86t-56.5 -83q-35 -33 -81.5 -53t-118.5 -20t-134 29q-67 31 -90 90q-14 35 -14 83q0 34 10.5 76.5t27.5 76.5l43 -15q-7 -28 -7 -59q0 -49 23 -76q21 -25 59.5 -37.5
t86.5 -12.5q52 0 98 11q44 10 69.5 29.5t25.5 45.5q0 22 -23.5 60.5t-65.5 93.5q29 55 73 104q15 -24 41.5 -47t57.5 -26q8 13 33.5 47.5t53.5 64.5q35 38 84.5 74t97.5 36q22 0 44.5 -8.5t40.5 -22.5q22 -17 33 -38.5t11 -45.5q0 -21 -8 -47t-20 -45l-14 -21q23 5 51 5h125
v-139zM852 236q-18 13 -46 13q-33 0 -58.5 -15t-50.5 -41q-25 -25 -45 -54h89q41 0 77 13q41 15 65 39q-9 30 -31 45zM867 519q19 -19 28 -38q-10 -12 -29.5 -32.5t-34.5 -31.5q-34 42 -70 68q13 10 33 31t32 34q22 -12 41 -31zM766 -69q19 -19 28 -38q-10 -12 -29.5 -32.5
t-34.5 -31.5q-34 42 -70 68q13 10 33 31t32 34q22 -12 41 -31z" />
    <glyph glyph-name="uni06FC.fina" unicode="&#x6fc;" horiz-adv-x="562" 
d="M561 0h-148q-37 0 -61 8.5t-42 29.5q-11 12 -26 39q-36 -12 -67 -35t-54 -53q-43 -57 -43 -126q0 -65 41 -110q43 -47 127 -62q26 -5 55 -7.5t42 -2.5q62 -2 107 -11l-17 -53q-28 1 -52 -6t-48 -20q-26 -14 -48 -21t-56 -7q-54 0 -100 19.5t-80 57.5q-29 32 -44.5 77.5
t-15.5 95.5q0 91 45 173q33 61 85 104q35 29 74 47q-31 29 -70 40q7 61 22 94q31 17 57 25t54 8q69 0 101.5 -24t32.5 -58q0 -22 -17 -45t-31 -36q12 -2 17 -2h160v-139zM338 461q19 -19 28 -38q-10 -12 -29.5 -32.5t-34.5 -31.5q-34 42 -70 68q13 10 33 31t32 34
q22 -12 41 -31zM326 -105q19 -19 28 -38q-10 -12 -29.5 -32.5t-34.5 -31.5q-34 42 -70 68q13 10 33 31t32 34q22 -12 41 -31z" />
    <glyph glyph-name="uni06FF.medi" unicode="&#x6ff;" horiz-adv-x="511" 
d="M511 0h-60q-49 0 -82 23q-11 8 -23 24l-25 -28l-30 -31q-79 44 -120 56q-41 -44 -128 -44h-53q-34 0 -52 21t-18 47q0 29 20.5 50t49.5 21h43q-7 21 -7 37q-2 41 23 75q20 30 57 45l-8 5q-11 7 -11 20q0 14 12 35q9 17 17 29.5t13 21.5q15 -10 28.5 -18t34.5 -18
q29 -14 61 -33q65 -39 97 -85q37 -49 38 -103q8 -7 19.5 -9t29.5 -2h74v-139zM173 252.5q-7 7.5 -15 7.5q-16 0 -51 -29q-20 -19 -32 -36q9 -14 26 -23q27 -14 46 -14q13 0 33 11q10 7 14.5 15.5t4.5 12.5t-4 15.5t-11 22.5q-4 10 -11 17.5zM240 237q4 -16 4 -35
q0 -12 -1 -18q-5 -23 -19 -46l88 -24q1 41 -22 75q-17 25 -50 48zM108 577q7 18 10 49h22q3 -26 9 -48q15 -41 52 -84q-5 -17 -17 -37q-20 26 -28 39l-14 23q-12 26 -13 30l-13 -29q-10 -16 -16 -24q-9 -15 -27 -39q-11 20 -17 37q35 39 52 83z" />
    <glyph glyph-name="uni06FF.fina" unicode="&#x6ff;" horiz-adv-x="697" 
d="M697 0h-60q-40 0 -69 15q-20 10 -36 32q-5 -10 -27 -32l-28 -27q-26 14 -65 33.5t-62 27.5q-56 -50 -122 -61q-34 -6 -73 -6q-44 0 -95 9l12 38q108 36 153 72q-18 25 -18 61q0 24 7.5 48t20.5 41q20 30 57 45l-8 5q-11 7 -11 20q0 14 12 35q9 17 17 29.5t13 21.5
q15 -10 28.5 -18t34.5 -18q29 -14 61 -33q65 -39 97 -85q37 -49 38 -103q8 -7 19.5 -9t29.5 -2h74v-139zM359 252.5q-7 7.5 -15 7.5q-16 0 -51 -29q-20 -19 -32 -36q9 -14 26 -23q27 -14 46 -14q13 0 33 11q10 7 14.5 15.5t4.5 12.5t-4 15.5t-11 22.5q-4 10 -11 17.5z
M426 238q1 -7 2 -16t1 -21q0 -11 -1 -16q-2 -16 -19 -46l88 -24q1 40 -22 76q-19 26 -49 47zM294 577q7 18 10 49h22q3 -26 9 -48q15 -41 52 -84q-5 -17 -17 -37q-20 26 -28 39l-14 23q-12 26 -13 30l-13 -29q-10 -16 -16 -24q-9 -15 -27 -39q-11 20 -17 37q35 39 52 83z
" />
    <glyph glyph-name="uniFB51" unicode="&#x671;" horiz-adv-x="276" arabic-form="final" 
d="M153 648q-23 -27 -61 -27q-19 0 -37 11q-2 1 -8.5 4t-12.5 3q-11 0 -19.5 -4.5t-20.5 -17.5q5 39 6 44q2 7 8 13.5t14 10.5q7 3 17 3q7 0 10 -1q9 14 19 26q28 34 58 34q15 0 32.5 -12t17.5 -30q0 -30 -23 -57zM123 711q-22 0 -50 -30q9 -3 28 -3q35 0 50 13
q-10 20 -28 20zM276 0h-93q-68 0 -103 46q-36 48 -36 120q0 195 -17 327q25 35 62 78h40l11 -372q2 -32 15 -45q15 -15 46 -15h75v-139z" />
    <glyph glyph-name="uniFB53" unicode="&#x67b;" horiz-adv-x="924" arabic-form="final" 
d="M820 215q-4 -6 -14 -19.5t-19 -24.5q9 -14 28.5 -23t46.5 -9h62v-139h-65q-64 0 -104 34q-15 13 -21 24t-11 24q-50 -50 -128 -71q-81 -21 -211 -21q-88 0 -144 10q-112 20 -156 98q-24 44 -24 101q0 33 7 70l44 -10q4 -35 24 -64.5t74 -45.5q36 -10 83 -13.5t124 -3.5
q43 0 69 1.5t77 6.5q57 6 106 24.5t103 68.5zM474 -264q-7 -10 -27.5 -31.5t-35.5 -32.5q-38 45 -70 68q11 9 28 25.5t29 30.5q-24 29 -57 53q13 11 35 33.5t29 31.5q23 -12 41.5 -31t27.5 -38q-5 -7 -20 -23t-29 -29q37 -29 49 -57z" />
    <glyph glyph-name="uniFB54" unicode="&#x67b;" horiz-adv-x="244" arabic-form="initial" 
d="M142.5 328.5q19.5 -24.5 35.5 -62t16 -84.5q0 -62 -35 -117q-41 -65 -122 -65h-47q-29 0 -49.5 20.5t-20.5 49.5q0 31 21.5 50t48.5 19h55q22 0 45 10t34 27q-13 15 -28 28l-41 43q18 36 33 58.5t35 44.5q0 3 19.5 -21.5zM85 -245q-7 -10 -27.5 -31.5t-35.5 -32.5
q-38 45 -70 68q11 9 28 25.5t29 30.5q-24 29 -57 53q13 11 35 33.5t29 31.5q23 -12 41.5 -31t27.5 -38q-5 -7 -20 -23t-29 -29q37 -29 49 -57z" />
    <glyph glyph-name="uniFB55" unicode="&#x67b;" horiz-adv-x="325" arabic-form="medial" 
d="M177.5 232.5q-1.5 -10.5 -1.5 -23.5q0 -33 14 -50q18 -20 61 -20h74v-139h-60q-49 0 -82 23q-16 12 -24 27q-2 -4 -9 -11.5t-17 -15.5q-33 -23 -75 -23h-68q-29 0 -49.5 20.5t-20.5 50.5q0 33 23.5 50.5t46.5 17.5h60q32 0 50 19.5t23.5 40.5t5.5 28l51 19
q-1 -3 -2.5 -13.5zM76 -244q-7 -10 -27.5 -31.5t-35.5 -32.5q-38 45 -70 68q11 9 28 25.5t29 30.5q-24 29 -57 53q13 11 35 33.5t29 31.5q23 -12 41.5 -31t27.5 -38q-5 -7 -20 -23t-29 -29q37 -29 49 -57z" />
    <glyph glyph-name="uniFB57" unicode="&#x67e;" horiz-adv-x="924" arabic-form="final" 
d="M820 215q-4 -6 -14 -19.5t-19 -24.5q9 -14 28.5 -23t46.5 -9h62v-139h-65q-64 0 -104 34q-15 13 -21 24t-11 24q-50 -50 -128 -71q-81 -21 -211 -21q-88 0 -144 10q-112 20 -156 98q-24 44 -24 101q0 33 7 70l44 -10q4 -35 24 -64.5t74 -45.5q36 -10 83 -13.5t124 -3.5
q43 0 69 1.5t77 6.5q57 6 106 24.5t103 68.5zM502.5 -185q-20.5 -21 -35.5 -33q-26 32 -53 56q-28 -32 -57 -56q-36 45 -70 68q13 11 35 33.5t29 31.5q37 -18 60 -53q33 32 50 53q23 -11 41.5 -30.5t27.5 -38.5q-7 -10 -27.5 -31zM451.5 -315q-20.5 -21 -36.5 -32
q-29 39 -70 68q14 11 36 33t29 32q22 -12 41.5 -31.5t27.5 -37.5q-7 -11 -27.5 -32z" />
    <glyph glyph-name="uniFB58" unicode="&#x67e;" horiz-adv-x="244" arabic-form="initial" 
d="M142.5 328.5q19.5 -24.5 35.5 -62t16 -84.5q0 -62 -35 -117q-41 -65 -122 -65h-47q-29 0 -49.5 20.5t-20.5 49.5q0 31 21.5 50t48.5 19h55q22 0 45 10t34 27q-13 15 -28 28l-41 43q18 36 33 58.5t35 44.5q0 3 19.5 -21.5zM113.5 -166q-20.5 -21 -35.5 -33q-26 32 -53 56
q-28 -32 -57 -56q-36 45 -70 68q13 11 35 33.5t29 31.5q37 -18 60 -53q33 32 50 53q23 -11 41.5 -30.5t27.5 -38.5q-7 -10 -27.5 -31zM62.5 -296q-20.5 -21 -36.5 -32q-29 39 -70 68q14 11 36 33t29 32q22 -12 41.5 -31.5t27.5 -37.5q-7 -11 -27.5 -32z" />
    <glyph glyph-name="uniFB59" unicode="&#x67e;" horiz-adv-x="325" arabic-form="medial" 
d="M177.5 232.5q-1.5 -10.5 -1.5 -23.5q0 -33 14 -50q18 -20 61 -20h74v-139h-60q-49 0 -82 23q-16 12 -24 27q-2 -4 -9 -11.5t-17 -15.5q-33 -23 -75 -23h-68q-29 0 -49.5 20.5t-20.5 50.5q0 33 23.5 50.5t46.5 17.5h60q32 0 50 19.5t23.5 40.5t5.5 28l51 19
q-1 -3 -2.5 -13.5zM104.5 -165q-20.5 -21 -35.5 -33q-26 32 -53 56q-28 -32 -57 -56q-36 45 -70 68q13 11 35 33.5t29 31.5q37 -18 60 -53q33 32 50 53q23 -11 41.5 -30.5t27.5 -38.5q-7 -10 -27.5 -31zM53.5 -295q-20.5 -21 -36.5 -32q-29 39 -70 68q14 11 36 33t29 32
q22 -12 41.5 -31.5t27.5 -37.5q-7 -11 -27.5 -32z" />
    <glyph glyph-name="uniFB5B" unicode="&#x680;" horiz-adv-x="924" arabic-form="final" 
d="M820 215q-4 -6 -14 -19.5t-19 -24.5q9 -14 28.5 -23t46.5 -9h62v-139h-65q-64 0 -104 34q-15 13 -21 24t-11 24q-50 -50 -128 -71q-81 -21 -211 -21q-88 0 -144 10q-112 20 -156 98q-24 44 -24 101q0 33 7 70l44 -10q4 -35 24 -64.5t74 -45.5q36 -10 83 -13.5t124 -3.5
q43 0 69 1.5t77 6.5q57 6 106 24.5t103 68.5zM321 -224.5q21 21.5 29 31.5q-34 38 -63 59q13 11 35 33.5t29 31.5q37 -20 60 -53q38 36 50 53q23 -12 41.5 -31t27.5 -38q-6 -9 -24 -28t-33 -32q19 -13 34.5 -29.5t22.5 -32.5q-7 -10 -27 -31t-36 -33q-21 28 -53 55
q-33 -35 -57 -55q-38 45 -70 68q13 10 34 31.5zM411 -244q38 36 49 51q-18 23 -46 46q-14 -16 -51 -51q33 -22 48 -46z" />
    <glyph glyph-name="uniFB5C" unicode="&#x680;" horiz-adv-x="244" arabic-form="initial" 
d="M142.5 328.5q19.5 -24.5 35.5 -62t16 -84.5q0 -62 -35 -117q-41 -65 -122 -65h-47q-29 0 -49.5 20.5t-20.5 49.5q0 31 21.5 50t48.5 19h55q22 0 45 10t34 27q-13 15 -28 28l-41 43q18 36 33 58.5t35 44.5q0 3 19.5 -21.5zM-68 -205.5q21 21.5 29 31.5q-34 38 -63 59
q13 11 35 33.5t29 31.5q37 -20 60 -53q38 36 50 53q23 -12 41.5 -31t27.5 -38q-6 -9 -24 -28t-33 -32q19 -13 34.5 -29.5t22.5 -32.5q-7 -10 -27 -31t-36 -33q-21 28 -53 55q-33 -35 -57 -55q-38 45 -70 68q13 10 34 31.5zM22 -225q38 36 49 51q-18 23 -46 46
q-14 -16 -51 -51q33 -22 48 -46z" />
    <glyph glyph-name="uniFB5D" unicode="&#x680;" horiz-adv-x="325" arabic-form="medial" 
d="M177.5 232.5q-1.5 -10.5 -1.5 -23.5q0 -33 14 -50q18 -20 61 -20h74v-139h-60q-49 0 -82 23q-16 12 -24 27q-2 -4 -9 -11.5t-17 -15.5q-33 -23 -75 -23h-68q-29 0 -49.5 20.5t-20.5 50.5q0 33 23.5 50.5t46.5 17.5h60q32 0 50 19.5t23.5 40.5t5.5 28l51 19
q-1 -3 -2.5 -13.5zM-77 -204.5q21 21.5 29 31.5q-34 38 -63 59q13 11 35 33.5t29 31.5q37 -20 60 -53q38 36 50 53q23 -12 41.5 -31t27.5 -38q-6 -9 -24 -28t-33 -32q19 -13 34.5 -29.5t22.5 -32.5q-7 -10 -27 -31t-36 -33q-21 28 -53 55q-33 -35 -57 -55q-38 45 -70 68
q13 10 34 31.5zM13 -224q38 36 49 51q-18 23 -46 46q-14 -16 -51 -51q33 -22 48 -46z" />
    <glyph glyph-name="uniFB5F" unicode="&#x67a;" horiz-adv-x="924" arabic-form="final" 
d="M820 215q-4 -6 -14 -19.5t-19 -24.5q9 -14 28.5 -23t46.5 -9h62v-139h-65q-64 0 -104 34q-15 13 -21 24t-11 24q-50 -50 -128 -71q-81 -21 -211 -21q-88 0 -144 10q-112 20 -156 98q-24 44 -24 101q0 33 7 70l44 -10q4 -35 24 -64.5t74 -45.5q36 -10 83 -13.5t124 -3.5
q43 0 69 1.5t77 6.5q57 6 106 24.5t103 68.5zM481 312q-7 -10 -27.5 -31.5t-35.5 -32.5q-38 45 -70 68q11 9 28 25.5t29 30.5q-24 29 -57 53q13 11 35 33.5t29 31.5q23 -12 41.5 -31t27.5 -38q-5 -7 -20 -23t-29 -29q37 -29 49 -57z" />
    <glyph glyph-name="uniFB60" unicode="&#x67a;" horiz-adv-x="244" arabic-form="initial" 
d="M142.5 328.5q19.5 -24.5 35.5 -62t16 -84.5q0 -62 -35 -117q-41 -65 -122 -65h-47q-29 0 -49.5 20.5t-20.5 49.5q0 31 21.5 50t48.5 19h55q22 0 45 10t34 27q-13 15 -28 28l-41 43q18 36 33 58.5t35 44.5q0 3 19.5 -21.5zM86 425q-7 -10 -27.5 -31.5t-35.5 -32.5
q-38 45 -70 68q11 9 28 25.5t29 30.5q-24 29 -57 53q13 11 35 33.5t29 31.5q23 -12 41.5 -31t27.5 -38q-5 -7 -20 -23t-29 -29q37 -29 49 -57z" />
    <glyph glyph-name="uniFB61" unicode="&#x67a;" horiz-adv-x="325" arabic-form="medial" 
d="M177.5 232.5q-1.5 -10.5 -1.5 -23.5q0 -33 14 -50q18 -20 61 -20h74v-139h-60q-49 0 -82 23q-16 12 -24 27q-2 -4 -9 -11.5t-17 -15.5q-33 -23 -75 -23h-68q-29 0 -49.5 20.5t-20.5 50.5q0 33 23.5 50.5t46.5 17.5h60q32 0 50 19.5t23.5 40.5t5.5 28l51 19
q-1 -3 -2.5 -13.5zM93 352q-7 -10 -27.5 -31.5t-35.5 -32.5q-38 45 -70 68q11 9 28 25.5t29 30.5q-24 29 -57 53q13 11 35 33.5t29 31.5q23 -12 41.5 -31t27.5 -38q-5 -7 -20 -23t-29 -29q37 -29 49 -57z" />
    <glyph glyph-name="uniFB63" unicode="&#x67f;" horiz-adv-x="924" arabic-form="final" 
d="M820 215q-4 -6 -14 -19.5t-19 -24.5q9 -14 28.5 -23t46.5 -9h62v-139h-65q-64 0 -104 34q-15 13 -21 24t-11 24q-50 -50 -128 -71q-81 -21 -211 -21q-88 0 -144 10q-112 20 -156 98q-24 44 -24 101q0 33 7 70l44 -10q4 -35 24 -64.5t74 -45.5q36 -10 83 -13.5t124 -3.5
q43 0 69 1.5t77 6.5q57 6 106 24.5t103 68.5zM327.5 341q20.5 21 29.5 32q-31 36 -62 59q13 11 35 33.5t29 31.5q37 -20 60 -53q38 36 50 53q23 -12 41.5 -31t27.5 -38q-6 -9 -24 -28t-34 -32q19 -11 34.5 -28t23.5 -34q-7 -10 -27 -31t-36 -33q-21 28 -53 55
q-33 -35 -57 -55q-38 45 -70 68q12 10 32.5 31zM419 322q32 30 49 51q-20 23 -46 46q-26 -28 -52 -51q29 -17 49 -46z" />
    <glyph glyph-name="uniFB64" unicode="&#x67f;" horiz-adv-x="244" arabic-form="initial" 
d="M142.5 328.5q19.5 -24.5 35.5 -62t16 -84.5q0 -62 -35 -117q-41 -65 -122 -65h-47q-29 0 -49.5 20.5t-20.5 49.5q0 31 21.5 50t48.5 19h55q22 0 45 10t34 27q-13 15 -28 28l-41 43q18 36 33 58.5t35 44.5q0 3 19.5 -21.5zM-67.5 454q20.5 21 29.5 32q-31 36 -62 59
q13 11 35 33.5t29 31.5q37 -20 60 -53q38 36 50 53q23 -12 41.5 -31t27.5 -38q-6 -9 -24 -28t-34 -32q19 -11 34.5 -28t23.5 -34q-7 -10 -27 -31t-36 -33q-21 28 -53 55q-33 -35 -57 -55q-38 45 -70 68q12 10 32.5 31zM24 435q32 30 49 51q-20 23 -46 46q-26 -28 -52 -51
q29 -17 49 -46z" />
    <glyph glyph-name="uniFB65" unicode="&#x67f;" horiz-adv-x="325" arabic-form="medial" 
d="M177.5 232.5q-1.5 -10.5 -1.5 -23.5q0 -33 14 -50q18 -20 61 -20h74v-139h-60q-49 0 -82 23q-16 12 -24 27q-2 -4 -9 -11.5t-17 -15.5q-33 -23 -75 -23h-68q-29 0 -49.5 20.5t-20.5 50.5q0 33 23.5 50.5t46.5 17.5h60q32 0 50 19.5t23.5 40.5t5.5 28l51 19
q-1 -3 -2.5 -13.5zM-60.5 381q20.5 21 29.5 32q-31 36 -62 59q13 11 35 33.5t29 31.5q37 -20 60 -53q38 36 50 53q23 -12 41.5 -31t27.5 -38q-6 -9 -24 -28t-34 -32q19 -11 34.5 -28t23.5 -34q-7 -10 -27 -31t-36 -33q-21 28 -53 55q-33 -35 -57 -55q-38 45 -70 68
q12 10 32.5 31zM31 362q32 30 49 51q-20 23 -46 46q-26 -28 -52 -51q29 -17 49 -46z" />
    <glyph glyph-name="uniFB67" unicode="&#x679;" horiz-adv-x="924" arabic-form="final" 
d="M820 215q-4 -6 -14 -19.5t-19 -24.5q9 -14 28.5 -23t46.5 -9h62v-139h-65q-64 0 -104 34q-15 13 -21 24t-11 24q-50 -50 -128 -71q-81 -21 -211 -21q-88 0 -144 10q-112 20 -156 98q-24 44 -24 101q0 33 7 70l44 -10q4 -35 24 -64.5t74 -45.5q36 -10 83 -13.5t124 -3.5
q43 0 69 1.5t77 6.5q57 6 106 24.5t103 68.5zM415 404q-10 -3 -12.5 -7.5t-1.5 -15.5q1 -6 1 -20q0 -18 -2 -26q11 16 24 25t25 9q15 0 29.5 -11.5t14.5 -27.5q0 -32 -31 -56q-14 -10 -31 -16t-32 -6h-46l-13 52h32l5 10q0 25 -6.5 54t-14.5 43l31 37q9 -22 28 -44zM437 330
q-11 0 -21.5 -9t-17.5 -21h26q12 0 24 5.5t16 11.5q-9 13 -27 13z" />
    <glyph glyph-name="uniFB68" unicode="&#x679;" horiz-adv-x="244" arabic-form="initial" 
d="M142.5 328.5q19.5 -24.5 35.5 -62t16 -84.5q0 -62 -35 -117q-41 -65 -122 -65h-47q-29 0 -49.5 20.5t-20.5 49.5q0 31 21.5 50t48.5 19h55q22 0 45 10t34 27q-13 15 -28 28l-41 43q18 36 33 58.5t35 44.5q0 3 19.5 -21.5zM20 517q-10 -3 -12.5 -7.5t-1.5 -15.5
q1 -6 1 -20q0 -18 -2 -26q11 16 24 25t25 9q15 0 29.5 -11.5t14.5 -27.5q0 -32 -31 -56q-14 -10 -31 -16t-32 -6h-46l-13 52h32l5 10q0 25 -6.5 54t-14.5 43l31 37q9 -22 28 -44zM42 443q-11 0 -21.5 -9t-17.5 -21h26q12 0 24 5.5t16 11.5q-9 13 -27 13z" />
    <glyph glyph-name="uniFB69" unicode="&#x679;" horiz-adv-x="325" arabic-form="medial" 
d="M177.5 232.5q-1.5 -10.5 -1.5 -23.5q0 -33 14 -50q18 -20 61 -20h74v-139h-60q-49 0 -82 23q-16 12 -24 27q-2 -4 -9 -11.5t-17 -15.5q-33 -23 -75 -23h-68q-29 0 -49.5 20.5t-20.5 50.5q0 33 23.5 50.5t46.5 17.5h60q32 0 50 19.5t23.5 40.5t5.5 28l51 19
q-1 -3 -2.5 -13.5zM27 444q-10 -3 -12.5 -7.5t-1.5 -15.5q1 -6 1 -20q0 -18 -2 -26q11 16 24 25t25 9q15 0 29.5 -11.5t14.5 -27.5q0 -32 -31 -56q-14 -10 -31 -16t-32 -6h-46l-13 52h32l5 10q0 25 -6.5 54t-14.5 43l31 37q9 -22 28 -44zM49 370q-11 0 -21.5 -9t-17.5 -21
h26q12 0 24 5.5t16 11.5q-9 13 -27 13z" />
    <glyph glyph-name="uniFB6B" unicode="&#x6a4;" horiz-adv-x="954" arabic-form="final" 
d="M954 0h-107q-35 0 -60.5 13.5t-36.5 38.5q-54 -30 -121 -42q-91 -17 -220 -17q-96 0 -170 12q-97 17 -138 61.5t-41 135.5q0 24 2 45.5t3 27.5l47 -11q0 -16 7 -39t39 -46q17 -13 41 -21t64 -14q57 -9 160 -9q101 0 180 10q-6 18 -6 37q0 29 11.5 61t31.5 59
q22 29 47.5 45t51.5 16q23 0 43.5 -12t33.5 -32q12 -18 20 -44.5t8 -54.5q0 -40 -13 -83q18 2 30 2h93v-139zM775.5 208.5q-9.5 13.5 -23.5 25.5t-30 12q-22 0 -40 -20.5t-26 -36.5q11 -16 28.5 -30t40.5 -14q18 0 31.5 9t21.5 20.5t8 16.5q-1 4 -10.5 17.5zM673 613
q13 11 35 33.5t29 31.5q23 -11 41.5 -30.5t27.5 -38.5q-7 -10 -27.5 -31t-35.5 -33q-34 42 -70 68zM833 516.5q19 -19.5 28 -37.5q-7 -10 -27.5 -31.5t-35.5 -32.5q-26 32 -53 55q-33 -35 -57 -55q-38 45 -70 68q13 11 35 33.5t29 31.5q37 -20 60 -53q38 36 50 53
q22 -12 41 -31.5z" />
    <glyph glyph-name="uniFB6C" unicode="&#x6a4;" horiz-adv-x="332" arabic-form="initial" 
d="M241.5 420q32.5 -51 39.5 -123q1 -10 1 -32q0 -56 -14 -107q-21 -78 -68 -116q-50 -42 -153 -42h-57q-30 0 -50 20t-20 50q0 31 21 50t48 19h99q45 0 73 12q31 14 46 50q-24 -8 -57 -8q-53 0 -82 27q-32 27 -32 77q0 27 8.5 58.5t24.5 58.5q35 57 88 57q52 0 84.5 -51z
M177.5 350q-11.5 20 -39.5 20q-20 0 -33 -13t-13 -32q0 -34 54 -34q18 0 29.5 3.5t20.5 11.5q-7 24 -18.5 44zM91 721q13 11 35 33.5t29 31.5q23 -11 41.5 -30.5t27.5 -38.5q-7 -10 -27.5 -31t-35.5 -33q-34 42 -70 68zM251 624.5q19 -19.5 28 -37.5q-7 -10 -27.5 -31.5
t-35.5 -32.5q-26 32 -53 55q-33 -35 -57 -55q-38 45 -70 68q13 11 35 33.5t29 31.5q37 -20 60 -53q38 36 50 53q22 -12 41 -31.5z" />
    <glyph glyph-name="uniFB6D" unicode="&#x6a4;" horiz-adv-x="444" arabic-form="medial" 
d="M243 330q23 -19 36.5 -52.5t13.5 -76.5q0 -35 -10 -62h161v-139h-113q-38 0 -63 15.5t-30 30.5q-20 -19 -48 -32.5t-82 -13.5h-118q-32 0 -51 20t-19 48q0 30 20.5 50.5t49.5 20.5h73q-6 17 -6 36q0 25 11.5 57.5t30.5 59.5q20 27 44.5 42t49.5 15q27 0 50 -19z
M209.5 217q-19.5 16 -36.5 16q-18 0 -32.5 -14t-23.5 -29q3 -11 19.5 -26.5t37.5 -15.5q20 0 39 14t21 30q-5 9 -24.5 25zM127 599q13 11 35 33.5t29 31.5q23 -11 41.5 -30.5t27.5 -38.5q-7 -10 -27.5 -31t-35.5 -33q-34 42 -70 68zM287 502.5q19 -19.5 28 -37.5
q-7 -10 -27.5 -31.5t-35.5 -32.5q-26 32 -53 55q-33 -35 -57 -55q-38 45 -70 68q13 11 35 33.5t29 31.5q37 -20 60 -53q38 36 50 53q22 -12 41 -31.5z" />
    <glyph glyph-name="uniFB6F" unicode="&#x6a6;" horiz-adv-x="954" arabic-form="final" 
d="M954 0h-107q-35 0 -60.5 13.5t-36.5 38.5q-54 -30 -121 -42q-91 -17 -220 -17q-96 0 -170 12q-97 17 -138 61.5t-41 135.5q0 24 2 45.5t3 27.5l47 -11q0 -16 7 -39t39 -46q17 -13 41 -21t64 -14q57 -9 160 -9q101 0 180 10q-6 18 -6 37q0 29 11.5 61t31.5 59
q22 29 47.5 45t51.5 16q23 0 43.5 -12t33.5 -32q12 -18 20 -44.5t8 -54.5q0 -40 -13 -83q18 2 30 2h93v-139zM775.5 208.5q-9.5 13.5 -23.5 25.5t-30 12q-22 0 -40 -20.5t-26 -36.5q11 -16 28.5 -30t40.5 -14q18 0 31.5 9t21.5 20.5t8 16.5q-1 4 -10.5 17.5zM650.5 512
q20.5 21 29.5 32q-31 36 -62 59q13 11 35 33.5t29 31.5q37 -20 60 -53q38 36 50 53q23 -12 41.5 -31t27.5 -38q-6 -9 -24 -28t-34 -32q19 -11 34.5 -28t23.5 -34q-7 -10 -27 -31t-36 -33q-21 28 -53 55q-33 -35 -57 -55q-38 45 -70 68q12 10 32.5 31zM742 493q32 30 49 51
q-20 23 -46 46q-26 -28 -52 -51q29 -17 49 -46z" />
    <glyph glyph-name="uniFB70" unicode="&#x6a6;" horiz-adv-x="332" arabic-form="initial" 
d="M241.5 420q32.5 -51 39.5 -123q1 -10 1 -32q0 -56 -14 -107q-21 -78 -68 -116q-50 -42 -153 -42h-57q-30 0 -50 20t-20 50q0 31 21 50t48 19h99q45 0 73 12q31 14 46 50q-24 -8 -57 -8q-53 0 -82 27q-32 27 -32 77q0 27 8.5 58.5t24.5 58.5q35 57 88 57q52 0 84.5 -51z
M177.5 350q-11.5 20 -39.5 20q-20 0 -33 -13t-13 -32q0 -34 54 -34q18 0 29.5 3.5t20.5 11.5q-7 24 -18.5 44zM68.5 620q20.5 21 29.5 32q-31 36 -62 59q13 11 35 33.5t29 31.5q37 -20 60 -53q38 36 50 53q23 -12 41.5 -31t27.5 -38q-6 -9 -24 -28t-34 -32q19 -11 34.5 -28
t23.5 -34q-7 -10 -27 -31t-36 -33q-21 28 -53 55q-33 -35 -57 -55q-38 45 -70 68q12 10 32.5 31zM160 601q32 30 49 51q-20 23 -46 46q-26 -28 -52 -51q29 -17 49 -46z" />
    <glyph glyph-name="uniFB71" unicode="&#x6a6;" horiz-adv-x="444" arabic-form="medial" 
d="M243 330q23 -19 36.5 -52.5t13.5 -76.5q0 -35 -10 -62h161v-139h-113q-38 0 -63 15.5t-30 30.5q-20 -19 -48 -32.5t-82 -13.5h-118q-32 0 -51 20t-19 48q0 30 20.5 50.5t49.5 20.5h73q-6 17 -6 36q0 25 11.5 57.5t30.5 59.5q20 27 44.5 42t49.5 15q27 0 50 -19z
M209.5 217q-19.5 16 -36.5 16q-18 0 -32.5 -14t-23.5 -29q3 -11 19.5 -26.5t37.5 -15.5q20 0 39 14t21 30q-5 9 -24.5 25zM104.5 498q20.5 21 29.5 32q-31 36 -62 59q13 11 35 33.5t29 31.5q37 -20 60 -53q38 36 50 53q23 -12 41.5 -31t27.5 -38q-6 -9 -24 -28t-34 -32
q19 -11 34.5 -28t23.5 -34q-7 -10 -27 -31t-36 -33q-21 28 -53 55q-33 -35 -57 -55q-38 45 -70 68q12 10 32.5 31zM196 479q32 30 49 51q-20 23 -46 46q-26 -28 -52 -51q29 -17 49 -46z" />
    <glyph glyph-name="uniFB73" unicode="&#x684;" horiz-adv-x="699" arabic-form="final" 
d="M698 0h-104q-102 0 -139 66q-21 38 -21 94q0 11 2 39q-65 1 -121 -19.5t-96 -58.5q-33 -30 -52 -70.5t-19 -85.5q0 -74 41 -118q43 -47 127 -62q26 -5 55 -7.5t42 -2.5q62 -2 107 -11l-17 -53q-28 1 -52 -6t-48 -20q-26 -14 -48 -21t-56 -7q-54 0 -100 19.5t-80 57.5
q-30 33 -44.5 81t-14.5 103q0 74 30 142q31 70 88 122q40 36 86 57q-34 10 -66 10q-33 0 -50.5 -10t-34.5 -37l-35 29q2 5 9 20.5t16 31.5q23 42 47 59.5t59 17.5q30 0 80 -16q54 -17 100 -25t121 -8q27 0 59 2q-2 -8 -12.5 -46t-26.5 -72l-28 2q3 -22 19 -36q24 -22 77 -22
h100v-139zM401 -92q-7 -10 -27.5 -31.5t-35.5 -32.5q-38 45 -70 68q11 9 28 25.5t29 30.5q-24 29 -57 53q13 11 35 33.5t29 31.5q23 -12 41.5 -31t27.5 -38q-5 -7 -20 -23t-29 -29q37 -29 49 -57z" />
    <glyph glyph-name="uniFB74" unicode="&#x684;" horiz-adv-x="588" arabic-form="initial" 
d="M476 139q-50 0 -80.5 -6t-55 -18.5t-67.5 -40.5q-53 -34 -103.5 -54t-127.5 -20h-52q-29 0 -49.5 19t-20.5 50t20 50.5t50 19.5h57q70 0 135 13q28 6 56.5 15t46.5 18q-104 46 -157 46q-27 0 -44 -10.5t-30 -35.5l-29 27q6 32 15.5 52.5t26.5 38.5q37 39 87 39
q19 0 38.5 -6t51.5 -18q64 -25 94.5 -33.5t65.5 -11t115 -2.5l19 1q-28 -78 -62 -133zM250 -244q-7 -10 -27.5 -31.5t-35.5 -32.5q-38 45 -70 68q11 9 28 25.5t29 30.5q-24 29 -57 53q13 11 35 33.5t29 31.5q23 -12 41.5 -31t27.5 -38q-5 -7 -20 -23t-29 -29q37 -29 49 -57z
" />
    <glyph glyph-name="uniFB75" unicode="&#x684;" horiz-adv-x="674" arabic-form="medial" 
d="M522 232.5q-12 -26.5 -31 -60.5q-6 1 -24.5 3t-32.5 1q15 -37 73 -37h167v-139h-154q-93 0 -134 60q-23 33 -29 86q-16 -9 -45 -32q-40 -31 -67.5 -49.5t-63.5 -34.5q-69 -30 -139 -30h-52q-27 0 -48.5 20t-21.5 50q0 29 20.5 49t49.5 20h47q79 0 147 21q28 8 55 21
t41 23l-38 12q-36 13 -64.5 20.5t-54.5 7.5q-30 0 -46 -12t-29 -39l-34 31q19 63 53 99q37 40 86 40q20 0 39.5 -5.5t49.5 -16.5q71 -26 112.5 -34.5t108.5 -8.5q42 0 67 1l19 1q-15 -41 -27 -67.5zM250 -244q-7 -10 -27.5 -31.5t-35.5 -32.5q-38 45 -70 68q11 9 28 25.5
t29 30.5q-24 29 -57 53q13 11 35 33.5t29 31.5q23 -12 41.5 -31t27.5 -38q-5 -7 -20 -23t-29 -29q37 -29 49 -57z" />
    <glyph glyph-name="uniFB77" unicode="&#x683;" horiz-adv-x="699" arabic-form="final" 
d="M698 0h-104q-102 0 -139 66q-21 38 -21 94q0 11 2 39q-65 1 -121 -19.5t-96 -58.5q-33 -30 -52 -70.5t-19 -85.5q0 -74 41 -118q43 -47 127 -62q26 -5 55 -7.5t42 -2.5q62 -2 107 -11l-17 -53q-28 1 -52 -6t-48 -20q-26 -14 -48 -21t-56 -7q-54 0 -100 19.5t-80 57.5
q-30 33 -44.5 81t-14.5 103q0 74 30 142q31 70 88 122q40 36 86 57q-34 10 -66 10q-33 0 -50.5 -10t-34.5 -37l-35 29q2 5 9 20.5t16 31.5q23 42 47 59.5t59 17.5q30 0 80 -16q54 -17 100 -25t121 -8q27 0 59 2q-2 -8 -12.5 -46t-26.5 -72l-28 2q3 -22 19 -36q24 -22 77 -22
h100v-139zM426 -1q19 -19 27 -37q-7 -10 -27.5 -31.5t-35.5 -32.5q-26 32 -53 55q-33 -35 -57 -55q-38 45 -70 68q13 11 35 33.5t29 31.5q37 -20 60 -53q38 36 50 53q23 -13 42 -32z" />
    <glyph glyph-name="uniFB78" unicode="&#x683;" horiz-adv-x="588" arabic-form="initial" 
d="M476 139q-50 0 -80.5 -6t-55 -18.5t-67.5 -40.5q-53 -34 -103.5 -54t-127.5 -20h-52q-29 0 -49.5 19t-20.5 50t20 50.5t50 19.5h57q70 0 135 13q28 6 56.5 15t46.5 18q-104 46 -157 46q-27 0 -44 -10.5t-30 -35.5l-29 27q6 32 15.5 52.5t26.5 38.5q37 39 87 39
q19 0 38.5 -6t51.5 -18q64 -25 94.5 -33.5t65.5 -11t115 -2.5l19 1q-28 -78 -62 -133zM279 -99q19 -19 27 -37q-7 -10 -27.5 -31.5t-35.5 -32.5q-26 32 -53 55q-33 -35 -57 -55q-38 45 -70 68q13 11 35 33.5t29 31.5q37 -20 60 -53q38 36 50 53q23 -13 42 -32z" />
    <glyph glyph-name="uniFB79" unicode="&#x683;" horiz-adv-x="674" arabic-form="medial" 
d="M522 232.5q-12 -26.5 -31 -60.5q-6 1 -24.5 3t-32.5 1q15 -37 73 -37h167v-139h-154q-93 0 -134 60q-23 33 -29 86q-16 -9 -45 -32q-40 -31 -67.5 -49.5t-63.5 -34.5q-69 -30 -139 -30h-52q-27 0 -48.5 20t-21.5 50q0 29 20.5 49t49.5 20h47q79 0 147 21q28 8 55 21
t41 23l-38 12q-36 13 -64.5 20.5t-54.5 7.5q-30 0 -46 -12t-29 -39l-34 31q19 63 53 99q37 40 86 40q20 0 39.5 -5.5t49.5 -16.5q71 -26 112.5 -34.5t108.5 -8.5q42 0 67 1l19 1q-15 -41 -27 -67.5zM279 -99q19 -19 27 -37q-7 -10 -27.5 -31.5t-35.5 -32.5q-26 32 -53 55
q-33 -35 -57 -55q-38 45 -70 68q13 11 35 33.5t29 31.5q37 -20 60 -53q38 36 50 53q23 -13 42 -32z" />
    <glyph glyph-name="uniFB7B" unicode="&#x686;" horiz-adv-x="699" arabic-form="final" 
d="M698 0h-104q-102 0 -139 66q-21 38 -21 94q0 11 2 39q-65 1 -121 -19.5t-96 -58.5q-33 -30 -52 -70.5t-19 -85.5q0 -74 41 -118q43 -47 127 -62q26 -5 55 -7.5t42 -2.5q62 -2 107 -11l-17 -53q-28 1 -52 -6t-48 -20q-26 -14 -48 -21t-56 -7q-54 0 -100 19.5t-80 57.5
q-30 33 -44.5 81t-14.5 103q0 74 30 142q31 70 88 122q40 36 86 57q-34 10 -66 10q-33 0 -50.5 -10t-34.5 -37l-35 29q2 5 9 20.5t16 31.5q23 42 47 59.5t59 17.5q30 0 80 -16q54 -17 100 -25t121 -8q27 0 59 2q-2 -8 -12.5 -46t-26.5 -72l-28 2q3 -22 19 -36q24 -22 77 -22
h100v-139zM416.5 -21q-20.5 -21 -35.5 -33q-26 32 -53 56q-28 -32 -57 -56q-36 45 -70 68q13 11 35 33.5t29 31.5q37 -18 60 -53q33 32 50 53q23 -11 41.5 -30.5t27.5 -38.5q-7 -10 -27.5 -31zM365.5 -151q-20.5 -21 -36.5 -32q-29 39 -70 68q14 11 36 33t29 32
q22 -12 41.5 -31.5t27.5 -37.5q-7 -11 -27.5 -32z" />
    <glyph glyph-name="uniFB7C" unicode="&#x686;" horiz-adv-x="588" arabic-form="initial" 
d="M476 139q-50 0 -80.5 -6t-55 -18.5t-67.5 -40.5q-53 -34 -103.5 -54t-127.5 -20h-52q-29 0 -49.5 19t-20.5 50t20 50.5t50 19.5h57q70 0 135 13q28 6 56.5 15t46.5 18q-104 46 -157 46q-27 0 -44 -10.5t-30 -35.5l-29 27q6 32 15.5 52.5t26.5 38.5q37 39 87 39
q19 0 38.5 -6t51.5 -18q64 -25 94.5 -33.5t65.5 -11t115 -2.5l19 1q-28 -78 -62 -133zM278.5 -165q-20.5 -21 -35.5 -33q-26 32 -53 56q-28 -32 -57 -56q-36 45 -70 68q13 11 35 33.5t29 31.5q37 -18 60 -53q33 32 50 53q23 -11 41.5 -30.5t27.5 -38.5q-7 -10 -27.5 -31z
M227.5 -295q-20.5 -21 -36.5 -32q-29 39 -70 68q14 11 36 33t29 32q22 -12 41.5 -31.5t27.5 -37.5q-7 -11 -27.5 -32z" />
    <glyph glyph-name="uniFB7D" unicode="&#x686;" horiz-adv-x="674" arabic-form="medial" 
d="M522 232.5q-12 -26.5 -31 -60.5q-6 1 -24.5 3t-32.5 1q15 -37 73 -37h167v-139h-154q-93 0 -134 60q-23 33 -29 86q-16 -9 -45 -32q-40 -31 -67.5 -49.5t-63.5 -34.5q-69 -30 -139 -30h-52q-27 0 -48.5 20t-21.5 50q0 29 20.5 49t49.5 20h47q79 0 147 21q28 8 55 21
t41 23l-38 12q-36 13 -64.5 20.5t-54.5 7.5q-30 0 -46 -12t-29 -39l-34 31q19 63 53 99q37 40 86 40q20 0 39.5 -5.5t49.5 -16.5q71 -26 112.5 -34.5t108.5 -8.5q42 0 67 1l19 1q-15 -41 -27 -67.5zM278.5 -165q-20.5 -21 -35.5 -33q-26 32 -53 56q-28 -32 -57 -56
q-36 45 -70 68q13 11 35 33.5t29 31.5q37 -18 60 -53q33 32 50 53q23 -11 41.5 -30.5t27.5 -38.5q-7 -10 -27.5 -31zM227.5 -295q-20.5 -21 -36.5 -32q-29 39 -70 68q14 11 36 33t29 32q22 -12 41.5 -31.5t27.5 -37.5q-7 -11 -27.5 -32z" />
    <glyph glyph-name="uniFB7F" unicode="&#x687;" horiz-adv-x="699" arabic-form="final" 
d="M698 0h-104q-102 0 -139 66q-21 38 -21 94q0 11 2 39q-65 1 -121 -19.5t-96 -58.5q-33 -30 -52 -70.5t-19 -85.5q0 -74 41 -118q43 -47 127 -62q26 -5 55 -7.5t42 -2.5q62 -2 107 -11l-17 -53q-28 1 -52 -6t-48 -20q-26 -14 -48 -21t-56 -7q-54 0 -100 19.5t-80 57.5
q-30 33 -44.5 81t-14.5 103q0 74 30 142q31 70 88 122q40 36 86 57q-34 10 -66 10q-33 0 -50.5 -10t-34.5 -37l-35 29q2 5 9 20.5t16 31.5q23 42 47 59.5t59 17.5q30 0 80 -16q54 -17 100 -25t121 -8q27 0 59 2q-2 -8 -12.5 -46t-26.5 -72l-28 2q3 -22 19 -36q24 -22 77 -22
h100v-139zM236 -63.5q21 21.5 29 31.5q-34 38 -63 59q13 11 35 33.5t29 31.5q37 -20 60 -53q38 36 50 53q23 -12 41.5 -31t27.5 -38q-6 -9 -24 -28t-33 -32q19 -13 34.5 -29.5t22.5 -32.5q-7 -10 -27 -31t-36 -33q-21 28 -53 55q-33 -35 -57 -55q-38 45 -70 68
q13 10 34 31.5zM326 -83q38 36 49 51q-18 23 -46 46q-14 -16 -51 -51q33 -22 48 -46z" />
    <glyph glyph-name="uniFB80" unicode="&#x687;" horiz-adv-x="588" arabic-form="initial" 
d="M476 139q-50 0 -80.5 -6t-55 -18.5t-67.5 -40.5q-53 -34 -103.5 -54t-127.5 -20h-52q-29 0 -49.5 19t-20.5 50t20 50.5t50 19.5h57q70 0 135 13q28 6 56.5 15t46.5 18q-104 46 -157 46q-27 0 -44 -10.5t-30 -35.5l-29 27q6 32 15.5 52.5t26.5 38.5q37 39 87 39
q19 0 38.5 -6t51.5 -18q64 -25 94.5 -33.5t65.5 -11t115 -2.5l19 1q-28 -78 -62 -133zM97 -204.5q21 21.5 29 31.5q-34 38 -63 59q13 11 35 33.5t29 31.5q37 -20 60 -53q38 36 50 53q23 -12 41.5 -31t27.5 -38q-6 -9 -24 -28t-33 -32q19 -13 34.5 -29.5t22.5 -32.5
q-7 -10 -27 -31t-36 -33q-21 28 -53 55q-33 -35 -57 -55q-38 45 -70 68q13 10 34 31.5zM187 -224q38 36 49 51q-18 23 -46 46q-14 -16 -51 -51q33 -22 48 -46z" />
    <glyph glyph-name="uniFB81" unicode="&#x687;" horiz-adv-x="674" arabic-form="medial" 
d="M522 232.5q-12 -26.5 -31 -60.5q-6 1 -24.5 3t-32.5 1q15 -37 73 -37h167v-139h-154q-93 0 -134 60q-23 33 -29 86q-16 -9 -45 -32q-40 -31 -67.5 -49.5t-63.5 -34.5q-69 -30 -139 -30h-52q-27 0 -48.5 20t-21.5 50q0 29 20.5 49t49.5 20h47q79 0 147 21q28 8 55 21
t41 23l-38 12q-36 13 -64.5 20.5t-54.5 7.5q-30 0 -46 -12t-29 -39l-34 31q19 63 53 99q37 40 86 40q20 0 39.5 -5.5t49.5 -16.5q71 -26 112.5 -34.5t108.5 -8.5q42 0 67 1l19 1q-15 -41 -27 -67.5zM97 -204.5q21 21.5 29 31.5q-34 38 -63 59q13 11 35 33.5t29 31.5
q37 -20 60 -53q38 36 50 53q23 -12 41.5 -31t27.5 -38q-6 -9 -24 -28t-33 -32q19 -13 34.5 -29.5t22.5 -32.5q-7 -10 -27 -31t-36 -33q-21 28 -53 55q-33 -35 -57 -55q-38 45 -70 68q13 10 34 31.5zM187 -224q38 36 49 51q-18 23 -46 46q-14 -16 -51 -51q33 -22 48 -46z" />
    <glyph glyph-name="uniFB83" unicode="&#x68d;" horiz-adv-x="554" arabic-form="final" 
d="M409 230q19 -53 38.5 -72t55.5 -19h51v-139h-52q-54 0 -92 25q-33 21 -49 55q-40 -84 -158 -84q-84 0 -123 48q-30 35 -30 95q0 32 7 63l49 18q0 -29 3 -43t13 -24q18 -20 61 -20h41q39 0 63.5 23.5t24.5 52.5l-38 134q40 51 76 90zM298 -104q19 -19 27 -37
q-7 -10 -27.5 -31.5t-35.5 -32.5q-26 32 -53 55q-33 -35 -57 -55q-38 45 -70 68q13 11 35 33.5t29 31.5q37 -20 60 -53q38 36 50 53q23 -13 42 -32z" />
    <glyph glyph-name="uniFB85" unicode="&#x68c;" horiz-adv-x="554" arabic-form="final" 
d="M409 230q19 -53 38.5 -72t55.5 -19h51v-139h-52q-54 0 -92 25q-33 21 -49 55q-40 -84 -158 -84q-84 0 -123 48q-30 35 -30 95q0 32 7 63l49 18q0 -29 3 -43t13 -24q18 -20 61 -20h41q39 0 63.5 23.5t24.5 52.5l-38 134q40 51 76 90zM384.5 573q18.5 -19 27.5 -38
q-7 -10 -27 -31t-36 -33q-21 28 -53 55q-33 -35 -57 -55q-38 45 -70 68q13 11 35 33.5t29 31.5q37 -20 60 -53q38 36 50 53q23 -12 41.5 -31z" />
    <glyph glyph-name="uniFB87" unicode="&#x68e;" horiz-adv-x="554" arabic-form="final" 
d="M409 230q19 -53 38.5 -72t55.5 -19h51v-139h-52q-54 0 -92 25q-33 21 -49 55q-40 -84 -158 -84q-84 0 -123 48q-30 35 -30 95q0 32 7 63l49 18q0 -29 3 -43t13 -24q18 -20 61 -20h41q39 0 63.5 23.5t24.5 52.5l-38 134q40 51 76 90zM224 673q13 11 35 33.5t29 31.5
q23 -11 41.5 -30.5t27.5 -38.5q-7 -10 -27.5 -31t-35.5 -33q-34 42 -70 68zM384 576.5q19 -19.5 28 -37.5q-7 -10 -27.5 -31.5t-35.5 -32.5q-26 32 -53 55q-33 -35 -57 -55q-38 45 -70 68q13 11 35 33.5t29 31.5q37 -20 60 -53q38 36 50 53q22 -12 41 -31.5z" />
    <glyph glyph-name="uniFB89" unicode="&#x688;" horiz-adv-x="554" arabic-form="final" 
d="M409 230q19 -53 38.5 -72t55.5 -19h51v-139h-52q-54 0 -92 25q-33 21 -49 55q-40 -84 -158 -84q-84 0 -123 48q-30 35 -30 95q0 32 7 63l49 18q0 -29 3 -43t13 -24q18 -20 61 -20h41q39 0 63.5 23.5t24.5 52.5l-38 134q40 51 76 90zM289 635q-10 -3 -12.5 -7.5
t-1.5 -15.5q1 -6 1 -20q0 -18 -2 -26q11 16 24 25t25 9q15 0 29.5 -11.5t14.5 -27.5q0 -32 -31 -56q-14 -10 -31 -16t-32 -6h-46l-13 52h32l5 10q0 25 -6.5 54t-14.5 43l31 37q9 -22 28 -44zM311 561q-11 0 -21.5 -9t-17.5 -21h26q12 0 24 5.5t16 11.5q-9 13 -27 13z" />
    <glyph glyph-name="uniFB8B" unicode="&#x698;" horiz-adv-x="426" arabic-form="final" 
d="M227.5 193q12.5 -17 32.5 -31q34 -23 67 -23h99v-139h-86q-24 0 -44 6q1 -55 -9.5 -100t-38.5 -93q-26 -45 -56 -65q-38 -26 -91 -26q-10 0 -26 2l-25 1q-19 0 -43 -3t-37 -8l-30 43q14 8 56.5 30.5t93.5 51.5q68 38 98 67t30 68q0 32 -18 61t-40 50t-22 19q36 64 77 108
q0 -2 12.5 -19zM109 462q13 11 35 33.5t29 31.5q23 -11 41.5 -30.5t27.5 -38.5q-7 -10 -27.5 -31t-35.5 -33q-34 42 -70 68zM269 365.5q19 -19.5 28 -37.5q-7 -10 -27.5 -31.5t-35.5 -32.5q-26 32 -53 55q-33 -35 -57 -55q-38 45 -70 68q13 11 35 33.5t29 31.5
q37 -20 60 -53q38 36 50 53q22 -12 41 -31.5z" />
    <glyph glyph-name="uniFB8D" unicode="&#x691;" horiz-adv-x="426" arabic-form="final" 
d="M227.5 193q12.5 -17 32.5 -31q34 -23 67 -23h99v-139h-86q-24 0 -44 6q1 -55 -9.5 -100t-38.5 -93q-26 -45 -56 -65q-38 -26 -91 -26q-10 0 -26 2l-25 1q-19 0 -43 -3t-37 -8l-30 43q14 8 56.5 30.5t93.5 51.5q68 38 98 67t30 68q0 32 -18 61t-40 50t-22 19q36 64 77 108
q0 -2 12.5 -19zM174 424q-10 -3 -12.5 -7.5t-1.5 -15.5q1 -6 1 -20q0 -18 -2 -26q11 16 24 25t25 9q15 0 29.5 -11.5t14.5 -27.5q0 -32 -31 -56q-14 -10 -31 -16t-32 -6h-46l-13 52h32l5 10q0 25 -6.5 54t-14.5 43l31 37q9 -22 28 -44zM196 350q-11 0 -21.5 -9t-17.5 -21h26
q12 0 24 5.5t16 11.5q-9 13 -27 13z" />
    <glyph glyph-name="uniFB8F" unicode="&#x6a9;" horiz-adv-x="893" arabic-form="final" 
d="M663 424.5q-43 -21.5 -94 -52.5l73 -79q10 -11 49 -58l32 -38q28 -30 49.5 -44t54.5 -14h66v-139h-65q-43 0 -73.5 15.5t-44 29.5t-25.5 30q-9 -25 -33.5 -52.5t-76.5 -29.5q-34 -1 -94 -1q-20 -1 -60 -1h-68q-79 0 -112 5q-62 10 -103 39t-61 70q-17 35 -17 84
q0 28 7 80l45 -11q3 -45 29 -73q18 -19 48 -30.5t56 -15.5q44 -5 143 -5h32h61q57 0 86 2q33 2 51 26q-9 15 -22.5 30.5t-26.5 30.5l-23 25l-27 32l-8 -14l-53 60q6 50 19 102q85 73 315 181q-9 -79 -24 -138q-62 -25 -105 -46.5z" />
    <glyph glyph-name="uniFB90" unicode="&#x6a9;" horiz-adv-x="319" arabic-form="initial" 
d="M92 382q62 -50 94 -109q17 -33 25.5 -62t8.5 -62q0 -71 -38.5 -110t-105.5 -39h-86q-29 0 -49.5 20t-20.5 49t20.5 49.5t49.5 20.5h94q20 0 34 8.5t21 18.5q0 17 -35.5 56t-73.5 68l-11 -24l-53 60q5 49 18 101q54 43 137.5 90.5t177.5 90.5q-10 -83 -24 -138
q-101 -41 -183 -88z" />
    <glyph glyph-name="uniFB91" unicode="&#x6a9;" horiz-adv-x="412" arabic-form="medial" 
d="M88 372q37 -39 73 -79l80 -92q20 -23 32 -34.5t30 -19.5t43 -8h66v-139h-65q-59 0 -93.5 26.5t-48.5 48.5q-8 -21 -35 -48t-76 -27h-104q-29 0 -49.5 20t-20.5 49t20.5 49.5t49.5 20.5h96q19 0 32 7t20 16q-10 16 -24.5 33.5t-29.5 33.5l-20 21q-30 35 -81 88q4 50 13 89
q84 71 315 181q-7 -70 -24 -138q-110 -43 -199 -98z" />
    <glyph glyph-name="uniFB93" unicode="&#x6af;" horiz-adv-x="893" arabic-form="final" 
d="M663 424.5q-43 -21.5 -94 -52.5l73 -79q10 -11 49 -58l32 -38q28 -30 49.5 -44t54.5 -14h66v-139h-65q-43 0 -73.5 15.5t-44 29.5t-25.5 30q-9 -25 -33.5 -52.5t-76.5 -29.5q-34 -1 -94 -1q-20 -1 -60 -1h-68q-79 0 -112 5q-62 10 -103 39t-61 70q-17 35 -17 84
q0 28 7 80l45 -11q3 -45 29 -73q18 -19 48 -30.5t56 -15.5q44 -5 143 -5h32h61q57 0 86 2q33 2 51 26q-9 15 -22.5 30.5t-26.5 30.5l-23 25l-27 32l-8 -14l-53 60q6 50 19 102q85 73 315 181q-9 -79 -24 -138q-62 -25 -105 -46.5zM500 558q54 34 122.5 71t127.5 63l-14 -64
q-131 -61 -248 -142z" />
    <glyph glyph-name="uniFB94" unicode="&#x6af;" horiz-adv-x="319" arabic-form="initial" 
d="M92 382q62 -50 94 -109q17 -33 25.5 -62t8.5 -62q0 -71 -38.5 -110t-105.5 -39h-86q-29 0 -49.5 20t-20.5 49t20.5 49.5t49.5 20.5h94q20 0 34 8.5t21 18.5q0 17 -35.5 56t-73.5 68l-11 -24l-53 60q5 49 18 101q54 43 137.5 90.5t177.5 90.5q-10 -83 -24 -138
q-101 -41 -183 -88zM7 560q54 34 122.5 71t127.5 63l-14 -64q-131 -61 -248 -142z" />
    <glyph glyph-name="uniFB95" unicode="&#x6af;" horiz-adv-x="412" arabic-form="medial" 
d="M88 372q37 -39 73 -79l80 -92q20 -23 32 -34.5t30 -19.5t43 -8h66v-139h-65q-59 0 -93.5 26.5t-48.5 48.5q-8 -21 -35 -48t-76 -27h-104q-29 0 -49.5 20t-20.5 49t20.5 49.5t49.5 20.5h96q19 0 32 7t20 16q-10 16 -24.5 33.5t-29.5 33.5l-20 21q-30 35 -81 88q4 50 13 89
q84 71 315 181q-7 -70 -24 -138q-110 -43 -199 -98zM9 558q54 34 122.5 71t127.5 63l-14 -64q-131 -61 -248 -142z" />
    <glyph glyph-name="uniFB97" unicode="&#x6b3;" horiz-adv-x="893" arabic-form="final" 
d="M663 424.5q-43 -21.5 -94 -52.5l73 -79q10 -11 49 -58l32 -38q28 -30 49.5 -44t54.5 -14h66v-139h-65q-43 0 -73.5 15.5t-44 29.5t-25.5 30q-9 -25 -33.5 -52.5t-76.5 -29.5q-34 -1 -94 -1q-20 -1 -60 -1h-68q-79 0 -112 5q-62 10 -103 39t-61 70q-17 35 -17 84
q0 28 7 80l45 -11q3 -45 29 -73q18 -19 48 -30.5t56 -15.5q44 -5 143 -5h32h61q57 0 86 2q33 2 51 26q-9 15 -22.5 30.5t-26.5 30.5l-23 25l-27 32l-8 -14l-53 60q6 50 19 102q85 73 315 181q-9 -79 -24 -138q-62 -25 -105 -46.5zM500 558q54 34 122.5 71t127.5 63l-14 -64
q-131 -61 -248 -142zM460 -263q-7 -10 -27.5 -31.5t-35.5 -32.5q-38 45 -70 68q11 9 28 25.5t29 30.5q-24 29 -57 53q13 11 35 33.5t29 31.5q23 -12 41.5 -31t27.5 -38q-5 -7 -20 -23t-29 -29q37 -29 49 -57z" />
    <glyph glyph-name="uniFB98" unicode="&#x6b3;" horiz-adv-x="319" arabic-form="initial" 
d="M92 382q62 -50 94 -109q17 -33 25.5 -62t8.5 -62q0 -71 -38.5 -110t-105.5 -39h-86q-29 0 -49.5 20t-20.5 49t20.5 49.5t49.5 20.5h94q20 0 34 8.5t21 18.5q0 17 -35.5 56t-73.5 68l-11 -24l-53 60q5 49 18 101q54 43 137.5 90.5t177.5 90.5q-10 -83 -24 -138
q-101 -41 -183 -88zM7 560q54 34 122.5 71t127.5 63l-14 -64q-131 -61 -248 -142zM142 -244q-7 -10 -27.5 -31.5t-35.5 -32.5q-38 45 -70 68q11 9 28 25.5t29 30.5q-24 29 -57 53q13 11 35 33.5t29 31.5q23 -12 41.5 -31t27.5 -38q-5 -7 -20 -23t-29 -29q37 -29 49 -57z" />
    <glyph glyph-name="uniFB99" unicode="&#x6b3;" horiz-adv-x="412" arabic-form="medial" 
d="M88 372q37 -39 73 -79l80 -92q20 -23 32 -34.5t30 -19.5t43 -8h66v-139h-65q-59 0 -93.5 26.5t-48.5 48.5q-8 -21 -35 -48t-76 -27h-104q-29 0 -49.5 20t-20.5 49t20.5 49.5t49.5 20.5h96q19 0 32 7t20 16q-10 16 -24.5 33.5t-29.5 33.5l-20 21q-30 35 -81 88q4 50 13 89
q84 71 315 181q-7 -70 -24 -138q-110 -43 -199 -98zM9 558q54 34 122.5 71t127.5 63l-14 -64q-131 -61 -248 -142zM159 -252q-7 -10 -27.5 -31.5t-35.5 -32.5q-38 45 -70 68q11 9 28 25.5t29 30.5q-24 29 -57 53q13 11 35 33.5t29 31.5q23 -12 41.5 -31t27.5 -38
q-5 -7 -20 -23t-29 -29q37 -29 49 -57z" />
    <glyph glyph-name="uniFB9B" unicode="&#x6b1;" horiz-adv-x="893" arabic-form="final" 
d="M663 424.5q-43 -21.5 -94 -52.5l73 -79q10 -11 49 -58l32 -38q28 -30 49.5 -44t54.5 -14h66v-139h-65q-43 0 -73.5 15.5t-44 29.5t-25.5 30q-9 -25 -33.5 -52.5t-76.5 -29.5q-34 -1 -94 -1q-20 -1 -60 -1h-68q-79 0 -112 5q-62 10 -103 39t-61 70q-17 35 -17 84
q0 28 7 80l45 -11q3 -45 29 -73q18 -19 48 -30.5t56 -15.5q44 -5 143 -5h32h61q57 0 86 2q33 2 51 26q-9 15 -22.5 30.5t-26.5 30.5l-23 25l-27 32l-8 -14l-53 60q6 50 19 102q85 73 315 181q-9 -79 -24 -138q-62 -25 -105 -46.5zM500 558q54 34 122.5 71t127.5 63l-14 -64
q-131 -61 -248 -142zM712.5 792q18.5 -19 27.5 -38q-7 -10 -27 -31t-36 -33q-21 28 -53 55q-33 -35 -57 -55q-38 45 -70 68q13 11 35 33.5t29 31.5q37 -20 60 -53q38 36 50 53q23 -12 41.5 -31z" />
    <glyph glyph-name="uniFB9C" unicode="&#x6b1;" horiz-adv-x="319" arabic-form="initial" 
d="M92 382q62 -50 94 -109q17 -33 25.5 -62t8.5 -62q0 -71 -38.5 -110t-105.5 -39h-86q-29 0 -49.5 20t-20.5 49t20.5 49.5t49.5 20.5h94q20 0 34 8.5t21 18.5q0 17 -35.5 56t-73.5 68l-11 -24l-53 60q5 49 18 101q54 43 137.5 90.5t177.5 90.5q-10 -83 -24 -138
q-101 -41 -183 -88zM7 560q54 34 122.5 71t127.5 63l-14 -64q-131 -61 -248 -142zM219.5 794q18.5 -19 27.5 -38q-7 -10 -27 -31t-36 -33q-21 28 -53 55q-33 -35 -57 -55q-38 45 -70 68q13 11 35 33.5t29 31.5q37 -20 60 -53q38 36 50 53q23 -12 41.5 -31z" />
    <glyph glyph-name="uniFB9D" unicode="&#x6b1;" horiz-adv-x="412" arabic-form="medial" 
d="M88 372q37 -39 73 -79l80 -92q20 -23 32 -34.5t30 -19.5t43 -8h66v-139h-65q-59 0 -93.5 26.5t-48.5 48.5q-8 -21 -35 -48t-76 -27h-104q-29 0 -49.5 20t-20.5 49t20.5 49.5t49.5 20.5h96q19 0 32 7t20 16q-10 16 -24.5 33.5t-29.5 33.5l-20 21q-30 35 -81 88q4 50 13 89
q84 71 315 181q-7 -70 -24 -138q-110 -43 -199 -98zM9 558q54 34 122.5 71t127.5 63l-14 -64q-131 -61 -248 -142zM221.5 792q18.5 -19 27.5 -38q-7 -10 -27 -31t-36 -33q-21 28 -53 55q-33 -35 -57 -55q-38 45 -70 68q13 11 35 33.5t29 31.5q37 -20 60 -53q38 36 50 53
q23 -12 41.5 -31z" />
    <glyph glyph-name="uniFB9F" unicode="&#x6ba;" horiz-adv-x="698" arabic-form="final" 
d="M618 0q-29 0 -49 6q2 -24 2 -38q0 -104 -59 -170q-40 -44 -105 -66q-52 -17 -114 -17q-79 0 -136 30q-60 31 -82 88q-15 39 -15 80q0 31 11.5 78.5t27.5 76.5l43 -15q-7 -40 -7 -63q0 -45 22 -72q19 -23 57 -36q42 -14 91 -14q48 0 82 7q51 9 80.5 30t29.5 51
q0 47 -84 157q35 57 68 99l9 -13q42 -60 99 -60h109v-139h-80z" />
    <glyph glyph-name="uniFBA1" unicode="&#x6bb;" horiz-adv-x="698" arabic-form="final" 
d="M618 0q-29 0 -49 6q2 -24 2 -38q0 -104 -59 -170q-40 -44 -105 -66q-52 -17 -114 -17q-79 0 -136 30q-60 31 -82 88q-15 39 -15 80q0 31 11.5 78.5t27.5 76.5l43 -15q-7 -40 -7 -63q0 -45 22 -72q19 -23 57 -36q42 -14 91 -14q48 0 82 7q51 9 80.5 30t29.5 51
q0 47 -84 157q35 57 68 99l9 -13q42 -60 99 -60h109v-139h-80zM288 144q-10 -3 -12.5 -7.5t-1.5 -15.5q1 -6 1 -20q0 -18 -2 -26q11 16 24 25t25 9q15 0 29.5 -11.5t14.5 -27.5q0 -32 -31 -56q-14 -10 -31 -16t-32 -6h-46l-13 52h32l5 10q0 25 -6.5 54t-14.5 43l31 37
q9 -22 28 -44zM310 70q-11 0 -21.5 -9t-17.5 -21h26q12 0 24 5.5t16 11.5q-9 13 -27 13z" />
    <glyph glyph-name="uniFBA2" unicode="&#x6bb;" horiz-adv-x="244" arabic-form="initial" 
d="M142.5 328.5q19.5 -24.5 35.5 -62t16 -84.5q0 -62 -35 -117q-41 -65 -122 -65h-47q-29 0 -49.5 20.5t-20.5 49.5q0 31 21.5 50t48.5 19h55q22 0 45 10t34 27q-13 15 -28 28l-41 43q18 36 33 58.5t35 44.5q0 3 19.5 -21.5zM20 517q-10 -3 -12.5 -7.5t-1.5 -15.5
q1 -6 1 -20q0 -18 -2 -26q11 16 24 25t25 9q15 0 29.5 -11.5t14.5 -27.5q0 -32 -31 -56q-14 -10 -31 -16t-32 -6h-46l-13 52h32l5 10q0 25 -6.5 54t-14.5 43l31 37q9 -22 28 -44zM42 443q-11 0 -21.5 -9t-17.5 -21h26q12 0 24 5.5t16 11.5q-9 13 -27 13z" />
    <glyph glyph-name="uniFBA3" unicode="&#x6bb;" horiz-adv-x="325" arabic-form="medial" 
d="M177.5 232.5q-1.5 -10.5 -1.5 -23.5q0 -33 14 -50q18 -20 61 -20h74v-139h-60q-49 0 -82 23q-16 12 -24 27q-2 -4 -9 -11.5t-17 -15.5q-33 -23 -75 -23h-68q-29 0 -49.5 20.5t-20.5 50.5q0 33 23.5 50.5t46.5 17.5h60q32 0 50 19.5t23.5 40.5t5.5 28l51 19
q-1 -3 -2.5 -13.5zM27 444q-10 -3 -12.5 -7.5t-1.5 -15.5q1 -6 1 -20q0 -18 -2 -26q11 16 24 25t25 9q15 0 29.5 -11.5t14.5 -27.5q0 -32 -31 -56q-14 -10 -31 -16t-32 -6h-46l-13 52h32l5 10q0 25 -6.5 54t-14.5 43l31 37q9 -22 28 -44zM49 370q-11 0 -21.5 -9t-17.5 -21
h26q12 0 24 5.5t16 11.5q-9 13 -27 13z" />
    <glyph glyph-name="uniFBA7" unicode="&#x6c1;" horiz-adv-x="462" arabic-form="final" 
d="M462 0h-57q-48 0 -80 30q-12 11 -20.5 24t-18.5 33q-12 22 -23.5 34t-28.5 12q-37 0 -75 -67q-19 -34 -37 -77l-62 -18q34 106 66 164q31 56 62 83t65 27q29 0 48.5 -16t37.5 -42q15 -23 31 -35.5t37 -12.5h55v-139z" />
    <glyph glyph-name="uniFBA8" unicode="&#x6c1;" horiz-adv-x="244" arabic-form="initial" 
d="M159 65q-41 -65 -122 -65h-47q-29 0 -49.5 20.5t-20.5 49.5q0 31 21.5 50t48.5 19h55q22 0 45 10t34 27l-69 71q18 36 33 58.5t35 44.5q0 3 19.5 -21.5t35.5 -62t16 -84.5q0 -62 -35 -117zM76.5 -82.5q-17.5 -14.5 -25.5 -37.5q-3 -8 -3 -15q0 -13 9.5 -21t26.5 -10
q-6 -23 -17 -33.5t-30 -10.5q-22 0 -36 15t-14 38q0 5 2 17q10 42 43.5 71t90.5 51v-39q-29 -11 -46.5 -25.5z" />
    <glyph glyph-name="uniFBA9" unicode="&#x6c1;" horiz-adv-x="494" arabic-form="medial" 
d="M494 0h-54q-26 0 -38.5 4t-30.5 14q-13 7 -22.5 11t-22.5 4q-19 0 -33 -9t-20 -22q-5 -13 -5 -23q0 -5 1.5 -12t1.5 -10q4 -18 12 -29.5t24 -28.5q-38 -48 -84 -88q-50 30 -83 84q-25 40 -34 83q-5 24 -7 48q-28 -26 -67 -26h-42q-35 0 -52.5 22t-17.5 48q0 29 20.5 49
t49.5 20h59q33 0 52 17q10 9 13.5 19t5.5 26l52 19q-4 -31 -4 -66q0 -20 1 -29q4 -51 19 -86q12 45 47 69q44 31 112 31h147v-139z" />
    <glyph glyph-name="uniFBAB" unicode="&#x6be;" horiz-adv-x="697" arabic-form="final" 
d="M697 0h-60q-40 0 -69 15q-20 10 -36 32q-5 -10 -27 -32l-28 -27q-26 14 -65 33.5t-62 27.5q-56 -50 -122 -61q-34 -6 -73 -6q-44 0 -95 9l12 38q108 36 153 72q-18 25 -18 61q0 24 7.5 48t20.5 41q20 30 57 45l-8 5q-11 7 -11 20q0 14 12 35q9 17 17 29.5t13 21.5
q15 -10 28.5 -18t34.5 -18q29 -14 61 -33q65 -39 97 -85q37 -49 38 -103q8 -7 19.5 -9t29.5 -2h74v-139zM359 252.5q-7 7.5 -15 7.5q-16 0 -51 -29q-20 -19 -32 -36q9 -14 26 -23q27 -14 46 -14q13 0 33 11q10 7 14.5 15.5t4.5 12.5t-4 15.5t-11 22.5q-4 10 -11 17.5z
M426 238q1 -7 2 -16t1 -21q0 -11 -1 -16q-2 -16 -19 -46l88 -24q1 40 -22 76q-19 26 -49 47z" />
    <glyph glyph-name="uniFBAC" unicode="&#x6be;" horiz-adv-x="438" arabic-form="initial" 
d="M347 48q-14 -17 -56 -60q-79 44 -120 56q-41 -44 -128 -44h-53q-34 0 -52 21t-18 47q0 29 20.5 50t49.5 21h43q-7 21 -7 37q-2 41 23 75q20 30 57 45l-8 5q-11 7 -11 20q0 14 12 35q9 17 17 29.5t13 21.5q15 -10 28.5 -18t34.5 -18q29 -14 61 -33q65 -39 97 -85
q38 -53 38 -106q0 -52 -41 -99zM195 212.5q-4 11.5 -11 22.5q-4 10 -11 17.5t-15 7.5q-16 0 -51 -29q-20 -19 -32 -36q9 -14 26 -23q27 -14 46 -14q13 0 33 11q10 7 14.5 15.5t4.5 12.5t-4 15.5zM293 185q-18 29 -53 52q4 -16 4 -35q0 -12 -1 -18q-5 -23 -19 -46l88 -24
q1 38 -19 71z" />
    <glyph glyph-name="uniFBAD" unicode="&#x6be;" horiz-adv-x="511" arabic-form="medial" 
d="M511 0h-60q-49 0 -82 23q-11 8 -23 24l-25 -28l-30 -31q-79 44 -120 56q-41 -44 -128 -44h-53q-34 0 -52 21t-18 47q0 29 20.5 50t49.5 21h43q-7 21 -7 37q-2 41 23 75q20 30 57 45l-8 5q-11 7 -11 20q0 14 12 35q9 17 17 29.5t13 21.5q15 -10 28.5 -18t34.5 -18
q29 -14 61 -33q65 -39 97 -85q37 -49 38 -103q8 -7 19.5 -9t29.5 -2h74v-139zM173 252.5q-7 7.5 -15 7.5q-16 0 -51 -29q-20 -19 -32 -36q9 -14 26 -23q27 -14 46 -14q13 0 33 11q10 7 14.5 15.5t4.5 12.5t-4 15.5t-11 22.5q-4 10 -11 17.5zM240 237q4 -16 4 -35
q0 -12 -1 -18q-5 -23 -19 -46l88 -24q1 41 -22 75q-17 25 -50 48z" />
    <glyph glyph-name="uniFBAF" unicode="&#x6d2;" horiz-adv-x="635" arabic-form="final" 
d="M391 0q-32 0 -50 -8.5t-31 -19.5q-6 -6 -28.5 -21.5t-39.5 -24.5q-26 -14 -58 -24q-8 -3 -12.5 -8.5t-4.5 -12.5q0 -13 21.5 -19.5t75.5 -6.5h410q-35 -76 -87 -139h-310q-111 0 -169 40q-48 33 -48 84q0 42 17.5 68.5t45.5 49.5q36 28 104 60q36 17 57.5 29.5t33.5 24.5
q23 25 52 41q50 26 111 26h154v-139h-244z" />
    <glyph glyph-name="uniFBB1" unicode="&#x6d3;" horiz-adv-x="635" arabic-form="final" 
d="M391 0q-32 0 -50 -8.5t-31 -19.5q-6 -6 -28.5 -21.5t-39.5 -24.5q-26 -14 -58 -24q-8 -3 -12.5 -8.5t-4.5 -12.5q0 -13 21.5 -19.5t75.5 -6.5h410q-35 -76 -87 -139h-310q-111 0 -169 40q-48 33 -48 84q0 42 17.5 68.5t45.5 49.5q36 28 104 60q36 17 57.5 29.5t33.5 24.5
q23 25 52 41q50 26 111 26h154v-139h-244zM305 219q-32 -1 -72 -17q-23 -7 -43.5 -18t-26.5 -15q-12 0 -16 12l-1 6q0 10 13 21t35 25q-17 7 -25 18t-8 22q0 9 6 18q14 17 29 30q29 23 60 23q24 0 35.5 -11.5t13.5 -28.5l-14 -14q-19 7 -31 7q-23 0 -44 -12q6 -15 31 -22
q12 -3 20 -3q3 0 21 2l45 7q-8 -20 -28 -50z" />
    <glyph glyph-name="uniFBD4" unicode="&#x6ad;" horiz-adv-x="854" arabic-form="final" 
d="M854 0h-56q-34 0 -61.5 15t-41.5 38q-2 -3 -12.5 -20.5t-40 -28.5t-77.5 -11l-154 -2h-65q-82 0 -115 5q-64 10 -109 43q-36 27 -55 66q-17 35 -17 84q0 28 7 80l45 -11q2 -44 29 -73q18 -19 48 -30.5t56 -15.5q33 -5 142 -5h33l162 2q24 2 39 17q18 16 15 45l-1 12
q-7 76 -29 187l-15 82q18 33 40 62.5t56 66.5l2 -21q25 -280 38 -387q3 -27 15 -42q15 -19 46 -19h76v-139zM468.5 238.5q-16.5 -19.5 -54.5 -41.5q-25 -5 -57 -5q-41 0 -85 11q50 12 96.5 28.5t46.5 24.5q0 4 -6 5.5t-20 1.5q-56 0 -56 39q0 43 55 74q43 20 94 30
q-9 -20 -17 -34t-18 -27q-36 -9 -55 -26q0 -9 30 -9q63 0 63 -31q0 -21 -16.5 -40.5zM333 650q13 11 35 33.5t29 31.5q23 -11 41.5 -30.5t27.5 -38.5q-7 -10 -27.5 -31t-35.5 -33q-34 42 -70 68zM493 553.5q19 -19.5 28 -37.5q-7 -10 -27.5 -31.5t-35.5 -32.5q-26 32 -53 55
q-33 -35 -57 -55q-38 45 -70 68q13 11 35 33.5t29 31.5q37 -20 60 -53q38 36 50 53q22 -12 41 -31.5z" />
    <glyph glyph-name="uniFBD5" unicode="&#x6ad;" horiz-adv-x="319" arabic-form="initial" 
d="M92 382q62 -50 94 -109q17 -33 25.5 -62t8.5 -62q0 -71 -38.5 -110t-105.5 -39h-86q-29 0 -49.5 20t-20.5 49t20.5 49.5t49.5 20.5h94q20 0 34 8.5t21 18.5q0 17 -35.5 56t-73.5 68l-11 -24l-53 60q5 49 18 101q54 43 137.5 90.5t177.5 90.5q-10 -83 -24 -138
q-101 -41 -183 -88zM50 799q13 11 35 33.5t29 31.5q23 -11 41.5 -30.5t27.5 -38.5q-7 -10 -27.5 -31t-35.5 -33q-34 42 -70 68zM210 702.5q19 -19.5 28 -37.5q-7 -10 -27.5 -31.5t-35.5 -32.5q-26 32 -53 55q-33 -35 -57 -55q-38 45 -70 68q13 11 35 33.5t29 31.5
q37 -20 60 -53q38 36 50 53q22 -12 41 -31.5z" />
    <glyph glyph-name="uniFBD6" unicode="&#x6ad;" horiz-adv-x="412" arabic-form="medial" 
d="M88 372q37 -39 73 -79l80 -92q20 -23 32 -34.5t30 -19.5t43 -8h66v-139h-65q-59 0 -93.5 26.5t-48.5 48.5q-8 -21 -35 -48t-76 -27h-104q-29 0 -49.5 20t-20.5 49t20.5 49.5t49.5 20.5h96q19 0 32 7t20 16q-10 16 -24.5 33.5t-29.5 33.5l-20 21q-30 35 -81 88q4 50 13 89
q84 71 315 181q-7 -70 -24 -138q-110 -43 -199 -98zM52 797q13 11 35 33.5t29 31.5q23 -11 41.5 -30.5t27.5 -38.5q-7 -10 -27.5 -31t-35.5 -33q-34 42 -70 68zM212 700.5q19 -19.5 28 -37.5q-7 -10 -27.5 -31.5t-35.5 -32.5q-26 32 -53 55q-33 -35 -57 -55q-38 45 -70 68
q13 11 35 33.5t29 31.5q37 -20 60 -53q38 36 50 53q22 -12 41 -31.5z" />
    <glyph glyph-name="uniFBD8" unicode="&#x6c7;" horiz-adv-x="457" arabic-form="final" 
d="M457 0h-119q-4 -80 -24 -133q-28 -81 -82 -119q-19 -13 -41 -19t-53 -6l-22 1q-16 2 -24 2q-20 0 -44.5 -3t-37.5 -8l-30 43q3 1 13.5 6.5t30.5 16.5l106 58q38 21 69.5 51.5t48.5 63.5q13 25 16 46h-39q-56 0 -88 27q-38 32 -38 95t21 112q14 36 38.5 58t57.5 22
q55 0 86 -63q21 -42 30 -112h125v-139zM200 221q-23 0 -36 -14.5t-13 -28.5q0 -22 13.5 -31t48.5 -9h49q-3 34 -16 57q-17 26 -46 26zM267 426q0 -14 -1 -26l-35 14q-11 -16 -30 -27q-13 -10 -33.5 -16.5t-57.5 -6.5q-16 0 -25 1q2 6 7 20t13 27q16 -2 23 -2q37 0 62 19
q-35 19 -35 48q0 20 16 39q25 33 55 33q9 0 19 -5q21 -11 21 -37q0 -20 -14 -54l14 -6q1 -8 1 -21zM232 486q0 12 -6 18q-11 9 -22 7q-8 -2 -12 -7.5t-3 -10.5q0 -5 5 -11t14 -10l18 -9q6 11 6 23z" />
    <glyph glyph-name="uniFBDA" unicode="&#x6c6;" horiz-adv-x="457" arabic-form="final" 
d="M457 0h-119q-4 -80 -24 -133q-28 -81 -82 -119q-19 -13 -41 -19t-53 -6l-22 1q-16 2 -24 2q-20 0 -44.5 -3t-37.5 -8l-30 43q3 1 13.5 6.5t30.5 16.5l106 58q38 21 69.5 51.5t48.5 63.5q13 25 16 46h-39q-56 0 -88 27q-38 32 -38 95t21 112q14 36 38.5 58t57.5 22
q55 0 86 -63q21 -42 30 -112h125v-139zM200 221q-23 0 -36 -14.5t-13 -28.5q0 -22 13.5 -31t48.5 -9h49q-3 34 -16 57q-17 26 -46 26zM238 417q-8 -18 -11 -53h-23q-3 30 -10 52q-16 44 -57 93q5 18 19 40q22 -28 30 -42l16 -26q3 -6 7.5 -16t6.5 -17q5 16 16 38
q13 20 25 37l19 26q14 -23 19 -40q-39 -45 -57 -92z" />
    <glyph glyph-name="uniFBDC" unicode="&#x6c8;" horiz-adv-x="457" arabic-form="final" 
d="M457 0h-119q-4 -80 -24 -133q-28 -81 -82 -119q-19 -13 -41 -19t-53 -6l-22 1q-16 2 -24 2q-20 0 -44.5 -3t-37.5 -8l-30 43q3 1 13.5 6.5t30.5 16.5l106 58q38 21 69.5 51.5t48.5 63.5q13 25 16 46h-39q-56 0 -88 27q-38 32 -38 95t21 112q14 36 38.5 58t57.5 22
q55 0 86 -63q21 -42 30 -112h125v-139zM200 221q-23 0 -36 -14.5t-13 -28.5q0 -22 13.5 -31t48.5 -9h49q-3 34 -16 57q-17 26 -46 26zM214 364q1 33 -5 56t-20 43q7 6 16.5 15t19.5 15q19 -34 19 -77q0 -14 -4 -42z" />
    <glyph glyph-name="uniFBDF" unicode="&#x6cb;" horiz-adv-x="457" arabic-form="final" 
d="M457 0h-119q-4 -80 -24 -133q-28 -81 -82 -119q-19 -13 -41 -19t-53 -6l-22 1q-16 2 -24 2q-20 0 -44.5 -3t-37.5 -8l-30 43q3 1 13.5 6.5t30.5 16.5l106 58q38 21 69.5 51.5t48.5 63.5q13 25 16 46h-39q-56 0 -88 27q-38 32 -38 95t21 112q14 36 38.5 58t57.5 22
q55 0 86 -63q21 -42 30 -112h125v-139zM200 221q-23 0 -36 -14.5t-13 -28.5q0 -22 13.5 -31t48.5 -9h49q-3 34 -16 57q-17 26 -46 26zM150 564q13 11 35 33.5t29 31.5q23 -11 41.5 -30.5t27.5 -38.5q-7 -10 -27.5 -31t-35.5 -33q-34 42 -70 68zM310 467.5q19 -19.5 28 -37.5
q-7 -10 -27.5 -31.5t-35.5 -32.5q-26 32 -53 55q-33 -35 -57 -55q-38 45 -70 68q13 11 35 33.5t29 31.5q37 -20 60 -53q38 36 50 53q22 -12 41 -31.5z" />
    <glyph glyph-name="uniFBE1" unicode="&#x6c5;" horiz-adv-x="487" arabic-form="final" 
d="M487 139v-139h-119q-4 -80 -24 -133q-28 -81 -82 -119q-19 -13 -41 -19t-53 -6l-22 1q-16 2 -24 2q-20 0 -44.5 -3t-37.5 -8l-30 43q3 1 13.5 6.5t30.5 16.5l106 58l12 7h-56l-55 62h185q21 25 32 46q13 25 16 46h-39q-56 0 -88 27q-38 32 -38 95t21 112q14 36 38.5 58
t57.5 22q55 0 86 -63q21 -42 30 -112h125zM292 138q-3 34 -16 57q-17 26 -46 26q-23 0 -36 -14.5t-13 -28.5q0 -22 13.5 -31t48.5 -9h49z" />
    <glyph glyph-name="uniFBE3" unicode="&#x6c9;" horiz-adv-x="457" arabic-form="final" 
d="M457 0h-119q-4 -80 -24 -133q-28 -81 -82 -119q-19 -13 -41 -19t-53 -6l-22 1q-16 2 -24 2q-20 0 -44.5 -3t-37.5 -8l-30 43q3 1 13.5 6.5t30.5 16.5l106 58q38 21 69.5 51.5t48.5 63.5q13 25 16 46h-39q-56 0 -88 27q-38 32 -38 95t21 112q14 36 38.5 58t57.5 22
q55 0 86 -63q21 -42 30 -112h125v-139zM200 221q-23 0 -36 -14.5t-13 -28.5q0 -22 13.5 -31t48.5 -9h49q-3 34 -16 57q-17 26 -46 26zM195 484q7 18 10 49h22q3 -26 9 -48q15 -41 52 -84q-5 -17 -17 -37q-20 26 -28 39l-14 23q-12 26 -13 30l-13 -29q-10 -16 -16 -24
q-9 -15 -27 -39q-11 20 -17 37q35 39 52 83z" />
    <glyph glyph-name="uniFBE5" unicode="&#x6d0;" horiz-adv-x="753" arabic-form="final" 
d="M753 0h-127q6 -22 6 -38q0 -41 -25 -88q-22 -42 -63.5 -74.5t-95.5 -52.5q-76 -28 -155 -28q-81 0 -140 31q-57 32 -79 87q-14 32 -14 83q0 32 10 75t28 87l43 -15q-7 -40 -7 -65q0 -52 24 -82q39 -48 144 -48q62 0 119 11q49 10 81.5 27.5t42.5 40.5q-2 19 -54 36
q-19 6 -44 10.5t-33 5.5q23 49 41.5 80.5t38.5 55.5h259v-139zM391 -532q-7 -10 -27.5 -31.5t-35.5 -32.5q-38 45 -70 68q11 9 28 25.5t29 30.5q-24 29 -57 53q13 11 35 33.5t29 31.5q23 -12 41.5 -31t27.5 -38q-5 -7 -20 -23t-29 -29q37 -29 49 -57z" />
    <glyph glyph-name="uniFBE6" unicode="&#x6d0;" horiz-adv-x="244" arabic-form="initial" 
d="M142.5 328.5q19.5 -24.5 35.5 -62t16 -84.5q0 -62 -35 -117q-41 -65 -122 -65h-47q-29 0 -49.5 20.5t-20.5 49.5q0 31 21.5 50t48.5 19h55q22 0 45 10t34 27q-13 15 -28 28l-41 43q18 36 33 58.5t35 44.5q0 3 19.5 -21.5zM85 -245q-7 -10 -27.5 -31.5t-35.5 -32.5
q-38 45 -70 68q11 9 28 25.5t29 30.5q-24 29 -57 53q13 11 35 33.5t29 31.5q23 -12 41.5 -31t27.5 -38q-5 -7 -20 -23t-29 -29q37 -29 49 -57z" />
    <glyph glyph-name="uniFBE7" unicode="&#x6d0;" horiz-adv-x="325" arabic-form="medial" 
d="M177.5 232.5q-1.5 -10.5 -1.5 -23.5q0 -33 14 -50q18 -20 61 -20h74v-139h-60q-49 0 -82 23q-16 12 -24 27q-2 -4 -9 -11.5t-17 -15.5q-33 -23 -75 -23h-68q-29 0 -49.5 20.5t-20.5 50.5q0 33 23.5 50.5t46.5 17.5h60q32 0 50 19.5t23.5 40.5t5.5 28l51 19
q-1 -3 -2.5 -13.5zM76 -244q-7 -10 -27.5 -31.5t-35.5 -32.5q-38 45 -70 68q11 9 28 25.5t29 30.5q-24 29 -57 53q13 11 35 33.5t29 31.5q23 -12 41.5 -31t27.5 -38q-5 -7 -20 -23t-29 -29q37 -29 49 -57z" />
    <glyph glyph-name="uniFBE8" unicode="&#x649;" horiz-adv-x="244" arabic-form="initial" 
d="M142.5 328.5q19.5 -24.5 35.5 -62t16 -84.5q0 -62 -35 -117q-41 -65 -122 -65h-47q-29 0 -49.5 20.5t-20.5 49.5q0 31 21.5 50t48.5 19h55q22 0 45 10t34 27q-13 15 -28 28l-41 43q18 36 33 58.5t35 44.5q0 3 19.5 -21.5z" />
    <glyph glyph-name="uniFBE9" unicode="&#x649;" horiz-adv-x="325" arabic-form="medial" 
d="M177.5 232.5q-1.5 -10.5 -1.5 -23.5q0 -33 14 -50q18 -20 61 -20h74v-139h-60q-49 0 -82 23q-16 12 -24 27q-2 -4 -9 -11.5t-17 -15.5q-33 -23 -75 -23h-68q-29 0 -49.5 20.5t-20.5 50.5q0 33 23.5 50.5t46.5 17.5h60q32 0 50 19.5t23.5 40.5t5.5 28l51 19
q-1 -3 -2.5 -13.5z" />
    <glyph glyph-name="uniFBFD" unicode="&#x6cc;" horiz-adv-x="753" arabic-form="final" 
d="M753 0h-127q6 -22 6 -38q0 -41 -25 -88q-22 -42 -63.5 -74.5t-95.5 -52.5q-76 -28 -155 -28q-81 0 -140 31q-57 32 -79 87q-14 32 -14 83q0 32 10 75t28 87l43 -15q-7 -40 -7 -65q0 -52 24 -82q39 -48 144 -48q62 0 119 11q49 10 81.5 27.5t42.5 40.5q-2 19 -54 36
q-19 6 -44 10.5t-33 5.5q23 49 41.5 80.5t38.5 55.5h259v-139z" />
    <glyph glyph-name="uniFBFE" unicode="&#x6cc;" horiz-adv-x="244" arabic-form="initial" 
d="M142.5 328.5q19.5 -24.5 35.5 -62t16 -84.5q0 -62 -35 -117q-41 -65 -122 -65h-47q-29 0 -49.5 20.5t-20.5 49.5q0 31 21.5 50t48.5 19h55q22 0 45 10t34 27q-13 15 -28 28l-41 43q18 36 33 58.5t35 44.5q0 3 19.5 -21.5zM114 -100q19 -19 27 -37q-7 -10 -27.5 -31.5
t-35.5 -32.5q-26 32 -53 55q-33 -35 -57 -55q-38 45 -70 68q13 11 35 33.5t29 31.5q37 -20 60 -53q38 36 50 53q23 -13 42 -32z" />
    <glyph glyph-name="uniFBFF" unicode="&#x6cc;" horiz-adv-x="325" arabic-form="medial" 
d="M177.5 232.5q-1.5 -10.5 -1.5 -23.5q0 -33 14 -50q18 -20 61 -20h74v-139h-60q-49 0 -82 23q-16 12 -24 27q-2 -4 -9 -11.5t-17 -15.5q-33 -23 -75 -23h-68q-29 0 -49.5 20.5t-20.5 50.5q0 33 23.5 50.5t46.5 17.5h60q32 0 50 19.5t23.5 40.5t5.5 28l51 19
q-1 -3 -2.5 -13.5zM105 -99q19 -19 27 -37q-7 -10 -27.5 -31.5t-35.5 -32.5q-26 32 -53 55q-33 -35 -57 -55q-38 45 -70 68q13 11 35 33.5t29 31.5q37 -20 60 -53q38 36 50 53q23 -13 42 -32z" />
    <glyph glyph-name="uniFC5B" unicode="&#xfc5b;" horiz-adv-x="453" arabic-form="isolated" 
d="M388.5 109.5q-14.5 -36.5 -39.5 -62.5q-55 -57 -148 -57q-83 0 -121 48q-30 39 -30 101q0 21 2.5 37t3.5 20l48 18v-5q0 -44 17.5 -63t59.5 -19h41q44 0 71 17t41 36q-20 26 -62.5 61.5t-99.5 56.5q18 76 35 121q5 -2 23 -9t43.5 -22t49.5 -36q44 -40 62 -85t18 -84
q0 -37 -14.5 -73.5zM226 576q19 -19 28 -38q-10 -12 -29.5 -32.5t-34.5 -31.5q-34 42 -70 68q13 10 33 31t32 34q22 -12 41 -31zM185 632q1 33 -5 56t-20 43q7 6 16.5 15t19.5 15q19 -34 19 -77q0 -14 -4 -42z" />
    <glyph glyph-name="uniFC5C" unicode="&#xfc5c;" horiz-adv-x="346" arabic-form="isolated" 
d="M224 277q9 -9 20 -25q52 -72 52 -171q0 -46 -11 -97t-36 -94t-57 -65q-37 -25 -91 -25q-13 0 -27 2l-25 1q-45 0 -79 -11l-30 43q1 1 11 5.5t33 17.5l106 58q66 37 97 67t31 71q0 40 -35 83q-16 19 -28.5 30.5t-16.5 13.5q39 64 74 107q3 -2 12 -11zM170 338q1 33 -5 56
t-20 43q7 6 16.5 15t19.5 15q19 -34 19 -77q0 -14 -4 -42z" />
    <glyph glyph-name="uniFC5D" unicode="&#xfc5d;" horiz-adv-x="693" arabic-form="isolated" 
d="M614.5 133q28.5 -24 28.5 -55q0 -75 -42.5 -134.5t-109.5 -94.5q-41 -21 -95 -33.5t-102 -12.5q-84 0 -140 32q-57 31 -79 87q-15 34 -15 75q0 15 1 22q2 25 10.5 57.5t16.5 57.5t11 32l43 -15q-1 -5 -4.5 -24t-3.5 -41q0 -53 24 -82q41 -48 145 -48q91 0 168 31
q48 20 71 40q-45 8 -83 14q-51 9 -79 24q-41 24 -39 64q0 23 12.5 68.5t34.5 89.5q31 60 69 91t82 31q41 0 66 -27q25 -28 30 -65t5 -69l-40 -20q-4 8 -16.5 30t-15.5 26q-74 0 -117 -45q-13 -14 -20.5 -28.5t-8.5 -21.5q1 -9 24 -15t52 -9q88 -8 116.5 -32zM212 183
q1 33 -5 56t-20 43q7 6 16.5 15t19.5 15q19 -34 19 -77q0 -14 -4 -42z" />
    <glyph glyph-name="uniFC90" unicode="&#xfc90;" horiz-adv-x="753" arabic-form="final" 
d="M753 0h-127q6 -22 6 -38q0 -41 -25 -88q-22 -42 -63.5 -74.5t-95.5 -52.5q-76 -28 -155 -28q-81 0 -140 31q-57 32 -79 87q-14 32 -14 83q0 32 10 75t28 87l43 -15q-7 -40 -7 -65q0 -52 24 -82q39 -48 144 -48q62 0 119 11q49 10 81.5 27.5t42.5 40.5q-2 19 -54 36
q-19 6 -44 10.5t-33 5.5q23 49 41.5 80.5t38.5 55.5h259v-139zM273 107q1 33 -5 56t-20 43q7 6 16.5 15t19.5 15q19 -34 19 -77q0 -14 -4 -42z" />
    <glyph glyph-name="uniFCD9" unicode="&#xfcd9;" horiz-adv-x="438" arabic-form="initial" 
d="M347 48q-14 -17 -56 -60q-79 44 -120 56q-41 -44 -128 -44h-53q-34 0 -52 21t-18 47q0 29 20.5 50t49.5 21h43q-7 21 -7 37q-2 41 23 75q20 30 57 45l-8 5q-11 7 -11 20q0 14 12 35q9 17 17 29.5t13 21.5q15 -10 28.5 -18t34.5 -18q29 -14 61 -33q65 -39 97 -85
q38 -53 38 -106q0 -52 -41 -99zM195 212.5q-4 11.5 -11 22.5q-4 10 -11 17.5t-15 7.5q-16 0 -51 -29q-20 -19 -32 -36q9 -14 26 -23q27 -14 46 -14q13 0 33 11q10 7 14.5 15.5t4.5 12.5t-4 15.5zM293 185q-18 29 -53 52q4 -16 4 -35q0 -12 -1 -18q-5 -23 -19 -46l88 -24
q1 38 -19 71zM127 447q1 33 -5 56t-20 43q7 6 16.5 15t19.5 15q19 -34 19 -77q0 -14 -4 -42z" />
    <glyph glyph-name="uniFD3C" unicode="&#xfd3c;" horiz-adv-x="289" arabic-form="final" 
d="M167 733q-31 -9 -171 -69q6 28 13 42q25 14 83.5 37t86.5 30q-4 -20 -12 -40zM167 659q-40 -13 -171 -69q5 25 13 42q25 14 83.5 37t86.5 30q-4 -22 -12 -40zM289 0h-93q-68 0 -103 46q-36 48 -36 120q0 195 -17 327q25 35 62 78h40l11 -372q2 -32 15 -45q15 -15 46 -15
h75v-139z" />
    <glyph glyph-name="uniFD3D" unicode="&#xfd3d;" horiz-adv-x="202" arabic-form="isolated" 
d="M71 535q17 26 27 36h35q1 -11 2.5 -46t4.5 -81l3 -57q9 -87 9 -153q0 -92 -15 -167q-6 -28 -11.5 -45.5t-7.5 -21.5h-43q1 5 3 25.5t2 45.5q0 24 -3 49q-4 47 -8 75l-3 20l-12 111l-14 152q14 31 31 57zM182 733q-31 -9 -171 -69q6 28 13 42q25 14 83.5 37t86.5 30
q-4 -20 -12 -40zM182 659q-40 -13 -171 -69q5 25 13 42q25 14 83.5 37t86.5 30q-4 -22 -12 -40z" />
    <glyph glyph-name="uniFDFC" unicode="&#xfdfc;" horiz-adv-x="1274" arabic-form="isolated" 
d="M100.5 139q41.5 52 111.5 52q82 0 129 -85q32 -62 44 -157q24 8 43 20q30 21 30 59q0 27 -21 142q-23 126 -67 328l75 111q24 -49 43 -77.5t45 -48.5q-21 -12 -30.5 -25t-9.5 -33q0 -6 2 -20q21 -161 34 -319q3 -28 3 -54q0 -40 -7 -72q-13 -64 -50 -107q-31 -35 -77 -52
l1 -20q0 -16 1 -22l-63 -27q-2 18 -4 54q-117 -3 -185 40q-89 57 -89 183q0 78 41.5 130zM588.5 349q5.5 -94 5.5 -182q0 -72 36 -120q35 -46 103 -46l92 -1q81 0 122 65q17 27 26 60t9 67q0 49 -17.5 88.5t-53.5 79.5q-20 -22 -35 -44.5t-33 -58.5q41 -45 69 -81
q-11 -17 -34 -27t-45 -10l-82 1q-31 0 -46 15q-13 13 -15 45l-11 409h-40q-37 -47 -67 -97q11 -69 16.5 -163zM898 -235q34 11 79 11l25 -1q14 -2 27 -2q54 0 91 25q32 22 57 65t36 94t11 97q0 99 -52 171q-11 16 -20 25t-12 11q-35 -43 -74 -107q4 -2 16.5 -13.5
t28.5 -30.5q35 -43 35 -83q0 -41 -31 -71t-97 -67l-106 -58q-23 -13 -33 -17.5t-11 -5.5zM281.5 64.5q-31.5 51.5 -87.5 51.5q-27 0 -45.5 -20t-18.5 -47q0 -29 20 -54.5t64 -40.5q47 -17 87 -17q6 0 9.5 0.5t4.5 0.5q-2 75 -33.5 126.5zM728 -174q24 20 57 55
q27 -23 53 -55q15 11 35.5 32.5t27.5 31.5q-8 18 -27 37t-42 32q-12 -17 -50 -53q-23 33 -60 53q-7 -9 -29 -31.5t-35 -33.5q32 -23 70 -68z" />
    <glyph glyph-name="uniFE82" unicode="&#x622;" horiz-adv-x="289" arabic-form="final" 
d="M289 0h-93q-68 0 -103 46q-36 48 -36 120q0 195 -17 327q25 35 62 78h40l11 -372q2 -32 15 -45q15 -15 46 -15h75v-139zM291.5 688.5q-5.5 -15.5 -8.5 -18.5q-1 -1 -9.5 -10.5t-33.5 -23.5q-55 -33 -121 -33q-28 0 -73 10q-20 6 -33 6q-14 0 -25 -8t-17 -16.5t-7 -11.5
q-6 4 -16.5 12.5t-13.5 15.5q0 7 7.5 30.5t26.5 45.5t52 22q19 0 62 -13q56 -17 91 -17q27 0 55 8t46.5 16.5t23.5 11.5q-1 -11 -6.5 -26.5z" />
    <glyph glyph-name="uniFE84" unicode="&#x623;" horiz-adv-x="289" arabic-form="final" 
d="M289 0h-93q-68 0 -103 46q-36 48 -36 120q0 195 -17 327q25 35 62 78h40l11 -372q2 -32 15 -45q15 -15 46 -15h75v-139zM160 640q-32 -1 -72 -17q-23 -7 -43.5 -18t-26.5 -15q-12 0 -16 12l-1 6q0 10 13 21t35 25q-17 7 -25 18t-8 22q0 9 6 18q14 17 29 30q29 23 60 23
q24 0 35.5 -11.5t13.5 -28.5l-14 -14q-19 7 -31 7q-23 0 -44 -12q6 -15 31 -22q12 -3 20 -3q3 0 21 2l45 7q-8 -20 -28 -50z" />
    <glyph glyph-name="uniFE86" unicode="&#x624;" horiz-adv-x="457" arabic-form="final" 
d="M457 0h-119q-4 -80 -24 -133q-28 -81 -82 -119q-19 -13 -41 -19t-53 -6l-22 1q-16 2 -24 2q-20 0 -44.5 -3t-37.5 -8l-30 43q3 1 13.5 6.5t30.5 16.5l106 58q38 21 69.5 51.5t48.5 63.5q13 25 16 46h-39q-56 0 -88 27q-38 32 -38 95t21 112q14 36 38.5 58t57.5 22
q55 0 86 -63q21 -42 30 -112h125v-139zM200 221q-23 0 -36 -14.5t-13 -28.5q0 -22 13.5 -31t48.5 -9h49q-3 34 -16 57q-17 26 -46 26zM231 404q-32 -1 -72 -17q-23 -7 -43.5 -18t-26.5 -15q-12 0 -16 12l-1 6q0 10 13 21t35 25q-17 7 -25 18t-8 22q0 9 6 18q14 17 29 30
q29 23 60 23q24 0 35.5 -11.5t13.5 -28.5l-14 -14q-19 7 -31 7q-23 0 -44 -12q6 -15 31 -22q12 -3 20 -3q3 0 21 2l45 7q-8 -20 -28 -50z" />
    <glyph glyph-name="uniFE88" unicode="&#x625;" horiz-adv-x="294" arabic-form="final" 
d="M294 0h-93q-68 0 -103 46q-36 48 -36 120q0 88 -5.5 182t-16.5 163q30 50 67 97h40l11 -409q2 -32 15 -45q15 -15 46 -15h75v-139zM158 -185q-32 -1 -72 -17q-23 -8 -43.5 -18.5t-26.5 -14.5q-1 0 -4 1t-7 3.5t-5 7.5l-1 6q0 11 15 23t33 22q-17 8 -25 18.5t-8 21.5
q0 10 6 19q14 17 29 30q29 23 60 23q24 0 35.5 -11.5t13.5 -28.5l-14 -14q-19 7 -31 7q-23 0 -44 -12q6 -15 31 -22q12 -3 20 -3q3 0 21 2l45 7q-8 -20 -28 -50z" />
    <glyph glyph-name="uniFE8A" unicode="&#x626;" horiz-adv-x="753" arabic-form="final" 
d="M753 0h-127q6 -22 6 -38q0 -41 -25 -88q-22 -42 -63.5 -74.5t-95.5 -52.5q-76 -28 -155 -28q-81 0 -140 31q-57 32 -79 87q-14 32 -14 83q0 32 10 75t28 87l43 -15q-7 -40 -7 -65q0 -52 24 -82q39 -48 144 -48q62 0 119 11q49 10 81.5 27.5t42.5 40.5q-2 19 -54 36
q-19 6 -44 10.5t-33 5.5q23 49 41.5 80.5t38.5 55.5h259v-139zM341 118q-32 -1 -72 -17q-23 -7 -43.5 -18t-26.5 -15q-12 0 -16 12l-1 6q0 10 13 21t35 25q-17 7 -25 18t-8 22q0 9 6 18q14 17 29 30q29 23 60 23q24 0 35.5 -11.5t13.5 -28.5l-14 -14q-19 7 -31 7
q-23 0 -44 -12q6 -15 31 -22q12 -3 20 -3q3 0 21 2l45 7q-8 -20 -28 -50z" />
    <glyph glyph-name="uniFE8B" unicode="&#x626;" horiz-adv-x="244" arabic-form="initial" 
d="M142.5 328.5q19.5 -24.5 35.5 -62t16 -84.5q0 -62 -35 -117q-41 -65 -122 -65h-47q-29 0 -49.5 20.5t-20.5 49.5q0 31 21.5 50t48.5 19h55q22 0 45 10t34 27q-13 15 -28 28l-41 43q18 36 33 58.5t35 44.5q0 3 19.5 -21.5zM86 415q-32 -1 -72 -17q-23 -7 -43.5 -18
t-26.5 -15q-12 0 -16 12l-1 6q0 10 13 21t35 25q-17 7 -25 18t-8 22q0 9 6 18q14 17 29 30q29 23 60 23q24 0 35.5 -11.5t13.5 -28.5l-14 -14q-19 7 -31 7q-23 0 -44 -12q6 -15 31 -22q12 -3 20 -3q3 0 21 2l45 7q-8 -20 -28 -50z" />
    <glyph glyph-name="uniFE8C" unicode="&#x626;" horiz-adv-x="325" arabic-form="medial" 
d="M177.5 232.5q-1.5 -10.5 -1.5 -23.5q0 -33 14 -50q18 -20 61 -20h74v-139h-60q-49 0 -82 23q-16 12 -24 27q-2 -4 -9 -11.5t-17 -15.5q-33 -23 -75 -23h-68q-29 0 -49.5 20.5t-20.5 50.5q0 33 23.5 50.5t46.5 17.5h60q32 0 50 19.5t23.5 40.5t5.5 28l51 19
q-1 -3 -2.5 -13.5zM93 342q-32 -1 -72 -17q-23 -7 -43.5 -18t-26.5 -15q-12 0 -16 12l-1 6q0 10 13 21t35 25q-17 7 -25 18t-8 22q0 9 6 18q14 17 29 30q29 23 60 23q24 0 35.5 -11.5t13.5 -28.5l-14 -14q-19 7 -31 7q-23 0 -44 -12q6 -15 31 -22q12 -3 20 -3q3 0 21 2l45 7
q-8 -20 -28 -50z" />
    <glyph glyph-name="uniFE8E" unicode="&#x627;" horiz-adv-x="294" arabic-form="final" 
d="M294 0h-93q-68 0 -103 46q-36 48 -36 120q0 88 -5.5 182t-16.5 163q30 50 67 97h40l11 -409q2 -32 15 -45q15 -15 46 -15h75v-139z" />
    <glyph glyph-name="uniFE90" unicode="&#x628;" horiz-adv-x="924" arabic-form="final" 
d="M820 215q-4 -6 -14 -19.5t-19 -24.5q9 -14 28.5 -23t46.5 -9h62v-139h-65q-64 0 -104 34q-15 13 -21 24t-11 24q-50 -50 -128 -71q-81 -21 -211 -21q-88 0 -144 10q-112 20 -156 98q-24 44 -24 101q0 33 7 70l44 -10q4 -35 24 -64.5t74 -45.5q36 -10 83 -13.5t124 -3.5
q43 0 69 1.5t77 6.5q57 6 106 24.5t103 68.5zM447 -106q19 -19 28 -38q-10 -13 -30 -33.5t-34 -30.5q-34 42 -70 68q13 10 33 31t32 34q22 -12 41 -31z" />
    <glyph glyph-name="uniFE91" unicode="&#x628;" horiz-adv-x="244" arabic-form="initial" 
d="M142.5 328.5q19.5 -24.5 35.5 -62t16 -84.5q0 -62 -35 -117q-41 -65 -122 -65h-47q-29 0 -49.5 20.5t-20.5 49.5q0 31 21.5 50t48.5 19h55q22 0 45 10t34 27q-13 15 -28 28l-41 43q18 36 33 58.5t35 44.5q0 3 19.5 -21.5zM58 -87q19 -19 28 -38q-10 -13 -30 -33.5
t-34 -30.5q-34 42 -70 68q13 10 33 31t32 34q22 -12 41 -31z" />
    <glyph glyph-name="uniFE92" unicode="&#x628;" horiz-adv-x="325" arabic-form="medial" 
d="M177.5 232.5q-1.5 -10.5 -1.5 -23.5q0 -33 14 -50q18 -20 61 -20h74v-139h-60q-49 0 -82 23q-16 12 -24 27q-2 -4 -9 -11.5t-17 -15.5q-33 -23 -75 -23h-68q-29 0 -49.5 20.5t-20.5 50.5q0 33 23.5 50.5t46.5 17.5h60q32 0 50 19.5t23.5 40.5t5.5 28l51 19
q-1 -3 -2.5 -13.5zM49 -86q19 -19 28 -38q-10 -13 -30 -33.5t-34 -30.5q-34 42 -70 68q13 10 33 31t32 34q22 -12 41 -31z" />
    <glyph glyph-name="uniFE94" unicode="&#x629;" horiz-adv-x="450" arabic-form="final" 
d="M450 0h-49q-62 0 -96 39q-14 16 -23 36t-22 58q-7 -17 -44 -65q-30 -4 -44 -4q-40 0 -71 13q-41 18 -41 52q0 6 1 10l10 60q3 18 16.5 34t32.5 28q18 11 42 20.5t43 13.5l-8 24q22 25 39 39.5t44 32.5q33 -115 48 -163q9 -31 18 -50t23.5 -29t38.5 -10h42v-139z
M216.5 182.5q9.5 10.5 18.5 30.5l-11 33l-10 -22q-45 0 -54 -2q-18 -4 -30.5 -17t-12.5 -27v-6h74q16 0 25.5 10.5zM229.5 495q18.5 -19 27.5 -38q-7 -10 -27 -31t-36 -33q-21 28 -53 55q-33 -35 -57 -55q-38 45 -70 68q13 11 35 33.5t29 31.5q37 -20 60 -53q38 36 50 53
q23 -12 41.5 -31z" />
    <glyph glyph-name="uniFE96" unicode="&#x62a;" horiz-adv-x="924" arabic-form="final" 
d="M820 215q-4 -6 -14 -19.5t-19 -24.5q9 -14 28.5 -23t46.5 -9h62v-139h-65q-64 0 -104 34q-15 13 -21 24t-11 24q-50 -50 -128 -71q-81 -21 -211 -21q-88 0 -144 10q-112 20 -156 98q-24 44 -24 101q0 33 7 70l44 -10q4 -35 24 -64.5t74 -45.5q36 -10 83 -13.5t124 -3.5
q43 0 69 1.5t77 6.5q57 6 106 24.5t103 68.5zM510.5 342q18.5 -19 27.5 -38q-7 -10 -27 -31t-36 -33q-21 28 -53 55q-33 -35 -57 -55q-38 45 -70 68q13 11 35 33.5t29 31.5q37 -20 60 -53q38 36 50 53q23 -12 41.5 -31z" />
    <glyph glyph-name="uniFE97" unicode="&#x62a;" horiz-adv-x="244" arabic-form="initial" 
d="M142.5 328.5q19.5 -24.5 35.5 -62t16 -84.5q0 -62 -35 -117q-41 -65 -122 -65h-47q-29 0 -49.5 20.5t-20.5 49.5q0 31 21.5 50t48.5 19h55q22 0 45 10t34 27q-13 15 -28 28l-41 43q18 36 33 58.5t35 44.5q0 3 19.5 -21.5zM115.5 455q18.5 -19 27.5 -38q-7 -10 -27 -31
t-36 -33q-21 28 -53 55q-33 -35 -57 -55q-38 45 -70 68q13 11 35 33.5t29 31.5q37 -20 60 -53q38 36 50 53q23 -12 41.5 -31z" />
    <glyph glyph-name="uniFE98" unicode="&#x62a;" horiz-adv-x="325" arabic-form="medial" 
d="M177.5 232.5q-1.5 -10.5 -1.5 -23.5q0 -33 14 -50q18 -20 61 -20h74v-139h-60q-49 0 -82 23q-16 12 -24 27q-2 -4 -9 -11.5t-17 -15.5q-33 -23 -75 -23h-68q-29 0 -49.5 20.5t-20.5 50.5q0 33 23.5 50.5t46.5 17.5h60q32 0 50 19.5t23.5 40.5t5.5 28l51 19
q-1 -3 -2.5 -13.5zM122.5 382q18.5 -19 27.5 -38q-7 -10 -27 -31t-36 -33q-21 28 -53 55q-33 -35 -57 -55q-38 45 -70 68q13 11 35 33.5t29 31.5q37 -20 60 -53q38 36 50 53q23 -12 41.5 -31z" />
    <glyph glyph-name="uniFE9A" unicode="&#x62b;" horiz-adv-x="924" arabic-form="final" 
d="M820 215q-4 -6 -14 -19.5t-19 -24.5q9 -14 28.5 -23t46.5 -9h62v-139h-65q-64 0 -104 34q-15 13 -21 24t-11 24q-50 -50 -128 -71q-81 -21 -211 -21q-88 0 -144 10q-112 20 -156 98q-24 44 -24 101q0 33 7 70l44 -10q4 -35 24 -64.5t74 -45.5q36 -10 83 -13.5t124 -3.5
q43 0 69 1.5t77 6.5q57 6 106 24.5t103 68.5zM350 442q13 11 35 33.5t29 31.5q23 -11 41.5 -30.5t27.5 -38.5q-7 -10 -27.5 -31t-35.5 -33q-34 42 -70 68zM510 345.5q19 -19.5 28 -37.5q-7 -10 -27.5 -31.5t-35.5 -32.5q-26 32 -53 55q-33 -35 -57 -55q-38 45 -70 68
q13 11 35 33.5t29 31.5q37 -20 60 -53q38 36 50 53q22 -12 41 -31.5z" />
    <glyph glyph-name="uniFE9B" unicode="&#x62b;" horiz-adv-x="244" arabic-form="initial" 
d="M142.5 328.5q19.5 -24.5 35.5 -62t16 -84.5q0 -62 -35 -117q-41 -65 -122 -65h-47q-29 0 -49.5 20.5t-20.5 49.5q0 31 21.5 50t48.5 19h55q22 0 45 10t34 27q-13 15 -28 28l-41 43q18 36 33 58.5t35 44.5q0 3 19.5 -21.5zM-45 555q13 11 35 33.5t29 31.5
q23 -11 41.5 -30.5t27.5 -38.5q-7 -10 -27.5 -31t-35.5 -33q-34 42 -70 68zM115 458.5q19 -19.5 28 -37.5q-7 -10 -27.5 -31.5t-35.5 -32.5q-26 32 -53 55q-33 -35 -57 -55q-38 45 -70 68q13 11 35 33.5t29 31.5q37 -20 60 -53q38 36 50 53q22 -12 41 -31.5z" />
    <glyph glyph-name="uniFE9C" unicode="&#x62b;" horiz-adv-x="325" arabic-form="medial" 
d="M177.5 232.5q-1.5 -10.5 -1.5 -23.5q0 -33 14 -50q18 -20 61 -20h74v-139h-60q-49 0 -82 23q-16 12 -24 27q-2 -4 -9 -11.5t-17 -15.5q-33 -23 -75 -23h-68q-29 0 -49.5 20.5t-20.5 50.5q0 33 23.5 50.5t46.5 17.5h60q32 0 50 19.5t23.5 40.5t5.5 28l51 19
q-1 -3 -2.5 -13.5zM-38 482q13 11 35 33.5t29 31.5q23 -11 41.5 -30.5t27.5 -38.5q-7 -10 -27.5 -31t-35.5 -33q-34 42 -70 68zM122 385.5q19 -19.5 28 -37.5q-7 -10 -27.5 -31.5t-35.5 -32.5q-26 32 -53 55q-33 -35 -57 -55q-38 45 -70 68q13 11 35 33.5t29 31.5
q37 -20 60 -53q38 36 50 53q22 -12 41 -31.5z" />
    <glyph glyph-name="uniFE9E" unicode="&#x62c;" horiz-adv-x="699" arabic-form="final" 
d="M698 0h-104q-102 0 -139 66q-21 38 -21 94q0 11 2 39q-65 1 -121 -19.5t-96 -58.5q-33 -30 -52 -70.5t-19 -85.5q0 -74 41 -118q43 -47 127 -62q26 -5 55 -7.5t42 -2.5q62 -2 107 -11l-17 -53q-28 1 -52 -6t-48 -20q-26 -14 -48 -21t-56 -7q-54 0 -100 19.5t-80 57.5
q-30 33 -44.5 81t-14.5 103q0 74 30 142q31 70 88 122q40 36 86 57q-34 10 -66 10q-33 0 -50.5 -10t-34.5 -37l-35 29q2 5 9 20.5t16 31.5q23 42 47 59.5t59 17.5q30 0 80 -16q54 -17 100 -25t121 -8q27 0 59 2q-2 -8 -12.5 -46t-26.5 -72l-28 2q3 -22 19 -36q24 -22 77 -22
h100v-139zM352 18q19 -19 28 -38q-10 -12 -29.5 -32.5t-34.5 -31.5q-34 42 -70 68q13 10 33 31t32 34q22 -12 41 -31z" />
    <glyph glyph-name="uniFE9F" unicode="&#x62c;" horiz-adv-x="588" arabic-form="initial" 
d="M476 139q-50 0 -80.5 -6t-55 -18.5t-67.5 -40.5q-53 -34 -103.5 -54t-127.5 -20h-52q-29 0 -49.5 19t-20.5 50t20 50.5t50 19.5h57q70 0 135 13q28 6 56.5 15t46.5 18q-104 46 -157 46q-27 0 -44 -10.5t-30 -35.5l-29 27q6 32 15.5 52.5t26.5 38.5q37 39 87 39
q19 0 38.5 -6t51.5 -18q64 -25 94.5 -33.5t65.5 -11t115 -2.5l19 1q-28 -78 -62 -133zM223 -86q19 -19 28 -38q-10 -13 -30 -33.5t-34 -30.5q-34 42 -70 68q13 10 33 31t32 34q22 -12 41 -31z" />
    <glyph glyph-name="uniFEA0" unicode="&#x62c;" horiz-adv-x="674" arabic-form="medial" 
d="M522 232.5q-12 -26.5 -31 -60.5q-6 1 -24.5 3t-32.5 1q15 -37 73 -37h167v-139h-154q-93 0 -134 60q-23 33 -29 86q-16 -9 -45 -32q-40 -31 -67.5 -49.5t-63.5 -34.5q-69 -30 -139 -30h-52q-27 0 -48.5 20t-21.5 50q0 29 20.5 49t49.5 20h47q79 0 147 21q28 8 55 21
t41 23l-38 12q-36 13 -64.5 20.5t-54.5 7.5q-30 0 -46 -12t-29 -39l-34 31q19 63 53 99q37 40 86 40q20 0 39.5 -5.5t49.5 -16.5q71 -26 112.5 -34.5t108.5 -8.5q42 0 67 1l19 1q-15 -41 -27 -67.5zM223 -86q19 -19 28 -38q-10 -13 -30 -33.5t-34 -30.5q-34 42 -70 68
q13 10 33 31t32 34q22 -12 41 -31z" />
    <glyph glyph-name="uniFEA2" unicode="&#x62d;" horiz-adv-x="699" arabic-form="final" 
d="M698 0h-104q-102 0 -139 66q-21 38 -21 94q0 11 2 39q-65 1 -121 -19.5t-96 -58.5q-33 -30 -52 -70.5t-19 -85.5q0 -74 41 -118q43 -47 127 -62q26 -5 55 -7.5t42 -2.5q62 -2 107 -11l-17 -53q-28 1 -52 -6t-48 -20q-26 -14 -48 -21t-56 -7q-54 0 -100 19.5t-80 57.5
q-30 33 -44.5 81t-14.5 103q0 74 30 142q31 70 88 122q40 36 86 57q-34 10 -66 10q-33 0 -50.5 -10t-34.5 -37l-35 29q2 5 9 20.5t16 31.5q23 42 47 59.5t59 17.5q30 0 80 -16q54 -17 100 -25t121 -8q27 0 59 2q-2 -8 -12.5 -46t-26.5 -72l-28 2q3 -22 19 -36q24 -22 77 -22
h100v-139z" />
    <glyph glyph-name="uniFEA3" unicode="&#x62d;" horiz-adv-x="588" arabic-form="initial" 
d="M476 139q-50 0 -80.5 -6t-55 -18.5t-67.5 -40.5q-53 -34 -103.5 -54t-127.5 -20h-52q-29 0 -49.5 19t-20.5 50t20 50.5t50 19.5h57q70 0 135 13q28 6 56.5 15t46.5 18q-104 46 -157 46q-27 0 -44 -10.5t-30 -35.5l-29 27q6 32 15.5 52.5t26.5 38.5q37 39 87 39
q19 0 38.5 -6t51.5 -18q64 -25 94.5 -33.5t65.5 -11t115 -2.5l19 1q-28 -78 -62 -133z" />
    <glyph glyph-name="uniFEA4" unicode="&#x62d;" horiz-adv-x="674" arabic-form="medial" 
d="M522 232.5q-12 -26.5 -31 -60.5q-6 1 -24.5 3t-32.5 1q15 -37 73 -37h167v-139h-154q-93 0 -134 60q-23 33 -29 86q-16 -9 -45 -32q-40 -31 -67.5 -49.5t-63.5 -34.5q-69 -30 -139 -30h-52q-27 0 -48.5 20t-21.5 50q0 29 20.5 49t49.5 20h47q79 0 147 21q28 8 55 21
t41 23l-38 12q-36 13 -64.5 20.5t-54.5 7.5q-30 0 -46 -12t-29 -39l-34 31q19 63 53 99q37 40 86 40q20 0 39.5 -5.5t49.5 -16.5q71 -26 112.5 -34.5t108.5 -8.5q42 0 67 1l19 1q-15 -41 -27 -67.5z" />
    <glyph glyph-name="uniFEA6" unicode="&#x62e;" horiz-adv-x="699" arabic-form="final" 
d="M698 0h-104q-102 0 -139 66q-21 38 -21 94q0 11 2 39q-65 1 -121 -19.5t-96 -58.5q-33 -30 -52 -70.5t-19 -85.5q0 -74 41 -118q43 -47 127 -62q26 -5 55 -7.5t42 -2.5q62 -2 107 -11l-17 -53q-28 1 -52 -6t-48 -20q-26 -14 -48 -21t-56 -7q-54 0 -100 19.5t-80 57.5
q-30 33 -44.5 81t-14.5 103q0 74 30 142q31 70 88 122q40 36 86 57q-34 10 -66 10q-33 0 -50.5 -10t-34.5 -37l-35 29q2 5 9 20.5t16 31.5q23 42 47 59.5t59 17.5q30 0 80 -16q54 -17 100 -25t121 -8q27 0 59 2q-2 -8 -12.5 -46t-26.5 -72l-28 2q3 -22 19 -36q24 -22 77 -22
h100v-139zM309 517q19 -19 28 -38q-10 -12 -29.5 -32.5t-34.5 -31.5q-34 42 -70 68q13 10 33 31t32 34q22 -12 41 -31z" />
    <glyph glyph-name="uniFEA7" unicode="&#x62e;" horiz-adv-x="588" arabic-form="initial" 
d="M476 139q-50 0 -80.5 -6t-55 -18.5t-67.5 -40.5q-53 -34 -103.5 -54t-127.5 -20h-52q-29 0 -49.5 19t-20.5 50t20 50.5t50 19.5h57q70 0 135 13q28 6 56.5 15t46.5 18q-104 46 -157 46q-27 0 -44 -10.5t-30 -35.5l-29 27q6 32 15.5 52.5t26.5 38.5q37 39 87 39
q19 0 38.5 -6t51.5 -18q64 -25 94.5 -33.5t65.5 -11t115 -2.5l19 1q-28 -78 -62 -133zM243 499q19 -19 28 -38q-10 -12 -29.5 -32.5t-34.5 -31.5q-34 42 -70 68q13 10 33 31t32 34q22 -12 41 -31z" />
    <glyph glyph-name="uniFEA8" unicode="&#x62e;" horiz-adv-x="674" arabic-form="medial" 
d="M522 232.5q-12 -26.5 -31 -60.5q-6 1 -24.5 3t-32.5 1q15 -37 73 -37h167v-139h-154q-93 0 -134 60q-23 33 -29 86q-16 -9 -45 -32q-40 -31 -67.5 -49.5t-63.5 -34.5q-69 -30 -139 -30h-52q-27 0 -48.5 20t-21.5 50q0 29 20.5 49t49.5 20h47q79 0 147 21q28 8 55 21
t41 23l-38 12q-36 13 -64.5 20.5t-54.5 7.5q-30 0 -46 -12t-29 -39l-34 31q19 63 53 99q37 40 86 40q20 0 39.5 -5.5t49.5 -16.5q71 -26 112.5 -34.5t108.5 -8.5q42 0 67 1l19 1q-15 -41 -27 -67.5zM242 520q19 -19 28 -38q-10 -12 -29.5 -32.5t-34.5 -31.5q-34 42 -70 68
q13 10 33 31t32 34q22 -12 41 -31z" />
    <glyph glyph-name="uniFEAA" unicode="&#x62f;" horiz-adv-x="554" arabic-form="final" 
d="M409 230q19 -53 38.5 -72t55.5 -19h51v-139h-52q-54 0 -92 25q-33 21 -49 55q-40 -84 -158 -84q-84 0 -123 48q-30 35 -30 95q0 32 7 63l49 18q0 -29 3 -43t13 -24q18 -20 61 -20h41q39 0 63.5 23.5t24.5 52.5l-38 134q40 51 76 90z" />
    <glyph glyph-name="uniFEAC" unicode="&#x630;" horiz-adv-x="554" arabic-form="final" 
d="M409 230q19 -53 38.5 -72t55.5 -19h51v-139h-52q-54 0 -92 25q-33 21 -49 55q-40 -84 -158 -84q-84 0 -123 48q-30 35 -30 95q0 32 7 63l49 18q0 -29 3 -43t13 -24q18 -20 61 -20h41q39 0 63.5 23.5t24.5 52.5l-38 134q40 51 76 90zM329 580q19 -19 28 -38
q-10 -12 -29.5 -32.5t-34.5 -31.5q-34 42 -70 68q13 10 33 31t32 34q22 -12 41 -31z" />
    <glyph glyph-name="uniFEAE" unicode="&#x631;" horiz-adv-x="426" arabic-form="final" 
d="M227.5 193q12.5 -17 32.5 -31q34 -23 67 -23h99v-139h-86q-24 0 -44 6q1 -55 -9.5 -100t-38.5 -93q-26 -45 -56 -65q-38 -26 -91 -26q-10 0 -26 2l-25 1q-19 0 -43 -3t-37 -8l-30 43q14 8 56.5 30.5t93.5 51.5q68 38 98 67t30 68q0 32 -18 61t-40 50t-22 19q36 64 77 108
q0 -2 12.5 -19z" />
    <glyph glyph-name="uniFEB0" unicode="&#x632;" horiz-adv-x="426" arabic-form="final" 
d="M227.5 193q12.5 -17 32.5 -31q34 -23 67 -23h99v-139h-86q-24 0 -44 6q1 -55 -9.5 -100t-38.5 -93q-26 -45 -56 -65q-38 -26 -91 -26q-10 0 -26 2l-25 1q-19 0 -43 -3t-37 -8l-30 43q14 8 56.5 30.5t93.5 51.5q68 38 98 67t30 68q0 32 -18 61t-40 50t-22 19q36 64 77 108
q0 -2 12.5 -19zM214 369q19 -19 28 -38q-10 -12 -29.5 -32.5t-34.5 -31.5q-34 42 -70 68q13 10 33 31t32 34q22 -12 41 -31z" />
    <glyph glyph-name="uniFEB2" unicode="&#x633;" horiz-adv-x="936" arabic-form="final" 
d="M936 0h-45q-37 0 -60.5 15t-30.5 32q-23 -47 -74 -47q-32 0 -47 14.5t-24 31.5q-13 -23 -24 -32.5t-35 -9.5q-18 0 -30 6l2 -42q4 -84 -34 -142q-38 -60 -109 -87q-58 -23 -131 -23q-76 0 -130 26q-63 31 -89 92q-15 35 -15 81q0 34 11 76.5t28 77.5l43 -15
q-7 -28 -7 -59q0 -49 23 -76q21 -25 59.5 -37.5t86.5 -12.5q56 0 99 10t68.5 29t25.5 47q0 22 -23.5 60.5t-65.5 93.5q29 55 73 104q40 -78 95 -78q59 0 68 86l51 19q-4 -34 -4 -47q0 -58 39 -58q28 0 41.5 24t15.5 62l51 19l-3 -23q-2 -24 -2 -29q0 -22 11 -34
q14 -15 49 -15h43v-139z" />
    <glyph glyph-name="uniFEB3" unicode="&#x633;" horiz-adv-x="551" arabic-form="initial" 
d="M459 295.5q16 -19.5 29 -53t13 -82.5q0 -12 -6 -36t-19 -47q-36 -67 -100 -67q-34 0 -56 13.5t-31 29.5q-8 -16 -30.5 -32.5t-61.5 -16.5q-35 0 -53.5 14.5t-25.5 29.5q-13 -23 -30 -33q-24 -15 -60 -15h-38q-30 0 -50 21.5t-20 47.5q0 28 21 49t49 21h45q34 0 52 31
q12 18 17 51l51 19q-3 -25 -3 -45q5 -60 55 -60q27 0 41 16.5t20 45.5l3 24l51 19l-3 -32l-1 -15q0 -26 14 -43q14 -15 46 -15q21 0 34.5 8.5t19.5 21.5l-49 69q31 47 60 78q0 3 16 -16.5z" />
    <glyph glyph-name="uniFEB4" unicode="&#x633;" horiz-adv-x="563" arabic-form="medial" 
d="M563 0h-45q-30 0 -54.5 12.5t-36.5 35.5q-8 -17 -26 -33.5t-53 -16.5q-29 0 -45 15t-22 34q-7 -15 -31.5 -32t-55.5 -17q-32 0 -49 13.5t-22.5 23t-6.5 11.5q-1 -1 -10.5 -13.5t-30 -22.5t-47.5 -10h-38q-27 0 -48.5 19t-21.5 50q0 29 20.5 49.5t49.5 20.5h45q33 0 52 30
q8 12 11 22.5t6 29.5l51 19q-4 -34 -4 -45q0 -29 11 -44.5t39 -15.5q35 0 54 28q15 23 16 58l51 19q-6 -27 -6 -48q0 -10 1 -14q3 -43 39 -43t50 35q8 22 8 51l51 19q-2 -16 -2 -22q-3 -16 -3 -29q0 -23 11 -35q14 -15 49 -15h43v-139z" />
    <glyph glyph-name="uniFEB6" unicode="&#x634;" horiz-adv-x="936" arabic-form="final" 
d="M936 0h-45q-37 0 -60.5 15t-30.5 32q-23 -47 -74 -47q-32 0 -47 14.5t-24 31.5q-13 -23 -24 -32.5t-35 -9.5q-18 0 -30 6l2 -42q4 -84 -34 -142q-38 -60 -109 -87q-58 -23 -131 -23q-76 0 -130 26q-63 31 -89 92q-15 35 -15 81q0 34 11 76.5t28 77.5l43 -15
q-7 -28 -7 -59q0 -49 23 -76q21 -25 59.5 -37.5t86.5 -12.5q56 0 99 10t68.5 29t25.5 47q0 22 -23.5 60.5t-65.5 93.5q29 55 73 104q40 -78 95 -78q59 0 68 86l51 19q-4 -34 -4 -47q0 -58 39 -58q28 0 41.5 24t15.5 62l51 19l-3 -23q-2 -24 -2 -29q0 -22 11 -34
q14 -15 49 -15h43v-139zM598 490q13 11 35 33.5t29 31.5q23 -11 41.5 -30.5t27.5 -38.5q-7 -10 -27.5 -31t-35.5 -33q-34 42 -70 68zM758 393.5q19 -19.5 28 -37.5q-7 -10 -27.5 -31.5t-35.5 -32.5q-26 32 -53 55q-33 -35 -57 -55q-38 45 -70 68q13 11 35 33.5t29 31.5
q37 -20 60 -53q38 36 50 53q22 -12 41 -31.5z" />
    <glyph glyph-name="uniFEB7" unicode="&#x634;" horiz-adv-x="551" arabic-form="initial" 
d="M459 295.5q16 -19.5 29 -53t13 -82.5q0 -12 -6 -36t-19 -47q-36 -67 -100 -67q-34 0 -56 13.5t-31 29.5q-8 -16 -30.5 -32.5t-61.5 -16.5q-35 0 -53.5 14.5t-25.5 29.5q-13 -23 -30 -33q-24 -15 -60 -15h-38q-30 0 -50 21.5t-20 47.5q0 28 21 49t49 21h45q34 0 52 31
q12 18 17 51l51 19q-3 -25 -3 -45q5 -60 55 -60q27 0 41 16.5t20 45.5l3 24l51 19l-3 -32l-1 -15q0 -26 14 -43q14 -15 46 -15q21 0 34.5 8.5t19.5 21.5l-49 69q31 47 60 78q0 3 16 -16.5zM216 490q13 11 35 33.5t29 31.5q23 -11 41.5 -30.5t27.5 -38.5q-7 -10 -27.5 -31
t-35.5 -33q-34 42 -70 68zM376 393.5q19 -19.5 28 -37.5q-7 -10 -27.5 -31.5t-35.5 -32.5q-26 32 -53 55q-33 -35 -57 -55q-38 45 -70 68q13 11 35 33.5t29 31.5q37 -20 60 -53q38 36 50 53q22 -12 41 -31.5z" />
    <glyph glyph-name="uniFEB8" unicode="&#x634;" horiz-adv-x="563" arabic-form="medial" 
d="M563 0h-45q-30 0 -54.5 12.5t-36.5 35.5q-8 -17 -26 -33.5t-53 -16.5q-29 0 -45 15t-22 34q-7 -15 -31.5 -32t-55.5 -17q-32 0 -49 13.5t-22.5 23t-6.5 11.5q-1 -1 -10.5 -13.5t-30 -22.5t-47.5 -10h-38q-27 0 -48.5 19t-21.5 50q0 29 20.5 49.5t49.5 20.5h45q33 0 52 30
q8 12 11 22.5t6 29.5l51 19q-4 -34 -4 -45q0 -29 11 -44.5t39 -15.5q35 0 54 28q15 23 16 58l51 19q-6 -27 -6 -48q0 -10 1 -14q3 -43 39 -43t50 35q8 22 8 51l51 19q-2 -16 -2 -22q-3 -16 -3 -29q0 -23 11 -35q14 -15 49 -15h43v-139zM226 490q13 11 35 33.5t29 31.5
q23 -11 41.5 -30.5t27.5 -38.5q-7 -10 -27.5 -31t-35.5 -33q-34 42 -70 68zM386 393.5q19 -19.5 28 -37.5q-7 -10 -27.5 -31.5t-35.5 -32.5q-26 32 -53 55q-33 -35 -57 -55q-38 45 -70 68q13 11 35 33.5t29 31.5q37 -20 60 -53q38 36 50 53q22 -12 41 -31.5z" />
    <glyph glyph-name="uniFEBA" unicode="&#x635;" horiz-adv-x="1111" arabic-form="final" 
d="M1111 0h-130q-23 0 -79 2l-215 3q-6 0 -31 -0.5t-39 0.5q-26 2 -49 9q3 -20 3 -58q0 -41 -16.5 -86t-56.5 -83q-35 -33 -81.5 -53t-118.5 -20t-134 29q-67 31 -90 90q-14 35 -14 83q0 34 10.5 76.5t27.5 76.5l43 -15q-7 -28 -7 -59q0 -49 23 -76q21 -25 59.5 -37.5
t86.5 -12.5q52 0 98 11q44 10 69.5 29.5t25.5 45.5q0 22 -23.5 60.5t-65.5 93.5q29 55 73 104q15 -24 41.5 -47t57.5 -26q8 13 33.5 47.5t53.5 64.5q35 38 84.5 74t97.5 36q22 0 44.5 -8.5t40.5 -22.5q22 -17 33 -38.5t11 -45.5q0 -21 -8 -47t-20 -45l-14 -21q23 5 51 5h125
v-139zM852 236q-18 13 -46 13q-33 0 -58.5 -15t-50.5 -41q-25 -25 -45 -54h89q41 0 77 13q41 15 65 39q-9 30 -31 45z" />
    <glyph glyph-name="uniFEBB" unicode="&#x635;" horiz-adv-x="629" arabic-form="initial" 
d="M550 154q-26 -43 -72 -78q-44 -34 -97 -53t-103 -19h-34q-27 0 -45 4l-7 -25h-59l11 48q-13 5 -22 14q-13 -22 -37 -33.5t-58 -11.5h-38q-22 0 -45.5 16.5t-23.5 52.5t23.5 53t45.5 17h39q29 0 48 25q16 23 22 61l51 19q-6 -30 -6 -53q0 -27 11 -41q10 -10 27 -11
q33 53 87 113q44 48 93 79t94 31q18 0 39 -8.5t40 -22.5q45 -36 45 -80q0 -48 -29 -97zM462 229q-22 20 -54 20q-33 0 -58.5 -15t-50.5 -41q-20 -20 -45 -54h89q51 0 96 20q26 12 46 32q-9 24 -23 38z" />
    <glyph glyph-name="uniFEBC" unicode="&#x635;" horiz-adv-x="708" arabic-form="medial" 
d="M708 0h-130l-62 2l-69 2h-177q-48 0 -71 4l-7 -25h-60l12 48q-14 6 -22 14q-13 -22 -37 -33.5t-58 -11.5h-38q-29 0 -49 15.5t-20 53.5q0 36 20 53t49 17h39q30 0 48 25q6 9 11 21t11 40l51 19q-6 -36 -6 -53q0 -29 11 -41q8 -9 26 -11q47 69 88 113q46 49 87 76
q52 33 95 33q22 0 44.5 -7.5t40.5 -22.5q20 -16 32 -38.5t12 -45.5q0 -20 -8 -46.5t-21 -46.5q-5 -8 -17 -24q26 9 57 9h118v-139zM459.5 230q-17.5 19 -52.5 19q-55 0 -109 -56q-14 -15 -28 -33.5t-16 -20.5h89q52 0 95 20q29 13 46 32q-7 20 -24.5 39z" />
    <glyph glyph-name="uniFEBE" unicode="&#x636;" horiz-adv-x="1111" arabic-form="final" 
d="M1111 0h-130q-23 0 -79 2l-215 3q-6 0 -31 -0.5t-39 0.5q-26 2 -49 9q3 -20 3 -58q0 -41 -16.5 -86t-56.5 -83q-35 -33 -81.5 -53t-118.5 -20t-134 29q-67 31 -90 90q-14 35 -14 83q0 34 10.5 76.5t27.5 76.5l43 -15q-7 -28 -7 -59q0 -49 23 -76q21 -25 59.5 -37.5
t86.5 -12.5q52 0 98 11q44 10 69.5 29.5t25.5 45.5q0 22 -23.5 60.5t-65.5 93.5q29 55 73 104q15 -24 41.5 -47t57.5 -26q8 13 33.5 47.5t53.5 64.5q35 38 84.5 74t97.5 36q22 0 44.5 -8.5t40.5 -22.5q22 -17 33 -38.5t11 -45.5q0 -21 -8 -47t-20 -45l-14 -21q23 5 51 5h125
v-139zM852 236q-18 13 -46 13q-33 0 -58.5 -15t-50.5 -41q-25 -25 -45 -54h89q41 0 77 13q41 15 65 39q-9 30 -31 45zM867 519q19 -19 28 -38q-10 -12 -29.5 -32.5t-34.5 -31.5q-34 42 -70 68q13 10 33 31t32 34q22 -12 41 -31z" />
    <glyph glyph-name="uniFEBF" unicode="&#x636;" horiz-adv-x="629" arabic-form="initial" 
d="M550 154q-26 -43 -72 -78q-44 -34 -97 -53t-103 -19h-34q-27 0 -45 4l-7 -25h-59l11 48q-13 5 -22 14q-13 -22 -37 -33.5t-58 -11.5h-38q-22 0 -45.5 16.5t-23.5 52.5t23.5 53t45.5 17h39q29 0 48 25q16 23 22 61l51 19q-6 -30 -6 -53q0 -27 11 -41q10 -10 27 -11
q33 53 87 113q44 48 93 79t94 31q18 0 39 -8.5t40 -22.5q45 -36 45 -80q0 -48 -29 -97zM462 229q-22 20 -54 20q-33 0 -58.5 -15t-50.5 -41q-20 -20 -45 -54h89q51 0 96 20q26 12 46 32q-9 24 -23 38zM474 519q19 -19 28 -38q-10 -12 -29.5 -32.5t-34.5 -31.5q-34 42 -70 68
q13 10 33 31t32 34q22 -12 41 -31z" />
    <glyph glyph-name="uniFEC0" unicode="&#x636;" horiz-adv-x="708" arabic-form="medial" 
d="M708 0h-130l-62 2l-69 2h-177q-48 0 -71 4l-7 -25h-60l12 48q-14 6 -22 14q-13 -22 -37 -33.5t-58 -11.5h-38q-29 0 -49 15.5t-20 53.5q0 36 20 53t49 17h39q30 0 48 25q6 9 11 21t11 40l51 19q-6 -36 -6 -53q0 -29 11 -41q8 -9 26 -11q47 69 88 113q46 49 87 76
q52 33 95 33q22 0 44.5 -7.5t40.5 -22.5q20 -16 32 -38.5t12 -45.5q0 -20 -8 -46.5t-21 -46.5q-5 -8 -17 -24q26 9 57 9h118v-139zM459.5 230q-17.5 19 -52.5 19q-55 0 -109 -56q-14 -15 -28 -33.5t-16 -20.5h89q52 0 95 20q29 13 46 32q-7 20 -24.5 39zM469 518
q19 -19 28 -38q-10 -12 -29.5 -32.5t-34.5 -31.5q-34 42 -70 68q13 10 33 31t32 34q22 -12 41 -31z" />
    <glyph glyph-name="uniFEC2" unicode="&#x637;" horiz-adv-x="757" arabic-form="final" 
d="M757 0h-120l-48 1q-40 2 -67 2q-26 1 -86 1q-62 0 -94 -2l-103 -2q-31 0 -57 -3q-41 31 -72.5 71.5t-49.5 85.5q54 -10 172 -15l36 40q-6 122 -32 226q-9 34 -18 59t-12 31l76 116q10 -27 33 -64t54 -66q-3 -1 -12.5 -8t-18 -21t-8.5 -34q0 -5 2 -19q8 -60 9 -75
q1 -10 1 -26q0 -22 -4 -41q39 42 80 67q43 25 89 25q18 0 39 -8.5t40 -22.5q45 -36 45 -80q0 -56 -37 -107q25 8 55 8h108v-139zM460 229q-45 0 -102 -54q-16 -15 -35 -36h72q52 0 95 20q22 10 46 31q-23 39 -76 39z" />
    <glyph glyph-name="uniFEC3" unicode="&#x637;" horiz-adv-x="487" arabic-form="initial" 
d="M412 150q-25 -43 -71 -77q-41 -31 -96 -51t-97 -20q-37 0 -83 -2h-20h-56q-25 0 -40.5 12.5t-22 28.5t-6.5 28q0 22 16.5 46t52.5 24h49l36 40q-6 122 -32 226q-9 34 -18 59t-12 31l76 116q10 -27 33 -64t54 -66q-3 -1 -12.5 -8t-18 -21t-8.5 -34q0 -5 2 -19q8 -60 9 -75
q1 -10 1 -26q0 -22 -4 -41q39 42 80 67q43 25 89 25q18 0 39 -8.5t40 -22.5q45 -36 45 -80q0 -45 -25 -88zM266 229q-45 0 -102 -54q-16 -15 -35 -36h72q52 0 95 20q22 10 46 31q-23 39 -76 39z" />
    <glyph glyph-name="uniFEC4" unicode="&#x637;" horiz-adv-x="563" arabic-form="medial" 
d="M563 139v-139h-120l-48 1q-40 2 -67 2q-26 1 -86 1q-62 0 -94 -2l-103 -2h-56q-25 0 -40.5 12.5t-22 28.5t-6.5 28q0 22 16.5 46t52.5 24h49l36 40q-6 122 -32 226q-9 34 -18 59t-12 31l76 116q10 -27 33 -64t54 -66q-3 -1 -12.5 -8t-18 -21t-8.5 -34q0 -5 2 -19
q8 -60 9 -75q1 -10 1 -26q0 -22 -4 -41q39 42 80 67q43 25 89 25q18 0 39 -8.5t40 -22.5q45 -36 45 -80q0 -56 -37 -107q25 8 55 8h108zM342 190q-23 39 -76 39q-45 0 -102 -54q-16 -15 -35 -36h72q52 0 95 20q22 10 46 31z" />
    <glyph glyph-name="uniFEC6" unicode="&#x638;" horiz-adv-x="757" arabic-form="final" 
d="M757 0h-120l-48 1q-40 2 -67 2q-26 1 -86 1q-62 0 -94 -2l-103 -2q-31 0 -57 -3q-41 31 -72.5 71.5t-49.5 85.5q54 -10 172 -15l36 40q-6 122 -32 226q-9 34 -18 59t-12 31l76 116q10 -27 33 -64t54 -66q-3 -1 -12.5 -8t-18 -21t-8.5 -34q0 -5 2 -19q8 -60 9 -75
q1 -10 1 -26q0 -22 -4 -41q39 42 80 67q43 25 89 25q18 0 39 -8.5t40 -22.5q45 -36 45 -80q0 -56 -37 -107q25 8 55 8h108v-139zM460 229q-45 0 -102 -54q-16 -15 -35 -36h72q52 0 95 20q22 10 46 31q-23 39 -76 39zM546 506q19 -19 28 -38q-10 -12 -29.5 -32.5t-34.5 -31.5
q-34 42 -70 68q13 10 33 31t32 34q22 -12 41 -31z" />
    <glyph glyph-name="uniFEC7" unicode="&#x638;" horiz-adv-x="487" arabic-form="initial" 
d="M412 150q-25 -43 -71 -77q-41 -31 -96 -51t-97 -20q-37 0 -83 -2h-20h-56q-25 0 -40.5 12.5t-22 28.5t-6.5 28q0 22 16.5 46t52.5 24h49l36 40q-6 122 -32 226q-9 34 -18 59t-12 31l76 116q10 -27 33 -64t54 -66q-3 -1 -12.5 -8t-18 -21t-8.5 -34q0 -5 2 -19q8 -60 9 -75
q1 -10 1 -26q0 -22 -4 -41q39 42 80 67q43 25 89 25q18 0 39 -8.5t40 -22.5q45 -36 45 -80q0 -45 -25 -88zM266 229q-45 0 -102 -54q-16 -15 -35 -36h72q52 0 95 20q22 10 46 31q-23 39 -76 39zM352 506q19 -19 28 -38q-10 -12 -29.5 -32.5t-34.5 -31.5q-34 42 -70 68
q13 10 33 31t32 34q22 -12 41 -31z" />
    <glyph glyph-name="uniFEC8" unicode="&#x638;" horiz-adv-x="563" arabic-form="medial" 
d="M563 139v-139h-120l-48 1q-40 2 -67 2q-26 1 -86 1q-62 0 -94 -2l-103 -2h-56q-25 0 -40.5 12.5t-22 28.5t-6.5 28q0 22 16.5 46t52.5 24h49l36 40q-6 122 -32 226q-9 34 -18 59t-12 31l76 116q10 -27 33 -64t54 -66q-3 -1 -12.5 -8t-18 -21t-8.5 -34q0 -5 2 -19
q8 -60 9 -75q1 -10 1 -26q0 -22 -4 -41q39 42 80 67q43 25 89 25q18 0 39 -8.5t40 -22.5q45 -36 45 -80q0 -56 -37 -107q25 8 55 8h108zM342 190q-23 39 -76 39q-45 0 -102 -54q-16 -15 -35 -36h72q52 0 95 20q22 10 46 31zM342 506q19 -19 28 -38q-10 -12 -29.5 -32.5
t-34.5 -31.5q-34 42 -70 68q13 10 33 31t32 34q22 -12 41 -31z" />
    <glyph glyph-name="uniFECA" unicode="&#x639;" horiz-adv-x="562" arabic-form="final" 
d="M561 0h-148q-37 0 -61 8.5t-42 29.5q-11 12 -26 39q-36 -12 -67 -35t-54 -53q-43 -57 -43 -126q0 -65 41 -110q43 -47 127 -62q26 -5 55 -7.5t42 -2.5q62 -2 107 -11l-17 -53q-28 1 -52 -6t-48 -20q-26 -14 -48 -21t-56 -7q-54 0 -100 19.5t-80 57.5q-29 32 -44.5 77.5
t-15.5 95.5q0 91 45 173q33 61 85 104q35 29 74 47q-31 29 -70 40q7 61 22 94q31 17 57 25t54 8q69 0 101.5 -24t32.5 -58q0 -22 -17 -45t-31 -36q12 -2 17 -2h160v-139z" />
    <glyph glyph-name="uniFECB" unicode="&#x639;" horiz-adv-x="423" arabic-form="initial" 
d="M355 122q-11 -29 -29 -62q-4 -1 -14.5 -5t-23.5 -9q-46 -20 -95.5 -33t-109.5 -13h-93q-30 0 -50 20.5t-20 49.5t20 49t50 20h56q-29 29 -29 61q0 56 59 110q26 25 55.5 39t55.5 14q45 0 78 -22t67 -68l-41 -36q-25 13 -44.5 17.5t-46.5 4.5q-48 0 -95 -27q8 -27 26 -54
t50 -41q51 1 110 21.5t60 20.5l22 8q-7 -36 -18 -65z" />
    <glyph glyph-name="uniFECC" unicode="&#x639;" horiz-adv-x="433" arabic-form="medial" 
d="M433 0h-121q-53 0 -92 30q-18 13 -32 31q-31 -28 -61 -42q-40 -19 -88 -19h-50q-24 0 -39.5 12.5t-22.5 29t-7 27.5q0 25 12.5 40.5t28.5 22.5t28 7h88q22 0 40 8q-8 17 -25.5 24.5t-34.5 7.5q4 44 21 92q53 33 112 33q69 0 101.5 -24t32.5 -58q0 -22 -19.5 -49
t-39.5 -45q25 11 57 11h111v-139z" />
    <glyph glyph-name="uniFECE" unicode="&#x63a;" horiz-adv-x="562" arabic-form="final" 
d="M561 0h-148q-37 0 -61 8.5t-42 29.5q-11 12 -26 39q-36 -12 -67 -35t-54 -53q-43 -57 -43 -126q0 -65 41 -110q43 -47 127 -62q26 -5 55 -7.5t42 -2.5q62 -2 107 -11l-17 -53q-28 1 -52 -6t-48 -20q-26 -14 -48 -21t-56 -7q-54 0 -100 19.5t-80 57.5q-29 32 -44.5 77.5
t-15.5 95.5q0 91 45 173q33 61 85 104q35 29 74 47q-31 29 -70 40q7 61 22 94q31 17 57 25t54 8q69 0 101.5 -24t32.5 -58q0 -22 -17 -45t-31 -36q12 -2 17 -2h160v-139zM338 461q19 -19 28 -38q-10 -12 -29.5 -32.5t-34.5 -31.5q-34 42 -70 68q13 10 33 31t32 34
q22 -12 41 -31z" />
    <glyph glyph-name="uniFECF" unicode="&#x63a;" horiz-adv-x="423" arabic-form="initial" 
d="M355 122q-11 -29 -29 -62q-4 -1 -14.5 -5t-23.5 -9q-46 -20 -95.5 -33t-109.5 -13h-93q-30 0 -50 20.5t-20 49.5t20 49t50 20h56q-29 29 -29 61q0 56 59 110q26 25 55.5 39t55.5 14q45 0 78 -22t67 -68l-41 -36q-25 13 -44.5 17.5t-46.5 4.5q-48 0 -95 -27q8 -27 26 -54
t50 -41q51 1 110 21.5t60 20.5l22 8q-7 -36 -18 -65zM226 520q19 -19 28 -38q-10 -12 -29.5 -32.5t-34.5 -31.5q-34 42 -70 68q13 10 33 31t32 34q22 -12 41 -31z" />
    <glyph glyph-name="uniFED0" unicode="&#x63a;" horiz-adv-x="433" arabic-form="medial" 
d="M433 0h-121q-53 0 -92 30q-18 13 -32 31q-31 -28 -61 -42q-40 -19 -88 -19h-50q-24 0 -39.5 12.5t-22.5 29t-7 27.5q0 25 12.5 40.5t28.5 22.5t28 7h88q22 0 40 8q-8 17 -25.5 24.5t-34.5 7.5q4 44 21 92q53 33 112 33q69 0 101.5 -24t32.5 -58q0 -22 -19.5 -49
t-39.5 -45q25 11 57 11h111v-139zM229 461q19 -19 28 -38q-10 -12 -29.5 -32.5t-34.5 -31.5q-34 42 -70 68q13 10 33 31t32 34q22 -12 41 -31z" />
    <glyph glyph-name="uniFED2" unicode="&#x641;" horiz-adv-x="954" arabic-form="final" 
d="M954 0h-107q-35 0 -60.5 13.5t-36.5 38.5q-54 -30 -121 -42q-91 -17 -220 -17q-96 0 -170 12q-97 17 -138 61.5t-41 135.5q0 24 2 45.5t3 27.5l47 -11q0 -16 7 -39t39 -46q17 -13 41 -21t64 -14q57 -9 160 -9q101 0 180 10q-6 18 -6 37q0 29 11.5 61t31.5 59
q22 29 47.5 45t51.5 16q23 0 43.5 -12t33.5 -32q12 -18 20 -44.5t8 -54.5q0 -40 -13 -83q18 2 30 2h93v-139zM775.5 208.5q-9.5 13.5 -23.5 25.5t-30 12q-22 0 -40 -20.5t-26 -36.5q11 -16 28.5 -30t40.5 -14q18 0 31.5 9t21.5 20.5t8 16.5q-1 4 -10.5 17.5zM778 520
q19 -19 28 -38q-10 -12 -29.5 -32.5t-34.5 -31.5q-34 42 -70 68q13 10 33 31t32 34q22 -12 41 -31z" />
    <glyph glyph-name="uniFED3" unicode="&#x641;" horiz-adv-x="332" arabic-form="initial" 
d="M241.5 420q32.5 -51 39.5 -123q1 -10 1 -32q0 -56 -14 -107q-21 -78 -68 -116q-50 -42 -153 -42h-57q-30 0 -50 20t-20 50q0 31 21 50t48 19h99q45 0 73 12q31 14 46 50q-24 -8 -57 -8q-53 0 -82 27q-32 27 -32 77q0 27 8.5 58.5t24.5 58.5q35 57 88 57q52 0 84.5 -51z
M177.5 350q-11.5 20 -39.5 20q-20 0 -33 -13t-13 -32q0 -34 54 -34q18 0 29.5 3.5t20.5 11.5q-7 24 -18.5 44zM196 628q19 -19 28 -38q-10 -12 -29.5 -32.5t-34.5 -31.5q-34 42 -70 68q13 10 33 31t32 34q22 -12 41 -31z" />
    <glyph glyph-name="uniFED4" unicode="&#x641;" horiz-adv-x="444" arabic-form="medial" 
d="M243 330q23 -19 36.5 -52.5t13.5 -76.5q0 -35 -10 -62h161v-139h-113q-38 0 -63 15.5t-30 30.5q-20 -19 -48 -32.5t-82 -13.5h-118q-32 0 -51 20t-19 48q0 30 20.5 50.5t49.5 20.5h73q-6 17 -6 36q0 25 11.5 57.5t30.5 59.5q20 27 44.5 42t49.5 15q27 0 50 -19z
M209.5 217q-19.5 16 -36.5 16q-18 0 -32.5 -14t-23.5 -29q3 -11 19.5 -26.5t37.5 -15.5q20 0 39 14t21 30q-5 9 -24.5 25zM232 506q19 -19 28 -38q-10 -12 -29.5 -32.5t-34.5 -31.5q-34 42 -70 68q13 10 33 31t32 34q22 -12 41 -31z" />
    <glyph glyph-name="uniFED6" unicode="&#x642;" horiz-adv-x="673" arabic-form="final" 
d="M480 290q21 -19 32 -40q24 -44 32 -111h129v-139h-126q-2 -53 -17.5 -102t-44.5 -87q-33 -43 -80 -66q-51 -24 -116 -24q-80 0 -135 30q-56 30 -80 88q-14 36 -14 72q0 37 8.5 73.5t18 60.5t12.5 30l43 -15q-2 -5 -5.5 -22.5t-3.5 -38.5q0 -49 25 -81q18 -23 51 -33
t85 -10q92 0 138 43q18 16 29 37.5t12 44.5h-33q-63 0 -92 27q-19 17 -28.5 46t-9.5 63q0 56 28 108q17 33 40 49t49 16q32 0 53 -19zM380.5 206.5q-13.5 -11.5 -13.5 -34.5q0 -16 11.5 -24.5t46.5 -8.5h48q-17 79 -61 79q-18 0 -31.5 -11.5zM508.5 462q18.5 -19 27.5 -38
q-7 -10 -27 -31t-36 -33q-21 28 -53 55q-33 -35 -57 -55q-38 45 -70 68q13 11 35 33.5t29 31.5q37 -20 60 -53q38 36 50 53q23 -12 41.5 -31z" />
    <glyph glyph-name="uniFED7" unicode="&#x642;" horiz-adv-x="332" arabic-form="initial" 
d="M241.5 420q32.5 -51 39.5 -123q1 -10 1 -32q0 -56 -14 -107q-21 -78 -68 -116q-50 -42 -153 -42h-57q-30 0 -50 20t-20 50q0 31 21 50t48 19h99q45 0 73 12q31 14 46 50q-24 -8 -57 -8q-53 0 -82 27q-32 27 -32 77q0 27 8.5 58.5t24.5 58.5q35 57 88 57q52 0 84.5 -51z
M177.5 350q-11.5 20 -39.5 20q-20 0 -33 -13t-13 -32q0 -34 54 -34q18 0 29.5 3.5t20.5 11.5q-7 24 -18.5 44zM251.5 621q18.5 -19 27.5 -38q-7 -10 -27 -31t-36 -33q-21 28 -53 55q-33 -35 -57 -55q-38 45 -70 68q13 11 35 33.5t29 31.5q37 -20 60 -53q38 36 50 53
q23 -12 41.5 -31z" />
    <glyph glyph-name="uniFED8" unicode="&#x642;" horiz-adv-x="444" arabic-form="medial" 
d="M243 330q23 -19 36.5 -52.5t13.5 -76.5q0 -35 -10 -62h161v-139h-113q-38 0 -63 15.5t-30 30.5q-20 -19 -48 -32.5t-82 -13.5h-118q-32 0 -51 20t-19 48q0 30 20.5 50.5t49.5 20.5h73q-6 17 -6 36q0 25 11.5 57.5t30.5 59.5q20 27 44.5 42t49.5 15q27 0 50 -19z
M209.5 217q-19.5 16 -36.5 16q-18 0 -32.5 -14t-23.5 -29q3 -11 19.5 -26.5t37.5 -15.5q20 0 39 14t21 30q-5 9 -24.5 25zM287.5 499q18.5 -19 27.5 -38q-7 -10 -27 -31t-36 -33q-21 28 -53 55q-33 -35 -57 -55q-38 45 -70 68q13 11 35 33.5t29 31.5q37 -20 60 -53
q38 36 50 53q23 -12 41.5 -31z" />
    <glyph glyph-name="uniFEDA" unicode="&#x643;" horiz-adv-x="854" arabic-form="final" 
d="M854 0h-56q-34 0 -61.5 15t-41.5 38q-2 -3 -12.5 -20.5t-40 -28.5t-77.5 -11l-154 -2h-65q-82 0 -115 5q-64 10 -109 43q-36 27 -55 66q-17 35 -17 84q0 28 7 80l45 -11q2 -44 29 -73q18 -19 48 -30.5t56 -15.5q33 -5 142 -5h33l162 2q24 2 39 17q18 16 15 45l-1 12
q-7 76 -29 187l-15 82q18 33 40 62.5t56 66.5l2 -21q25 -280 38 -387q3 -27 15 -42q15 -19 46 -19h76v-139zM468.5 238.5q-16.5 -19.5 -54.5 -41.5q-25 -5 -57 -5q-41 0 -85 11q50 12 96.5 28.5t46.5 24.5q0 4 -6 5.5t-20 1.5q-56 0 -56 39q0 43 55 74q43 20 94 30
q-9 -20 -17 -34t-18 -27q-36 -9 -55 -26q0 -9 30 -9q63 0 63 -31q0 -21 -16.5 -40.5z" />
    <glyph glyph-name="uniFEDB" unicode="&#x643;" horiz-adv-x="319" arabic-form="initial" 
d="M92 382q62 -50 94 -109q17 -33 25.5 -62t8.5 -62q0 -71 -38.5 -110t-105.5 -39h-86q-29 0 -49.5 20t-20.5 49t20.5 49.5t49.5 20.5h94q20 0 34 8.5t21 18.5q0 17 -35.5 56t-73.5 68l-11 -24l-53 60q5 49 18 101q54 43 137.5 90.5t177.5 90.5q-10 -83 -24 -138
q-101 -41 -183 -88z" />
    <glyph glyph-name="uniFEDC" unicode="&#x643;" horiz-adv-x="412" arabic-form="medial" 
d="M88 372q37 -39 73 -79l80 -92q20 -23 32 -34.5t30 -19.5t43 -8h66v-139h-65q-59 0 -93.5 26.5t-48.5 48.5q-8 -21 -35 -48t-76 -27h-104q-29 0 -49.5 20t-20.5 49t20.5 49.5t49.5 20.5h96q19 0 32 7t20 16q-10 16 -24.5 33.5t-29.5 33.5l-20 21q-30 35 -81 88q4 50 13 89
q84 71 315 181q-7 -70 -24 -138q-110 -43 -199 -98z" />
    <glyph glyph-name="uniFEDE" unicode="&#x644;" horiz-adv-x="649" arabic-form="final" 
d="M649 0h-54q-20 0 -38.5 6t-29.5 17q3 -39 3 -63q0 -36 -9 -76q-13 -58 -51 -100q-62 -67 -175 -67q-82 0 -138 30q-58 29 -82 88q-15 38 -15 77q0 36 9.5 72t29.5 86l43 -15q-7 -34 -7 -61q0 -45 23 -74q20 -24 55 -36q36 -13 85 -13q80 0 121 26q18 11 25 24.5t7 33.5
q0 15 -3 35l-74 511q65 98 95 125q33 -351 39 -403q0 -5 2 -23q3 -28 15 -42q15 -19 46 -19h78v-139z" />
    <glyph glyph-name="uniFEDF" unicode="&#x644;" horiz-adv-x="248" arabic-form="initial" 
d="M185.5 471q-10.5 -7 -19 -21t-8.5 -34q0 -4 2 -18l11 -74l6 -43q12 -88 12 -105q0 -39 -12 -72t-33 -56q-22 -25 -51 -37q-30 -11 -61 -11h-42q-29 0 -49.5 20.5t-20.5 49.5q0 24 19 46.5t51 22.5h38q50 0 79 37q-6 53 -14.5 95.5t-16.5 74.5t-10 41q-11 41 -19.5 70
t-11.5 36l75 115q15 -39 34 -66t54 -63q-2 -1 -12.5 -8z" />
    <glyph glyph-name="uniFEE0" unicode="&#x644;" horiz-adv-x="325" arabic-form="medial" 
d="M325 0h-56q-45 0 -69.5 18.5t-33.5 34.5q-10 -16 -34 -34.5t-70 -18.5h-72q-31 0 -50.5 21t-19.5 48q0 29 20.5 49.5t49.5 20.5h46q33 0 50 19q13 14 11 35q-1 18 -5 53q-7 56 -21.5 132.5t-19.5 100.5q25 41 46.5 70t49.5 59q6 -58 19 -192t22 -216q3 -27 15 -42
q15 -19 46 -19h76v-139z" />
    <glyph glyph-name="uniFEE2" unicode="&#x645;" horiz-adv-x="519" arabic-form="final" 
d="M518 0h-54q-31 0 -52 17q-21 -40 -41 -53q-74 -4 -123 51q-25 30 -27 54.5t-2 26.5q-25 0 -51 -17q-24 -17 -24 -36q0 -4 9 -81q6 -44 6 -45q11 -83 11 -170q0 -38 -3 -72l-55 -20q-4 63 -11.5 119.5t-20.5 133.5q-3 17 -7 42t-9 59q-4 32 -4 47q0 43 16 75q20 44 63 65
q36 19 90 23l33 46q11 -16 30 -34.5t36 -31.5q72 -60 130 -60h60v-139z" />
    <glyph glyph-name="uniFEE3" unicode="&#x645;" horiz-adv-x="431" arabic-form="initial" 
d="M333 7q-58 6 -97 17t-81 36q-14 -39 -44.5 -49.5t-89.5 -10.5h-32q-29 0 -49 20.5t-20 49.5q0 28 19 48.5t50 20.5h73q13 0 25.5 6t20.5 16q12 15 20 29.5t11 20.5l16 -10q13 32 34 57q36 45 85 45q45 0 73 -37q21 -26 29 -71q5 -28 5 -51q0 -35 -8 -64zM215.5 205.5
q-11.5 -7.5 -16.5 -15.5t-6 -11q49 -24 79 -37.5t61 -22.5q-4 25 -19 49q-13 20 -31 32.5t-39 12.5q-17 0 -28.5 -7.5z" />
    <glyph glyph-name="uniFEE4" unicode="&#x645;" horiz-adv-x="522" arabic-form="medial" 
d="M522 0h-50q-74 0 -103 55q-12 -27 -53 -66q-54 23 -94 48t-78 59q-9 -42 -35 -66q-30 -30 -80 -30h-40q-29 0 -49 20t-20 49q0 23 18 46.5t51 23.5h44q25 0 40 10t28 24l63 71l11 -10q26 32 46 47q33 27 69 27q46 0 76 -40q13 -18 32 -68q14 -35 19 -43q14 -18 37 -18h68
v-139zM238 215q-13 -7 -24 -18q19 -17 54.5 -42t59.5 -41q10 20 10 41t-10 38q-8 16 -22 24.5t-30 8.5q-18 0 -38 -11z" />
    <glyph glyph-name="uniFEE6" unicode="&#x646;" horiz-adv-x="698" arabic-form="final" 
d="M618 0q-29 0 -49 6q2 -24 2 -38q0 -104 -59 -170q-40 -44 -105 -66q-52 -17 -114 -17q-79 0 -136 30q-60 31 -82 88q-15 39 -15 80q0 31 11.5 78.5t27.5 76.5l43 -15q-7 -40 -7 -63q0 -45 22 -72q19 -23 57 -36q42 -14 91 -14q48 0 82 7q51 9 80.5 30t29.5 51
q0 47 -84 157q35 57 68 99l9 -13q42 -60 99 -60h109v-139h-80zM328 89q19 -19 28 -38q-10 -12 -29.5 -32.5t-34.5 -31.5q-34 42 -70 68q13 10 33 31t32 34q22 -12 41 -31z" />
    <glyph glyph-name="uniFEE7" unicode="&#x646;" horiz-adv-x="244" arabic-form="initial" 
d="M142.5 328.5q19.5 -24.5 35.5 -62t16 -84.5q0 -62 -35 -117q-41 -65 -122 -65h-47q-29 0 -49.5 20.5t-20.5 49.5q0 31 21.5 50t48.5 19h55q22 0 45 10t34 27q-13 15 -28 28l-41 43q18 36 33 58.5t35 44.5q0 3 19.5 -21.5zM60 462q19 -19 28 -38q-10 -12 -29.5 -32.5
t-34.5 -31.5q-34 42 -70 68q13 10 33 31t32 34q22 -12 41 -31z" />
    <glyph glyph-name="uniFEE8" unicode="&#x646;" horiz-adv-x="325" arabic-form="medial" 
d="M177.5 232.5q-1.5 -10.5 -1.5 -23.5q0 -33 14 -50q18 -20 61 -20h74v-139h-60q-49 0 -82 23q-16 12 -24 27q-2 -4 -9 -11.5t-17 -15.5q-33 -23 -75 -23h-68q-29 0 -49.5 20.5t-20.5 50.5q0 33 23.5 50.5t46.5 17.5h60q32 0 50 19.5t23.5 40.5t5.5 28l51 19
q-1 -3 -2.5 -13.5zM67 389q19 -19 28 -38q-10 -12 -29.5 -32.5t-34.5 -31.5q-34 42 -70 68q13 10 33 31t32 34q22 -12 41 -31z" />
    <glyph glyph-name="uniFEEA" unicode="&#x647;" horiz-adv-x="450" arabic-form="final" 
d="M450 0h-49q-62 0 -96 39q-14 16 -23 36t-22 58q-7 -17 -44 -65q-30 -4 -44 -4q-40 0 -71 13q-41 18 -41 52q0 6 1 10l10 60q3 18 16.5 34t32.5 28q18 11 42 20.5t43 13.5l-8 24q22 25 39 39.5t44 32.5q33 -115 48 -163q9 -31 18 -50t23.5 -29t38.5 -10h42v-139z
M216.5 182.5q9.5 10.5 18.5 30.5l-11 33l-10 -22q-45 0 -54 -2q-18 -4 -30.5 -17t-12.5 -27v-6h74q16 0 25.5 10.5z" />
    <glyph glyph-name="uniFEEB" unicode="&#x647;" horiz-adv-x="438" arabic-form="initial" 
d="M347 48q-14 -17 -56 -60q-79 44 -120 56q-41 -44 -128 -44h-53q-34 0 -52 21t-18 47q0 29 20.5 50t49.5 21h43q-7 21 -7 37q-2 41 23 75q20 30 57 45l-8 5q-11 7 -11 20q0 14 12 35q9 17 17 29.5t13 21.5q15 -10 28.5 -18t34.5 -18q29 -14 61 -33q65 -39 97 -85
q38 -53 38 -106q0 -52 -41 -99zM195 212.5q-4 11.5 -11 22.5q-4 10 -11 17.5t-15 7.5q-16 0 -51 -29q-20 -19 -32 -36q9 -14 26 -23q27 -14 46 -14q13 0 33 11q10 7 14.5 15.5t4.5 12.5t-4 15.5zM293 185q-18 29 -53 52q4 -16 4 -35q0 -12 -1 -18q-5 -23 -19 -46l88 -24
q1 38 -19 71z" />
    <glyph glyph-name="uniFEEC" unicode="&#x647;" horiz-adv-x="478" arabic-form="medial" 
d="M478 0h-167q21 -30 21 -66q0 -39 -25 -74q-31 -45 -82 -45q-32 0 -62.5 16.5t-54.5 46.5q-37 48 -45 109q-20 -9 -47 -25l7 38h-33q-29 0 -49.5 20.5t-20.5 49.5q0 30 21.5 49.5t48.5 19.5h90q19 72 66 124q26 29 52 45t63 29q25 -34 36.5 -60.5t11.5 -53.5
q0 -48 -34 -94q21 10 49 10h154v-139zM221 241q-30 -25 -45 -50q-19 -25 -29 -53l26 10q30 11 48 21q23 14 23 28q0 11 -23 44zM135 1q12 -42 50 -66q37 -23 96 -26q-8 43 -52 66q-39 21 -94 26z" />
    <glyph glyph-name="uniFEEE" unicode="&#x648;" horiz-adv-x="457" arabic-form="final" 
d="M457 0h-119q-4 -80 -24 -133q-28 -81 -82 -119q-19 -13 -41 -19t-53 -6l-22 1q-16 2 -24 2q-20 0 -44.5 -3t-37.5 -8l-30 43q3 1 13.5 6.5t30.5 16.5l106 58q38 21 69.5 51.5t48.5 63.5q13 25 16 46h-39q-56 0 -88 27q-38 32 -38 95t21 112q14 36 38.5 58t57.5 22
q55 0 86 -63q21 -42 30 -112h125v-139zM200 221q-23 0 -36 -14.5t-13 -28.5q0 -22 13.5 -31t48.5 -9h49q-3 34 -16 57q-17 26 -46 26z" />
    <glyph glyph-name="uniFEF0" unicode="&#x649;" horiz-adv-x="753" arabic-form="final" 
d="M753 0h-127q6 -22 6 -38q0 -41 -25 -88q-22 -42 -63.5 -74.5t-95.5 -52.5q-76 -28 -155 -28q-81 0 -140 31q-57 32 -79 87q-14 32 -14 83q0 32 10 75t28 87l43 -15q-7 -40 -7 -65q0 -52 24 -82q39 -48 144 -48q62 0 119 11q49 10 81.5 27.5t42.5 40.5q-2 19 -54 36
q-19 6 -44 10.5t-33 5.5q23 49 41.5 80.5t38.5 55.5h259v-139z" />
    <glyph glyph-name="uniFEF2" unicode="&#x64a;" horiz-adv-x="753" arabic-form="final" 
d="M753 0h-127q6 -22 6 -38q0 -41 -25 -88q-22 -42 -63.5 -74.5t-95.5 -52.5q-76 -28 -155 -28q-81 0 -140 31q-57 32 -79 87q-14 32 -14 83q0 32 10 75t28 87l43 -15q-7 -40 -7 -65q0 -52 24 -82q39 -48 144 -48q62 0 119 11q49 10 81.5 27.5t42.5 40.5q-2 19 -54 36
q-19 6 -44 10.5t-33 5.5q23 49 41.5 80.5t38.5 55.5h259v-139zM420 -387q19 -19 27 -37q-7 -10 -27.5 -31.5t-35.5 -32.5q-26 32 -53 55q-33 -35 -57 -55q-38 45 -70 68q13 11 35 33.5t29 31.5q37 -20 60 -53q38 36 50 53q23 -13 42 -32z" />
    <glyph glyph-name="uniFEF3" unicode="&#x64a;" horiz-adv-x="244" arabic-form="initial" 
d="M142.5 328.5q19.5 -24.5 35.5 -62t16 -84.5q0 -62 -35 -117q-41 -65 -122 -65h-47q-29 0 -49.5 20.5t-20.5 49.5q0 31 21.5 50t48.5 19h55q22 0 45 10t34 27q-13 15 -28 28l-41 43q18 36 33 58.5t35 44.5q0 3 19.5 -21.5zM114 -100q19 -19 27 -37q-7 -10 -27.5 -31.5
t-35.5 -32.5q-26 32 -53 55q-33 -35 -57 -55q-38 45 -70 68q13 11 35 33.5t29 31.5q37 -20 60 -53q38 36 50 53q23 -13 42 -32z" />
    <glyph glyph-name="uniFEF4" unicode="&#x64a;" horiz-adv-x="325" arabic-form="medial" 
d="M177.5 232.5q-1.5 -10.5 -1.5 -23.5q0 -33 14 -50q18 -20 61 -20h74v-139h-60q-49 0 -82 23q-16 12 -24 27q-2 -4 -9 -11.5t-17 -15.5q-33 -23 -75 -23h-68q-29 0 -49.5 20.5t-20.5 50.5q0 33 23.5 50.5t46.5 17.5h60q32 0 50 19.5t23.5 40.5t5.5 28l51 19
q-1 -3 -2.5 -13.5zM105 -99q19 -19 27 -37q-7 -10 -27.5 -31.5t-35.5 -32.5q-26 32 -53 55q-33 -35 -57 -55q-38 45 -70 68q13 11 35 33.5t29 31.5q37 -20 60 -53q38 36 50 53q23 -13 42 -32z" />
    <glyph glyph-name="uniFEF5" unicode="&#xfef5;" horiz-adv-x="495" arabic-form="isolated" 
d="M437 389l-19 11q-6 -99 -56 -177q41 -72 41 -123l-1 -15l-8 -64q-101 -27 -268 -27q-1 71 7 140l23 2q27 1 64.5 32.5t52.5 50.5q-65 99 -143 171l-12 -19q-37 21 -98 70q11 73 21 95q8 19 24 19q20 0 59 -33q29 -24 75 -73q73 -82 114 -144q17 48 17 104q0 55 -18 119
q46 35 80 80q14 -48 33.5 -80t49.5 -50zM327 156q-7 14 -17 26q-32 -28 -69 -49q44 2 95 6q-2 3 -9 17zM248.5 673.5q-5.5 -15.5 -8.5 -18.5q-1 -1 -9.5 -10.5t-33.5 -23.5q-55 -33 -121 -33q-28 0 -73 10q-20 6 -33 6q-14 0 -25 -8t-17 -16.5t-7 -11.5q-6 4 -16.5 12.5
t-13.5 15.5q0 7 7.5 30.5t26.5 45.5t52 22q19 0 62 -13q56 -17 91 -17q27 0 55 8t46.5 16.5t23.5 11.5q-1 -11 -6.5 -26.5z" />
    <glyph glyph-name="uniFEF6" unicode="&#xfef6;" horiz-adv-x="603" arabic-form="final" 
d="M603 0h-55q-83 0 -122 43q-22 25 -31 68q-17 -34 -44.5 -67t-65.5 -54q-25 -14 -51 -20.5t-61 -11.5q-23 -3 -41 -7t-54 -15l-9 50q82 40 139.5 78.5t93.5 82.5q-15 84 -93 176q-40 47 -78 78l-14 -24q-27 18 -57.5 40t-39.5 29l9 79q2 15 11 24t23 9q24 0 76 -39
t102 -93q50 -53 77 -103q26 -46 39 -94q13 37 13 85q0 32 -7 85l-16 117q26 34 44 52t48 40l20 -197l4 -36q6 -73 14 -129q8 -58 16 -73q17 -34 52 -34h58v-139zM239.5 695.5q-5.5 -15.5 -8.5 -18.5q-1 -1 -9.5 -10.5t-33.5 -23.5q-55 -33 -121 -33q-28 0 -73 10
q-20 6 -33 6q-14 0 -25 -8t-17 -16.5t-7 -11.5q-6 4 -16.5 12.5t-13.5 15.5q0 7 7.5 30.5t26.5 45.5t52 22q19 0 62 -13q56 -17 91 -17q27 0 55 8t46.5 16.5t23.5 11.5q-1 -11 -6.5 -26.5z" />
    <glyph glyph-name="uniFEF7" unicode="&#xfef7;" horiz-adv-x="495" arabic-form="isolated" 
d="M437 389l-19 11q-6 -99 -56 -177q41 -72 41 -123l-1 -15l-8 -64q-101 -27 -268 -27q-1 71 7 140l23 2q27 1 64.5 32.5t52.5 50.5q-65 99 -143 171l-12 -19q-37 21 -98 70q11 73 21 95q8 19 24 19q20 0 59 -33q29 -24 75 -73q73 -82 114 -144q17 48 17 104q0 55 -18 119
q46 35 80 80q14 -48 33.5 -80t49.5 -50zM327 156q-7 14 -17 26q-32 -28 -69 -49q44 2 95 6q-2 3 -9 17zM104 640q-32 -1 -72 -17q-23 -7 -43.5 -18t-26.5 -15q-12 0 -16 12l-1 6q0 10 13 21t35 25q-17 7 -25 18t-8 22q0 9 6 18q14 17 29 30q29 23 60 23q24 0 35.5 -11.5
t13.5 -28.5l-14 -14q-19 7 -31 7q-23 0 -44 -12q6 -15 31 -22q12 -3 20 -3q3 0 21 2l45 7q-8 -20 -28 -50z" />
    <glyph glyph-name="uniFEF8" unicode="&#xfef8;" horiz-adv-x="603" arabic-form="final" 
d="M603 0h-55q-83 0 -122 43q-22 25 -31 68q-17 -34 -44.5 -67t-65.5 -54q-25 -14 -51 -20.5t-61 -11.5q-23 -3 -41 -7t-54 -15l-9 50q82 40 139.5 78.5t93.5 82.5q-15 84 -93 176q-40 47 -78 78l-14 -24q-27 18 -57.5 40t-39.5 29l9 79q2 15 11 24t23 9q24 0 76 -39
t102 -93q50 -53 77 -103q26 -46 39 -94q13 37 13 85q0 32 -7 85l-16 117q26 34 44 52t48 40l20 -197l4 -36q6 -73 14 -129q8 -58 16 -73q17 -34 52 -34h58v-139zM128 639q-32 -1 -72 -17q-23 -7 -43.5 -18t-26.5 -15q-12 0 -16 12l-1 6q0 10 13 21t35 25q-17 7 -25 18t-8 22
q0 9 6 18q14 17 29 30q29 23 60 23q24 0 35.5 -11.5t13.5 -28.5l-14 -14q-19 7 -31 7q-23 0 -44 -12q6 -15 31 -22q12 -3 20 -3q3 0 21 2l45 7q-8 -20 -28 -50z" />
    <glyph glyph-name="uniFEF9" unicode="&#xfef9;" horiz-adv-x="495" arabic-form="isolated" 
d="M437 389l-19 11q-6 -99 -56 -177q41 -72 41 -123l-1 -15l-8 -64q-101 -27 -268 -27q-1 71 7 140l23 2q27 1 64.5 32.5t52.5 50.5q-65 99 -143 171l-12 -19q-37 21 -98 70q11 73 21 95q8 19 24 19q20 0 59 -33q29 -24 75 -73q73 -82 114 -144q17 48 17 104q0 55 -18 119
q46 35 80 80q14 -48 33.5 -80t49.5 -50zM327 156q-7 14 -17 26q-32 -28 -69 -49q44 2 95 6q-2 3 -9 17zM232 -177q-32 -1 -72 -17q-23 -8 -43.5 -18.5t-26.5 -14.5q-1 0 -4 1t-7 3.5t-5 7.5l-1 6q0 11 15 23t33 22q-17 8 -25 18.5t-8 21.5q0 10 6 19q14 17 29 30
q29 23 60 23q24 0 35.5 -11.5t13.5 -28.5l-14 -14q-19 7 -31 7q-23 0 -44 -12q6 -15 31 -22q12 -3 20 -3q3 0 21 2l45 7q-8 -20 -28 -50z" />
    <glyph glyph-name="uniFEFA" unicode="&#xfefa;" horiz-adv-x="603" arabic-form="final" 
d="M603 0h-55q-83 0 -122 43q-22 25 -31 68q-17 -34 -44.5 -67t-65.5 -54q-25 -14 -51 -20.5t-61 -11.5q-23 -3 -41 -7t-54 -15l-9 50q82 40 139.5 78.5t93.5 82.5q-15 84 -93 176q-40 47 -78 78l-14 -24q-27 18 -57.5 40t-39.5 29l9 79q2 15 11 24t23 9q24 0 76 -39
t102 -93q50 -53 77 -103q26 -46 39 -94q13 37 13 85q0 32 -7 85l-16 117q26 34 44 52t48 40l20 -197l4 -36q6 -73 14 -129q8 -58 16 -73q17 -34 52 -34h58v-139zM242 -224q-32 -1 -72 -17q-23 -8 -43.5 -18.5t-26.5 -14.5q-1 0 -4 1t-7 3.5t-5 7.5l-1 6q0 11 15 23t33 22
q-17 8 -25 18.5t-8 21.5q0 10 6 19q14 17 29 30q29 23 60 23q24 0 35.5 -11.5t13.5 -28.5l-14 -14q-19 7 -31 7q-23 0 -44 -12q6 -15 31 -22q12 -3 20 -3q3 0 21 2l45 7q-8 -20 -28 -50z" />
    <glyph glyph-name=".notdef" horiz-adv-x="364" 
d="M33 0v666h265v-666h-265zM66 33h199v600h-199v-600z" />
    <glyph glyph-name="uni0000" 
 />
    <glyph glyph-name="uni0000" 
 />
    <glyph glyph-name="uni000D" unicode="&#xd;" horiz-adv-x="333" 
 />
    <glyph glyph-name="space" unicode=" " horiz-adv-x="225" 
 />
    <glyph glyph-name="exclam" unicode="!" horiz-adv-x="247" 
d="M61 369q0 54 -5 94t-14 56q37 15 71 21.5t79 6.5q-5 -38 -8.5 -117.5t-3.5 -168.5q-60 -47 -88 -76h-31v184zM36 73q39 48 87 87q42 -49 88 -87q-40 -48 -88 -88q-38 46 -87 88z" />
    <glyph glyph-name="quotedbl" unicode="&#x22;" horiz-adv-x="317" 
d="M32 376v155q26 10 50 14t56 4q-8 -55 -10 -107t-2 -133h-29q-21 26 -65 67zM188 376v155q27 10 51 14t56 4q-8 -55 -10 -107t-2 -133h-29q-27 33 -66 67z" />
    <glyph glyph-name="numbersign" unicode="#" horiz-adv-x="658" 
d="M525 344q-8 -28 -31 -115l-6 -24l82 6q8 -28 8 -43q0 -13 -8 -45q-28 2 -101 4q-31 -129 -34 -174q-36 -8 -56 -8q-12 0 -50 8q22 72 50 176q-29 1 -85 1q-66 0 -91 -1q-32 -136 -35 -176q-34 -8 -56 -8q-13 0 -49 8q12 40 49 173l-71 -5q-9 23 -9 44q0 22 9 44
q27 -2 92 -4q17 59 36 138l-80 -5q-9 21 -9 43q0 21 9 45q47 -4 99 -5q26 114 29 153q34 8 56 8q13 0 49 -8l-44 -154q29 -1 87 -1q64 0 89 1q26 114 29 154q36 8 57 8q11 0 49 -8l-8 -28q-26 -88 -35 -123q20 1 72 5q8 -30 8 -44t-8 -44q-25 2 -93 4zM436 346q-32 1 -93 1
t-85 -1q-10 -35 -28 -107l-9 -36q32 -1 96 -1q59 0 82 1q24 88 37 143z" />
    <glyph glyph-name="dollar" unicode="$" horiz-adv-x="467" 
d="M189 -79l1 28l3 61q-95 4 -164 35q0 27 4 48t13 42q25 -24 70 -37.5t97 -13.5q44 0 67 12t23 34q0 21 -23.5 36.5t-76.5 37.5q-53 23 -87.5 42t-59 50t-24.5 75q0 53 43.5 90.5t119.5 47.5q-3 68 -9 97q24 7 45 7q17 0 45 -7l-1 -21q-2 -42 -2 -72q87 -3 148 -24
q0 -31 -13 -71.5t-31 -62.5q-44 35 -90.5 57.5t-78.5 22.5q-15 -3 -28 -13.5t-13 -25.5q0 -24 24.5 -40t78.5 -38q52 -22 86 -41t58 -50t24 -75q0 -60 -41.5 -96t-124.5 -44q3 -72 9 -91q-24 -7 -45 -7q-15 0 -47 7z" />
    <glyph glyph-name="percent" unicode="%" horiz-adv-x="798" 
d="M65.5 292q-38.5 38 -38.5 98q0 65 47 106t121 41q60 0 98 -36.5t38 -95.5q0 -67 -45.5 -109t-118.5 -42q-63 0 -101.5 38zM220.5 350.5q15.5 19.5 15.5 54.5q0 32 -13.5 53t-38.5 27q-27 0 -44.5 -22.5t-17.5 -54.5q0 -35 15 -56t40 -21q28 0 43.5 19.5zM237 -66
q120 306 218 633q32 9 58 9q16 0 47 -9q-120 -306 -218 -633q-32 -9 -58 -9q-16 0 -47 9zM503.5 32q-38.5 38 -38.5 98q0 65 47 106t121 41q60 0 98 -36.5t38 -95.5q0 -67 -45.5 -109t-118.5 -42q-63 0 -101.5 38zM658.5 90.5q15.5 19.5 15.5 54.5q0 32 -13.5 53t-38.5 27
q-27 0 -44.5 -22.5t-17.5 -54.5q0 -35 15 -56t40 -21q28 0 43.5 19.5z" />
    <glyph glyph-name="ampersand" unicode="&#x26;" horiz-adv-x="574" 
d="M68.5 27q-46.5 38 -46.5 99q0 105 127 151q-40 68 -40 114q0 67 56 104.5t158 37.5q87 0 158 -34q0 -33 -15 -75.5t-32 -58.5q-24 31 -55.5 57t-66.5 43q-33 0 -53.5 -18.5t-20.5 -47.5q0 -28 42 -89.5t107 -130.5q22 48 27 109q65 6 115 6q-21 -26 -57 -90
q-26 -46 -41 -69q77 -75 142 -120q-35 -11 -72.5 -16t-89.5 -5l-58 49q-67 -54 -162 -54q-76 0 -122.5 38zM308 84q-78 78 -122 137q-29 -31 -29 -74q0 -37 23 -60t60 -23q36 0 68 20z" />
    <glyph glyph-name="quotesingle" unicode="'" horiz-adv-x="160" 
d="M32 376v155q26 10 50 14t56 4q-8 -55 -10 -108t-2 -132h-29q-21 26 -65 67z" />
    <glyph glyph-name="parenleft" unicode="(" horiz-adv-x="346" 
d="M113.5 -19q-75.5 100 -75.5 283q0 184 75.5 283.5t221.5 99.5q5 -25 5 -42q0 -28 -5 -68q-57 9 -97 9q-28 -7 -43.5 -89.5t-15.5 -192.5q0 -111 15.5 -195t43.5 -91q40 0 97 9q5 -37 5 -64q0 -17 -5 -42q-146 0 -221.5 100z" />
    <glyph glyph-name="parenright" unicode=")" horiz-adv-x="346" 
d="M5 -77q0 27 5 64q59 -9 98 -9q27 7 42.5 91t15.5 195q0 110 -15.5 192.5t-42.5 89.5q-39 0 -98 -9q-5 40 -5 68q0 17 5 42q146 0 222 -99.5t76 -283.5q0 -183 -76 -283t-222 -100q-5 25 -5 42z" />
    <glyph glyph-name="asterisk" unicode="*" horiz-adv-x="403" 
d="M177 325q3 30 3 74q-64 -58 -129 -56q-12 31 -16.5 58t-4.5 64q36 -9 65.5 -11.5t75.5 -2.5q-57 64 -56 131q31 11 58 16t64 5q-9 -36 -11.5 -66t-2.5 -77q65 58 130 56q11 -32 16 -59t5 -63q-35 8 -64.5 11t-77.5 4q57 -64 55 -130q-31 -11 -57.5 -16t-63.5 -5
q8 37 11 67z" />
    <glyph glyph-name="plus" unicode="+" horiz-adv-x="533" 
d="M472 218q-108 4 -162 5q2 -100 4 -151q-25 -5 -47 -5q-21 0 -48 5q2 51 4 151q-51 -1 -160 -5q-5 25 -5 47q0 21 5 48q54 -2 160 -4q0 95 -4 172q30 4 47 4q16 0 48 -4q-4 -77 -4 -172q108 2 162 4q4 -30 4 -47q0 -16 -4 -48z" />
    <glyph glyph-name="comma" unicode="," horiz-adv-x="213" 
d="M18 -89q17 20 26 48t9 58q0 55 -18 95q24 15 54.5 23.5t59.5 8.5l30 -32q-5 -67 -39 -126t-93 -106z" />
    <glyph glyph-name="hyphen" unicode="-" horiz-adv-x="406" 
d="M38 261q73 -5 160 -5q44 0 88.5 5.5t64.5 13.5q17 -64 17 -140q-71 5 -159 5q-45 0 -89 -5.5t-64 -13.5q-18 63 -18 140z" />
    <glyph glyph-name="period" unicode="." horiz-adv-x="210" 
d="M18 73q39 48 87 87q37 -45 88 -87q-44 -52 -88 -88q-38 46 -87 88z" />
    <glyph glyph-name="slash" unicode="/" horiz-adv-x="326" 
d="M33 -78q41 148 96 383.5t58 299.5q32 9 57 9q15 0 49 -9q-43 -158 -97 -388.5t-57 -294.5q-32 -9 -56 -9q-16 0 -50 9z" />
    <glyph glyph-name="zero" unicode="0" horiz-adv-x="581" 
d="M143.5 21.5q-55.5 32.5 -86 92t-30.5 136.5q0 82 37 146.5t103.5 100.5t150.5 36q70 0 123.5 -32t83 -89.5t29.5 -133.5q0 -84 -36 -150t-100.5 -102.5t-146.5 -36.5q-72 0 -127.5 32.5zM385.5 141q36.5 48 36.5 131q0 77 -32 127t-88 62q-41 0 -74 -23.5t-51.5 -65.5
t-18.5 -94q0 -83 35.5 -134t93.5 -51q62 0 98.5 48z" />
    <glyph glyph-name="one" unicode="1" horiz-adv-x="347" 
d="M151 0q5 56 8 139t3 153q0 52 -1 75l-107 -68q-27 37 -48 95q34 16 94 50l20 11q32 18 62.5 41t42.5 37q32 0 74 -6q-5 -52 -8 -139t-3 -161q0 -185 16 -227q-36 -6 -71 -6t-82 6z" />
    <glyph glyph-name="two" unicode="2" horiz-adv-x="516" 
d="M359.5 1q-76.5 2 -162.5 2q-103 0 -160 -3v46q281 215 281 346q0 27 -13.5 43t-39.5 20q-32 -4 -79.5 -28t-96.5 -62q-18 22 -31.5 62.5t-13.5 71.5q38 16 92 25t115 9q93 0 148 -36t55 -97q0 -131 -235 -286q44 -4 72 -4q54 0 105.5 7t82.5 19q0 -39 -6 -81.5t-14 -59.5
q-23 4 -99.5 6z" />
    <glyph glyph-name="three" unicode="3" horiz-adv-x="491" 
d="M32 35q0 42 18 90q24 -28 65.5 -44.5t90.5 -16.5q55 0 85.5 25t30.5 70q0 32 -16.5 56.5t-47.5 36.5q-18 0 -37.5 -12.5t-33.5 -32.5q-15 0 -33 10t-18 18q7 28 44 54l153 113q-86 2 -147 2q-41 0 -66 -4t-42 -14q-13 28 -21 67t-8 74q44 -11 163 -11q75 0 121 7t75 23
q16 -12 25.5 -32t9.5 -42q0 -31 -20 -59.5t-64 -60.5l-55 -41q68 -9 111.5 -51.5t43.5 -100.5q0 -83 -61 -126.5t-177 -43.5q-108 0 -189 46z" />
    <glyph glyph-name="four" unicode="4" horiz-adv-x="501" 
d="M271 0q5 37 9 109h-48q-74 0 -118.5 -4.5t-71.5 -15.5q-30 23 -30 63q0 42 25 87q101 175 184 307q47 0 82.5 -7t68.5 -24q-44 -38 -109.5 -115.5t-139.5 -186.5q94 -2 159 -2q-1 48 -5 76.5t-11 55.5q34 6 71 6q36 0 81 -6q-7 -53 -10 -128q47 5 71 14q0 -31 -7.5 -67.5
t-20.5 -63.5l-43 5q4 -63 15 -103q-34 -6 -70 -6q-35 0 -82 6z" />
    <glyph glyph-name="five" unicode="5" horiz-adv-x="477" 
d="M32 35q0 48 17 90q23 -28 63 -44.5t87 -16.5q53 0 82 26t29 74q0 63 -69 98q-23 0 -54.5 -13.5t-65.5 -37.5q-21 6 -37.5 14.5t-16.5 13.5l18 288q37 -11 157 -11q131 0 183 11q0 -35 -7.5 -74.5t-20.5 -66.5q-17 10 -41.5 14t-65.5 4q-86 0 -157 -3l-8 -110
q62 38 141 38q50 0 91 -22t64.5 -59.5t23.5 -83.5q0 -85 -59 -130t-171 -45q-105 0 -183 46z" />
    <glyph glyph-name="six" unicode="6" horiz-adv-x="511" 
d="M136.5 20q-51.5 29 -80 81.5t-28.5 121.5q0 152 74 231t216 79q80 0 134 -24q0 -32 -14.5 -73.5t-32.5 -60.5q-34 30 -72.5 50.5t-61.5 20.5q-40 -15 -66 -52.5t-36 -94.5q60 40 126 40q85 0 137 -47t52 -124q0 -51 -29 -91.5t-81 -63t-119 -22.5t-118.5 29zM325.5 93
q23.5 29 23.5 78q0 46 -28 72.5t-76 26.5q-46 -14 -82 -44v-5q0 -74 26 -115.5t73 -41.5q40 0 63.5 29z" />
    <glyph glyph-name="seven" unicode="7" horiz-adv-x="471" 
d="M130 1q-36 7 -68 24q144 152 275 377q-108 2 -182 2q-39 0 -63.5 -4t-41.5 -14q-13 28 -20.5 67.5t-7.5 73.5q58 -11 208 -11q73 0 117 7t70 23q16 -13 24 -32t8 -34q0 -26 -6.5 -50t-21.5 -50q-99 -170 -208 -386q-47 0 -83 7z" />
    <glyph glyph-name="eight" unicode="8" horiz-adv-x="526" 
d="M135 6q-49 17 -76 48t-27 72q0 37 24 69.5t69 55.5q-76 48 -76 129q0 44 30 79t83.5 54.5t121.5 19.5q87 0 140.5 -36t53.5 -95q0 -35 -21.5 -66t-60.5 -54q46 -22 72.5 -52.5t26.5 -77.5q0 -49 -32 -86t-88.5 -57t-127.5 -20q-63 0 -112 17zM348 390q0 29 -19.5 48
t-55.5 27q-42 0 -68.5 -18t-26.5 -48q0 -21 17.5 -36t40 -23.5t77.5 -26.5q35 30 35 77zM332.5 81q26.5 17 26.5 46q0 24 -26 38.5t-84 33.5q-21 6 -46 15q-36 -30 -36 -76q0 -33 26 -53.5t67 -20.5q46 0 72.5 17z" />
    <glyph glyph-name="nine" unicode="9" horiz-adv-x="501" 
d="M32 35q0 42 17 90q23 -28 63 -44t86 -16q125 0 139 144q-61 -44 -131 -44q-80 0 -129 47.5t-49 125.5q0 57 27 101.5t76 69t112 24.5q68 0 120.5 -30.5t81.5 -86t29 -127.5q0 -144 -72.5 -222t-205.5 -78q-93 0 -164 46zM338 277q-4 80 -28.5 122.5t-66.5 42.5
q-37 0 -58.5 -27.5t-21.5 -73.5q0 -49 25 -78t68 -29q45 13 82 43z" />
    <glyph glyph-name="colon" unicode=":" horiz-adv-x="210" 
d="M18 73q39 48 87 87q37 -45 88 -87q-44 -52 -88 -88q-38 46 -87 88zM18 331q39 48 87 87q37 -45 88 -87q-44 -52 -88 -88q-38 46 -87 88z" />
    <glyph glyph-name="semicolon" unicode=";" horiz-adv-x="210" 
d="M18 -89q17 20 26 48t9 58q0 55 -18 95q24 15 54.5 23.5t59.5 8.5l30 -32q-5 -67 -39 -126t-93 -106zM18 331q39 48 87 87q37 -45 88 -87q-44 -52 -88 -88q-38 46 -87 88z" />
    <glyph glyph-name="less" unicode="&#x3c;" horiz-adv-x="533" 
d="M474 376l-293 -111l293 -110q-12 -52 -37 -89q-163 77 -378 153q-4 21 -4 46q0 26 4 47q186 65 378 153q25 -36 37 -89z" />
    <glyph glyph-name="equal" unicode="=" horiz-adv-x="533" 
d="M58 165q0 21 5 48q92 -4 204 -4q113 0 205 4q4 -30 4 -47q0 -16 -4 -48q-115 5 -205 5q-89 0 -204 -5q-5 25 -5 47zM58 365q0 21 5 48q92 -4 204 -4q113 0 205 4q4 -30 4 -47q0 -16 -4 -48q-115 5 -205 5q-89 0 -204 -5q-5 25 -5 47z" />
    <glyph glyph-name="greater" unicode="&#x3e;" horiz-adv-x="533" 
d="M59 155l293 111l-293 110q12 52 37 89q177 -82 378 -153q4 -21 4 -46q0 -26 -4 -46q-206 -73 -378 -154q-26 42 -37 89z" />
    <glyph glyph-name="question" unicode="?" horiz-adv-x="384" 
d="M126 276q90 40 90 115q0 38 -21.5 59.5t-59.5 21.5q-33 0 -61.5 -16.5t-44.5 -44.5q-14 42 -14 90q67 46 154 46q89 0 135.5 -39t46.5 -113q0 -45 -26.5 -83.5t-72.5 -64t-103 -32.5zM71 73q42 49 88 87q39 -48 87 -87q-42 -51 -87 -88q-36 44 -88 88z" />
    <glyph glyph-name="at" unicode="@" horiz-adv-x="812" 
d="M201.5 -82q-73.5 42 -114 118.5t-40.5 175.5q0 112 49 199t136.5 135.5t198.5 48.5q100 0 175.5 -43t117.5 -121t42 -180q0 -88 -27 -147.5t-69 -88t-87 -28.5q-47 0 -83 24t-49 74q-30 -17 -61.5 -27t-57.5 -10q-45 0 -67.5 21t-22.5 56q0 52 51.5 81t156.5 37
q-3 29 -19 41.5t-49 12.5q-30 0 -59.5 -10.5t-50.5 -28.5l-14 62q28 37 74.5 59.5t95.5 22.5q68 0 104 -28.5t36 -81.5q0 -22 -1 -38.5t-2 -28.5q-4 -52 -4 -87q0 -75 51 -75q18 0 34.5 16t27.5 48t11 79q0 113 -67 186.5t-188 92.5q-84 0 -151 -35t-105 -96.5t-38 -139.5
t28 -139.5t81.5 -96t128.5 -34.5q32 0 62 8t48 21q9 -17 12.5 -32t3.5 -35q-57 -30 -129 -30q-96 0 -169.5 42zM445 131q0 34 5 69q-41 -4 -63 -17t-22 -34q0 -11 5.5 -22t13.5 -17q30 3 61 21z" />
    <glyph glyph-name="A" unicode="A" horiz-adv-x="545" 
d="M392 2l-11 32l-32 89q-54 3 -115 3q-66 0 -94 -4q-26 -67 -43 -120q-24 -6 -43 -6q-25 0 -51 6q28 50 99 236t106 291q40 5 67 5q29 0 62 -5q35 -105 106 -291t99 -236q-36 -7 -78 -7q-33 0 -72 7zM319 203q-42 118 -75 195q-43 -109 -74 -194q48 -3 102 -3q19 0 47 2z
" />
    <glyph glyph-name="B" unicode="B" horiz-adv-x="535" 
d="M153.5 -4.5q-59.5 7.5 -98.5 19.5q4 42 6.5 125.5t2.5 161.5q0 165 -16 203q40 12 100 19.5t119 7.5q103 0 157.5 -36.5t54.5 -104.5q0 -34 -21.5 -63t-59.5 -48q50 -20 78 -55.5t28 -80.5q0 -75 -60.5 -115.5t-172.5 -40.5q-58 0 -117.5 7.5zM294 302q23 14 36.5 35
t13.5 43q0 67 -88 67q-31 0 -61 -9q-4 -81 -5 -145q39 11 104 9zM369 144q0 33 -21 58t-60 40q-34 0 -99 -25q0 -79 4 -153q35 -11 67 -11q109 0 109 91z" />
    <glyph glyph-name="C" unicode="C" horiz-adv-x="498" 
d="M93.5 54q-61.5 65 -61.5 187q0 85 36 151.5t101.5 103.5t148.5 37q94 0 151 -24q0 -33 -15 -75.5t-32 -58.5q-38 34 -81.5 56.5t-69.5 22.5q-43 -14 -73.5 -68t-30.5 -117q0 -86 36 -129t106 -43q43 0 86.5 12t70.5 32l17 -63q-35 -40 -93.5 -64.5t-119.5 -24.5
q-115 0 -176.5 65z" />
    <glyph glyph-name="D" unicode="D" horiz-adv-x="588" 
d="M144 -1.5q-53 4.5 -91 11.5q5 48 8 131.5t3 158.5q0 166 -16 205q36 12 96 19.5t122 7.5q140 0 215 -69t75 -197q0 -80 -39 -141.5t-109.5 -96t-161.5 -34.5q-49 0 -102 4.5zM357.5 98.5q29.5 27.5 46.5 67.5t17 82q0 199 -176 199q-28 0 -50 -7q-6 -93 -6 -213
q0 -87 3 -143q63 -19 101 -19q35 6 64.5 33.5z" />
    <glyph glyph-name="E" unicode="E" horiz-adv-x="471" 
d="M64 300q0 93 -3.5 141t-12.5 86q56 -7 175 -7q140 0 216 7q0 -36 -6 -76.5t-15 -54.5q-26 13 -67 20t-83 7q-36 0 -74 -5q-4 -72 -4 -114q38 -2 57 -2q51 0 78.5 2.5t61.5 8.5q4 -30 4 -47q0 -16 -4 -48q-126 7 -198 7q0 -67 3 -117q35 -7 81 -7q47 0 93.5 7t76.5 20
q0 -35 -6 -75.5t-15 -55.5q-69 7 -194 7q-119 0 -175 -7q11 139 11 303z" />
    <glyph glyph-name="F" unicode="F" horiz-adv-x="435" 
d="M53 0q5 48 8 129t3 149q0 102 -3.5 154t-12.5 95q66 -7 175 -7q136 0 196 7q0 -39 -6 -79t-15 -52q-21 13 -56 20t-74 7q-37 0 -79 -5q-2 -42 -2 -114q30 -2 50 -2q44 0 70 2.5t60 8.5q4 -27 4 -47q0 -21 -4 -48q-112 7 -178 7q0 -183 16 -225q-34 -6 -71 -6q-36 0 -81 6
z" />
    <glyph glyph-name="G" unicode="G" horiz-adv-x="533" 
d="M93.5 54q-61.5 65 -61.5 187q0 85 36 151.5t101.5 103.5t148.5 37q104 0 161 -24q0 -33 -15 -75.5t-32 -58.5q-39 33 -86 56t-75 23q-43 -14 -73.5 -68t-30.5 -117q0 -92 35.5 -137t108.5 -45q30 0 50 5q-1 123 -16 156q32 6 70 6q30 0 78 -6q-8 -82 -10 -190
q-35 -31 -94 -50t-119 -19q-115 0 -176.5 65z" />
    <glyph glyph-name="H" unicode="H" horiz-adv-x="571" 
d="M53 0q5 56 8 139t3 153q0 187 -16 235q36 6 78 6q32 0 74 -6q-7 -87 -10 -222q57 -3 125 -3q27 0 67 2q0 181 -16 223q36 6 79 6q31 0 73 -6q-5 -56 -8 -139t-3 -153q0 -187 16 -235q-34 -6 -70 -6q-37 0 -82 6q7 88 10 223q-74 2 -114 2q-34 0 -78 -2q0 -181 16 -223
q-34 -6 -71 -6q-36 0 -81 6z" />
    <glyph glyph-name="I" unicode="I" horiz-adv-x="252" 
d="M53 0q11 161 11 292q0 187 -16 235q36 6 78 6q32 0 74 -6q-5 -52 -8 -139t-3 -161q0 -185 16 -227q-34 -6 -71 -6q-36 0 -81 6z" />
    <glyph glyph-name="J" unicode="J" horiz-adv-x="327" 
d="M-15 2q0 34 9.5 70.5t24.5 58.5q30 -28 59 -44.5t48 -16.5q14 10 20.5 29.5t8.5 63t2 137.5q0 178 -20 227q38 6 75 6q35 0 77 -6q-7 -69 -7 -300q0 -119 -48.5 -179t-144.5 -60q-56 0 -104 14z" />
    <glyph glyph-name="K" unicode="K" horiz-adv-x="534" 
d="M53 0q5 56 8 139t3 153q0 187 -16 235q36 6 78 6q32 0 74 -6q-7 -84 -11 -245q106 112 140.5 163t34.5 77q68 11 145 11q-101 -99 -204 -216q152 -244 229 -302q-35 -12 -73.5 -16.5t-87.5 -4.5q-36 62 -153 227q-11 -12 -31 -36q1 -147 16 -185q-34 -6 -71 -6
q-36 0 -81 6z" />
    <glyph glyph-name="L" unicode="L" horiz-adv-x="423" 
d="M64 292q0 191 -16 235q36 6 74 6q33 0 78 -6q-5 -51 -8 -137.5t-3 -162.5q0 -78 3 -128q52 -6 85 -6q38 0 76.5 7t64.5 20q0 -33 -6 -71t-15 -52q-59 7 -165 7q-120 0 -179 -7q11 147 11 295z" />
    </font>
</defs>
</svg>
