<?xml version="1.0" standalone="no"?>
<!DOCTYPE svg PUBLIC "-//W3C//DTD SVG 1.1//EN" "http://www.w3.org/Graphics/SVG/1.1/DTD/svg11.dtd" >
<svg xmlns="http://www.w3.org/2000/svg" xmlns:xlink="http://www.w3.org/1999/xlink" version="1.1">
<metadata>
Created by FontForge 20170731 at Fri May  5 14:18:50 2017
 By Aleksey,,,
Copyright 2015, 2016 KB-Studio (www.k-b-studio.com|tarobish@gmail.com). Copyright 2015, 2016 Lasse Fister (lasse@graphicore.de). Copyright 2015, 2016 Eduardo Tunni(edu@tipo.net.ar).
</metadata>
<defs>
<font id="Mirza-Regular" horiz-adv-x="0" >
  <font-face 
    font-family="Mirza"
    font-weight="400"
    font-stretch="normal"
    units-per-em="1000"
    panose-1="0 0 5 0 0 0 0 0 0 0"
    ascent="800"
    descent="-200"
    x-height="413"
    cap-height="533"
    bbox="-580 -528 1249 1008"
    underline-thickness="50"
    underline-position="-200"
    unicode-range="U+000D-FEFE"
  />
<missing-glyph horiz-adv-x="364" 
d="M33 0v666h265v-666h-265zM66 33h199v600h-199v-600z" />
    <glyph glyph-name="fi" unicode="fi" horiz-adv-x="525" 
d="M53 -149q21 26 32 49t16 61.5t5 107.5q0 79 -8 274q-34 1 -45.5 6t-11.5 19q40 21 57 34q12 83 58.5 133t114.5 50q69 0 133 -24q0 -16 -8 -43t-20 -48q-40 33 -83 53.5t-72 19.5q-17 -12 -24.5 -43.5t-8.5 -102.5h165q44 20 101 20q-5 -29 -8.5 -89.5t-3.5 -135.5
q0 -55 3.5 -84t11 -46t24.5 -35q-16 -18 -35 -27t-34 -9q-30 0 -41.5 17.5t-11.5 64.5q0 37 2 105l1 94q0 28 -2 74h-174v-70q0 -60 4 -140q3 -42 3 -73q0 -50 -10.5 -84t-37.5 -65t-81 -73z" />
    <glyph glyph-name="fl" unicode="fl" horiz-adv-x="525" 
d="M53 -149q21 26 32 49t16 61.5t5 107.5q0 79 -8 274q-34 1 -45.5 6t-11.5 19q40 21 57 34q11 88 55 135.5t131 47.5q45 0 84 -9.5t86 -28.5q-12 -106 -12 -355q0 -55 3.5 -84t11 -46t24.5 -35q-16 -18 -35 -27t-34 -9q-30 0 -41.5 17.5t-11.5 64.5l1 99q2 76 2 125
q0 135 -12 205q-73 42 -129 41q-17 -12 -24.5 -44t-8.5 -103q84 2 115 8q0 -20 -4 -36t-13 -34q-36 11 -100 12v-70q0 -60 4 -140q3 -42 3 -73q0 -50 -10.5 -84t-37.5 -65t-81 -73z" />
    <glyph glyph-name="uniFC18" unicode="&#xfea3;&#xfee2;" horiz-adv-x="687" arabic-form="isolated" 
d="M604 252q-11 -16 -28 -33q-61 17 -145 17q-68 0 -113 -20.5t-69 -45.5q30 -6 55.5 -15.5t52.5 -37.5q-17 -49 -40 -81q-34 9 -58 13.5t-57 4.5q-38 0 -67.5 -9t-35.5 -22q6 -35 13 -92.5t10 -91.5q10 -90 13 -190l-32 -9l-22 157q-6 32 -21 149q-2 24 -2 35q0 50 20 84
q26 43 84 55q3 21 23 59q31 52 87 80q59 30 131 30q-69 37 -108 37q-23 0 -39 -7t-32 -23l-11 17q25 46 60 65q23 12 49 12q24 0 46.5 -8t52.5 -24q47 -23 91 -39t115 -27q-12 -24 -23 -40z" />
    <glyph glyph-name="uniFC1F" unicode="&#xfeb3;&#xfee2;" horiz-adv-x="825" arabic-form="isolated" 
d="M752 276.5q13 -33.5 13 -68.5q0 -21 -6 -49.5t-23 -51.5q-29 -39 -78 -39q-40 0 -61.5 21.5t-22.5 45.5q-8 -32 -30.5 -53.5t-64.5 -21.5q-40 0 -62.5 16.5t-37 35.5t-19.5 25q-15 19 -30.5 29t-37.5 10q-25 0 -42.5 -11.5t-34.5 -34.5q46 -7 85.5 -28t56.5 -38
q-15 -44 -40 -79q-64 15 -118 15q-40 0 -59 -8.5t-41 -30.5q1 -7 2 -12t2 -9q6 -41 9 -71l3 -23q7 -70 12.5 -134t6.5 -117l-33 -9q-1 6 -7 66.5t-35 238.5q-2 20 -2 30q0 51 23 89t66 57q10 61 38 108q20 34 49 54.5t65 20.5q20 0 34 -9.5t33 -29.5q25 -25 52 -41t66 -16
q38 0 55.5 15t24.5 40q3 11 5 29l22 12q-2 -14 -2 -24q0 -33 16 -50q20 -22 61 -22q26 0 40 10.5t26 42.5l-44 61q17 31 40 54q12 -12 25 -45.5z" />
    <glyph glyph-name="uniFC21" unicode="&#xfebb;&#xfee2;" horiz-adv-x="841" arabic-form="isolated" 
d="M774 258q-7 -22 -19 -42q-11 -19 -29 -38.5t-38 -34.5q-41 -32 -97.5 -50t-118.5 -18q-39 0 -61 12.5t-39 35.5q-4 5 -15.5 21.5t-27 25t-35.5 8.5q-31 0 -53 -14.5t-33 -35.5q45 -7 88.5 -28t60.5 -36q-15 -44 -40 -79q-64 15 -118 15q-39 0 -58 -8.5t-42 -30.5
q1 -7 2 -12t2 -9q6 -41 9 -71l3 -23q7 -70 12.5 -134t6.5 -117l-33 -9q-1 7 -7 68t-35 237q-2 11 -2 32q0 54 27 89q12 18 29 31.5t45 26.5q-2 25 5 49q9 34 23 57q20 35 44 56q34 29 70 29q22 0 35 -10t24 -29q3 -5 11.5 -19.5t19 -23t24.5 -9.5q4 5 28 41.5t63 77.5
q37 39 82.5 71t84.5 32q18 0 38 -7.5t35 -19.5q20 -15 28 -33.5t8 -35.5q0 -16 -7 -38zM720 261.5q-4 8.5 -11 17.5q-33 38 -76 38q-54 0 -114 -63q-35 -37 -69 -85h115q53 0 96 18q40 16 68 49q-5 17 -9 25.5z" />
    <glyph glyph-name="uniFC2A" unicode="&#xfecb;&#xfee2;" horiz-adv-x="600" arabic-form="isolated" 
d="M511 269q-93 -24 -160.5 -49t-103.5 -66q71 -15 113 -52q-17 -45 -43 -82q-49 15 -95 15q-48 0 -82 -8.5t-41 -23.5q7 -46 13.5 -98t9.5 -86q10 -90 13 -190l-32 -9l-22 156q-6 33 -21 150q-4 25 -4 47q0 19 4 32.5t12 29.5q15 29 34.5 46.5t51.5 30.5q4 33 42 79
q36 43 92 66q-28 23 -40 42.5t-12 47.5q0 32 14 60.5t39 51.5q23 20 49 32t49 12q34 0 66.5 -22t45.5 -41l-19 -18q-38 16 -87 16q-32 0 -56.5 -8.5t-49.5 -26.5q4 -38 25.5 -63.5t61.5 -46.5q111 35 162 42q-11 -31 -29 -66z" />
    <glyph glyph-name="uniFC3B" unicode="&#xfb90;&#xfede;" horiz-adv-x="774" arabic-form="isolated" 
d="M658 34.5q-30 -34.5 -84 -34.5q-56 0 -81 42l4 -60q1 -12 1 -35q0 -41 -8 -78q-12 -55 -46 -91q-54 -61 -160 -61q-77 0 -129 28q-50 27 -72 78q-13 31 -13 65q0 36 6.5 64.5t23.5 71.5l19 -7q-7 -42 -7 -60q0 -25 7 -46q17 -48 76 -67q44 -14 93 -14q89 0 128 28
q38 25 38 76q0 13 -1 22.5t-2 16.5q-6 53 -31.5 244t-37.5 279q28 42 61 71l17 -167q53 44 126 83.5t168 84.5q-6 -47 -17 -88q-121 -57 -202 -102q63 -44 92 -81q27 -35 44 -79.5t17 -89.5q0 -59 -30 -93.5zM625 185q-17 28 -45 59q-27 30 -57.5 55t-55.5 38
q12 -118 18 -159q3 -23 8 -37.5t13 -23.5q18 -19 57 -19q27 0 49.5 13t29.5 28q0 18 -17 46z" />
    <glyph glyph-name="uniFC3D" unicode="&#xfb90;&#xfef0;" horiz-adv-x="644" arabic-form="isolated" 
d="M78 -41q8 41 22 77l19 -7q-8 -50 -8 -71q0 -45 21 -72q43 -54 158 -54q92 0 174 36q27 12 48 29.5t21 35.5q0 14 -18 26t-52 21q-48 13 -84 16q6 47 8 58q82 12 126 57q1 50 -41.5 104t-99.5 100l-9 -18l-27 30q4 37 16 83q83 69 272 158q-6 -47 -17 -88
q-121 -57 -202 -102q57 -39 89 -81q27 -35 44 -79.5t17 -89.5q0 -70 -44 -105q35 -11 57 -33.5t22 -57.5q0 -51 -40 -98q-17 -20 -42.5 -39.5t-50.5 -32.5q-81 -43 -175 -43q-70 0 -122 26q-55 28 -77 80q-13 29 -13 67q0 26 8 67z" />
    <glyph glyph-name="uniFC40" unicode="&#xfedf;&#xfea2;" horiz-adv-x="549" arabic-form="isolated" 
d="M493 177q-11 1 -68 1q-100 0 -175 -36q-55 -26 -89 -72t-34 -107q0 -32 10.5 -62.5t30.5 -53.5q47 -54 146 -70q31 -5 88 -10l31 -3q29 -2 51 -5l-5 -15q-30 -1 -51 -8t-44 -20q-48 -27 -98 -27q-44 0 -87 19t-74 52q-56 61 -56 152q0 57 22 110t61 95q59 62 145 88
q-55 15 -98 19q-42 4 -82 4q6 33 22 57q21 3 34 3l47 -2q25 0 37 12q7 7 7 22q0 16 -10 52q-25 92 -37 125l54 71q14 -36 52 -76q-9 -8 -14 -18.5t-5 -34.5q0 -22 2 -37q4 -41 7 -53q1 -11 1 -27q0 -34 -25 -51q48 -11 110 -18t105 -7h14q-9 -38 -25 -69z" />
    <glyph glyph-name="uniFC42" unicode="&#xfedf;&#xfee2;" horiz-adv-x="403" arabic-form="isolated" 
d="M346 73q-10 -27 -29 -54q-52 15 -105 15q-74 0 -113 -39q1 -7 2 -12t2 -9q6 -41 9 -71l3 -23q7 -70 12.5 -134t6.5 -117l-33 -9q-1 6 -7 66.5t-35 238.5q-2 11 -2 32q0 54 27 89q16 23 30.5 34t41.5 21q22 46 28 57q31 3 41 28q-18 111 -28 160q-19 91 -40 154l50 68
q30 -57 60 -85q-19 -15 -27 -28.5t-8 -35.5q0 -5 2 -23q1 -3 2.5 -13.5t6.5 -33.5l9 -43l9 -44l9 -41q3 -16 3 -29q0 -25 -14 -36q30 -10 56.5 -25t41.5 -27q-1 -4 -11 -31z" />
    <glyph glyph-name="uniFC43" unicode="&#xfedf;&#xfef0;" horiz-adv-x="650" arabic-form="isolated" 
d="M522.5 455q-6.5 -15 -6.5 -38l1 -18l10 -77q1 -8 9.5 -70t9.5 -95l1 -18q0 -41 -12.5 -70.5t-28.5 -41.5q37 -9 60.5 -32.5t23.5 -62.5q0 -51 -40 -98q-17 -20 -42.5 -39.5t-50.5 -32.5q-81 -43 -175 -43q-70 0 -122 26q-55 28 -77 80q-13 29 -13 67q0 26 8 67t22 77
l19 -7q-8 -50 -8 -71q0 -45 21 -72q43 -54 158 -54q92 0 174 36q27 12 48 29.5t21 35.5q0 14 -18 26t-52 21q-46 12 -84 16q5 41 10 60q28 0 65.5 19.5t43.5 35.5q-2 40 -11 102.5t-17 106.5t-21 93.5t-24 78.5l58 76q8 -20 22.5 -39.5t37.5 -45.5q-14 -13 -20.5 -28z" />
    <glyph glyph-name="uniFC49" unicode="&#xfee3;&#xfef0;" horiz-adv-x="793" arabic-form="isolated" 
d="M732 214q0 -16 -3 -46q-2 -28 -14 -40.5t-36 -13.5q-53 -4 -103 -31t-74 -51q90 -24 90 -99q0 -52 -40 -99q-16 -19 -42.5 -38.5t-52.5 -33.5q-81 -43 -175 -43q-70 0 -122 26q-55 28 -77 80q-13 29 -13 67q0 29 7.5 67.5t22.5 76.5l19 -7q-8 -38 -8 -66q0 -50 21 -77
q43 -54 158 -54q92 0 174 36q79 35 79 65q0 16 -25 31.5t-78 23.5q7 47 8 52q4 20 23 44t43 40q37 24 80 41q-12 18 -12 39q0 16 6 35q10 36 22 50q12 -4 30 -8l28 -7q41 -12 56 -30q8 -9 8 -30z" />
    <glyph glyph-name="uniFC53" unicode="&#xfbac;&#xfef0;" horiz-adv-x="892" arabic-form="isolated" 
d="M797 106l-46 -48q-36 21 -60 30.5t-48 16.5q-18 -24 -44 -43t-67 -37q29 -11 44.5 -31t15.5 -55q0 -36 -22 -76q-16 -29 -45 -55.5t-68 -46.5q-40 -21 -86 -32t-91 -11q-72 0 -122 26q-55 28 -76 79q-13 30 -13 71q0 33 10 74.5t20 66.5l19 -7q-9 -47 -9 -71
q0 -46 22 -72q43 -54 157 -54q54 0 99.5 11t75.5 25q73 31 73 63q0 13 -14 26.5t-42 23.5q-41 15 -55 17q2 8 4 22q3 20 7 29t14 12q46 17 65 26q23 11 36.5 18t24.5 18q-33 12 -49 33.5t-16 55.5q0 38 22 71q14 21 38 37t48 17l-18 9q-12 7 -18 13.5t-6 15.5q0 5 5 17
l19 31q8 -5 46 -25q35 -17 60 -32q58 -36 88 -73q37 -47 37 -104q-3 -47 -35 -82zM666.5 261q-3.5 11 -9.5 21q-8 14 -15 20t-17 6q-19 0 -47 -24q-31 -28 -31 -42q0 -8 9 -17.5t21 -15.5q21 -13 35 -13q18 0 36 12q11 8 16.5 18t5.5 18q0 6 -3.5 17zM768 226q-24 46 -78 79
q15 -25 15 -55q0 -17 -5 -35q-8 -25 -23 -40l55 -13q-7 2 54 -14q-3 48 -18 78z" />
    <glyph glyph-name="uniFC81" unicode="&#xfb91;&#xfede;" horiz-adv-x="877" arabic-form="final" 
d="M877 0h-55q-58 0 -92 27t-56 86q0 -56 -26.5 -84.5t-72.5 -28.5q-35 0 -55.5 11t-26.5 31l4 -60q1 -12 1 -35q0 -41 -8 -78q-12 -55 -46 -91q-54 -61 -160 -61q-77 0 -129 28q-50 27 -72 78q-13 31 -13 65q0 36 6.5 64.5t23.5 71.5l19 -7q-7 -42 -7 -60q0 -25 7 -46
q17 -48 76 -67q44 -14 93 -14q89 0 128 28q38 25 38 76q0 13 -1 22.5t-2 16.5q-6 53 -31.5 244t-37.5 279q28 42 61 71l18 -172q96 77 301 173q-6 -46 -17 -88q-69 -27 -215 -110q54 -54 81 -84q42 -45 89 -110q24 -35 51 -56.5t70 -21.5h56v-98zM562 244q-28 35 -94 97
l19 -163q5 -40 18 -57q9 -12 21.5 -17.5t33.5 -5.5q25 0 46.5 12t30.5 30q-43 64 -75 104z" />
    <glyph glyph-name="uniFC83" unicode="&#xfb91;&#xfef0;" horiz-adv-x="752" arabic-form="final" 
d="M752 0h-55q-29 0 -50 5.5t-39 19.5q-21 16 -53 59q-4 -30 -15.5 -53.5t-28.5 -37.5q35 -11 57 -33.5t22 -57.5q0 -51 -40 -98q-17 -20 -42.5 -39.5t-50.5 -32.5q-81 -43 -175 -43q-70 0 -122 26q-55 28 -77 80q-13 29 -13 67q0 26 8 67t22 77l19 -7q-8 -50 -8 -71
q0 -45 21 -72q43 -54 158 -54q92 0 174 36q27 12 48 29.5t21 35.5q0 14 -18 26t-52 21q-46 12 -84 16q6 47 8 58q49 8 80 30q39 29 56 73q-40 61 -89 125q-41 52 -80 89q4 40 11 69q86 71 272 158q-6 -46 -17 -88q-69 -27 -215 -110q54 -54 81 -84q42 -45 89 -110
q24 -35 51 -56.5t70 -21.5h56v-98z" />
    <glyph glyph-name="uniFC86" unicode="&#xfee0;&#xfef0;" horiz-adv-x="717" arabic-form="final" 
d="M564 178q4 -34 19 -53q9 -12 25.5 -19.5t37.5 -7.5h71v-98h-58q-81 0 -108 73q-5 -25 -19.5 -46.5t-25.5 -27.5q37 -9 60.5 -32.5t23.5 -62.5q0 -51 -40 -98q-17 -20 -42.5 -39.5t-50.5 -32.5q-81 -43 -175 -43q-70 0 -122 26q-55 28 -77 80q-13 29 -13 67q0 26 8 67
t22 77l19 -7q-8 -50 -8 -71q0 -45 21 -72q43 -54 158 -54q92 0 174 36q30 13 54.5 30.5t24.5 34.5q0 14 -18 26t-52 21q-40 11 -94 16q5 41 10 60q20 0 49.5 12.5t52.5 32t25 40.5l-15 126q-17 128 -39 258q25 38 61 71q23 -239 41 -390z" />
    <glyph glyph-name="uniFCAA" unicode="&#xfea3;&#xfee4;" horiz-adv-x="632" arabic-form="initial" 
d="M552 283q-22 -36 -41 -54q-58 14 -127 14q-53 0 -91 -12t-63 -46q27 -13 42 -41.5t15 -60.5q1 -26 -14 -55.5t-29 -39.5q-2 -1 -10 -1q-31 0 -77 16t-67 45q-10 -27 -29 -37.5t-52 -10.5h-31q-18 0 -33 14t-15 35q0 26 16.5 37.5t31.5 11.5h65q19 0 29.5 8.5t18.5 19
t11 14.5q54 73 94 103q32 24 63 36.5t67 13.5q-42 22 -62 30.5t-43 8.5q-22 0 -35 -7t-19.5 -13.5t-8.5 -7.5l-11 17q28 48 61 65q23 12 48 12q13 0 28 -3q17 -3 35 -11t36 -17q45 -23 89.5 -39.5t117.5 -27.5zM235 80q0 27 -15.5 44.5t-37.5 17.5q-18 0 -32 -12.5
t-21 -27.5q29 -17 49.5 -25.5t54.5 -16.5q2 7 2 20z" />
    <glyph glyph-name="uniFCB0" unicode="&#xfeb3;&#xfee4;" horiz-adv-x="708" arabic-form="initial" 
d="M635 334.5q13 -33.5 13 -68.5q0 -21 -6 -49.5t-23 -51.5q-29 -39 -78 -39q-40 0 -61.5 21.5t-22.5 45.5q-7 -30 -27 -51.5t-54 -21.5q-28 0 -45 15t-33 45q-21 41 -68 41q-42 0 -59.5 -21.5t-17.5 -47.5q0 -21 20.5 -31.5t41 -14.5t26.5 -6q1 -24 -4.5 -58t-14.5 -56
q-26 12 -48 18t-48 6q-20 0 -46 -4q-34 -6 -75 -6h-25q-21 0 -35.5 12.5t-14.5 35.5q0 21 12.5 35.5t37.5 14.5h29q24 -2 42 -2q26 0 37 4q-2 18 -2 26q0 9 2 25q7 39 34 79q21 31 46 50q29 21 58 21q21 0 39 -9t28 -22q4 -6 15.5 -23t27 -26t36.5 -9q59 0 74 55q3 11 5 29
l22 12q-2 -14 -2 -24q0 -33 16 -50q20 -22 61 -22q26 0 40 10.5t26 42.5l-44 61q17 31 40 54q12 -12 25 -45.5z" />
    <glyph glyph-name="uniFCB3" unicode="&#xfebb;&#xfee4;" horiz-adv-x="786" arabic-form="initial" 
d="M719 301q-7 -22 -19 -42q-11 -19 -29 -38.5t-38 -34.5q-41 -32 -97.5 -50t-118.5 -18q-58 0 -86 19q-18 13 -39 42q-15 21 -28.5 31.5t-34.5 10.5q-36 0 -54 -22t-18 -47q0 -21 23 -33t42 -16.5t23 -5.5q1 -23 -5 -55.5t-16 -55.5q-23 13 -50.5 18.5t-47.5 5.5
q-21 0 -49 -4q-34 -6 -72 -6h-25q-21 0 -35.5 12.5t-14.5 35.5q0 21 12.5 35.5t37.5 14.5h29q34 -2 51 -2q27 0 38 4q-2 18 -2 26q0 9 2 25q7 38 33 74q15 21 35 41q39 37 74 37q19 0 30 -9t22 -25q33 -52 67 -56q4 5 28 41.5t63 77.5q37 39 82.5 71t84.5 32q18 0 38 -7.5
t35 -19.5q20 -15 28 -33.5t8 -35.5q0 -16 -7 -38zM665 304.5q-4 8.5 -11 17.5q-33 38 -76 38q-54 0 -114 -63q-35 -37 -69 -85h115q53 0 96 18q40 16 68 49q-5 17 -9 25.5z" />
    <glyph glyph-name="uniFCBB" unicode="&#xfecb;&#xfee4;" horiz-adv-x="536" arabic-form="initial" 
d="M470 290.5q-7 -20.5 -16 -37.5q-131 -35 -214 -77q23 -15 35 -39.5t12 -53.5q1 -26 -14 -55.5t-29 -39.5q-2 -1 -10 -1q-31 0 -77 16t-67 45q-10 -27 -29 -37.5t-52 -10.5h-31q-22 0 -35 13.5t-13 35.5q0 23 14 36t34 13h55q19 0 29.5 8.5t18.5 19t11 14.5q28 39 62 62
t77 37q-28 23 -40 42.5t-12 47.5q0 32 14 60.5t39 51.5q23 20 49 32t49 12q34 0 66.5 -22t45.5 -41l-19 -18q-38 16 -87 16q-32 0 -56.5 -8.5t-49.5 -26.5q4 -38 25.5 -63.5t61.5 -46.5q111 35 162 42q-2 -6 -9 -26.5zM235 80q0 27 -15.5 44.5t-37.5 17.5q-18 0 -32 -12.5
t-21 -27.5q29 -17 49.5 -25.5t54.5 -16.5q2 7 2 20z" />
    <glyph glyph-name="uniFCC7" unicode="&#xfb90;&#xfee0;" horiz-adv-x="457" arabic-form="initial" 
d="M353.5 59q-17.5 -29 -45.5 -44t-59 -15q-39 0 -68 18.5t-38 63.5q-2 -41 -30 -61.5t-76 -20.5h-58q-19 0 -34 14.5t-15 34.5t14.5 34.5t34.5 14.5h45q40 0 64 27q20 23 17 54q-1 11 -2 20.5t-2 18.5l-3 21q-16 121 -39 258q25 38 61 71q6 -72 13 -126q1 -16 5 -50
q78 72 299 176q-6 -47 -17 -88q-121 -57 -202 -102q63 -44 92 -81q27 -35 44 -79.5t17 -89.5q0 -40 -17.5 -69zM306.5 186.5q-18.5 29.5 -47.5 59.5q-26 28 -56.5 49t-58.5 29l17 -146q4 -34 19 -53q11 -13 27.5 -20t35.5 -7q28 0 50.5 11t31.5 30q0 18 -18.5 47.5z" />
    <glyph glyph-name="uniFCCA" unicode="&#xfedf;&#xfea4;" horiz-adv-x="545" arabic-form="initial" 
d="M443 139q-54 -1 -95 -18t-94 -50q-56 -34 -105.5 -52.5t-117.5 -18.5h-52q-21 0 -35 14t-14 34q0 21 14.5 35.5t34.5 14.5h47q70 0 114.5 8.5t87.5 22.5q17 6 49 17.5t30 12.5q-35 27 -88 39t-106 12q-22 0 -36.5 -2t-34.5 -7q13 47 18 60q21 7 36 9t53 3q24 0 39.5 3
t23.5 12q5 5 5 19q0 19 -8 55q-12 55 -24.5 94t-13.5 41l54 70q16 -37 52 -76q-19 -14 -19 -56q0 -17 3 -43l7 -70q1 -24 -4 -37t-12 -19t-7 -4l53 -16q40 -12 70.5 -17t93.5 -6h23q-14 -35 -42 -84z" />
    <glyph glyph-name="uniFCCC" unicode="&#xfedf;&#xfee4;" horiz-adv-x="337" arabic-form="initial" 
d="M117.5 528.5q14.5 -19.5 37.5 -45.5q-27 -22 -27 -66q0 -12 1 -18l10 -97q8 -64 13.5 -91t14.5 -39t29 -25q13 -8 64 -28q2 -25 -3 -70.5t-14 -67.5q-61 33 -108 33q-21 0 -39 -3t-22 -4q-32 -7 -56 -7h-39q-20 0 -34.5 12.5t-14.5 35.5q0 20 12.5 35t36.5 15h52
q30 0 48.5 3.5t42.5 12.5q-10 19 -16 49t-13 84q-8 52 -12 73q-14 67 -23 106t-21 66l58 76q8 -20 22.5 -39.5z" />
    <glyph glyph-name="uniFCCD" unicode="&#xfedf;&#xfeec;" horiz-adv-x="438" arabic-form="initial" 
d="M349 81.5q-9 -23.5 -25 -40.5l-46 -48q-35 18 -62 29t-71 25q-21 -25 -48.5 -36t-68.5 -11h-49q-21 0 -35 14t-14 35q0 20 14.5 34.5t34.5 14.5h73q-16 38 -16 60q0 20 12 44q16 30 37 47.5t55 32.5q-4 32 -25 111.5t-32 97.5l56 76q10 -18 27 -42t35 -43
q-29 -23 -29 -68q0 -7 2 -25q4 -25 15 -59q6 -23 20 -36.5t31 -24.5l22 -15q46 -30 66 -51q30 -33 30 -74q0 -24 -9 -47.5zM191 199.5q-4 11.5 -11 21.5q-14 23 -30 23q-18 0 -45 -23q-14 -12 -23.5 -24t-9.5 -19q0 -11 22 -28q11 -8 23 -13t20 -5q22 0 40 15t18 33
q0 8 -4 19.5zM306 126q0 12 -5 24t-14 19l-38 33l-29 24q8 -19 8 -41q0 -8 -2 -22q-7 -28 -28 -50q19 -6 68 -17l23 -6q17 13 17 36z" />
    <glyph glyph-name="uniFCD1" unicode="&#xfee3;&#xfee4;" horiz-adv-x="358" arabic-form="initial" 
d="M209 289q-80 -32 -100 -79q0 -18 56 -50q57 -32 76 -45q2 -25 -3 -67t-14 -64q-28 15 -52.5 23t-50.5 8q-12 0 -42 -6q-43 -9 -75 -9h-25q-20 0 -34.5 14.5t-14.5 35.5q0 14 12 31t37 17h34q44 0 58 9t14 15q-18 23 -26 38.5t-8 36.5q0 33 15.5 62t38.5 47q20 14 35 22.5
t40 18.5q-10 21 -10 40q0 11 5 33q8 33 22 50q11 -4 37 -11q9 -1 20 -5q47 -15 59 -35q5 -10 5 -25q0 -27 -13 -73q-41 -9 -96 -32z" />
    <glyph glyph-name="uniFCEB" unicode="&#xfb91;&#xfee0;" horiz-adv-x="554" arabic-form="medial" 
d="M554 0h-55q-58 0 -92 27t-56 86q4 -49 -24 -81t-71 -32q-45 0 -72 22.5t-31 59.5q-2 -41 -30 -61.5t-76 -20.5h-68q-19 0 -34 14.5t-15 34.5t14.5 34.5t34.5 14.5h45q40 0 64 27q20 23 17 54q-1 11 -2 20.5t-2 18.5l-3 21q-16 121 -39 258q25 38 61 71l12 -119l6 -58
q88 77 301 177q-6 -46 -17 -88q-69 -27 -215 -110q54 -54 81 -84q42 -45 89 -110q24 -35 51 -56.5t70 -21.5h56v-98zM237 249q-16 21 -44 49t-50 46l14 -121l6 -45q4 -34 19 -53q23 -26 58 -27q28 1 43.5 10.5t30.5 31.5q-52 79 -77 109z" />
    <glyph glyph-name="uniFCF5" unicode="&#xfec3;&#xfef0;" horiz-adv-x="980" arabic-form="isolated" 
d="M910 288.5q10 -24.5 10 -35.5q0 -21 -14.5 -52t-47.5 -55q-33 -23 -108.5 -49t-250.5 -73q91 -16 91 -94q0 -51 -40 -98q-17 -20 -42.5 -39.5t-50.5 -32.5q-81 -43 -175 -43q-70 0 -122 26q-55 28 -77 80q-13 29 -13 67q0 26 8 67t22 77l19 -7q-8 -50 -8 -71
q0 -45 21 -72q43 -54 158 -54q92 0 174 36q26 11 46 29t20 36q0 27 -67 44q-22 6 -43 10q5 28 13.5 48.5t17.5 29.5t29.5 18t67.5 26q4 14 19 42.5t31 49.5q-12 184 -34 267q-10 40 -25 73l49 76q28 -52 59 -86q-29 -26 -29 -62q0 -9 2 -25q6 -41 9.5 -73.5t3.5 -57.5
q0 -31 -6 -78q36 47 83 81q54 39 101 39q37 0 67 -23q22 -17 32 -41.5zM826.5 192q16.5 8 38.5 28q-26 56 -87 56q-74 0 -136 -80q-19 -25 -32 -49.5t-13 -26.5l24 7q16 5 50 15t91 27q48 15 64.5 23z" />
    <glyph glyph-name="uniFCF7" unicode="&#xfecb;&#xfef0;" horiz-adv-x="879" arabic-form="isolated" 
d="M736.5 363q32.5 -22 45.5 -41l-19 -18q-38 16 -86 16q-34 0 -57.5 -8.5t-49.5 -26.5q4 -38 25.5 -63.5t61.5 -46.5q111 35 162 42q-3 -9 -10 -29.5t-15 -36.5q-86 -26 -164.5 -56t-133.5 -58q43 -12 68.5 -33.5t25.5 -68.5q0 -53 -40 -100q-36 -43 -93 -73
q-81 -43 -175 -43q-70 0 -122 26q-55 28 -77 80q-13 29 -13 67q0 26 8 67t22 77l19 -7q-8 -50 -8 -71q0 -45 21 -72q20 -25 61 -40t96 -15q53 0 98.5 12t75.5 25q25 11 47.5 28.5t22.5 33.5q0 18 -29 37t-84 27q5 31 10 49.5t13 27.5q10 12 46 32.5t78 39.5q-28 23 -38 40.5
t-10 48.5t14.5 58.5t38.5 50.5q23 20 49 32t49 12q34 0 66.5 -22z" />
    <glyph glyph-name="uniFCFB" unicode="&#xfeb3;&#xfef0;" horiz-adv-x="1020" arabic-form="isolated" 
d="M947 216.5q13 -33.5 13 -68.5q0 -21 -6 -49.5t-23 -51.5q-29 -39 -78 -39q-40 0 -61.5 21.5t-22.5 45.5q-8 -32 -30.5 -52.5t-64.5 -20.5q-41 0 -64.5 17.5t-45.5 48.5q-15 21 -34 34t-39 13t-34 -11.5t-21 -26.5t-8 -24q-2 -15 5 -24t19 -12q31 -7 78 -12
q27 -2 42.5 -20t15.5 -45q0 -35 -22 -76q-24 -42 -68 -78q-41 -32 -96.5 -50.5t-117.5 -18.5q-110 0 -167 55q-24 23 -35 53.5t-12 55.5q-2 34 4.5 75.5t25.5 79.5l19 -9q-9 -30 -9 -61q0 -49 23 -81q43 -56 166 -56q79 0 148 27q38 15 57.5 32t29.5 42q-65 5 -99 14
q-50 15 -61 39q-6 12 -6 30q0 26 11 53q17 45 48 88q37 51 78 51q37 0 63 -40q24 -38 50 -54.5t60 -16.5q38 0 55.5 15t24.5 40q3 11 5 29l22 12q-2 -14 -2 -24q0 -33 16 -50q20 -22 61 -22q26 0 40 10.5t26 42.5l-44 61q17 31 40 54q12 -12 25 -45.5z" />
    <glyph glyph-name="uniFCFF" unicode="&#xfea3;&#xfef0;" horiz-adv-x="932" arabic-form="isolated" 
d="M872 215q-16 -39 -39 -81h-42q-71 0 -179 -36q-30 -10 -58 -23t-45.5 -23t-22.5 -13q43 -12 73 -34t30 -64q0 -36 -22 -78q-15 -29 -43.5 -55t-66.5 -46q-40 -21 -85 -32t-89 -11q-74 0 -124 26q-55 27 -76 80q-14 31 -14 76q0 68 31 135l19 -7q-9 -35 -9 -67
q0 -50 22 -76q44 -54 160 -54q51 0 96.5 11t75.5 25q27 11 48 28t21 33q0 31 -56 52q-21 7 -56 17q3 29 13 55t16 31q51 36 88 52q59 25 127 37q-9 3 -35.5 13.5t-42.5 14.5q-62 18 -93 15q-20 -2 -32.5 -14t-19.5 -23.5t-10 -15.5l-16 11q15 55 44 85q30 32 71 32
q18 0 34 -5.5t48 -18.5q57 -24 110.5 -38t135.5 -14h13z" />
    <glyph glyph-name="uniFD05" unicode="&#xfebb;&#xfef0;" horiz-adv-x="1104" arabic-form="isolated" 
d="M1037 187q-7 -22 -19 -42q-24 -39 -67 -73q-88 -68 -224 -68q-23 0 -49 5l-8 -26h-28l7 31q-29 8 -45.5 21.5t-39.5 40.5q-18 20 -33 29.5t-39 9.5q-21 0 -35 -12t-21 -26.5t-8 -23.5q-2 -15 5 -24t19 -12q29 -7 78 -12q29 -4 43.5 -21.5t14.5 -44.5q0 -34 -22 -75
q-11 -21 -30 -42t-38 -36q-41 -32 -96.5 -50.5t-118.5 -18.5q-109 0 -166 55q-27 27 -37 60t-10 59q0 31 7.5 71t22.5 74l19 -9q-7 -32 -7 -63q0 -53 21 -80q22 -28 66.5 -41.5t95.5 -13.5q36 0 77.5 6.5t74.5 19.5q35 14 57 34t30 41q-65 5 -99 14q-22 6 -38.5 16.5
t-22.5 22.5t-6 30q0 26 11 53q11 28 24.5 56.5t23.5 41.5q37 51 78 51q35 0 63 -40q52 -76 109 -77q11 18 35.5 52.5t55.5 67.5q37 39 82.5 71t84.5 32q18 0 38 -7.5t35 -19.5q20 -15 28 -33.5t8 -35.5q0 -16 -7 -38zM983 190.5q-4 8.5 -11 17.5q-33 38 -76 38
q-54 0 -114 -63q-35 -37 -69 -85h115q53 0 96 18q40 16 68 49q-5 17 -9 25.5z" />
    <glyph glyph-name="uniFD0E" unicode="&#xfeb3;&#xfeae;" horiz-adv-x="759" arabic-form="isolated" 
d="M687 210q12 -36 12 -72q0 -11 -6.5 -40.5t-23.5 -52.5q-28 -38 -76 -38q-37 0 -59.5 20.5t-25.5 46.5q-7 -30 -30.5 -52t-60.5 -22q-34 0 -53 18.5t-25 47.5q-39 -13 -94 -25q2 -16 2 -33q0 -71 -29 -138q-23 -52 -57 -85q-18 -17 -36 -25t-46 -8q-10 0 -38 2
q-26 2 -38 2q-26 0 -54 -8l-9 13l28 15q72 39 119.5 67.5t72.5 53.5q21 20 32.5 46t11.5 54q0 13 -4 35q-11 -3 -26 -5q8 41 12 73q105 23 167 46q4 -18 11 -27q19 -26 60 -26q57 0 73 55q3 9 5 29l22 12q-2 -14 -2 -24q0 -37 19 -54q21 -18 62 -18q42 0 62 53l-44 61
q17 31 40 54q14 -15 26 -51z" />
    <glyph glyph-name="uniFD0F" unicode="&#xfebb;&#xfeae;" horiz-adv-x="837" arabic-form="isolated" 
d="M770 188q-7 -22 -19 -42q-24 -39 -67 -73q-88 -68 -224 -68q-23 0 -49 5l-8 -26h-28l8 34q-35 11 -48 47q-30 -10 -90 -24q2 -16 2 -33q0 -71 -29 -138q-23 -52 -57 -85q-18 -17 -36 -25t-46 -8q-10 0 -38 2q-26 2 -38 2q-26 0 -54 -8l-9 13l28 15q72 39 119.5 67.5
t72.5 53.5q21 20 32.5 46t11.5 54q0 13 -4 35q-11 -3 -26 -5q8 41 12 73q105 23 167 46q6 -19 22.5 -32.5t34.5 -15.5q9 16 34.5 52t56.5 69q37 39 82.5 71t84.5 32q18 0 38 -7.5t35 -19.5q20 -15 28 -34t8 -35t-7 -38zM716 191.5q-4 8.5 -11 17.5q-33 38 -76 38
q-54 0 -114 -63q-35 -37 -69 -85h115q53 0 96 18q40 16 68 49q-5 17 -9 25.5z" />
    <glyph glyph-name="uniFD13" unicode="&#xfecc;&#xfef0;" horiz-adv-x="825" arabic-form="final" 
d="M825 0h-114q-41 0 -74 21q-16 11 -26 22t-15 27q-34 -27 -72 -43q30 -12 49 -34t19 -54q0 -55 -40 -105q-36 -43 -94 -73q-40 -21 -86 -32t-91 -11q-72 0 -122 26q-55 28 -76 79q-13 30 -13 71q0 33 10 74.5t20 66.5l19 -7q-8 -50 -8 -71q0 -45 21 -72q43 -54 157 -54
q54 0 99.5 11t75.5 25q30 13 48 30t18 33q0 27 -53 47l-51 17q2 8 4 22q3 20 7 29t14 12q46 17 65 26q32 14 53 32q-15 21 -33.5 33.5t-43.5 16.5q5 39 17 72q52 26 95 26q47 0 80.5 -15t33.5 -46q0 -19 -15 -37.5t-31 -31t-21 -15.5q13 -11 25.5 -15.5t30.5 -4.5h118v-98z
" />
    <glyph glyph-name="uniFD17" unicode="&#xfeb4;&#xfef0;" horiz-adv-x="1039" arabic-form="final" 
d="M1039 0h-38q-42 0 -64 21t-22 54q-6 -29 -23 -52t-54 -23q-34 0 -52.5 22t-16.5 53q-6 -32 -30 -52.5t-64 -20.5q-35 0 -61 16q-14 9 -25 20t-25 30q-34 47 -73 47q-20 0 -34 -11.5t-21 -26.5t-8 -24q-2 -15 5 -24t19 -12q29 -7 78 -12q29 -4 43.5 -21.5t14.5 -44.5
q0 -34 -22 -75q-24 -42 -68 -78q-41 -32 -97 -50.5t-118 -18.5q-109 0 -166 55q-24 24 -35 54.5t-12 54.5q-2 34 4.5 75t25.5 80l19 -9q-9 -39 -8 -63q0 -50 22 -79q23 -31 68 -43.5t95 -12.5q36 0 76.5 6.5t74.5 19.5q35 14 57 34t30 41q-65 5 -99 14q-48 13 -61 39
q-6 12 -6 29q0 23 12 54q22 57 47 89q17 24 38 37t41 13q17 0 27 -9t27 -31q31 -41 61 -56t51 -15q38 0 57.5 12.5t28.5 42.5q3 11 5 29l22 12q-2 -15 -1 -30q1 -28 15 -46.5t44 -18.5q37 0 53 32q10 20 12 51l22 12q-1 -7 -1 -23q0 -29 15 -47q19 -22 59 -22h36v-98z" />
    <glyph glyph-name="uniFD1B" unicode="&#xfea4;&#xfef0;" horiz-adv-x="984" arabic-form="final" 
d="M984 0h-100q-75 0 -110 43q-15 18 -22.5 37.5t-10.5 50.5q-48 -8 -122 -31q-32 -10 -62 -23.5t-48 -24t-23 -13.5q43 -12 73 -34t30 -64q0 -36 -22 -78q-15 -29 -43.5 -55t-66.5 -46q-40 -21 -85 -32t-89 -11q-74 0 -124 26q-55 27 -76 80q-13 29 -13 67q0 29 8.5 70.5
t21.5 73.5l19 -7q-8 -50 -8 -71q0 -45 21 -72q44 -54 160 -54q51 0 96.5 11t75.5 25q27 11 48 28t21 33q0 31 -56 52q-42 14 -56 17q3 29 13 55.5t16 31.5q34 28 82 49q57 24 133 39q-9 3 -35.5 13.5t-42.5 14.5q-62 18 -93 15q-20 -2 -32.5 -14t-19.5 -23.5t-10 -15.5
l-16 11q15 55 44 85q30 32 71 32q18 0 34 -5.5t48 -18.5q70 -29 126.5 -40.5t132.5 -11.5q-15 -35 -34 -71q-38 0 -69 -4q16 -42 102 -42h113v-98z" />
    <glyph glyph-name="uniFD21" unicode="&#xfebc;&#xfef0;" horiz-adv-x="1168" arabic-form="final" 
d="M1168 0h-100l-79 1l-226 3q-26 0 -47.5 1t-37.5 4l-8 -26h-28l7 31q-25 6 -41.5 17.5t-30.5 27.5q-5 6 -18.5 23t-29.5 25t-37 8t-35 -12t-21 -26.5t-8 -23.5q-2 -15 5 -24t19 -12q29 -7 78 -12q29 -4 43.5 -21.5t14.5 -44.5q0 -34 -22 -75q-11 -21 -30 -42t-38 -36
q-41 -32 -96.5 -50.5t-118.5 -18.5q-109 0 -166 55q-27 27 -37 60t-10 59q0 31 7.5 71t22.5 74l19 -9q-7 -32 -7 -63q0 -53 21 -80q22 -28 66.5 -41.5t95.5 -13.5q36 0 77.5 6.5t74.5 19.5q35 14 57 34t30 41q-65 5 -99 14q-22 6 -38.5 16.5t-22.5 22.5t-6 30q0 26 11 53
q11 28 24.5 56.5t23.5 41.5q37 51 78 51q37 0 63 -40q49 -76 109 -77q9 15 34.5 51t56.5 69q43 47 85 73q46 29 82 29q20 0 39.5 -7t33.5 -18q22 -17 29 -38t7 -35q0 -51 -55 -115q-17 -20 -37 -34q23 8 57.5 16.5t64.5 8.5h94v-98zM957 226.5q-25 19.5 -59 19.5
q-29 0 -56.5 -15.5t-58.5 -46.5q-25 -25 -45 -51.5t-25 -34.5h115q37 0 79 11q34 10 54.5 24.5t20.5 42.5q0 31 -25 50.5z" />
    <glyph glyph-name="uniFD2A" unicode="&#xfeb4;&#xfeae;" horiz-adv-x="776" arabic-form="final" 
d="M776 0h-38q-42 0 -64 21t-22 54q-6 -29 -23 -53t-54 -24q-34 0 -52.5 23t-16.5 54q-9 -33 -31 -55t-61 -22q-34 0 -53 18.5t-25 48.5q-28 -9 -91 -24q2 -16 2 -33q0 -71 -29 -138q-23 -52 -57 -85q-18 -17 -36 -25t-46 -8q-10 0 -38 2q-26 2 -38 2q-26 0 -54 -8l-9 13
l28 15q72 39 119.5 67.5t72.5 53.5q21 20 32.5 46t11.5 54q0 13 -4 35q-11 -3 -26 -5q8 41 12 73q105 23 167 46q4 -17 11 -27q18 -25 58 -25q42 0 59 25t19 59l22 12q-2 -15 -1 -30q1 -27 14 -46t44 -19q61 0 66 83l22 12q-1 -7 -1 -23q0 -29 15 -47q19 -22 59 -22h36v-98z
" />
    <glyph glyph-name="uniFD2B" unicode="&#xfebc;&#xfeae;" horiz-adv-x="902" arabic-form="final" 
d="M902 0h-100l-79 1l-226 3q-26 0 -47.5 1t-37.5 4l-8 -26h-28l8 34q-20 7 -31.5 18t-16.5 30q-31 -10 -91 -24q2 -16 2 -33q0 -71 -29 -138q-23 -52 -57 -85q-18 -17 -36 -25t-46 -8q-10 0 -38 2q-26 2 -38 2q-26 0 -54 -8l-9 13l28 15q72 39 119.5 67.5t72.5 53.5
q21 20 32.5 46t11.5 54q0 13 -4 35q-11 -3 -26 -5q8 41 12 73q105 23 167 46q6 -20 23 -33t35 -15q5 10 31 46.5t60 73.5q43 47 85 73q46 29 82 29q20 0 39.5 -7t33.5 -18q22 -17 29 -38t7 -35q0 -51 -55 -115q-17 -20 -37 -34q23 8 57.5 16.5t64.5 8.5h94v-98zM691 226.5
q-25 19.5 -59 19.5q-29 0 -56.5 -15.5t-58.5 -46.5q-25 -25 -45 -51.5t-25 -34.5h115q37 0 79 11q34 10 54.5 24.5t20.5 42.5q0 31 -25 50.5z" />
    <glyph glyph-name="uniFEFB" unicode="&#xfedf;&#x627;" horiz-adv-x="447" arabic-form="isolated" 
d="M405 421l-26 10q1 -9 1 -32q0 -111 -53 -203q13 -25 23.5 -59t9.5 -61l-7 -59q-49 -11 -100.5 -16.5t-128.5 -5.5q0 61 5 101l13 1q71 19 125 94q-47 79 -94 131.5t-73 73.5l-11 -17q-32 20 -69 51q2 24 7.5 46t9.5 29q4 9 13 9q2 0 11 -3q10 -5 41 -32q70 -62 124 -128
q46 -57 70 -103q26 49 33 111q2 26 2 38q0 56 -17 126q28 22 48 45q11 -30 28 -55t37 -40zM296 160q-21 -32 -44 -47.5t-25 -17.5q20 0 50 1.5t48 4.5q-3 8 -29 59z" />
    <glyph glyph-name="uniFEFC" unicode="&#xfee0;&#x627;" horiz-adv-x="559" arabic-form="final" 
d="M559 0h-32q-40 0 -65 9t-41 27q-28 32 -31 99q-5 -24 -33 -66t-105 -81q-25 -13 -45.5 -18.5t-58.5 -12.5q-51 -9 -75 -16l-2 13q104 51 154 92.5t71 68.5q3 36 -23 85.5t-67 100.5q-47 57 -106 104l-11 -20q-33 21 -69 49l4 39l4 28q1 7 5 11.5t9 4.5q12 0 45.5 -23
t70.5 -56q75 -65 125 -143q42 -66 57 -119q8 10 15 37t7 76q0 47 -7 117l-14 99q22 32 60 62l9 -85q1 -14 3 -33t4 -43l15 -156q4 -47 10 -74.5t15 -44.5q10 -18 25.5 -25.5t41.5 -7.5h35v-98z" />
    <glyph glyph-name="uni062D06450649" unicode="&#xfea3;&#xfee4;&#xfef0;" horiz-adv-x="1122" 
d="M1040 274q-17 -31 -39 -53q-61 16 -128 16q-103 0 -155 -52q27 -13 43 -41.5t16 -60.5q1 -26 -13.5 -53.5t-29.5 -37.5q-2 -1 -13 -1q-32 0 -76.5 14.5t-64.5 42.5q-7 -15 -31.5 -31t-42.5 -18q37 -9 60.5 -32.5t23.5 -62.5q0 -51 -40 -98q-17 -20 -42.5 -39.5
t-50.5 -32.5q-81 -43 -175 -43q-70 0 -122 26q-55 28 -77 80q-13 29 -13 67q0 26 8 67t22 77l19 -7q-8 -50 -8 -71q0 -45 21 -72q43 -54 158 -54q92 0 174 36q27 12 48 29.5t21 35.5q0 14 -18 26t-52 21q-46 12 -84 16q5 41 10 60q62 8 112 39q42 26 81 73q60 78 99 105
q55 39 135 42q-42 22 -62 30.5t-43 8.5q-22 0 -35 -7t-19.5 -13.5t-8.5 -7.5l-11 17q28 48 61 65q23 12 48 12q13 0 28 -3q17 -3 35 -11t36 -17q45 -23 89.5 -39.5t117.5 -27.5zM725 80q0 27 -15.5 44.5t-37.5 17.5q-18 0 -32 -12.5t-21 -27.5q29 -17 49.5 -25.5t54.5 -16.5
q2 7 2 20z" />
    <glyph glyph-name="uni063306450649" unicode="&#xfeb3;&#xfee4;&#xfef0;" horiz-adv-x="1227" 
d="M1154 334.5q13 -33.5 13 -68.5q0 -21 -6 -49.5t-23 -51.5q-29 -39 -78 -39q-40 0 -61.5 21.5t-22.5 45.5q-7 -30 -27 -51.5t-54 -21.5q-28 0 -45 15t-33 45q-21 41 -68 41q-40 0 -57.5 -21.5t-17.5 -47.5q0 -23 21.5 -34t40.5 -15.5t24 -5.5q1 -24 -4.5 -56.5
t-14.5 -54.5q-44 21 -105.5 28.5t-101.5 6.5q55 -28 55 -80q0 -36 -22 -78q-15 -29 -43.5 -55t-66.5 -46q-40 -21 -85 -32t-89 -11q-74 0 -124 26q-55 27 -76 80q-13 29 -13 67q0 29 8.5 70.5t21.5 73.5l19 -7q-8 -50 -8 -71q0 -45 21 -72q44 -54 160 -54q51 0 96.5 11
t75.5 25q27 11 48 28t21 33q0 31 -56 52q-42 14 -56 17q3 29 12.5 49.5t16.5 26.5q16 12 38.5 20.5t66.5 8.5q22 0 52 -3q-2 18 -2 26q0 9 2 25q5 34 26 69q21 37 52 59q28 22 59 22q26 0 43.5 -11.5t31.5 -31.5q2 -3 13 -17t25.5 -21.5t33.5 -7.5q59 0 74 55q3 11 5 29
l22 12q-2 -14 -2 -24q0 -33 16 -50q20 -22 61 -22q26 0 40 10.5t26 42.5l-44 61q17 31 40 54q12 -12 25 -45.5z" />
    <glyph glyph-name="uni063506450649" unicode="&#xfebb;&#xfee4;&#xfef0;" horiz-adv-x="1305" 
d="M1238 301q-7 -22 -19 -42q-11 -19 -29 -38.5t-38 -34.5q-41 -32 -97.5 -50t-118.5 -18q-55 0 -86 19q-18 11 -37 42q-14 21 -27 31.5t-35 10.5q-38 0 -57 -22t-19 -47q0 -23 21 -34t39.5 -15.5t23.5 -5.5q1 -23 -5 -55.5t-16 -55.5q-44 21 -104 28.5t-100 6.5
q55 -28 55 -80q0 -36 -22 -78q-15 -29 -43.5 -55t-66.5 -46q-40 -21 -85 -32t-89 -11q-74 0 -124 26q-55 27 -76 80q-13 29 -13 67q0 29 8.5 70.5t21.5 73.5l19 -7q-8 -50 -8 -71q0 -45 21 -72q44 -54 160 -54q51 0 96.5 11t75.5 25q79 33 79 61q0 31 -56 52q-31 11 -66 17
q3 29 12.5 49.5t16.5 26.5q35 27 126 27q23 0 36 -1q-2 18 -2 26q0 9 2 25q6 39 25 70q18 30 42 51q35 32 70 32q23 0 38.5 -10t29.5 -29q5 -7 16 -22t21.5 -22.5t23.5 -7.5q4 5 28 41.5t63 77.5q37 39 82.5 71t84.5 32q18 0 38 -7.5t35 -19.5q20 -15 28 -33.5t8 -35.5
q0 -16 -7 -38zM1184 304.5q-4 8.5 -11 17.5q-33 38 -76 38q-54 0 -114 -63q-35 -37 -69 -85h115q53 0 96 18q40 16 68 49q-5 17 -9 25.5z" />
    <glyph glyph-name="uni063906450649" unicode="&#xfecb;&#xfee4;&#xfef0;" horiz-adv-x="1026" 
d="M959 293q-9 -30 -18 -47q-86 -21 -125.5 -33t-80.5 -34q22 -14 32 -40t10 -56q1 -26 -13.5 -53.5t-29.5 -37.5q-2 -1 -13 -1q-32 0 -76.5 14.5t-64.5 42.5q-7 -15 -31.5 -31t-42.5 -18q37 -9 60.5 -32.5t23.5 -62.5q0 -51 -40 -98q-17 -20 -42.5 -39.5t-50.5 -32.5
q-81 -43 -175 -43q-70 0 -122 26q-55 28 -77 80q-13 29 -13 67q0 26 8 67t22 77l19 -7q-8 -50 -8 -71q0 -45 21 -72q43 -54 158 -54q92 0 174 36q27 12 48 29.5t21 35.5q0 14 -18 26t-52 21q-46 12 -84 16q5 41 10 60q53 0 103.5 31.5t89.5 80.5q44 62 136 95
q-28 23 -40 42.5t-12 47.5q0 32 14 60.5t39 51.5q23 20 49 32t49 12q34 0 66.5 -22t45.5 -41l-19 -18q-38 16 -87 16q-32 0 -56.5 -8.5t-49.5 -26.5q4 -38 25.5 -63.5t61.5 -46.5q111 35 162 42q-3 -11 -7 -20zM725 80q0 27 -15.5 44.5t-37.5 17.5q-18 0 -32 -12.5
t-21 -27.5q29 -17 49.5 -25.5t54.5 -16.5q2 7 2 20z" />
    <glyph glyph-name="uni06430643" unicode="&#xfb90;&#xfeda;" horiz-adv-x="996" 
d="M757 378q57 -39 89 -81q27 -35 44 -79.5t17 -89.5q0 -40 -17 -69t-44.5 -44t-57.5 -15q-39 0 -68 18.5t-38 63.5q-2 -42 -30.5 -64.5t-75.5 -22.5l-218 -1q-80 0 -127 8q-71 12 -112 47q-32 26 -42 66q-7 25 -7 62q0 24 3 49l19 -7q6 -36 21 -60q29 -45 116 -58
q51 -8 147 -8h31l156 2q33 0 57 19q24 22 24 52q0 8 -1 12q-19 158 -37 265l-8 54q25 38 61 71l11 -113l7 -63q78 72 299 176q-6 -47 -17 -88q-121 -57 -202 -102zM443 186.5q-14 -15.5 -47 -34.5q-31 -4 -65 -4q-21 0 -31 1q9 3 44.5 13.5t57 21t21.5 19.5q0 5 -8.5 7
t-30.5 4q-48 3 -48 29q0 36 48 61q30 16 59 23q-7 -14 -19 -30q-41 -13 -64 -32q0 -24 50 -24q27 0 37 -3.5t10 -18.5q0 -17 -14 -32.5zM833 202.5q-28 40.5 -70 75.5t-80 46q4 -38 11 -90q2 -24 6 -56q4 -34 19 -53q11 -13 27.5 -20t35.5 -7q26 0 48 11t31 30
q0 23 -28 63.5z" />
    <glyph glyph-name="uni06430643.fina" unicode="&#xfb91;&#xfeda;" horiz-adv-x="1093" 
d="M1093 0h-55q-58 0 -92 27t-56 86q4 -49 -24 -81t-71 -32q-45 0 -72 22.5t-31 59.5q-2 -42 -30.5 -65t-75.5 -23h-228q-80 0 -127 8q-71 12 -112 47q-32 26 -42 66q-7 25 -7 62q0 24 3 49l19 -7q6 -36 21 -60q29 -45 116 -58q51 -8 147 -8h31l156 2q18 0 35 8t29 22
q20 23 17 54q-1 11 -2 20.5t-2 18.5l-3 21q-16 121 -39 258q25 38 61 71l12 -119l6 -58q88 77 301 177q-6 -46 -17 -88q-69 -27 -215 -110q54 -54 81 -84q42 -45 89 -110q24 -35 51 -56.5t70 -21.5h56v-98zM775 246q-17 22 -45.5 51.5t-49.5 46.5l14 -121l6 -45
q4 -34 19 -53q23 -26 60 -27q28 1 43.5 10.5t30.5 31.5q-36 55 -78 106zM443 186.5q-14 -15.5 -47 -34.5q-31 -4 -65 -4q-21 0 -31 1q9 3 44.5 13.5t57 21t21.5 19.5q0 5 -8.5 7t-30.5 4q-48 3 -48 29q0 36 48 61q30 16 59 23q-7 -14 -19 -30q-41 -13 -64 -32q0 -24 50 -24
q27 0 37 -3.5t10 -18.5q0 -17 -14 -32.5z" />
    <glyph glyph-name="uni064306440627" unicode="&#xfb90;&#xfee0;&#xfe8e;" horiz-adv-x="668" 
d="M557 47q-18 -23 -45 -35t-58 -12q-71 0 -107 44q-27 36 -27 91q-5 -24 -33 -66t-105 -81q-25 -13 -45.5 -18.5t-58.5 -12.5q-51 -9 -75 -16l-2 13q104 51 154 92.5t71 68.5q3 36 -23 85.5t-67 100.5q-47 57 -106 104l-11 -20q-33 21 -69 49l4 39l4 28q1 7 5 11.5t9 4.5
q12 0 45.5 -23t70.5 -56q75 -65 125 -143q42 -66 57 -119q8 10 15 37t7 76q0 47 -7 117l-14 99q22 32 60 62q4 -64 7 -84q6 -47 10 -89q49 43 127 86t173 88q-6 -47 -17 -88q-121 -57 -202 -102q63 -44 92 -81q27 -35 44 -79.5t17 -89.5q0 -46 -25 -81zM517.5 188.5
q-18.5 30.5 -48.5 60.5q-26 26 -56.5 46.5t-57.5 28.5q8 -94 12 -115q7 -54 20 -78q10 -18 25.5 -25.5t41.5 -7.5q28 0 50.5 11t31.5 30q0 19 -18.5 49.5z" />
    <glyph glyph-name="uni064306440627.fina" unicode="&#xfb91;&#xfee0;&#xfe8e;" horiz-adv-x="825" 
d="M825 0h-55q-58 0 -92 27t-56 86q2 -32 -12 -58t-38.5 -40.5t-53.5 -14.5q-43 0 -66 8t-41 28q-28 32 -31 99q-5 -24 -33 -66t-105 -81q-25 -13 -45.5 -18.5t-58.5 -12.5q-51 -9 -75 -16l-2 13q104 51 154 92.5t71 68.5q3 36 -23 85.5t-67 100.5q-47 57 -106 104l-11 -20
q-33 21 -69 49l4 39l4 28q1 7 5 11.5t9 4.5q12 0 45.5 -23t70.5 -56q75 -65 125 -143q42 -66 57 -119q8 10 15 37t7 76q0 47 -7 117l-14 99q22 31 60 63l7 -69q10 -96 11 -108q88 77 301 177q-6 -46 -17 -88q-69 -27 -215 -110q54 -54 81 -84q42 -45 89 -110
q24 -35 51 -56.5t70 -21.5h56v-98zM508 242q-15 20 -42.5 46.5t-51.5 45.5q2 -25 11 -85q6 -39 9 -71q4 -34 19 -53q21 -25 58 -27q28 1 43.5 10.5t30.5 31.5q-26 39 -77 102z" />
    <glyph glyph-name="uni064306440649" unicode="&#xfb90;&#xfee0;&#xfef0;" horiz-adv-x="860" 
d="M822 480q-121 -57 -202 -102q63 -44 92 -81q27 -35 44 -79.5t17 -89.5q0 -60 -31 -94t-87 -34q-37 0 -65.5 19.5t-39.5 53.5q-5 -25 -23.5 -46t-31.5 -28q37 -9 60.5 -32.5t23.5 -62.5q0 -51 -40 -98q-17 -20 -42.5 -39.5t-50.5 -32.5q-81 -43 -175 -43q-70 0 -122 26
q-55 28 -77 80q-13 29 -13 67q0 26 8 67t22 77l19 -7q-8 -50 -8 -71q0 -45 21 -72q43 -54 158 -54q92 0 174 36q27 12 48 29.5t21 35.5q0 14 -18 26t-52 21q-46 12 -84 16q5 41 10 60q20 0 52 12.5t57.5 32.5t27.5 40l-15 126q-17 128 -39 258q25 38 61 71q6 -66 18 -182
q51 50 130 95t169 87q-6 -47 -17 -88zM697.5 202.5q-29.5 40.5 -72.5 79t-80 55.5q7 -64 18 -159q4 -34 19 -53q20 -27 66 -27q27 0 49.5 13t29.5 28q0 23 -29.5 63.5z" />
    <glyph glyph-name="uni064306440649.fina" unicode="&#xfb91;&#xfee0;&#xfef0;" horiz-adv-x="966" 
d="M834 480q-69 -27 -215 -110q54 -54 81 -84q42 -45 89 -110q24 -35 51 -56.5t70 -21.5h56v-98h-55q-58 0 -92 27t-56 86q0 -51 -28 -82t-77 -31q-69 0 -97 73q-5 -25 -23.5 -46t-31.5 -28q37 -9 60.5 -32.5t23.5 -62.5q0 -51 -40 -98q-17 -20 -42.5 -39.5t-50.5 -32.5
q-81 -43 -175 -43q-70 0 -122 26q-55 28 -77 80q-13 29 -13 67q0 26 8 67t22 77l19 -7q-8 -50 -8 -71q0 -45 21 -72q43 -54 158 -54q92 0 174 36q27 12 48 29.5t21 35.5q0 14 -18 26t-52 21q-46 12 -84 16q5 41 10 60q20 0 52 12.5t57.5 32.5t27.5 40l-15 126
q-17 128 -39 258q25 38 61 71l17 -181q50 46 137.5 96t163.5 85q-6 -46 -17 -88zM691 196.5q-17 24.5 -41 52.5q-32 40 -94 95l14 -121l6 -45q4 -34 19 -53q20 -26 58 -27q24 1 40 10.5t24.5 19.5t8.5 12q-18 32 -35 56.5z" />
    <glyph glyph-name="uni06A90627" unicode="&#xfb90;&#xfe8e;" horiz-adv-x="435" 
d="M83.5 538.5q18.5 25.5 21.5 29.5h11l4 -169q50 42 127.5 84t167.5 85q-6 -47 -17 -88q-121 -57 -202 -102q63 -44 92 -81q27 -35 44 -79.5t17 -89.5q0 -46 -25 -81q-17 -22 -48 -34.5t-63 -12.5q-71 0 -104 30q-37 34 -38 116q-2 110 -6.5 192.5t-14.5 149.5
q15 25 33.5 50.5zM126 178q2 -37 18 -56q13 -14 30 -19t47 -5q28 0 50.5 11t31.5 30q0 19 -18.5 49.5t-48.5 60.5q-26 26 -56.5 46.5t-57.5 28.5z" />
    <glyph glyph-name="uni06A90627.fina" unicode="&#xfb91;&#xfe8e;" horiz-adv-x="515" 
d="M83.5 538.5q18.5 25.5 21.5 29.5h11l4 -160q97 75 280 160q-6 -46 -17 -88q-69 -27 -215 -110q54 -54 81 -84q42 -45 89 -110q24 -35 51 -56.5t70 -21.5h56v-98h-55q-58 0 -92 27t-56 86q4 -48 -28 -80.5t-79 -32.5q-37 0 -61 8.5t-41 27.5q-30 33 -32 110
q-2 110 -6.5 192.5t-14.5 149.5q15 25 33.5 50.5zM126 178q0 -13 5 -28t12 -25q23 -26 60 -27q26 1 41.5 10.5t30.5 31.5q-52 79 -77 109q-32 41 -76 80z" />
    <glyph glyph-name="uni0644062D0649" unicode="&#xfedf;&#xfea4;&#xfef0;" horiz-adv-x="931" 
d="M853 182q-13 -26 -25 -48q-15 1 -40 1q-47 0 -77 -6t-92 -25q-32 -10 -62 -24.5t-48 -26t-23 -14.5q43 -12 73 -34t30 -64q0 -36 -22 -78q-15 -29 -43.5 -55t-66.5 -46q-40 -21 -85 -32t-89 -11q-74 0 -124 26q-55 27 -76 80q-13 29 -13 67q0 61 30 134l19 -7
q-8 -50 -8 -67q0 -39 21 -66q44 -54 160 -54q51 0 96.5 11t75.5 25q27 11 48 28t21 33q0 31 -56 52q-42 14 -56 17q3 29 12.5 49.5t16.5 26.5q14 11 52.5 32t60.5 30q50 21 110 36q-35 21 -81 29.5t-93 8.5q-22 0 -36.5 -2t-34.5 -7q13 47 18 60q21 7 36 9t53 3q24 0 39.5 3
t23.5 12q5 5 5 19q0 19 -8 55q-12 55 -24.5 94t-13.5 41l54 70q16 -37 52 -76q-19 -14 -19 -56q0 -17 3 -43l7 -70q1 -24 -4 -37t-12 -19t-7 -4q19 -4 34.5 -9.5t18.5 -6.5q40 -12 70.5 -17t93.5 -6h23q-5 -15 -18 -41z" />
    <glyph glyph-name="uni064406450649" unicode="&#xfedf;&#xfee4;&#xfef0;" horiz-adv-x="841" 
d="M755.5 52.5q-6.5 -36.5 -17.5 -63.5q-44 21 -102 27t-102 5q55 -28 55 -80q0 -36 -22 -78q-15 -29 -43.5 -55t-66.5 -46q-40 -21 -85 -32t-89 -11q-74 0 -124 26q-55 27 -76 80q-13 29 -13 67q0 26 8.5 74.5t21.5 79.5l19 -7q-9 -36 -9 -73q0 -54 22 -80q44 -54 160 -54
q51 0 96.5 11t75.5 25q25 11 47 29t22 32q0 31 -56 52q-42 14 -56 17q3 29 12.5 49.5t16.5 26.5q14 10 45 19.5t78 9.5q24 0 54 -3q-9 18 -15 49.5t-15 91.5q-8 63 -12 79q-14 67 -23 106t-21 66l58 76q8 -20 22.5 -39.5t37.5 -45.5q-27 -22 -27 -66q0 -12 1 -18l10 -97
q8 -65 13.5 -93t14.5 -41t29 -26q20 -12 60 -28q2 -25 -4.5 -61.5z" />
    <glyph glyph-name="uni064406470649" unicode="&#xfedf;&#xfeec;&#xfef0;" horiz-adv-x="905" 
d="M100 35l19 -7q-9 -35 -9 -67q0 -50 22 -76q43 -54 157 -54q54 0 99.5 11t75.5 25q69 29 69 63q0 13 -14 26.5t-42 23.5l-51 17q5 31 5 32q5 23 20 28q42 13 91 33q-19 11 -28.5 29t-9.5 39q0 22 11 44q16 30 37 47.5t55 32.5q-4 32 -25 111.5t-32 97.5l56 76
q10 -18 27 -42t35 -43q-29 -23 -29 -68q0 -7 2 -25q4 -25 15 -59q6 -23 20 -36.5t30 -24.5l23 -15q46 -30 66 -51q30 -33 30 -74q0 -24 -9 -47.5t-25 -40.5l-46 -48q-29 18 -51 28t-50 21l-44 18q-36 -20 -83 -32q72 -28 72 -89q0 -36 -22 -76q-35 -64 -109 -102
q-40 -21 -86 -32t-91 -11q-72 0 -122 26q-55 28 -76 79q-13 30 -13 71q0 17 1 25q7 61 29 116zM561 150q11 -8 23 -13t20 -5q22 0 40 15t18 33q0 8 -4 19.5t-11 21.5q-14 23 -30 23q-18 0 -45 -23q-14 -12 -23.5 -24t-9.5 -19q0 -11 22 -28zM733 96l23 -6q17 13 17 36
q0 12 -5 24t-14 19l-38 33l-29 24q8 -19 8 -41q0 -8 -2 -22q-7 -28 -28 -50q19 -6 68 -17z" />
    <glyph glyph-name="uniFC49.fina" unicode="&#xfee4;&#xfef0;" horiz-adv-x="955" 
d="M955 0h-29q-47 0 -69 17.5t-31 57.5q-34 -62 -60 -83q-48 20 -81 37.5t-66 44.5q-16 -18 -32.5 -28.5t-40.5 -18.5q63 -24 63 -89q0 -36 -22 -76q-16 -29 -45 -55.5t-67 -46.5q-40 -21 -86 -32t-91 -11q-72 0 -122 26q-55 28 -76 79q-13 31 -13 69q0 29 8.5 70t21.5 73
l19 -7q-9 -36 -9 -69q0 -48 22 -74q43 -54 157 -54q54 0 99.5 11t75.5 25q35 16 52 30.5t17 32.5q0 13 -14 26.5t-42 23.5q-7 3 -23 9t-28 8q2 6 4 20q3 19 7 28t14 12q44 16 65 29q14 9 23 18t19 23l-8 8l52 60l11 -10q15 21 34 40t38.5 31t41.5 12q32 0 54 -27
q11 -13 17.5 -27t14.5 -37q1 -4 8 -21t16 -30q21 -27 54 -27h47v-98zM786.5 109.5q4.5 11.5 4.5 27.5q0 30 -17 46q-18 16 -39 16q-7 0 -10 -1q-17 -2 -34 -13q-11 -7 -20 -16.5t-11 -12.5q27 -21 59 -43t52 -34q11 19 15.5 30.5z" />
    <glyph glyph-name="uniFC53.fina" unicode="&#xfeec;&#xfef0;" horiz-adv-x="993" 
d="M993 0h-34q-21 0 -32.5 3t-25.5 10q-2 1 -11 6.5t-20.5 8t-27.5 2.5q-50 0 -68 -41q-6 -14 -6 -31q0 -13 3 -26q8 -30 30 -55q-25 -33 -59 -61q-57 31 -87 95q-16 33 -21.5 58.5t-5.5 49.5l1 37q1 9 1 24q0 25 -9.5 34.5t-40.5 9.5q-39 0 -79 -20q-33 -16 -53 -40
q-11 -13 -11 -23q0 -17 26 -21q4 -1 26.5 -5.5t43.5 -17.5q33 -22 33 -57q0 -41 -23 -81t-65 -73t-93 -51t-103 -18q-104 0 -161 49q-25 23 -38 55t-13 70q0 33 8 72.5t22 72.5l18 -9q-6 -23 -8 -68q0 -53 31 -84q46 -47 163 -47q55 0 89.5 12t67.5 32q18 12 27.5 23
t21.5 29q-11 13 -24.5 19.5t-41.5 10.5q-49 8 -65 39q-6 11 -6 25q0 18 11 48q10 27 32.5 52.5t52.5 45.5t62.5 30.5t61.5 10.5q32 0 47.5 -11t21.5 -34t7 -66q2 -48 17 -88.5t42 -65.5q-6 24 -6 44q0 40 28 72q40 42 117 42h126v-98z" />
    <glyph glyph-name="uni076A0627.isol" unicode="&#x76a;&#x627;" horiz-adv-x="447" 
d="M405 421l-26 10q1 -9 1 -32q0 -111 -53 -203q13 -25 23.5 -59t9.5 -61l-7 -59q-49 -11 -100.5 -16.5t-128.5 -5.5q0 61 5 101l13 1q71 19 125 94q-47 79 -94 131.5t-73 73.5l-11 -17q-32 20 -69 51q2 24 7.5 46t9.5 29q4 9 13 9q2 0 11 -3q10 -5 41 -32q70 -62 124 -128
q46 -57 70 -103q26 49 33 111q2 24 2 36q0 25 -3 49h-85l-28 31h109q-5 31 -10 48q28 22 48 45q11 -30 28 -55t37 -40zM277 96.5q30 1.5 48 4.5q-3 8 -29 59q-21 -32 -44 -47.5t-25 -17.5q20 0 50 1.5z" />
    <glyph glyph-name="f_f" unicode="ff" horiz-adv-x="545" 
d="M53 -149q21 26 32 49t16 61.5t5 107.5q0 79 -8 274q-34 1 -45.5 6t-11.5 19q40 21 57 34q12 83 58.5 133t114.5 50q81 0 155 -36q42 36 100 36q52 0 92 -12q0 -16 -8 -43t-20 -48q-29 27 -61.5 44.5t-52.5 16.5q-17 -12 -24.5 -44t-8.5 -103q66 1 104 8q0 -20 -4 -36
t-13 -34q-33 11 -89 12v-70q0 -60 4 -140q2 -56 2 -73q0 -51 -10.5 -84.5t-37 -64.5t-80.5 -73l-11 10q21 26 32 49.5t16 63t5 109.5q0 79 -8 273h-167v-70q0 -60 4 -140q3 -42 3 -73q0 -50 -10.5 -84t-37.5 -65t-81 -73zM352 397q9 76 47 124h-155q-26 -11 -38.5 -37.5
t-16.5 -86.5h163z" />
    <glyph glyph-name="f_f_i" unicode="ffi" horiz-adv-x="791" 
d="M53 -149q21 26 32 49t16 61.5t5 107.5q0 79 -8 274q-34 1 -45.5 6t-11.5 19q40 21 57 34q12 83 58.5 133t114.5 50q88 0 162 -40q43 40 105 40q70 0 132 -24q0 -16 -8 -43t-19 -48q-39 33 -83 53.5t-72 19.5q-16 -12 -24 -44t-10 -102h166q44 20 100 20q-5 -31 -8.5 -92
t-3.5 -133q0 -54 3.5 -83t11.5 -46.5t24 -35.5q-15 -18 -34 -27t-34 -9q-30 0 -42 17.5t-12 64.5q0 37 2 105q2 64 2 94q0 28 -2 74h-175v-70q0 -60 4 -140q3 -42 3 -73q0 -51 -10.5 -84.5t-37 -64.5t-80.5 -73l-11 10q21 26 32 49.5t16 63t5 109.5q0 79 -8 273h-179v-70
q0 -60 4 -140q3 -42 3 -73q0 -50 -10.5 -84t-37.5 -65t-81 -73zM364 397q9 76 47 124h-167q-26 -11 -38.5 -37.5t-16.5 -86.5h175z" />
    <glyph glyph-name="uni066E.init" unicode="&#x66e;" horiz-adv-x="223" 
d="M149.5 237q13.5 -35 13.5 -72q0 -60 -31 -109q-36 -56 -106 -56h-47q-21 0 -35 14.5t-14 35.5t13.5 34.5t35.5 13.5h55q34 0 55 13.5t30.5 28.5t9.5 18l-61 72q20 44 43 69q25 -27 38.5 -62z" />
    <glyph glyph-name="uni066E.medi" unicode="&#x66e;" horiz-adv-x="301" 
d="M171 125q24 -27 76 -27h54v-98h-40q-55 0 -84 33q-18 21 -21 43q-1 -2 -5 -15t-20 -30q-29 -31 -76 -31h-76q-20 0 -34.5 14.5t-14.5 35.5q0 20 14.5 34t34.5 14h57q50 0 70.5 20t24.5 65l22 12q-3 -46 18 -70z" />
    <glyph glyph-name="uni066E.fina" unicode="&#x66e;" horiz-adv-x="893" 
d="M777 184l-24 -31q4 -17 25 -36t73 -19h42v-98h-45q-73 0 -105 41q-19 23 -24 57q-20 -28 -49 -46q-50 -33 -123 -45.5t-167 -12.5q-93 0 -147 9q-104 17 -142 84q-21 38 -21 92q0 21 4 49l19 -8q9 -45 31 -70.5t68 -39.5q39 -12 93 -15.5t163 -3.5q45 0 106 8q60 8 99 23
t59.5 30t41.5 37z" />
    <glyph glyph-name="uni066F.fina" unicode="&#x66f;" horiz-adv-x="642" 
d="M487 221q18 -32 25 -70.5t7 -52.5h123v-98h-123q0 -29 -9.5 -78.5t-48.5 -100.5q-29 -39 -72 -60q-48 -24 -110 -24q-69 0 -122 29q-51 28 -72 79q-13 31 -13 68q0 54 30 131l19 -7q-8 -40 -8 -65q0 -38 20 -65q42 -57 154 -57q49 0 83.5 12t60.5 38q30 30 36.5 56
t6.5 44h-41q-31 0 -49 5.5t-31 16.5q-33 30 -33 90q0 19 4 42t11 40q12 33 33.5 53t50.5 20q42 0 68 -46zM369.5 183q-15.5 -17 -15.5 -38q0 -47 59 -47h53q0 8 -4.5 32.5t-18 47t-38.5 22.5q-20 0 -35.5 -17z" />
    <glyph glyph-name="uni0676.fina" unicode="&#x676;" horiz-adv-x="540" 
d="M389 335q-35 -4 -72 -16q-43 -14 -84 -39q-3 0 -4.5 2.5t-1.5 5.5q0 4 4 8q15 14 31 24t41 20q-56 8 -56 43q0 6 4 11q17 25 31 36q27 23 60 23q19 0 29.5 -8.5t11.5 -17.5l-5 -7q-12 5 -32 5q-17 0 -31 -5t-32 -16q0 -17 8 -24t28 -13q15 -4 34 -4q9 0 27 2l26 5
q-11 -25 -17 -35zM540 0h-291q0 -39 -10.5 -95t-35.5 -102q-23 -41 -53 -61q-33 -21 -73 -21q-9 0 -31 2q-26 2 -37 2q-25 0 -60 -8l-9 13l47 25q20 11 42.5 23t40.5 22q41 24 69 50q49 46 65 112q5 20 5 38h-52q-64 0 -88 35q-20 28 -20 82q0 24 4 41t14 39q13 27 32.5 44
t43.5 17q26 0 47 -18t35 -48q10 -21 16 -46.5t6 -47.5h293v-98zM168.5 175.5q-14.5 10.5 -33.5 10.5q-23 0 -38.5 -13t-15.5 -31q0 -26 17 -35t48 -9h58q0 22 -13 50q-8 17 -22.5 27.5z" />
    <glyph glyph-name="uni0677.fina" unicode="&#x677;" horiz-adv-x="405" 
d="M235 347l-26 11q-12 -18 -31 -33q-30 -21 -69 -21q-12 0 -18 1q2 8 9 22q33 -1 53.5 7t39.5 29q-40 15 -40 39q0 14 13 30q22 27 41 27q13 0 20.5 -9t7.5 -24q0 -24 -16 -50l13 -7q3 -10 3 -22zM119 351q-16 -1 -30 -4.5t-30 -8.5q-33 -11 -70 -33q-2 0 -3.5 2.5
t-1.5 4.5q0 1 3 7q13 12 26 20t34 16q-22 3 -34 12.5t-12 23.5q0 5 3 9q14 20 26 30q22 19 50 19q16 0 24.5 -7t9.5 -14l-4 -6q-12 4 -27 4q-14 0 -25.5 -4t-26.5 -13q0 -14 6.5 -20t23.5 -11q13 -3 29 -3q15 0 22 1q7 2 21 4q-7 -18 -14 -29zM217 414q0 9 -5 14
q-4 5 -10.5 7t-12.5 0q-7 -1 -12 -6.5t-5 -11.5v-3q0 -11 16 -21l18 -10q11 17 11 31zM405 0h-116q0 -39 -10.5 -95t-35.5 -102q-23 -41 -53 -61q-33 -21 -73 -21q-9 0 -31 2q-26 2 -37 2q-25 0 -60 -8l-9 13l47 25q20 11 42.5 23t40.5 22q41 24 69 50q49 46 65 112
q5 20 5 38h-52q-64 0 -88 35q-20 28 -20 82q0 24 4 41t14 39q13 27 32.5 44t43.5 17q26 0 47 -18t35 -48q10 -21 16 -46.5t6 -47.5h118v-98zM208.5 175.5q-14.5 10.5 -33.5 10.5q-23 0 -38.5 -13t-15.5 -31q0 -26 17 -35t48 -9h58q0 22 -13 50q-8 17 -22.5 27.5z" />
    <glyph glyph-name="uni0678.init" unicode="&#x678;" horiz-adv-x="372" 
d="M149.5 237q13.5 -35 13.5 -72q0 -60 -31 -109q-36 -56 -106 -56h-47q-21 0 -35 14.5t-14 35.5t13.5 34.5t35.5 13.5h55q34 0 55 13.5t30.5 28.5t9.5 18l-61 72q20 44 43 69q25 -27 38.5 -62zM312 379q-35 -4 -72 -16q-43 -14 -84 -39q-3 0 -4.5 2.5t-1.5 5.5q0 4 4 8
q15 14 31 24t41 20q-56 8 -56 43q0 6 4 11q17 25 31 36q27 23 60 23q19 0 29.5 -8.5t11.5 -17.5l-5 -7q-12 5 -32 5q-17 0 -31 -5t-32 -16q0 -17 8 -24t28 -13q15 -4 34 -4q9 0 27 2l26 5q-11 -25 -17 -35z" />
    <glyph glyph-name="uni0678.medi" unicode="&#x678;" horiz-adv-x="484" 
d="M331 274q-35 -4 -72 -16q-43 -14 -84 -39q-3 0 -4.5 2.5t-1.5 5.5q0 4 4 8q15 14 31 24t41 20q-56 8 -56 43q0 6 4 11q17 25 31 36q27 23 60 23q19 0 29.5 -8.5t11.5 -17.5l-5 -7q-12 5 -32 5q-17 0 -31 -5t-32 -16q0 -17 8 -24t28 -13q15 -4 34 -4q9 0 27 2l26 5
q-11 -25 -17 -35zM154 125q24 -27 76 -27h254v-98h-240q-55 0 -84 33q-18 21 -21 43q-1 -2 -5 -15t-20 -30q-29 -31 -76 -31h-59q-20 0 -34.5 14.5t-14.5 35.5q0 20 14.5 34t34.5 14h40q50 0 70.5 20t24.5 65l22 12q-3 -46 18 -70z" />
    <glyph glyph-name="uni0678.fina" unicode="&#x678;" horiz-adv-x="833" 
d="M681 207q-35 -4 -72 -16q-43 -14 -84 -39q-3 0 -4.5 2.5t-1.5 5.5q0 4 4 8q15 14 31 24t41 20q-56 8 -56 43q0 6 4 11q17 25 31 36q27 23 60 23q19 0 29.5 -8.5t11.5 -17.5l-5 -7q-12 5 -32 5q-17 0 -31 -5t-32 -16q0 -17 8 -24t28 -13q15 -4 34 -4q9 0 27 2l26 5
q-11 -25 -17 -35zM833 0h-270q26 -19 26 -58q0 -37 -22 -79q-15 -29 -43.5 -55t-66.5 -45q-39 -22 -84 -33t-90 -11q-84 0 -136 33q-44 25 -64 73q-13 29 -13 67q0 30 8 70.5t22 73.5l19 -7q-8 -40 -8 -71q0 -45 21 -72q44 -54 160 -54q77 0 155 29q43 15 69.5 33.5
t26.5 34.5q0 34 -69 57q-24 8 -52 13q29 61 60 99h351v-98z" />
    <glyph glyph-name="uni067C.init" unicode="&#x67c;" horiz-adv-x="223" 
d="M-50 303q-26 30 -56 54q38 38 52 53q19 -12 46 -43q30 30 41 43q16 -10 31.5 -25.5t24.5 -29.5q-19 -22 -52 -52q-19 24 -43 44q-16 -19 -44 -44zM149.5 237q13.5 -35 13.5 -72q0 -60 -31 -109q-20 -32 -51 -45q23 -20 23 -55q0 -21 -9 -36q-13 -22 -48 -22
q-29 0 -41.5 17.5t-12.5 33.5q0 30 12 51h-26q-21 0 -35 14.5t-14 35.5t13.5 34.5t35.5 13.5h55q34 0 55 13.5t30.5 28.5t9.5 18l-61 72q20 44 43 69q25 -27 38.5 -62zM77 -11q-12 11 -35 11q-15 0 -22.5 -10.5t-7.5 -21.5q0 -31 29 -31q15 0 31.5 5t16.5 22q0 14 -12 25z
" />
    <glyph glyph-name="uni067C.medi" unicode="&#x67c;" horiz-adv-x="301" 
d="M-73 272q38 38 52 53q19 -12 46 -43q30 30 41 43q16 -10 31.5 -25.5t24.5 -29.5q-19 -22 -52 -52q-19 24 -43 44q-16 -19 -44 -44q-26 30 -56 54zM301 98v-98h-40q-55 0 -84 33q-18 21 -21 43q-1 -2 -5 -15t-20 -30q-15 -17 -40 -25q18 -21 18 -51q0 -21 -9 -36
q-13 -22 -48 -22q-29 0 -41.5 17.5t-12.5 33.5q0 30 13 52h-32q-20 0 -34.5 14.5t-14.5 35.5q0 20 14.5 34t34.5 14h57q50 0 70.5 20t24.5 65l22 12q-3 -46 18 -70q24 -27 76 -27h54zM77.5 -59q16.5 5 16.5 22q0 14 -12 25t-35 11q-15 0 -22.5 -10.5t-7.5 -21.5
q0 -31 29 -31q15 0 31.5 5z" />
    <glyph glyph-name="uni067C.fina" unicode="&#x67c;" horiz-adv-x="893" 
d="M321 272q38 38 52 53q19 -12 46 -43q30 30 41 43q16 -10 31.5 -25.5t24.5 -29.5q-19 -22 -52 -52q-19 24 -43 44q-16 -19 -44 -44q-26 30 -56 54zM893 98v-98h-45q-73 0 -105 41q-19 23 -24 57q-20 -28 -49 -46q-72 -47 -207 -55q16 -20 16 -48q0 -21 -9 -36
q-13 -22 -48 -22q-29 0 -41.5 17.5t-12.5 33.5q0 30 13 52h-1q-93 0 -147 9q-104 17 -142 84q-21 38 -21 92q0 21 4 49l19 -8q9 -45 31 -70.5t68 -39.5q39 -12 93 -15.5t163 -3.5q45 0 106 8q60 8 99 23t59.5 30t41.5 37l23 -5l-24 -31q4 -17 25 -36t73 -19h42zM447.5 -65
q16.5 5 16.5 22q0 14 -12 25t-35 11q-15 0 -22.5 -10.5t-7.5 -21.5q0 -31 29 -31q15 0 31.5 5z" />
    <glyph glyph-name="uni067D.fina" unicode="&#x67d;" horiz-adv-x="893" 
d="M777 184l-24 -31q4 -17 25 -36t73 -19h42v-98h-45q-73 0 -105 41q-19 23 -24 57q-20 -28 -49 -46q-50 -33 -123 -45.5t-167 -12.5q-93 0 -147 9q-104 17 -142 84q-21 38 -21 92q0 21 4 49l19 -8q9 -45 31 -70.5t68 -39.5q39 -12 93 -15.5t163 -3.5q45 0 106 8q60 8 99 23
t59.5 30t41.5 37zM464 332q-19 24 -43 44l-25 -26l-19 -18q-28 33 -56 55q28 26 52 52q24 -15 46 -42l27 27l14 15q16 -10 31.5 -25.5t24.5 -29.5q-28 -30 -52 -52zM425 225q-24 28 -55 54q38 38 51 53q16 -10 31.5 -25.5t24.5 -29.5q-19 -22 -52 -52z" />
    <glyph glyph-name="uni0689.fina" unicode="&#x689;" horiz-adv-x="503" 
d="M502 98v-98h-32q-62 0 -97 33q-19 17 -28.5 35t-17.5 48q-6 -24 -13.5 -43.5t-32.5 -43t-70 -31.5q16 -19 16 -48q0 -21 -9 -36q-13 -22 -48 -22q-29 0 -41.5 17.5t-12.5 33.5q0 33 15 56q-41 7 -67 36q-25 33 -25 85q0 18 5 46l17 4q3 -31 21 -51q25 -27 76 -27h34
q50 0 74 32t29 74l-34 121q21 29 47 55l50 -171q18 -57 44 -81t69 -24h31zM195.5 -64q16.5 5 16.5 22q0 14 -12 25t-35 11q-15 0 -22.5 -10.5t-7.5 -21.5q0 -31 29 -31q15 0 31.5 5z" />
    <glyph glyph-name="uni068A.fina" unicode="&#x68a;" horiz-adv-x="503" 
d="M358 203q18 -57 44 -81t69 -24h31v-98h-32q-62 0 -97 33q-19 17 -28.5 35t-17.5 48q-5 -25 -16 -49.5t-44.5 -48t-95.5 -23.5q-73 0 -107 40q-25 33 -25 85q0 18 5 46l17 4q3 -31 21 -51q25 -27 76 -27h34q50 0 74 32t29 74l-34 121q21 29 47 55zM205.5 -76
q15.5 -15 24.5 -28q-20 -22 -52 -52q-27 32 -55 54q26 24 51 53q16 -12 31.5 -27z" />
    <glyph glyph-name="uni068B.fina" unicode="&#x68b;" horiz-adv-x="503" 
d="M358 203q18 -57 44 -81t69 -24h31v-98h-32q-62 0 -97 33q-19 17 -28.5 35t-17.5 48q-5 -25 -16 -49.5t-44.5 -48t-95.5 -23.5q-73 0 -107 40q-25 33 -25 85q0 18 5 46l17 4q3 -31 21 -51q25 -27 76 -27h34q50 0 74 32t29 74l-34 121q21 29 47 55zM231 553q-6 -6 -8.5 -11
t-1.5 -18q5 -23 6.5 -32.5t0.5 -25.5q16 22 31 31.5t27 9.5t24 -9t12 -20q0 -28 -29 -52q-32 -22 -63 -22h-42l-10 32h29l11 20q-3 35 -10.5 60.5t-13.5 38.5l16 24q8 -13 21 -26zM293.5 475.5q-7.5 6.5 -21.5 6.5q-27 -1 -47 -46h26q17 0 32 6.5t23 16.5q-5 10 -12.5 16.5z
M205.5 -76q15.5 -15 24.5 -28q-20 -22 -52 -52q-27 32 -55 54q26 24 51 53q16 -12 31.5 -27z" />
    <glyph glyph-name="uni068F.fina" unicode="&#x68f;" horiz-adv-x="503" 
d="M358 203q18 -57 44 -81t69 -24h31v-98h-32q-62 0 -97 33q-19 17 -28.5 35t-17.5 48q-5 -25 -16 -49.5t-44.5 -48t-95.5 -23.5q-73 0 -107 40q-25 33 -25 85q0 18 5 46l17 4q3 -31 21 -51q25 -27 76 -27h34q50 0 74 32t29 74l-34 121q21 29 47 55zM296 518q-19 24 -43 44
l-25 -26l-19 -18q-28 33 -56 55q28 26 52 52q24 -15 46 -42l27 27l14 15q16 -10 31.5 -25.5t24.5 -29.5q-28 -30 -52 -52zM257 411q-24 28 -55 54q38 38 51 53q16 -10 31.5 -25.5t24.5 -29.5q-19 -22 -52 -52z" />
    <glyph glyph-name="uni0690.fina" unicode="&#x690;" horiz-adv-x="503" 
d="M358 203q18 -57 44 -81t69 -24h31v-98h-32q-62 0 -97 33q-19 17 -28.5 35t-17.5 48q-5 -25 -16 -49.5t-44.5 -48t-95.5 -23.5q-73 0 -107 40q-25 33 -25 85q0 18 5 46l17 4q3 -31 21 -51q25 -27 76 -27h34q50 0 74 32t29 74l-34 121q21 29 47 55zM203 509q-22 26 -50 48
q38 38 52 53q19 -12 46 -43q30 30 41 43q16 -10 31.5 -25.5t24.5 -29.5q-18 -21 -49 -49q30 -22 49 -50q-19 -22 -52 -52q-19 24 -43 44q-16 -19 -44 -44q-26 30 -56 54q36 36 50 51zM251 468q29 29 40 41q-19 22 -38 38q-15 -18 -41 -41q17 -12 39 -38z" />
    <glyph glyph-name="uni0693.fina" unicode="&#x693;" horiz-adv-x="375" 
d="M375 98v-98h-66q-19 0 -33.5 4t-22 8.5t-9.5 6.5q1 -3 2 -14t1 -27q0 -75 -29 -140q-14 -32 -31 -55q25 -3 39 -23t14 -45q0 -21 -9 -36q-13 -22 -48 -22q-29 0 -41.5 17.5t-12.5 33.5q0 7 2 23q-20 -11 -52 -11q-10 0 -38 2q-26 2 -38 2q-26 0 -54 -8l-9 13l34 18
q72 39 115 65t71 53q42 40 42 94q0 38 -17.5 67.5t-51.5 60.5q24 45 48 72q23 -25 36 -35q16 -12 38.5 -19t40.5 -7h79zM213 -252q-12 11 -35 11q-10 0 -15 -4l-2 -2l-7 -6q-6 -9 -6 -20q0 -31 29 -31q15 0 31.5 5t16.5 22q0 14 -12 25z" />
    <glyph glyph-name="uni069A.fina" unicode="&#x69a;" horiz-adv-x="919" 
d="M919 0h-43q-47 0 -68 23.5t-24 51.5q-12 -75 -72 -75q-33 0 -51.5 21t-21.5 54q-20 -73 -83 -73q-19 0 -32 5q4 -29 4 -57q0 -54 -17.5 -100t-50.5 -76q-30 -28 -76 -43q-45 -15 -100 -15q-76 0 -128 28t-72 78q-14 34 -14 72q0 23 7.5 58t22.5 71l19 -7q-7 -42 -7 -65
q0 -41 20 -66q21 -26 62 -41t98 -15q83 0 139 32q27 15 42 34.5t15 40.5q0 31 -29 80.5t-47 73.5q15 30 47 68q17 -23 43 -43t59 -20q37 0 53.5 26t18.5 57l22 12q-2 -12 -2 -24q0 -29 12.5 -50t45.5 -21q62 0 67 83l22 12q-1 -7 -1 -23q0 -30 15 -48q20 -21 59 -21h46v-98z
M667.5 328q15.5 -15 24.5 -28q-20 -22 -52 -52q-27 32 -55 54q26 24 51 53q16 -12 31.5 -27zM665.5 -77q15.5 -15 24.5 -28q-20 -22 -52 -52q-27 32 -55 54q26 24 51 53q16 -12 31.5 -27z" />
    <glyph glyph-name="uni069B.fina" unicode="&#x69b;" horiz-adv-x="919" 
d="M919 0h-43q-47 0 -68 23.5t-24 51.5q-12 -75 -72 -75q-33 0 -51.5 21t-21.5 54q-20 -73 -83 -73q-19 0 -32 5q4 -29 4 -57q0 -54 -17.5 -100t-50.5 -76q-30 -28 -76 -43q-45 -15 -100 -15q-76 0 -128 28t-72 78q-14 34 -14 72q0 23 7.5 58t22.5 71l19 -7q-7 -42 -7 -65
q0 -41 20 -66q21 -26 62 -41t98 -15q83 0 139 32q27 15 42 34.5t15 40.5q0 31 -29 80.5t-47 73.5q15 30 47 68q17 -23 43 -43t59 -20q37 0 53.5 26t18.5 57l22 12q-2 -12 -2 -24q0 -29 12.5 -50t45.5 -21q62 0 67 83l22 12q-1 -7 -1 -23q0 -30 15 -48q20 -21 59 -21h46v-98z
M704 -151q-19 24 -43 44l-25 -26l-19 -18q-28 33 -56 55q28 26 52 52q24 -15 46 -42l27 27l14 15q16 -10 31.5 -25.5t24.5 -29.5q-28 -30 -52 -52zM665 -258q-24 28 -55 54q38 38 51 53q16 -10 31.5 -25.5t24.5 -29.5q-19 -22 -52 -52z" />
    <glyph glyph-name="uni069C.fina" unicode="&#x69c;" horiz-adv-x="919" 
d="M919 0h-43q-47 0 -68 23.5t-24 51.5q-12 -75 -72 -75q-33 0 -51.5 21t-21.5 54q-20 -73 -83 -73q-19 0 -32 5q4 -29 4 -57q0 -54 -17.5 -100t-50.5 -76q-30 -28 -76 -43q-45 -15 -100 -15q-76 0 -128 28t-72 78q-14 34 -14 72q0 23 7.5 58t22.5 71l19 -7q-7 -42 -7 -65
q0 -41 20 -66q21 -26 62 -41t98 -15q83 0 139 32q27 15 42 34.5t15 40.5q0 31 -29 80.5t-47 73.5q15 30 47 68q17 -23 43 -43t59 -20q37 0 53.5 26t18.5 57l22 12q-2 -12 -2 -24q0 -29 12.5 -50t45.5 -21q62 0 67 83l22 12q-1 -7 -1 -23q0 -30 15 -48q20 -21 59 -21h46v-98z
M586 409q31 29 52 53q15 -10 30.5 -25.5t24.5 -29.5q-24 -28 -52 -52q-27 32 -55 54zM712.5 329.5q15.5 -15.5 24.5 -29.5q-19 -22 -52 -52q-19 24 -43 44q-16 -19 -44 -44q-26 30 -56 54q38 38 52 53q22 -15 46 -43q30 30 41 43q16 -10 31.5 -25.5zM705 -151q-19 24 -43 44
l-25 -26l-19 -18q-28 33 -56 55q28 26 52 52q24 -15 46 -42l27 27l14 15q16 -10 31.5 -25.5t24.5 -29.5q-28 -30 -52 -52zM666 -258q-24 28 -55 54q38 38 51 53q16 -10 31.5 -25.5t24.5 -29.5q-19 -22 -52 -52z" />
    <glyph glyph-name="uni069D.fina" unicode="&#x69d;" horiz-adv-x="1072" 
d="M1072 0h-110l-79 1l-153 2h-56q-25 0 -37.5 0.5t2.5 0.5q-56 0 -79 7q-17 5 -38 19q10 -54 10 -90q0 -43 -19.5 -91.5t-62.5 -82.5q-63 -50 -166 -50q-76 0 -128 28t-72 78q-14 34 -14 72q0 23 7.5 58t22.5 71l19 -7q-7 -42 -7 -65q0 -41 20 -66q21 -26 62 -41t98 -15
q83 0 139 32q28 16 42.5 35.5t14.5 40.5q0 49 -76 153q16 34 48 69q27 -33 51 -45.5t60 -15.5q50 76 91 120q98 103 172 103q14 0 32.5 -7.5t34.5 -19.5q21 -17 29 -33.5t8 -29.5q0 -43 -26 -86q-25 -40 -67 -72q71 25 123 25h104v-98zM867 208q-12 15 -32.5 26.5
t-41.5 11.5q-27 0 -47.5 -9t-33 -20t-35.5 -34q-29 -28 -70 -85h115q56 0 99 19q23 10 35 19t30 29q-6 24 -19 43zM760.5 -74.5q15.5 -15.5 24.5 -29.5q-19 -22 -52 -52q-19 24 -43 44q-16 -19 -44 -44q-26 30 -56 54q38 38 52 53q19 -12 46 -43q30 30 41 43
q16 -10 31.5 -25.5z" />
    <glyph glyph-name="uni069E.fina" unicode="&#x69e;" horiz-adv-x="1072" 
d="M1072 0h-110l-79 1l-153 2h-56q-25 0 -37.5 0.5t2.5 0.5q-56 0 -79 7q-17 5 -38 19q10 -54 10 -90q0 -43 -19.5 -91.5t-62.5 -82.5q-63 -50 -166 -50q-76 0 -128 28t-72 78q-14 34 -14 72q0 23 7.5 58t22.5 71l19 -7q-7 -42 -7 -65q0 -41 20 -66q21 -26 62 -41t98 -15
q83 0 139 32q28 16 42.5 35.5t14.5 40.5q0 49 -76 153q16 34 48 69q27 -33 51 -45.5t60 -15.5q50 76 91 120q98 103 172 103q14 0 32.5 -7.5t34.5 -19.5q21 -17 29 -33.5t8 -29.5q0 -43 -26 -86q-25 -40 -67 -72q71 25 123 25h104v-98zM867 208q-12 15 -32.5 26.5
t-41.5 11.5q-27 0 -47.5 -9t-33 -20t-35.5 -34q-29 -28 -70 -85h115q56 0 99 19q23 10 35 19t30 29q-6 24 -19 43zM761 532q31 29 52 53q15 -10 30.5 -25.5t24.5 -29.5q-24 -28 -52 -52q-27 32 -55 54zM887.5 452.5q15.5 -15.5 24.5 -29.5q-19 -22 -52 -52q-19 24 -43 44
q-16 -19 -44 -44q-26 30 -56 54q38 38 52 53q22 -15 46 -43q30 30 41 43q16 -10 31.5 -25.5z" />
    <glyph glyph-name="uni069F.medi" unicode="&#x69f;" horiz-adv-x="550" 
d="M550 98v-98h-111l-79 1h-76h-175l-94 -1h-37q-19 0 -33.5 14.5t-14.5 34.5q0 21 13.5 35t34.5 14h59l43 53q-4 124 -33 259q-11 52 -23 82l49 76q26 -50 60 -86q-15 -13 -21.5 -28t-6.5 -39l1 -19q9 -66 11 -120q1 -26 0 -47t-3 -32t-3 -14l19 21q51 56 90.5 80t80.5 24
q15 0 33 -7.5t34 -20.5q37 -29 37 -63q0 -39 -20.5 -76t-60.5 -68q21 8 56 16.5t65 8.5h105zM320 134.5q15 11.5 34 30.5q-16 34 -37.5 49t-59.5 15q-30 0 -65.5 -23.5t-67.5 -56.5q2 2 -31 -34l-15 -17h111q49 0 93 16q23 9 38 20.5zM228 519q31 29 52 53
q15 -10 30.5 -25.5t24.5 -29.5q-24 -28 -52 -52q-27 32 -55 54zM354.5 439.5q15.5 -15.5 24.5 -29.5q-19 -22 -52 -52q-19 24 -43 44q-16 -19 -44 -44q-26 30 -56 54q38 38 52 53q22 -15 46 -43q30 30 41 43q16 -10 31.5 -25.5z" />
    <glyph glyph-name="uni069F.fina" unicode="&#x69f;" horiz-adv-x="726" 
d="M726 0h-108l-79 1h-76h-175l-52 -1l-75 -3q-47 36 -91 111q26 -3 77.5 -6t68.5 -4l43 53q-4 124 -33 259q-11 52 -23 82l49 76q26 -50 60 -86q-15 -13 -21.5 -28t-6.5 -39l1 -19q9 -66 11 -120q1 -26 0 -47t-3 -32t-3 -14l19 21q51 56 90.5 80t80.5 24q15 0 33 -7.5
t34 -20.5q37 -29 37 -63q0 -39 -20.5 -76t-60.5 -68q21 8 56 16.5t65 8.5h102v-98zM495.5 214q-21.5 15 -59.5 15q-30 0 -65.5 -23.5t-67.5 -56.5q2 2 -31 -34l-15 -17h111q49 0 93 16q23 9 38 20.5t34 30.5q-16 34 -37.5 49zM407 519q31 29 52 53q15 -10 30.5 -25.5
t24.5 -29.5q-24 -28 -52 -52q-27 32 -55 54zM533.5 439.5q15.5 -15.5 24.5 -29.5q-19 -22 -52 -52q-19 24 -43 44q-16 -19 -44 -44q-26 30 -56 54q38 38 52 53q22 -15 46 -43q30 30 41 43q16 -10 31.5 -25.5z" />
    <glyph glyph-name="uni06A0.fina" unicode="&#x6a0;" horiz-adv-x="519" 
d="M519 0h-110q-48 0 -80 26q-19 15 -37 39t-22 29q-64 -27 -101 -71q-42 -52 -42 -116q0 -30 9.5 -52.5t29.5 -42.5q45 -45 148 -61q35 -5 88 -8l22 -2q27 -1 60 -6l-5 -16q-26 -1 -44.5 -7.5t-32 -13.5t-18.5 -10q-23 -12 -43.5 -18t-51.5 -6q-52 0 -95 18t-73 51
q-24 27 -37 63.5t-13 78.5q0 90 53 163q30 41 73 68q20 14 41 25q-29 27 -64 34q6 42 18 72q52 26 95 26q47 0 80 -15t33 -46q0 -22 -16.5 -41t-49.5 -43q29 -20 56 -20h129v-98zM234 474q31 29 52 53q15 -10 30.5 -25.5t24.5 -29.5q-24 -28 -52 -52q-27 32 -55 54z
M360.5 394.5q15.5 -15.5 24.5 -29.5q-19 -22 -52 -52q-19 24 -43 44q-16 -19 -44 -44q-26 30 -56 54q38 38 52 53q22 -15 46 -43q30 30 41 43q16 -10 31.5 -25.5z" />
    <glyph glyph-name="uni06A1.init" unicode="&#x6a1;" horiz-adv-x="291" 
d="M196 378q27 -46 33 -109q2 -22 2 -33q0 -51 -14 -99q-19 -65 -60 -99q-28 -23 -62.5 -30.5t-76.5 -7.5h-39q-20 0 -34.5 14.5t-14.5 35.5q0 20 14.5 34t34.5 14h78q83 0 116 40q11 12 17 30t4 35q-27 -26 -77 -26q-42 0 -65 21q-27 24 -27 71q0 25 7.5 52.5t19.5 49.5
q11 21 29.5 37t44.5 16q43 0 70 -46zM111 357q-28 0 -41 -19t-13 -37q0 -16 12.5 -33t47.5 -17q24 0 39.5 8t23.5 17q-17 81 -69 81z" />
    <glyph glyph-name="uni06A1.medi" unicode="&#x6a1;" horiz-adv-x="402" 
d="M237.5 275.5q24.5 -32.5 24.5 -90.5q0 -24 -4 -43.5t-8.5 -30t-5.5 -13.5h158v-98h-81q-45 0 -66 14.5t-28 30.5q-26 -45 -129 -45h-119q-23 0 -36 14.5t-13 33.5q0 21 14.5 35.5t34.5 14.5h108q-2 2 -6.5 9t-9 20.5t-4.5 30.5q0 25 10.5 52t27.5 49q36 49 76 49
q32 0 56.5 -32.5zM205.5 207.5q-23.5 20.5 -42.5 20.5q-15 0 -29.5 -13t-23.5 -27t-11 -18q0 -3 7.5 -18t22 -28.5t35.5 -13.5q19 0 34 11t23 26t8 24q0 16 -23.5 36.5z" />
    <glyph glyph-name="uni06A1.fina" unicode="&#x6a1;" horiz-adv-x="946" 
d="M946 0h-106q-41 0 -62 16t-26 34q-41 -24 -138 -41q-38 -7 -97 -11.5t-122 -4.5q-91 0 -163 12q-85 15 -123.5 53.5t-38.5 120.5q0 21 1.5 35t1.5 15l18 -7q3 -29 13.5 -48.5t31.5 -33.5q37 -26 114 -37q58 -9 160 -9q70 0 117.5 3.5t69.5 7t27 4.5q-1 2 -5 9t-8 19.5
t-4 26.5q0 23 11 52.5t28 52.5q19 25 41 39t42 14q18 0 34 -10t26 -25q24 -34 24 -89q0 -25 -5 -47.5t-10.5 -36t-7.5 -16.5h25h131v-98zM769 197.5q-9 17.5 -24 31t-32 13.5q-20 0 -36 -16t-25.5 -35.5t-9.5 -21.5t9.5 -15.5t25.5 -25t37 -11.5q19 0 33.5 9.5t22.5 22.5
t8 22t-9 26.5z" />
    <glyph glyph-name="uni06A2.fina" unicode="&#x6a2;" horiz-adv-x="946" 
d="M946 0h-106q-41 0 -62 16t-26 34q-41 -24 -138 -41q-38 -7 -97 -11.5t-122 -4.5q-91 0 -163 12q-85 15 -123.5 53.5t-38.5 120.5q0 21 1.5 35t1.5 15l18 -7q3 -29 13.5 -48.5t31.5 -33.5q37 -26 114 -37q58 -9 160 -9q70 0 117.5 3.5t69.5 7t27 4.5q-1 2 -5 9t-8 19.5
t-4 26.5q0 23 11 52.5t28 52.5q19 25 41 39t42 14q18 0 34 -10t26 -25q24 -34 24 -89q0 -25 -5 -47.5t-10.5 -36t-7.5 -16.5h25h131v-98zM769 197.5q-9 17.5 -24 31t-32 13.5q-20 0 -36 -16t-25.5 -35.5t-9.5 -21.5t9.5 -15.5t25.5 -25t37 -11.5q19 0 33.5 9.5t22.5 22.5
t8 22t-9 26.5zM714.5 -73q15.5 -15 24.5 -28q-20 -22 -52 -52q-27 32 -55 54q26 24 51 53q16 -12 31.5 -27z" />
    <glyph glyph-name="uni06A3.fina" unicode="&#x6a3;" horiz-adv-x="946" 
d="M946 0h-106q-41 0 -62 16t-26 34q-41 -24 -138 -41q-38 -7 -97 -11.5t-122 -4.5q-91 0 -163 12q-85 15 -123.5 53.5t-38.5 120.5q0 21 1.5 35t1.5 15l18 -7q3 -29 13.5 -48.5t31.5 -33.5q37 -26 114 -37q58 -9 160 -9q70 0 117.5 3.5t69.5 7t27 4.5q-1 2 -5 9t-8 19.5
t-4 26.5q0 23 11 52.5t28 52.5q19 25 41 39t42 14q18 0 34 -10t26 -25q24 -34 24 -89q0 -25 -5 -47.5t-10.5 -36t-7.5 -16.5h25h131v-98zM769 197.5q-9 17.5 -24 31t-32 13.5q-20 0 -36 -16t-25.5 -35.5t-9.5 -21.5t9.5 -15.5t25.5 -25t37 -11.5q19 0 33.5 9.5t22.5 22.5
t8 22t-9 26.5zM757.5 452q15.5 -15 24.5 -28q-20 -22 -52 -52q-27 32 -55 54q26 24 51 53q16 -12 31.5 -27zM714.5 -73q15.5 -15 24.5 -28q-20 -22 -52 -52q-27 32 -55 54q26 24 51 53q16 -12 31.5 -27z" />
    <glyph glyph-name="uni06A5.fina" unicode="&#x6a5;" horiz-adv-x="946" 
d="M946 0h-106q-41 0 -62 16t-26 34q-41 -24 -138 -41q-38 -7 -97 -11.5t-122 -4.5q-91 0 -163 12q-85 15 -123.5 53.5t-38.5 120.5q0 21 1.5 35t1.5 15l18 -7q3 -29 13.5 -48.5t31.5 -33.5q37 -26 114 -37q58 -9 160 -9q70 0 117.5 3.5t69.5 7t27 4.5q-1 2 -5 9t-8 19.5
t-4 26.5q0 23 11 52.5t28 52.5q19 25 41 39t42 14q18 0 34 -10t26 -25q24 -34 24 -89q0 -25 -5 -47.5t-10.5 -36t-7.5 -16.5h25h131v-98zM769 197.5q-9 17.5 -24 31t-32 13.5q-20 0 -36 -16t-25.5 -35.5t-9.5 -21.5t9.5 -15.5t25.5 -25t37 -11.5q19 0 33.5 9.5t22.5 22.5
t8 22t-9 26.5zM733 -155q-19 24 -43 44l-25 -26l-19 -18q-28 33 -56 55q28 26 52 52q24 -15 46 -42l27 27l14 15q16 -10 31.5 -25.5t24.5 -29.5q-28 -30 -52 -52zM694 -262q-24 28 -55 54q38 38 51 53q16 -10 31.5 -25.5t24.5 -29.5q-19 -22 -52 -52z" />
    <glyph glyph-name="uni06A7.fina" unicode="&#x6a7;" horiz-adv-x="642" 
d="M487 221q18 -32 25 -70.5t7 -52.5h123v-98h-123q0 -29 -9.5 -78.5t-48.5 -100.5q-29 -39 -72 -60q-48 -24 -110 -24q-69 0 -122 29q-51 28 -72 79q-13 31 -13 68q0 54 30 131l19 -7q-8 -40 -8 -65q0 -38 20 -65q42 -57 154 -57q49 0 83.5 12t60.5 38q30 30 36.5 56
t6.5 44h-41q-31 0 -49 5.5t-31 16.5q-33 30 -33 90q0 19 4 42t11 40q12 33 33.5 53t50.5 20q42 0 68 -46zM369.5 183q-15.5 -17 -15.5 -38q0 -47 59 -47h53q0 8 -4.5 32.5t-18 47t-38.5 22.5q-20 0 -35.5 -17zM447.5 397q15.5 -15 24.5 -28q-20 -22 -52 -52q-27 32 -55 54
q26 24 51 53q16 -12 31.5 -27z" />
    <glyph glyph-name="uni06A8.fina" unicode="&#x6a8;" horiz-adv-x="642" 
d="M487 221q18 -32 25 -70.5t7 -52.5h123v-98h-123q0 -29 -9.5 -78.5t-48.5 -100.5q-29 -39 -72 -60q-48 -24 -110 -24q-69 0 -122 29q-51 28 -72 79q-13 31 -13 68q0 54 30 131l19 -7q-8 -40 -8 -65q0 -38 20 -65q42 -57 154 -57q49 0 83.5 12t60.5 38q30 30 36.5 56
t6.5 44h-41q-31 0 -49 5.5t-31 16.5q-33 30 -33 90q0 19 4 42t11 40q12 33 33.5 53t50.5 20q42 0 68 -46zM369.5 183q-15.5 -17 -15.5 -38q0 -47 59 -47h53q0 8 -4.5 32.5t-18 47t-38.5 22.5q-20 0 -35.5 -17zM366 478q31 29 52 53q15 -10 30.5 -25.5t24.5 -29.5
q-24 -28 -52 -52q-27 32 -55 54zM492.5 398.5q15.5 -15.5 24.5 -29.5q-19 -22 -52 -52q-19 24 -43 44q-16 -19 -44 -44q-26 30 -56 54q38 38 52 53q22 -15 46 -43q30 30 41 43q16 -10 31.5 -25.5z" />
    <glyph glyph-name="uni06AA.init" unicode="&#x6aa;" horiz-adv-x="663" 
d="M577 53q-31 -42 -86 -46q-117 -7 -348 -7h-164q-20 0 -34.5 14.5t-14.5 35.5q0 20 14.5 34t34.5 14h145q70 0 100 1l114 1q80 0 116 2l112 4q-6 23 -11 34.5t-17 22.5q-45 43 -109 43q-44 0 -162 -4l-94 -2q-26 0 -53 5q-49 9 -72 32q-20 20 -20 47q0 24 13.5 53t37.5 57
q58 66 163 106q-4 -38 -17 -84q-45 -14 -88.5 -37t-69.5 -50q2 -17 17.5 -29t39.5 -17q25 -7 59 -7l99 2q71 3 116 3q116 0 169 -68q34 -47 36 -115q-13 -28 -26 -45z" />
    <glyph glyph-name="uni06AA.medi" unicode="&#x6aa;" horiz-adv-x="707" 
d="M707 0h-43q-16 0 -36.5 6.5t-34.5 19.5q-10 8 -17 25q-31 -41 -85 -44q-175 -7 -348 -7h-164q-20 0 -34.5 14.5t-14.5 35.5q0 20 14.5 34t34.5 14h145q70 0 100 1l114 1q80 0 116 2l112 4q-6 23 -11 34.5t-17 22.5q-45 43 -109 43q-44 0 -162 -4l-94 -2q-26 0 -53 5
q-49 9 -72 32q-20 20 -20 47q0 24 13.5 53t37.5 57q58 66 163 106q-4 -38 -17 -84q-45 -14 -88.5 -37t-69.5 -50q2 -17 17.5 -29t39.5 -17q25 -7 59 -7l99 2q71 3 116 3q116 0 169 -68q34 -47 36 -115h104v-98z" />
    <glyph glyph-name="uni06AA.fina" unicode="&#x6aa;" horiz-adv-x="907" 
d="M907 0h-43q-14 0 -33 5t-33 16q-15 11 -22 29q-31 -40 -84 -43q-234 -9 -295 -9q-69 0 -102 2t-63 7q-67 11 -104.5 39t-50.5 74q-7 27 -7 62q0 24 3 49l19 -7q6 -36 21 -60q29 -45 116 -58q64 -9 147 -9l57 1q58 2 106 2q38 0 110 2l117 4q-5 24 -10 35t-17 22
q-45 43 -109 43q-44 0 -162 -4l-94 -2q-25 0 -53 5q-49 9 -72 32q-20 20 -20 47q0 24 13.5 53t37.5 57q58 66 163 106q-4 -38 -17 -84q-45 -14 -88.5 -37t-69.5 -50q2 -17 17.5 -29t39.5 -17q25 -7 59 -7l99 2q71 3 116 3q116 0 169 -68q18 -25 26.5 -56t9.5 -59h103v-98z
" />
    <glyph glyph-name="uni06AB.init" unicode="&#x6ab;" horiz-adv-x="284" 
d="M247 480l-67 -32q13 -7 20 -21t7 -30t-7 -28q-10 -18 -39 -18q-23 0 -33 14t-10 27q0 16 4 27q-60 -31 -77 -41q57 -39 89 -81q27 -35 44 -79.5t17 -89.5q0 -61 -32.5 -94.5t-91.5 -33.5h-92q-20 0 -34.5 14t-14.5 35q0 20 14.5 34.5t34.5 14.5h94q25 0 47 13t29 28
q0 33 -43 84t-94 92l-9 -18l-27 30q4 37 16 83q83 69 272 158q-6 -47 -17 -88zM185.5 424q-9.5 9 -28.5 9q-12 0 -18 -8.5t-6 -17.5q0 -25 23 -25q12 0 25.5 4t13.5 18q0 11 -9.5 20z" />
    <glyph glyph-name="uni06AB.medi" unicode="&#x6ab;" horiz-adv-x="391" 
d="M391 98v-98h-55q-58 0 -92 27t-56 86q-7 -57 -32.5 -85t-72.5 -28h-104q-21 0 -35 14t-14 35q0 20 14.5 34.5t34.5 14.5h96q24 0 41 9.5t26 20t9 12.5q-59 89 -78 112q-41 52 -80 89q4 40 11 69q86 71 272 158q-6 -46 -17 -88q-39 -17 -75 -35q13 -6 20 -20.5t7 -30.5
t-7 -28q-10 -18 -39 -18q-23 0 -33 14t-10 27q0 15 4 26q-56 -30 -82 -45q54 -54 81 -84q42 -45 89 -110q24 -35 51 -56.5t70 -21.5h56zM189.5 421q-9.5 9 -28.5 9q-12 0 -18 -8.5t-6 -17.5q0 -25 23 -25q12 0 25.5 4t13.5 18q0 11 -9.5 20z" />
    <glyph glyph-name="uni06AB.fina" unicode="&#x6ab;" horiz-adv-x="868" 
d="M868 98v-98h-54q-60 0 -94.5 25t-53.5 83q2 -53 -26 -81t-79 -31q-26 -2 -73 -2h-60h-31q-67 -1 -100 1.5t-65 7.5q-67 11 -104.5 38.5t-50.5 73.5q-7 27 -7 62q0 24 3 49l19 -7q6 -36 21 -60q29 -45 116 -58q56 -8 178 -8l80 -1q18 0 66 2q24 1 40.5 12t25.5 22.5
t9 13.5q-6 9 -27 40t-48 65q-23 29 -52 61l-7 -15l-28 31q2 32 8 56t7 27q86 70 272 158q-3 -31 -16 -88q-28 -12 -70 -32q13 -7 19.5 -20.5t6.5 -29.5t-7 -28q-10 -18 -39 -18q-23 0 -33 14t-10 27q0 12 3 24l-85 -47q7 -7 29 -29.5t53 -55.5q60 -66 87 -105
q25 -36 52 -57.5t70 -21.5h55zM639 431l-12 -6q-8 -10 -8 -20q0 -25 23 -25q12 0 25.5 4t13.5 18q0 11 -9.5 20t-28.5 9h-4z" />
    <glyph glyph-name="uni06B0.init" unicode="&#x6b0;" horiz-adv-x="284" 
d="M204 582q-120 -55 -201 -111l6 35q44 29 90.5 53t111.5 56zM247 480q-51 -24 -59 -28q13 -7 19.5 -20.5t6.5 -29.5t-7 -28q-10 -18 -39 -18q-23 0 -33 14t-10 27q0 14 4 25q-44 -21 -84 -44q57 -39 89 -81q27 -35 44 -79.5t17 -89.5q0 -61 -32.5 -94.5t-91.5 -33.5h-92
q-20 0 -34.5 14t-14.5 35q0 20 14.5 34.5t34.5 14.5h94q25 0 47 13t29 28q0 33 -43 84t-94 92l-9 -18l-27 30q4 37 16 83q83 69 272 158q-6 -47 -17 -88zM158 437l-8 -4q-10 -7 -10 -21q0 -25 23 -25q12 0 25.5 4t13.5 18q0 11 -9.5 20t-28.5 9q-4 0 -6 -1z" />
    <glyph glyph-name="uni06B0.medi" unicode="&#x6b0;" horiz-adv-x="391" 
d="M224 594q-120 -55 -201 -111l6 35q44 29 90.5 53t111.5 56zM391 98v-98h-55q-58 0 -92 27t-56 86q-7 -57 -32.5 -85t-72.5 -28h-104q-21 0 -35 14t-14 35q0 20 14.5 34.5t34.5 14.5h96q24 0 41 9.5t26 20t9 12.5q-59 89 -78 112q-41 52 -80 89q4 40 11 69q86 71 272 158
q-6 -46 -17 -88q-24 -9 -84 -40q12 -7 19 -20.5t7 -29.5t-7 -28q-10 -18 -39 -18q-23 0 -33 14t-10 27q0 14 3 24l-71 -39q54 -54 81 -84q42 -45 89 -110q24 -35 51 -56.5t70 -21.5h56zM145 425q-3 -1 -9 -5q-9 -7 -9 -20q0 -25 23 -25q12 0 25.5 4t13.5 18q0 11 -9.5 20
t-28.5 9q-4 0 -6 -1z" />
    <glyph glyph-name="uni06B0.fina" unicode="&#x6b0;" horiz-adv-x="868" 
d="M703 584q-120 -55 -201 -111l6 35q44 29 90.5 53t111.5 56zM868 98v-98h-54q-60 0 -94.5 25t-53.5 83q2 -53 -26 -81t-79 -31q-26 -2 -73 -2h-60h-31q-67 -1 -100 1.5t-65 7.5q-67 11 -104.5 38.5t-50.5 73.5q-7 27 -7 62q0 24 3 49l19 -7q6 -36 21 -60q29 -45 116 -58
q56 -8 178 -8l80 -1q18 0 66 2q24 1 40.5 12t25.5 22.5t9 13.5q-6 9 -27 40t-48 65q-23 29 -52 61l-7 -15l-28 31q2 32 8 56t7 27q86 70 272 158q-3 -31 -16 -88q-35 -14 -73 -33q13 -7 20 -21t7 -30t-7 -28q-10 -18 -39 -18q-23 0 -33 14t-10 27t3 25q-27 -14 -83 -46
q7 -7 29 -29.5t53 -55.5q60 -66 87 -105q25 -36 52 -57.5t70 -21.5h55zM633 427q-1 0 -5 -2q-11 -7 -11 -22q0 -25 23 -25q12 0 25.5 4t13.5 18q0 11 -9.5 20t-28.5 9q-4 0 -8 -2z" />
    <glyph glyph-name="uni06BC.init" unicode="&#x6bc;" horiz-adv-x="223" 
d="M-63 357q26 24 51 53q16 -12 31.5 -27t24.5 -28q-20 -22 -52 -52q-27 32 -55 54zM149.5 237q13.5 -35 13.5 -72q0 -60 -31 -109q-19 -31 -50 -45q11 -9 17 -24t6 -31q0 -21 -9 -36q-13 -22 -48 -22q-29 0 -41.5 17.5t-12.5 33.5q0 30 12 51h-27q-21 0 -35 14.5t-14 35.5
t13.5 34.5t35.5 13.5h55q34 0 55 13.5t30.5 28.5t9.5 18l-61 72q20 44 43 69q25 -27 38.5 -62zM78 -11q-12 11 -35 11q-15 0 -22.5 -10.5t-7.5 -21.5q0 -31 29 -31q15 0 31.5 5t16.5 22q0 14 -12 25z" />
    <glyph glyph-name="uni06BC.medi" unicode="&#x6bc;" horiz-adv-x="301" 
d="M-30 272q26 24 51 53q16 -12 31.5 -27t24.5 -28q-20 -22 -52 -52q-27 32 -55 54zM301 98v-98h-40q-55 0 -84 33q-18 21 -21 43q-1 -2 -5 -15t-20 -30q-14 -16 -40 -26q17 -20 17 -49q0 -21 -9 -36q-13 -22 -48 -22q-29 0 -41.5 17.5t-12.5 33.5q0 30 12 51h-30
q-20 0 -34.5 14.5t-14.5 35.5q0 20 14.5 34t34.5 14h57q50 0 70.5 20t24.5 65l22 12q-3 -46 18 -70q24 -27 76 -27h54zM76.5 -58q16.5 5 16.5 22q0 14 -12 25t-35 11q-15 0 -22.5 -10.5t-7.5 -21.5q0 -31 29 -31q15 0 31.5 5z" />
    <glyph glyph-name="uni06BC.fina" unicode="&#x6bc;" horiz-adv-x="657" 
d="M657 98v-98h-63q-24 0 -39.5 4t-30.5 15q9 -29 9 -70q0 -43 -13.5 -84.5t-43.5 -73.5q-20 -22 -49 -39.5t-58 -25.5q-19 -5 -42 -8q16 -19 16 -48q0 -21 -9 -36q-13 -22 -48 -22q-29 0 -41.5 17.5t-12.5 33.5q0 31 14 54q-50 4 -90 26q-52 28 -73 77q-13 29 -13 69
q0 59 30 133l19 -7q-6 -33 -6 -61q0 -42 17 -67q19 -29 65 -45q40 -14 95 -14q85 0 141 32q25 14 40.5 34t15.5 42q0 23 -17 60t-54 98q17 31 43 64l4 -5q27 -33 55 -44t50 -11h89zM231 15q26 24 51 53q16 -12 31.5 -27t24.5 -28q-20 -22 -52 -52q-27 32 -55 54zM311.5 -344
q16.5 5 16.5 22q0 14 -12 25t-35 11q-15 0 -22.5 -10.5t-7.5 -21.5q0 -31 29 -31q15 0 31.5 5z" />
    <glyph glyph-name="uni06C2.medi" unicode="&#x6c2;" horiz-adv-x="437" 
d="M437 0h-185q0 1 13.5 -12t24.5 -31.5t11 -41.5q0 -16 -6 -34t-15 -31q-24 -35 -67 -35q-55 0 -99 55q-38 48 -43 124q-16 -4 -37 -13l4 19h-59q-20 0 -34.5 14.5t-14.5 34.5t15 34.5t34 14.5h99q16 71 52 120q50 67 114 73q34 -48 34 -93q0 -30 -15.5 -57t-50.5 -62
q20 12 39.5 15.5t41.5 3.5h144v-98zM231.5 200.5q-9.5 17.5 -22.5 31.5q-34 -28 -54 -57q-15 -24 -21.5 -39.5t-10.5 -37.5q72 18 98 38q20 15 20 34q0 13 -9.5 30.5zM178.5 -5.5q-22.5 5.5 -38.5 5.5h-22q0 -18 7.5 -43t40.5 -46q43 -27 101 -24q0 53 -48 89
q-18 13 -40.5 18.5zM237 396q-35 -4 -72 -16q-43 -14 -84 -39q-3 0 -4.5 2.5t-1.5 5.5q0 4 4 8q15 14 31 24t41 20q-56 8 -56 43q0 6 4 11q17 25 31 36q27 23 60 23q19 0 29.5 -8.5t11.5 -17.5l-5 -7q-12 5 -32 5q-17 0 -31 -5t-32 -16q0 -17 8 -24t28 -13q15 -4 34 -4
q9 0 27 2l26 5q-11 -25 -17 -35z" />
    <glyph glyph-name="uni06C2.fina" unicode="&#x6c2;" horiz-adv-x="433" 
d="M433 0h-42q-61 0 -93 48q-13 19 -23 45.5t-20 64.5q-19 -54 -55 -90q-26 -4 -44 -4q-29 0 -50 6q-40 11 -35 45l10 60q5 28 49 54q24 14 45.5 19.5t48.5 8.5l-13 36q17 22 47 43q16 -51 31 -94l11 -32q18 -51 26 -70q11 -24 25.5 -33t38.5 -9h43v-98zM219.5 155
q13.5 14 24.5 40l-14 44l-14 -29q-32 0 -45 -3q-23 -5 -38 -21t-17 -36l-1 -9h71q20 0 33.5 14zM224 398q-35 -4 -72 -16q-43 -14 -84 -39q-3 0 -4.5 2.5t-1.5 5.5q0 4 4 8q15 14 31 24t41 20q-56 8 -56 43q0 6 4 11q17 25 31 36q27 23 60 23q19 0 29.5 -8.5t11.5 -17.5
l-5 -7q-12 5 -32 5q-17 0 -31 -5t-32 -16q0 -17 8 -24t28 -13q15 -4 34 -4q9 0 27 2l26 5q-11 -25 -17 -35z" />
    <glyph glyph-name="uni06C3.fina" unicode="&#x6c3;" horiz-adv-x="420" 
d="M420 0h-36q-26 0 -43 8t-30 23q-12 14 -28 45q-15 30 -28.5 43.5t-35.5 13.5q-29 0 -50.5 -21.5t-42.5 -55.5q-24 -40 -38 -71l-18 -5q23 70 53 124q55 100 109 100q26 0 44 -17.5t39 -47.5q29 -41 71 -41h34v-98zM268.5 335.5q15.5 -15.5 24.5 -29.5q-19 -22 -52 -52
q-19 24 -43 44q-16 -19 -44 -44q-26 30 -56 54q38 38 52 53q19 -12 46 -43q30 30 41 43q16 -10 31.5 -25.5z" />
    <glyph glyph-name="uni06C4.fina" unicode="&#x6c4;" horiz-adv-x="405" 
d="M405 98v-98h-116q0 -39 -10.5 -95t-35.5 -102q-23 -41 -53 -61q-33 -21 -73 -21q-9 0 -31 2q-26 2 -37 2q-25 0 -60 -8l-9 13l47 25q20 11 42.5 23t40.5 22q25 14 46 30q-16 4 -23.5 16.5t-7.5 23.5q0 24 11 42.5t29 18.5q19 0 31.5 -11.5t15.5 -29.5q23 33 32 72
q5 20 5 38h-52q-64 0 -88 35q-20 28 -20 82q0 24 4 41t14 39q13 27 32.5 44t43.5 17q26 0 47 -18t35 -48q10 -21 16 -46.5t6 -47.5h118zM244 98q0 22 -13 50q-8 17 -22.5 27.5t-33.5 10.5q-23 0 -38.5 -13t-15.5 -31q0 -26 17 -35t48 -9h58zM163 -140q12 0 25.5 4t13.5 18
q0 11 -9.5 20t-28.5 9q-12 0 -18 -8.5t-6 -17.5q0 -25 23 -25z" />
    <glyph glyph-name="uni06CA.fina" unicode="&#x6ca;" horiz-adv-x="405" 
d="M405 0h-116q0 -39 -10.5 -95t-35.5 -102q-23 -41 -53 -61q-33 -21 -73 -21q-9 0 -31 2q-26 2 -37 2q-25 0 -60 -8l-9 13l47 25q20 11 42.5 23t40.5 22q41 24 69 50q49 46 65 112q5 20 5 38h-52q-64 0 -88 35q-20 28 -20 82q0 24 4 41t14 39q13 27 32.5 44t43.5 17
q26 0 47 -18t35 -48q10 -21 16 -46.5t6 -47.5h118v-98zM208.5 175.5q-14.5 10.5 -33.5 10.5q-23 0 -38.5 -13t-15.5 -31q0 -26 17 -35t48 -9h58q0 22 -13 50q-8 17 -22.5 27.5zM246.5 389.5q15.5 -15.5 24.5 -29.5q-19 -22 -52 -52q-19 24 -43 44q-16 -19 -44 -44
q-26 30 -56 54q38 38 52 53q19 -12 46 -43q30 30 41 43q16 -10 31.5 -25.5z" />
    <glyph glyph-name="uni06CD.fina" unicode="&#x6cd;" horiz-adv-x="680" 
d="M680 0h-117q26 -19 26 -58q0 -37 -22 -79q-15 -29 -43.5 -55t-66.5 -45q-39 -22 -84 -33t-90 -11q-84 0 -136 33q-44 25 -64 73q-13 29 -13 67q0 14 1 21q4 41 11 68l-53 -23l-29 35q47 12 100 43l19 -7q-8 -40 -8 -71q0 -45 21 -72q44 -54 160 -54q77 0 155 29
q43 15 69.5 33.5t26.5 34.5q0 34 -69 57q-24 8 -52 13q29 61 60 99h198v-98z" />
    <glyph glyph-name="uni06CF.fina" unicode="&#x6cf;" horiz-adv-x="405" 
d="M405 0h-116q0 -39 -10.5 -95t-35.5 -102q-23 -41 -53 -61q-33 -21 -73 -21q-9 0 -31 2q-26 2 -37 2q-25 0 -60 -8l-9 13l47 25q20 11 42.5 23t40.5 22q41 24 69 50q49 46 65 112q5 20 5 38h-52q-64 0 -88 35q-20 28 -20 82q0 24 4 41t14 39q13 27 32.5 44t43.5 17
q26 0 47 -18t35 -48q10 -21 16 -46.5t6 -47.5h118v-98zM208.5 175.5q-14.5 10.5 -33.5 10.5q-23 0 -38.5 -13t-15.5 -31q0 -26 17 -35t48 -9h58q0 22 -13 50q-8 17 -22.5 27.5zM201.5 388q15.5 -15 24.5 -28q-20 -22 -52 -52q-27 32 -55 54q26 24 51 53q16 -12 31.5 -27z
" />
    <glyph glyph-name="uni06EE.fina" unicode="&#x6ee;" horiz-adv-x="503" 
d="M358 203q18 -57 44 -81t69 -24h31v-98h-32q-62 0 -97 33q-19 17 -28.5 35t-17.5 48q-5 -25 -16 -49.5t-44.5 -48t-95.5 -23.5q-73 0 -107 40q-25 33 -25 85q0 18 5 46l17 4q3 -31 21 -51q25 -27 76 -27h34q50 0 74 32t29 74l-34 121q21 29 47 55zM234 506q7 20 9 44h15
q0 -20 12 -51q15 -38 44 -72q-2 -11 -9 -23q-27 31 -40 59q-6 12 -10 26q-3 9 -4 14.5t-1 6.5q0 -1 -1 -7t-4 -14q-4 -14 -11 -27q-13 -26 -38 -58q-6 10 -10 23q30 34 48 79z" />
    <glyph glyph-name="uni06FA.fina" unicode="&#x6fa;" horiz-adv-x="919" 
d="M919 0h-43q-47 0 -68 23.5t-24 51.5q-12 -75 -72 -75q-33 0 -51.5 21t-21.5 54q-20 -73 -83 -73q-19 0 -32 5q4 -29 4 -57q0 -54 -17.5 -100t-50.5 -76q-30 -28 -76 -43q-45 -15 -100 -15q-76 0 -128 28t-72 78q-14 34 -14 72q0 23 7.5 58t22.5 71l19 -7q-7 -42 -7 -65
q0 -41 20 -66q21 -26 62 -41t98 -15q83 0 139 32q27 15 42 34.5t15 40.5q0 31 -29 80.5t-47 73.5q15 30 47 68q17 -23 43 -43t59 -20q37 0 53.5 26t18.5 57l22 12q-2 -12 -2 -24q0 -29 12.5 -50t45.5 -21q62 0 67 83l22 12q-1 -7 -1 -23q0 -30 15 -48q20 -21 59 -21h46v-98z
M586 409q31 29 52 53q15 -10 30.5 -25.5t24.5 -29.5q-24 -28 -52 -52q-27 32 -55 54zM712.5 329.5q15.5 -15.5 24.5 -29.5q-19 -22 -52 -52q-19 24 -43 44q-16 -19 -44 -44q-26 30 -56 54q38 38 52 53q22 -15 46 -43q30 30 41 43q16 -10 31.5 -25.5zM665.5 -77
q15.5 -15 24.5 -28q-20 -22 -52 -52q-27 32 -55 54q26 24 51 53q16 -12 31.5 -27z" />
    <glyph glyph-name="uni06FB.fina" unicode="&#x6fb;" horiz-adv-x="1072" 
d="M1072 0h-110l-79 1l-153 2h-56q-25 0 -37.5 0.5t2.5 0.5q-56 0 -79 7q-17 5 -38 19q10 -54 10 -90q0 -43 -19.5 -91.5t-62.5 -82.5q-63 -50 -166 -50q-76 0 -128 28t-72 78q-14 34 -14 72q0 23 7.5 58t22.5 71l19 -7q-7 -42 -7 -65q0 -41 20 -66q21 -26 62 -41t98 -15
q83 0 139 32q28 16 42.5 35.5t14.5 40.5q0 49 -76 153q16 34 48 69q27 -33 51 -45.5t60 -15.5q50 76 91 120q98 103 172 103q14 0 32.5 -7.5t34.5 -19.5q21 -17 29 -33.5t8 -29.5q0 -43 -26 -86q-25 -40 -67 -72q71 25 123 25h104v-98zM867 208q-12 15 -32.5 26.5
t-41.5 11.5q-27 0 -47.5 -9t-33 -20t-35.5 -34q-29 -28 -70 -85h115q56 0 99 19q23 10 35 19t30 29q-6 24 -19 43zM842.5 451q15.5 -15 24.5 -28q-20 -22 -52 -52q-27 32 -55 54q26 24 51 53q16 -12 31.5 -27zM714.5 -66q15.5 -15 24.5 -28q-20 -22 -52 -52q-27 32 -55 54
q26 24 51 53q16 -12 31.5 -27z" />
    <glyph glyph-name="uni06FC.fina" unicode="&#x6fc;" horiz-adv-x="519" 
d="M519 0h-110q-48 0 -80 26q-19 15 -37 39t-22 29q-64 -27 -101 -71q-42 -52 -42 -116q0 -30 9.5 -52.5t29.5 -42.5q45 -45 148 -61q35 -5 88 -8l22 -2q27 -1 60 -6l-5 -16q-26 -1 -44.5 -7.5t-32 -13.5t-18.5 -10q-23 -12 -43.5 -18t-51.5 -6q-52 0 -95 18t-73 51
q-24 27 -37 63.5t-13 78.5q0 90 53 163q30 41 73 68q20 14 41 25q-29 27 -64 34q6 42 18 72q52 26 95 26q47 0 80 -15t33 -46q0 -22 -16.5 -41t-49.5 -43q29 -20 56 -20h129v-98zM315.5 393q15.5 -15 24.5 -28q-20 -22 -52 -52q-27 32 -55 54q26 24 51 53q16 -12 31.5 -27z
M292.5 -64q15.5 -15 24.5 -28q-20 -22 -52 -52q-27 32 -55 54q26 24 51 53q16 -12 31.5 -27z" />
    <glyph glyph-name="uni06FF.medi" unicode="&#x6ff;" horiz-adv-x="477" 
d="M477 0h-46q-61 0 -81 21q-16 16 -19 37q-4 -9 -14 -20t-13 -15l-28 -30q-51 29 -122 54q-19 -26 -47.5 -36.5t-73.5 -10.5h-53q-21 0 -35.5 14t-14.5 35q0 20 15 34.5t35 14.5h71q-9 24 -12 42q-4 43 19 77q14 21 38 37t48 17l-18 9q-12 7 -18 13.5t-6 15.5q0 5 5 17
l19 31q8 -5 46 -25q35 -17 60 -32q58 -36 88 -73q37 -46 37 -101l-1 -15q7 -9 25 -11t52 -2h44v-98zM167 237q-7 6 -17 6q-19 0 -47 -24q-31 -28 -31 -42q0 -8 9 -17.5t21 -15.5q21 -13 35 -13q18 0 36 12q11 8 16.5 18t5.5 18q0 6 -3.5 17t-9.5 21q-8 14 -15 20zM215 240
q13 -28 13 -53q0 -44 -31 -75l114 -29q-3 48 -18 78q-24 46 -78 79zM110 509q7 20 9 44h15q0 -20 12 -51q15 -38 44 -72q-2 -11 -9 -23q-27 31 -40 59q-6 12 -10 26q-3 9 -4 14.5t-1 6.5q0 -1 -1 -7t-4 -14q-4 -14 -11 -27q-13 -26 -38 -58q-6 10 -10 23q30 34 48 79z" />
    <glyph glyph-name="uni06FF.fina" unicode="&#x6ff;" horiz-adv-x="613" 
d="M613 0h-46q-61 0 -81 21q-16 16 -19 37q-4 -9 -14 -20t-13 -15l-28 -30q-75 37 -121 53q-44 -40 -97 -49q-42 -6 -66 -6q-32 0 -58 5l9 29q43 13 73.5 28t43.5 28q-21 25 -23 66q0 39 21 70q14 21 38 37t48 17l-18 9q-12 7 -18 13.5t-6 15.5q0 5 5 17l19 31q8 -5 46 -25
q35 -17 60 -32q58 -36 88 -73q37 -46 37 -101l-1 -15q7 -9 25.5 -11t51.5 -2h44v-98zM303 237q-7 6 -17 6q-19 0 -47 -24q-31 -28 -31 -42q0 -8 9 -17.5t21 -15.5q21 -13 35 -13q18 0 36 12q11 8 16.5 18t5.5 18q0 6 -3.5 17t-9.5 21q-8 14 -15 20zM351 240q13 -28 13 -53
q0 -44 -31 -75l114 -29q-3 48 -18 78q-24 46 -78 79zM246 509q7 20 9 44h15q0 -20 12 -51q15 -38 44 -72q-2 -11 -9 -23q-27 31 -40 59q-6 12 -10 26q-3 9 -4 14.5t-1 6.5q0 -1 -1 -7t-4 -14q-4 -14 -11 -27q-13 -26 -38 -58q-6 10 -10 23q30 34 48 79z" />
    <glyph glyph-name="uniFB51" unicode="&#x671;" horiz-adv-x="244" arabic-form="final" 
d="M143 578q-9 -19 -27.5 -32.5t-45.5 -13.5q-15 0 -35 10t-32 10t-26 -10q0 10 2 16q4 13 17 19q4 2 12 2q9 0 21 -5q9 19 25 39q29 34 55 34q13 0 28 -10.5t15 -23.5q0 -16 -9 -35zM126 610.5q-10 10.5 -25 10.5q-16 0 -28.5 -12.5t-25.5 -33.5q8 -8 36 -8q41 0 51 25
q2 8 -8 18.5zM244 0h-73q-57 0 -86 38q-29 39 -32 108q-2 52 -8.5 143t-12.5 130q15 25 33.5 50.5t21.5 29.5h11l10 -321q2 -37 18 -56q21 -24 63 -24h55v-98z" />
    <glyph glyph-name="uniFB53" unicode="&#x67b;" horiz-adv-x="893" arabic-form="final" 
d="M777 184l-24 -31q4 -17 25 -36t73 -19h42v-98h-45q-73 0 -105 41q-19 23 -24 57q-20 -28 -49 -46q-50 -33 -123 -45.5t-167 -12.5q-93 0 -147 9q-104 17 -142 84q-21 38 -21 92q0 21 4 49l19 -8q9 -45 31 -70.5t68 -39.5q39 -12 93 -15.5t163 -3.5q45 0 106 8q60 8 99 23
t59.5 30t41.5 37zM471 -200q-19 -22 -52 -52q-24 29 -55 54l46 47q-20 21 -46 44q28 26 52 52q15 -11 30.5 -26.5t24.5 -28.5q-30 -33 -43 -44q29 -22 43 -46z" />
    <glyph glyph-name="uniFB54" unicode="&#x67b;" horiz-adv-x="223" arabic-form="initial" 
d="M149.5 237q13.5 -35 13.5 -72q0 -60 -31 -109q-36 -56 -106 -56h-47q-21 0 -35 14.5t-14 35.5t13.5 34.5t35.5 13.5h55q34 0 55 13.5t30.5 28.5t9.5 18l-61 72q20 44 43 69q25 -27 38.5 -62zM67 -190q-19 -22 -52 -52q-24 29 -55 54l46 47q-20 21 -46 44q28 26 52 52
q15 -11 30.5 -26.5t24.5 -28.5q-30 -33 -43 -44q29 -22 43 -46z" />
    <glyph glyph-name="uniFB55" unicode="&#x67b;" horiz-adv-x="301" arabic-form="medial" 
d="M171 125q24 -27 76 -27h54v-98h-40q-55 0 -84 33q-18 21 -21 43q-1 -2 -5 -15t-20 -30q-29 -31 -76 -31h-76q-20 0 -34.5 14.5t-14.5 35.5q0 20 14.5 34t34.5 14h57q50 0 70.5 20t24.5 65l22 12q-3 -46 18 -70zM70 -190q-19 -22 -52 -52q-24 29 -55 54l46 47
q-20 21 -46 44q28 26 52 52q15 -11 30.5 -26.5t24.5 -28.5q-30 -33 -43 -44q29 -22 43 -46z" />
    <glyph glyph-name="uniFB57" unicode="&#x67e;" horiz-adv-x="893" arabic-form="final" 
d="M777 184l-24 -31q4 -17 25 -36t73 -19h42v-98h-45q-73 0 -105 41q-19 23 -24 57q-20 -28 -49 -46q-50 -33 -123 -45.5t-167 -12.5q-93 0 -147 9q-104 17 -142 84q-21 38 -21 92q0 21 4 49l19 -8q9 -45 31 -70.5t68 -39.5q39 -12 93 -15.5t163 -3.5q45 0 106 8q60 8 99 23
t59.5 30t41.5 37zM464 -162q-19 24 -43 44l-25 -26l-19 -18q-28 33 -56 55q28 26 52 52q24 -15 46 -42l27 27l14 15q16 -10 31.5 -25.5t24.5 -29.5q-28 -30 -52 -52zM425 -269q-24 28 -55 54q38 38 51 53q16 -10 31.5 -25.5t24.5 -29.5q-19 -22 -52 -52z" />
    <glyph glyph-name="uniFB58" unicode="&#x67e;" horiz-adv-x="223" arabic-form="initial" 
d="M149.5 237q13.5 -35 13.5 -72q0 -60 -31 -109q-36 -56 -106 -56h-47q-21 0 -35 14.5t-14 35.5t13.5 34.5t35.5 13.5h55q34 0 55 13.5t30.5 28.5t9.5 18l-61 72q20 44 43 69q25 -27 38.5 -62zM60 -152q-19 24 -43 44l-25 -26l-19 -18q-28 33 -56 55q28 26 52 52
q24 -15 46 -42l27 27l14 15q16 -10 31.5 -25.5t24.5 -29.5q-28 -30 -52 -52zM21 -259q-24 28 -55 54q38 38 51 53q16 -10 31.5 -25.5t24.5 -29.5q-19 -22 -52 -52z" />
    <glyph glyph-name="uniFB59" unicode="&#x67e;" horiz-adv-x="301" arabic-form="medial" 
d="M171 125q24 -27 76 -27h54v-98h-40q-55 0 -84 33q-18 21 -21 43q-1 -2 -5 -15t-20 -30q-29 -31 -76 -31h-76q-20 0 -34.5 14.5t-14.5 35.5q0 20 14.5 34t34.5 14h57q50 0 70.5 20t24.5 65l22 12q-3 -46 18 -70zM63 -152q-19 24 -43 44l-25 -26l-19 -18q-28 33 -56 55
q28 26 52 52q24 -15 46 -42l27 27l14 15q16 -10 31.5 -25.5t24.5 -29.5q-28 -30 -52 -52zM24 -259q-24 28 -55 54q38 38 51 53q16 -10 31.5 -25.5t24.5 -29.5q-19 -22 -52 -52z" />
    <glyph glyph-name="uniFB5B" unicode="&#x680;" horiz-adv-x="893" arabic-form="final" 
d="M777 184l-24 -31q4 -17 25 -36t73 -19h42v-98h-45q-73 0 -105 41q-19 23 -24 57q-20 -28 -49 -46q-50 -33 -123 -45.5t-167 -12.5q-93 0 -147 9q-104 17 -142 84q-21 38 -21 92q0 21 4 49l19 -8q9 -45 31 -70.5t68 -39.5q39 -12 93 -15.5t163 -3.5q45 0 106 8q60 8 99 23
t59.5 30t41.5 37zM372 -156q-19 22 -51 48q38 38 52 53q19 -12 46 -43q30 30 41 43q16 -10 31.5 -25.5t24.5 -29.5q-17 -20 -49 -50q34 -25 49 -49q-19 -22 -52 -52q-19 24 -43 44q-16 -19 -44 -44q-26 30 -56 54q27 25 51 51zM419 -197q25 23 40 41q-12 14 -38 38
q-14 -18 -40 -41q14 -12 38 -38z" />
    <glyph glyph-name="uniFB5C" unicode="&#x680;" horiz-adv-x="223" arabic-form="initial" 
d="M149.5 237q13.5 -35 13.5 -72q0 -60 -31 -109q-36 -56 -106 -56h-47q-21 0 -35 14.5t-14 35.5t13.5 34.5t35.5 13.5h55q34 0 55 13.5t30.5 28.5t9.5 18l-61 72q20 44 43 69q25 -27 38.5 -62zM-32 -146q-19 22 -51 48q38 38 52 53q19 -12 46 -43q30 30 41 43
q16 -10 31.5 -25.5t24.5 -29.5q-17 -20 -49 -50q34 -25 49 -49q-19 -22 -52 -52q-19 24 -43 44q-16 -19 -44 -44q-26 30 -56 54q27 25 51 51zM15 -187q25 23 40 41q-12 14 -38 38q-14 -18 -40 -41q14 -12 38 -38z" />
    <glyph glyph-name="uniFB5D" unicode="&#x680;" horiz-adv-x="301" arabic-form="medial" 
d="M171 125q24 -27 76 -27h54v-98h-40q-55 0 -84 33q-18 21 -21 43q-1 -2 -5 -15t-20 -30q-29 -31 -76 -31h-76q-20 0 -34.5 14.5t-14.5 35.5q0 20 14.5 34t34.5 14h57q50 0 70.5 20t24.5 65l22 12q-3 -46 18 -70zM-29 -146q-19 22 -51 48q38 38 52 53q19 -12 46 -43
q30 30 41 43q16 -10 31.5 -25.5t24.5 -29.5q-17 -20 -49 -50q34 -25 49 -49q-19 -22 -52 -52q-19 24 -43 44q-16 -19 -44 -44q-26 30 -56 54q27 25 51 51zM18 -187q25 23 40 41q-12 14 -38 38q-14 -18 -40 -41q14 -12 38 -38z" />
    <glyph glyph-name="uniFB5F" unicode="&#x67a;" horiz-adv-x="893" arabic-form="final" 
d="M777 184l-24 -31q4 -17 25 -36t73 -19h42v-98h-45q-73 0 -105 41q-19 23 -24 57q-20 -28 -49 -46q-50 -33 -123 -45.5t-167 -12.5q-93 0 -147 9q-104 17 -142 84q-21 38 -21 92q0 21 4 49l19 -8q9 -45 31 -70.5t68 -39.5q39 -12 93 -15.5t163 -3.5q45 0 106 8q60 8 99 23
t59.5 30t41.5 37zM471 270q-19 -22 -52 -52q-24 29 -55 54l46 47q-20 21 -46 44q28 26 52 52q15 -10 30.5 -25.5t24.5 -29.5q-30 -33 -43 -44q29 -22 43 -46z" />
    <glyph glyph-name="uniFB60" unicode="&#x67a;" horiz-adv-x="223" arabic-form="initial" 
d="M149.5 237q13.5 -35 13.5 -72q0 -60 -31 -109q-36 -56 -106 -56h-47q-21 0 -35 14.5t-14 35.5t13.5 34.5t35.5 13.5h55q34 0 55 13.5t30.5 28.5t9.5 18l-61 72q20 44 43 69q25 -27 38.5 -62zM44 355q-19 -22 -52 -52q-24 29 -55 54l46 47q-20 21 -46 44q28 26 52 52
q15 -10 30.5 -25.5t24.5 -29.5q-30 -33 -43 -44q29 -22 43 -46z" />
    <glyph glyph-name="uniFB61" unicode="&#x67a;" horiz-adv-x="301" arabic-form="medial" 
d="M171 125q24 -27 76 -27h54v-98h-40q-55 0 -84 33q-18 21 -21 43q-1 -2 -5 -15t-20 -30q-29 -31 -76 -31h-76q-20 0 -34.5 14.5t-14.5 35.5q0 20 14.5 34t34.5 14h57q50 0 70.5 20t24.5 65l22 12q-3 -46 18 -70zM77 270q-19 -22 -52 -52q-24 29 -55 54l46 47
q-20 21 -46 44q28 26 52 52q15 -10 30.5 -25.5t24.5 -29.5q-30 -33 -43 -44q29 -22 43 -46z" />
    <glyph glyph-name="uniFB63" unicode="&#x67f;" horiz-adv-x="893" arabic-form="final" 
d="M777 184l-24 -31q4 -17 25 -36t73 -19h42v-98h-45q-73 0 -105 41q-19 23 -24 57q-20 -28 -49 -46q-50 -33 -123 -45.5t-167 -12.5q-93 0 -147 9q-104 17 -142 84q-21 38 -21 92q0 21 4 49l19 -8q9 -45 31 -70.5t68 -39.5q39 -12 93 -15.5t163 -3.5q45 0 106 8q60 8 99 23
t59.5 30t41.5 37zM371 323q-22 26 -50 48q38 38 52 53q19 -12 46 -43q30 30 41 43q16 -10 31.5 -25.5t24.5 -29.5q-18 -21 -49 -49q30 -22 49 -50q-19 -22 -52 -52q-19 24 -43 44q-16 -19 -44 -44q-26 30 -56 54q36 36 50 51zM419 282q29 29 40 41q-19 22 -38 38
q-15 -18 -41 -41q17 -12 39 -38z" />
    <glyph glyph-name="uniFB64" unicode="&#x67f;" horiz-adv-x="223" arabic-form="initial" 
d="M149.5 237q13.5 -35 13.5 -72q0 -60 -31 -109q-36 -56 -106 -56h-47q-21 0 -35 14.5t-14 35.5t13.5 34.5t35.5 13.5h55q34 0 55 13.5t30.5 28.5t9.5 18l-61 72q20 44 43 69q25 -27 38.5 -62zM-56 408q-22 26 -50 48q38 38 52 53q19 -12 46 -43q30 30 41 43
q16 -10 31.5 -25.5t24.5 -29.5q-18 -21 -49 -49q30 -22 49 -50q-19 -22 -52 -52q-19 24 -43 44q-16 -19 -44 -44q-26 30 -56 54q36 36 50 51zM-8 367q29 29 40 41q-19 22 -38 38q-15 -18 -41 -41q17 -12 39 -38z" />
    <glyph glyph-name="uniFB65" unicode="&#x67f;" horiz-adv-x="301" arabic-form="medial" 
d="M171 125q24 -27 76 -27h54v-98h-40q-55 0 -84 33q-18 21 -21 43q-1 -2 -5 -15t-20 -30q-29 -31 -76 -31h-76q-20 0 -34.5 14.5t-14.5 35.5q0 20 14.5 34t34.5 14h57q50 0 70.5 20t24.5 65l22 12q-3 -46 18 -70zM-23 323q-22 26 -50 48q38 38 52 53q19 -12 46 -43
q30 30 41 43q16 -10 31.5 -25.5t24.5 -29.5q-18 -21 -49 -49q30 -22 49 -50q-19 -22 -52 -52q-19 24 -43 44q-16 -19 -44 -44q-26 30 -56 54q36 36 50 51zM25 282q29 29 40 41q-19 22 -38 38q-15 -18 -41 -41q17 -12 39 -38z" />
    <glyph glyph-name="uniFB67" unicode="&#x679;" horiz-adv-x="893" arabic-form="final" 
d="M777 184l-24 -31q4 -17 25 -36t73 -19h42v-98h-45q-73 0 -105 41q-19 23 -24 57q-20 -28 -49 -46q-50 -33 -123 -45.5t-167 -12.5q-93 0 -147 9q-104 17 -142 84q-21 38 -21 92q0 21 4 49l19 -8q9 -45 31 -70.5t68 -39.5q39 -12 93 -15.5t163 -3.5q45 0 106 8q60 8 99 23
t59.5 30t41.5 37zM399 367q-6 -6 -8.5 -11t-1.5 -18q5 -23 6.5 -32.5t0.5 -25.5q16 22 31 31.5t27 9.5t24 -9t12 -20q0 -28 -29 -52q-32 -22 -63 -22h-42l-10 32h29l11 20q-3 35 -10.5 60.5t-13.5 38.5l16 24q8 -13 21 -26zM461.5 289.5q-7.5 6.5 -21.5 6.5q-27 -1 -47 -46
h26q17 0 32 6.5t23 16.5q-5 10 -12.5 16.5z" />
    <glyph glyph-name="uniFB68" unicode="&#x679;" horiz-adv-x="223" arabic-form="initial" 
d="M149.5 237q13.5 -35 13.5 -72q0 -60 -31 -109q-36 -56 -106 -56h-47q-21 0 -35 14.5t-14 35.5t13.5 34.5t35.5 13.5h55q34 0 55 13.5t30.5 28.5t9.5 18l-61 72q20 44 43 69q25 -27 38.5 -62zM-28 452q-6 -6 -8.5 -11t-1.5 -18q5 -23 6.5 -32.5t0.5 -25.5q16 22 31 31.5
t27 9.5t24 -9t12 -20q0 -28 -29 -52q-32 -22 -63 -22h-42l-10 32h29l11 20q-3 35 -10.5 60.5t-13.5 38.5l16 24q8 -13 21 -26zM34.5 374.5q-7.5 6.5 -21.5 6.5q-27 -1 -47 -46h26q17 0 32 6.5t23 16.5q-5 10 -12.5 16.5z" />
    <glyph glyph-name="uniFB69" unicode="&#x679;" horiz-adv-x="301" arabic-form="medial" 
d="M171 125q24 -27 76 -27h54v-98h-40q-55 0 -84 33q-18 21 -21 43q-1 -2 -5 -15t-20 -30q-29 -31 -76 -31h-76q-20 0 -34.5 14.5t-14.5 35.5q0 20 14.5 34t34.5 14h57q50 0 70.5 20t24.5 65l22 12q-3 -46 18 -70zM5 367q-6 -6 -8.5 -11t-1.5 -18q5 -23 6.5 -32.5t0.5 -25.5
q16 22 31 31.5t27 9.5t24 -9t12 -20q0 -28 -29 -52q-32 -22 -63 -22h-42l-10 32h29l11 20q-3 35 -10.5 60.5t-13.5 38.5l16 24q8 -13 21 -26zM67.5 289.5q-7.5 6.5 -21.5 6.5q-27 -1 -47 -46h26q17 0 32 6.5t23 16.5q-5 10 -12.5 16.5z" />
    <glyph glyph-name="uniFB6B" unicode="&#x6a4;" horiz-adv-x="946" arabic-form="final" 
d="M946 0h-106q-41 0 -62 16t-26 34q-41 -24 -138 -41q-38 -7 -97 -11.5t-122 -4.5q-91 0 -163 12q-85 15 -123.5 53.5t-38.5 120.5q0 21 1.5 35t1.5 15l18 -7q3 -29 13.5 -48.5t31.5 -33.5q37 -26 114 -37q58 -9 160 -9q70 0 117.5 3.5t69.5 7t27 4.5q-1 2 -5 9t-8 19.5
t-4 26.5q0 23 11 52.5t28 52.5q19 25 41 39t42 14q18 0 34 -10t26 -25q24 -34 24 -89q0 -25 -5 -47.5t-10.5 -36t-7.5 -16.5h25h131v-98zM769 197.5q-9 17.5 -24 31t-32 13.5q-20 0 -36 -16t-25.5 -35.5t-9.5 -21.5t9.5 -15.5t25.5 -25t37 -11.5q19 0 33.5 9.5t22.5 22.5
t8 22t-9 26.5zM676 533q31 29 52 53q15 -10 30.5 -25.5t24.5 -29.5q-24 -28 -52 -52q-27 32 -55 54zM802.5 453.5q15.5 -15.5 24.5 -29.5q-19 -22 -52 -52q-19 24 -43 44q-16 -19 -44 -44q-26 30 -56 54q38 38 52 53q22 -15 46 -43q30 30 41 43q16 -10 31.5 -25.5z" />
    <glyph glyph-name="uniFB6C" unicode="&#x6a4;" horiz-adv-x="291" arabic-form="initial" 
d="M196 378q27 -46 33 -109q2 -22 2 -33q0 -51 -14 -99q-19 -65 -60 -99q-28 -23 -62.5 -30.5t-76.5 -7.5h-39q-20 0 -34.5 14.5t-14.5 35.5q0 20 14.5 34t34.5 14h78q83 0 116 40q11 12 17 30t4 35q-27 -26 -77 -26q-42 0 -65 21q-27 24 -27 71q0 25 7.5 52.5t19.5 49.5
q11 21 29.5 37t44.5 16q43 0 70 -46zM111 357q-28 0 -41 -19t-13 -37q0 -16 12.5 -33t47.5 -17q24 0 39.5 8t23.5 17q-17 81 -69 81zM73 635q31 29 52 53q15 -10 30.5 -25.5t24.5 -29.5q-24 -28 -52 -52q-27 32 -55 54zM199.5 555.5q15.5 -15.5 24.5 -29.5q-19 -22 -52 -52
q-19 24 -43 44q-16 -19 -44 -44q-26 30 -56 54q38 38 52 53q22 -15 46 -43q30 30 41 43q16 -10 31.5 -25.5z" />
    <glyph glyph-name="uniFB6D" unicode="&#x6a4;" horiz-adv-x="402" arabic-form="medial" 
d="M237.5 275.5q24.5 -32.5 24.5 -90.5q0 -24 -4 -43.5t-8.5 -30t-5.5 -13.5h158v-98h-81q-45 0 -66 14.5t-28 30.5q-26 -45 -129 -45h-119q-23 0 -36 14.5t-13 33.5q0 21 14.5 35.5t34.5 14.5h108q-2 2 -6.5 9t-9 20.5t-4.5 30.5q0 25 10.5 52t27.5 49q36 49 76 49
q32 0 56.5 -32.5zM205.5 207.5q-23.5 20.5 -42.5 20.5q-15 0 -29.5 -13t-23.5 -27t-11 -18q0 -3 7.5 -18t22 -28.5t35.5 -13.5q19 0 34 11t23 26t8 24q0 16 -23.5 36.5zM128 519q31 29 52 53q15 -10 30.5 -25.5t24.5 -29.5q-24 -28 -52 -52q-27 32 -55 54zM254.5 439.5
q15.5 -15.5 24.5 -29.5q-19 -22 -52 -52q-19 24 -43 44q-16 -19 -44 -44q-26 30 -56 54q38 38 52 53q22 -15 46 -43q30 30 41 43q16 -10 31.5 -25.5z" />
    <glyph glyph-name="uniFB6F" unicode="&#x6a6;" horiz-adv-x="946" arabic-form="final" 
d="M946 0h-106q-41 0 -62 16t-26 34q-41 -24 -138 -41q-38 -7 -97 -11.5t-122 -4.5q-91 0 -163 12q-85 15 -123.5 53.5t-38.5 120.5q0 21 1.5 35t1.5 15l18 -7q3 -29 13.5 -48.5t31.5 -33.5q37 -26 114 -37q58 -9 160 -9q70 0 117.5 3.5t69.5 7t27 4.5q-1 2 -5 9t-8 19.5
t-4 26.5q0 23 11 52.5t28 52.5q19 25 41 39t42 14q18 0 34 -10t26 -25q24 -34 24 -89q0 -25 -5 -47.5t-10.5 -36t-7.5 -16.5h25h131v-98zM769 197.5q-9 17.5 -24 31t-32 13.5q-20 0 -36 -16t-25.5 -35.5t-9.5 -21.5t9.5 -15.5t25.5 -25t37 -11.5q19 0 33.5 9.5t22.5 22.5
t8 22t-9 26.5zM682 477q-22 26 -50 48q38 38 52 53q19 -12 46 -43q30 30 41 43q16 -10 31.5 -25.5t24.5 -29.5q-18 -21 -49 -49q30 -22 49 -50q-19 -22 -52 -52q-19 24 -43 44q-16 -19 -44 -44q-26 30 -56 54q36 36 50 51zM730 436q29 29 40 41q-19 22 -38 38
q-15 -18 -41 -41q17 -12 39 -38z" />
    <glyph glyph-name="uniFB70" unicode="&#x6a6;" horiz-adv-x="291" arabic-form="initial" 
d="M196 378q27 -46 33 -109q2 -22 2 -33q0 -51 -14 -99q-19 -65 -60 -99q-28 -23 -62.5 -30.5t-76.5 -7.5h-39q-20 0 -34.5 14.5t-14.5 35.5q0 20 14.5 34t34.5 14h78q83 0 116 40q11 12 17 30t4 35q-27 -26 -77 -26q-42 0 -65 21q-27 24 -27 71q0 25 7.5 52.5t19.5 49.5
q11 21 29.5 37t44.5 16q43 0 70 -46zM111 357q-28 0 -41 -19t-13 -37q0 -16 12.5 -33t47.5 -17q24 0 39.5 8t23.5 17q-17 81 -69 81zM79 579q-22 26 -50 48q38 38 52 53q19 -12 46 -43q30 30 41 43q16 -10 31.5 -25.5t24.5 -29.5q-18 -21 -49 -49q30 -22 49 -50
q-19 -22 -52 -52q-19 24 -43 44q-16 -19 -44 -44q-26 30 -56 54q36 36 50 51zM127 538q29 29 40 41q-19 22 -38 38q-15 -18 -41 -41q17 -12 39 -38z" />
    <glyph glyph-name="uniFB71" unicode="&#x6a6;" horiz-adv-x="402" arabic-form="medial" 
d="M237.5 275.5q24.5 -32.5 24.5 -90.5q0 -24 -4 -43.5t-8.5 -30t-5.5 -13.5h158v-98h-81q-45 0 -66 14.5t-28 30.5q-26 -45 -129 -45h-119q-23 0 -36 14.5t-13 33.5q0 21 14.5 35.5t34.5 14.5h108q-2 2 -6.5 9t-9 20.5t-4.5 30.5q0 25 10.5 52t27.5 49q36 49 76 49
q32 0 56.5 -32.5zM205.5 207.5q-23.5 20.5 -42.5 20.5q-15 0 -29.5 -13t-23.5 -27t-11 -18q0 -3 7.5 -18t22 -28.5t35.5 -13.5q19 0 34 11t23 26t8 24q0 16 -23.5 36.5zM134 463q-22 26 -50 48q38 38 52 53q19 -12 46 -43q30 30 41 43q16 -10 31.5 -25.5t24.5 -29.5
q-18 -21 -49 -49q30 -22 49 -50q-19 -22 -52 -52q-19 24 -43 44q-16 -19 -44 -44q-26 30 -56 54q36 36 50 51zM182 422q29 29 40 41q-19 22 -38 38q-15 -18 -41 -41q17 -12 39 -38z" />
    <glyph glyph-name="uniFB73" unicode="&#x684;" horiz-adv-x="651" arabic-form="final" 
d="M651 0h-88q-46 0 -76 16.5t-50 47.5q-18 28 -18 72q0 13 4 53q-56 0 -111 -18.5t-97 -52.5q-87 -69 -87 -161q0 -63 40 -109q23 -27 58.5 -45t77.5 -26q45 -7 98 -10q40 -2 82 -8l-5 -15q-30 -1 -51 -8t-44 -20t-43.5 -19.5t-51.5 -6.5q-49 0 -90.5 17.5t-70.5 48.5
q-28 31 -42.5 72t-14.5 89q0 42 10 82.5t29 72.5q36 64 94 102q45 31 107 46q-4 2 -39 15.5t-78 13.5q-60 0 -85 -43l-16 11q15 34 26.5 51.5t24.5 29.5q22 21 57 21q17 0 31 -3.5t40 -11.5q35 -11 93.5 -22.5t128.5 -11.5h24q-1 -3 -8.5 -29t-15.5 -45q-10 2 -24 2l-14 -1
l-1 -12q0 -33 25 -56q33 -31 94 -31h77v-98zM364 -93q-19 -22 -52 -52q-24 29 -55 54l46 47q-20 21 -46 44q28 26 52 52q15 -10 30.5 -25.5t24.5 -29.5q-30 -33 -43 -44q29 -22 43 -46z" />
    <glyph glyph-name="uniFB74" unicode="&#x684;" horiz-adv-x="557" arabic-form="initial" 
d="M453 139q-59 -1 -102.5 -18t-98.5 -50q-59 -35 -106 -53t-114 -18h-53q-22 0 -35.5 14.5t-13.5 34.5t14 34.5t35 14.5h48q60 0 113.5 9t88.5 21q31 11 57.5 25.5t26.5 15.5l-31 11q-52 19 -92.5 31t-72.5 12q-22 0 -34.5 -5.5t-19 -14t-20.5 -30.5l-16 11q16 53 44 84
q30 33 71 33q18 0 36.5 -5.5t47.5 -17.5q58 -23 110 -36t128 -13h33q-18 -42 -44 -90zM225 -189q-19 -22 -52 -52q-24 29 -55 54l46 47q-20 21 -46 44q28 26 52 52q15 -11 30.5 -26.5t24.5 -28.5q-30 -33 -43 -44q29 -22 43 -46z" />
    <glyph glyph-name="uniFB75" unicode="&#x684;" horiz-adv-x="619" arabic-form="medial" 
d="M441 161q-4 1 -15 1q-21 0 -30 -3q4 -34 28.5 -47.5t71.5 -13.5h123v-98h-112q-38 0 -68.5 13t-48.5 38q-15 21 -20.5 45.5t-4.5 57.5q-17 -3 -52 -27l-29 -22q-7 -5 -37 -27t-64 -40q-76 -38 -152 -38h-52q-21 0 -35 14.5t-14 34.5t14.5 34.5t34.5 14.5h47q110 0 203 41
q33 15 49 25.5t33 26.5q-5 2 -70 27t-127 25q-26 0 -38 -8.5t-20.5 -21.5t-12.5 -19l-16 11q16 53 44 84q30 33 72 33q17 0 34 -5t48 -16l19 -7q45 -18 88 -28t108 -10l45 1q-24 -59 -44 -96zM206 -190q-19 -22 -52 -52q-24 29 -55 54l46 47q-20 21 -46 44q28 26 52 52
q15 -11 30.5 -26.5t24.5 -28.5q-30 -33 -43 -44q29 -22 43 -46z" />
    <glyph glyph-name="uniFB77" unicode="&#x683;" horiz-adv-x="651" arabic-form="final" 
d="M651 0h-88q-46 0 -76 16.5t-50 47.5q-18 28 -18 72q0 13 4 53q-56 0 -111 -18.5t-97 -52.5q-87 -69 -87 -161q0 -63 40 -109q23 -27 58.5 -45t77.5 -26q45 -7 98 -10q40 -2 82 -8l-5 -15q-30 -1 -51 -8t-44 -20t-43.5 -19.5t-51.5 -6.5q-49 0 -90.5 17.5t-70.5 48.5
q-28 31 -42.5 72t-14.5 89q0 42 10 82.5t29 72.5q36 64 94 102q45 31 107 46q-4 2 -39 15.5t-78 13.5q-60 0 -85 -43l-16 11q15 34 26.5 51.5t24.5 29.5q22 21 57 21q17 0 31 -3.5t40 -11.5q35 -11 93.5 -22.5t128.5 -11.5h24q-1 -3 -8.5 -29t-15.5 -45q-10 2 -24 2l-14 -1
l-1 -12q0 -33 25 -56q33 -31 94 -31h77v-98zM388.5 -8.5q15.5 -15.5 24.5 -29.5q-19 -22 -52 -52q-19 24 -43 44q-16 -19 -44 -44q-26 30 -56 54q38 38 52 53q19 -12 46 -43q30 30 41 43q16 -10 31.5 -25.5z" />
    <glyph glyph-name="uniFB78" unicode="&#x683;" horiz-adv-x="557" arabic-form="initial" 
d="M453 139q-59 -1 -102.5 -18t-98.5 -50q-59 -35 -106 -53t-114 -18h-53q-22 0 -35.5 14.5t-13.5 34.5t14 34.5t35 14.5h48q60 0 113.5 9t88.5 21q31 11 57.5 25.5t26.5 15.5l-31 11q-52 19 -92.5 31t-72.5 12q-22 0 -34.5 -5.5t-19 -14t-20.5 -30.5l-16 11q16 53 44 84
q30 33 71 33q18 0 36.5 -5.5t47.5 -17.5q58 -23 110 -36t128 -13h33q-18 -42 -44 -90zM245.5 -69.5q15.5 -15.5 24.5 -29.5q-19 -22 -52 -52q-19 24 -43 44q-16 -19 -44 -44q-26 30 -56 54q38 38 52 53q19 -12 46 -43q30 30 41 43q16 -10 31.5 -25.5z" />
    <glyph glyph-name="uniFB79" unicode="&#x683;" horiz-adv-x="619" arabic-form="medial" 
d="M441 161q-4 1 -15 1q-21 0 -30 -3q4 -34 28.5 -47.5t71.5 -13.5h123v-98h-112q-38 0 -68.5 13t-48.5 38q-15 21 -20.5 45.5t-4.5 57.5q-17 -3 -52 -27l-29 -22q-7 -5 -37 -27t-64 -40q-76 -38 -152 -38h-52q-21 0 -35 14.5t-14 34.5t14.5 34.5t34.5 14.5h47q110 0 203 41
q33 15 49 25.5t33 26.5q-5 2 -70 27t-127 25q-26 0 -38 -8.5t-20.5 -21.5t-12.5 -19l-16 11q16 53 44 84q30 33 72 33q17 0 34 -5t48 -16l19 -7q45 -18 88 -28t108 -10l45 1q-24 -59 -44 -96zM226.5 -70.5q15.5 -15.5 24.5 -29.5q-19 -22 -52 -52q-19 24 -43 44
q-16 -19 -44 -44q-26 30 -56 54q38 38 52 53q19 -12 46 -43q30 30 41 43q16 -10 31.5 -25.5z" />
    <glyph glyph-name="uniFB7B" unicode="&#x686;" horiz-adv-x="651" arabic-form="final" 
d="M651 0h-88q-46 0 -76 16.5t-50 47.5q-18 28 -18 72q0 13 4 53q-56 0 -111 -18.5t-97 -52.5q-87 -69 -87 -161q0 -63 40 -109q23 -27 58.5 -45t77.5 -26q45 -7 98 -10q40 -2 82 -8l-5 -15q-30 -1 -51 -8t-44 -20t-43.5 -19.5t-51.5 -6.5q-49 0 -90.5 17.5t-70.5 48.5
q-28 31 -42.5 72t-14.5 89q0 42 10 82.5t29 72.5q36 64 94 102q45 31 107 46q-4 2 -39 15.5t-78 13.5q-60 0 -85 -43l-16 11q15 34 26.5 51.5t24.5 29.5q22 21 57 21q17 0 31 -3.5t40 -11.5q35 -11 93.5 -22.5t128.5 -11.5h24q-1 -3 -8.5 -29t-15.5 -45q-10 2 -24 2l-14 -1
l-1 -12q0 -33 25 -56q33 -31 94 -31h77v-98zM356 -54q-19 24 -43 44l-25 -26l-19 -18q-28 33 -56 55q28 26 52 52q24 -15 46 -42l27 27l14 15q16 -10 31.5 -25.5t24.5 -29.5q-28 -30 -52 -52zM317 -161q-24 28 -55 54q38 38 51 53q16 -10 31.5 -25.5t24.5 -29.5
q-19 -22 -52 -52z" />
    <glyph glyph-name="uniFB7C" unicode="&#x686;" horiz-adv-x="557" arabic-form="initial" 
d="M453 139q-59 -1 -102.5 -18t-98.5 -50q-59 -35 -106 -53t-114 -18h-53q-22 0 -35.5 14.5t-13.5 34.5t14 34.5t35 14.5h48q60 0 113.5 9t88.5 21q31 11 57.5 25.5t26.5 15.5l-31 11q-52 19 -92.5 31t-72.5 12q-22 0 -34.5 -5.5t-19 -14t-20.5 -30.5l-16 11q16 53 44 84
q30 33 71 33q18 0 36.5 -5.5t47.5 -17.5q58 -23 110 -36t128 -13h33q-18 -42 -44 -90zM218 -151q-19 24 -43 44l-25 -26l-19 -18q-28 33 -56 55q28 26 52 52q24 -15 46 -42l27 27l14 15q16 -10 31.5 -25.5t24.5 -29.5q-28 -30 -52 -52zM179 -258q-24 28 -55 54q38 38 51 53
q16 -10 31.5 -25.5t24.5 -29.5q-19 -22 -52 -52z" />
    <glyph glyph-name="uniFB7D" unicode="&#x686;" horiz-adv-x="619" arabic-form="medial" 
d="M441 161q-4 1 -15 1q-21 0 -30 -3q4 -34 28.5 -47.5t71.5 -13.5h123v-98h-112q-38 0 -68.5 13t-48.5 38q-15 21 -20.5 45.5t-4.5 57.5q-17 -3 -52 -27l-29 -22q-7 -5 -37 -27t-64 -40q-76 -38 -152 -38h-52q-21 0 -35 14.5t-14 34.5t14.5 34.5t34.5 14.5h47q110 0 203 41
q33 15 49 25.5t33 26.5q-5 2 -70 27t-127 25q-26 0 -38 -8.5t-20.5 -21.5t-12.5 -19l-16 11q16 53 44 84q30 33 72 33q17 0 34 -5t48 -16l19 -7q45 -18 88 -28t108 -10l45 1q-24 -59 -44 -96zM199 -152q-19 24 -43 44l-25 -26l-19 -18q-28 33 -56 55q28 26 52 52
q24 -15 46 -42l27 27l14 15q16 -10 31.5 -25.5t24.5 -29.5q-28 -30 -52 -52zM160 -259q-24 28 -55 54q38 38 51 53q16 -10 31.5 -25.5t24.5 -29.5q-19 -22 -52 -52z" />
    <glyph glyph-name="uniFB7F" unicode="&#x687;" horiz-adv-x="651" arabic-form="final" 
d="M651 0h-88q-46 0 -76 16.5t-50 47.5q-18 28 -18 72q0 13 4 53q-56 0 -111 -18.5t-97 -52.5q-87 -69 -87 -161q0 -63 40 -109q23 -27 58.5 -45t77.5 -26q45 -7 98 -10q40 -2 82 -8l-5 -15q-30 -1 -51 -8t-44 -20t-43.5 -19.5t-51.5 -6.5q-49 0 -90.5 17.5t-70.5 48.5
q-28 31 -42.5 72t-14.5 89q0 42 10 82.5t29 72.5q36 64 94 102q45 31 107 46q-4 2 -39 15.5t-78 13.5q-60 0 -85 -43l-16 11q15 34 26.5 51.5t24.5 29.5q22 21 57 21q17 0 31 -3.5t40 -11.5q35 -11 93.5 -22.5t128.5 -11.5h24q-1 -3 -8.5 -29t-15.5 -45q-10 2 -24 2l-14 -1
l-1 -12q0 -33 25 -56q33 -31 94 -31h77v-98zM267 -42q-19 22 -51 48q38 38 52 53q19 -12 46 -43q30 30 41 43q16 -10 31.5 -25.5t24.5 -29.5q-17 -20 -49 -50q34 -25 49 -49q-19 -22 -52 -52q-19 24 -43 44q-16 -19 -44 -44q-26 30 -56 54q27 26 51 51zM314 -83q25 23 40 41
q-12 14 -38 38q-14 -18 -40 -41q14 -12 38 -38z" />
    <glyph glyph-name="uniFB80" unicode="&#x687;" horiz-adv-x="557" arabic-form="initial" 
d="M453 139q-59 -1 -102.5 -18t-98.5 -50q-59 -35 -106 -53t-114 -18h-53q-22 0 -35.5 14.5t-13.5 34.5t14 34.5t35 14.5h48q60 0 113.5 9t88.5 21q31 11 57.5 25.5t26.5 15.5l-31 11q-52 19 -92.5 31t-72.5 12q-22 0 -34.5 -5.5t-19 -14t-20.5 -30.5l-16 11q16 53 44 84
q30 33 71 33q18 0 36.5 -5.5t47.5 -17.5q58 -23 110 -36t128 -13h33q-18 -42 -44 -90zM126 -145q-19 22 -51 48q38 38 52 53q19 -12 46 -43q30 30 41 43q16 -10 31.5 -25.5t24.5 -29.5q-17 -20 -49 -50q34 -25 49 -49q-19 -22 -52 -52q-19 24 -43 44q-16 -19 -44 -44
q-26 30 -56 54q27 25 51 51zM173 -186q25 23 40 41q-12 14 -38 38q-14 -18 -40 -41q14 -12 38 -38z" />
    <glyph glyph-name="uniFB81" unicode="&#x687;" horiz-adv-x="619" arabic-form="medial" 
d="M441 161q-4 1 -15 1q-21 0 -30 -3q4 -34 28.5 -47.5t71.5 -13.5h123v-98h-112q-38 0 -68.5 13t-48.5 38q-15 21 -20.5 45.5t-4.5 57.5q-17 -3 -52 -27l-29 -22q-7 -5 -37 -27t-64 -40q-76 -38 -152 -38h-52q-21 0 -35 14.5t-14 34.5t14.5 34.5t34.5 14.5h47q110 0 203 41
q33 15 49 25.5t33 26.5q-5 2 -70 27t-127 25q-26 0 -38 -8.5t-20.5 -21.5t-12.5 -19l-16 11q16 53 44 84q30 33 72 33q17 0 34 -5t48 -16l19 -7q45 -18 88 -28t108 -10l45 1q-24 -59 -44 -96zM107 -146q-19 22 -51 48q38 38 52 53q19 -12 46 -43q30 30 41 43
q16 -10 31.5 -25.5t24.5 -29.5q-17 -20 -49 -50q34 -25 49 -49q-19 -22 -52 -52q-19 24 -43 44q-16 -19 -44 -44q-26 30 -56 54q27 25 51 51zM154 -187q25 23 40 41q-12 14 -38 38q-14 -18 -40 -41q14 -12 38 -38z" />
    <glyph glyph-name="uniFB83" unicode="&#x68d;" horiz-adv-x="503" arabic-form="final" 
d="M358 203q18 -57 44 -81t69 -24h31v-98h-32q-62 0 -97 33q-19 17 -28.5 35t-17.5 48q-5 -25 -16 -49.5t-44.5 -48t-95.5 -23.5q-73 0 -107 40q-25 33 -25 85q0 18 5 46l17 4q3 -31 21 -51q25 -27 76 -27h34q50 0 74 32t29 74l-34 121q21 29 47 55zM250.5 -74.5
q15.5 -15.5 24.5 -29.5q-19 -22 -52 -52q-19 24 -43 44q-16 -19 -44 -44q-26 30 -56 54q38 38 52 53q19 -12 46 -43q30 30 41 43q16 -10 31.5 -25.5z" />
    <glyph glyph-name="uniFB85" unicode="&#x68c;" horiz-adv-x="503" arabic-form="final" 
d="M358 203q18 -57 44 -81t69 -24h31v-98h-32q-62 0 -97 33q-19 17 -28.5 35t-17.5 48q-5 -25 -16 -49.5t-44.5 -48t-95.5 -23.5q-73 0 -107 40q-25 33 -25 85q0 18 5 46l17 4q3 -31 21 -51q25 -27 76 -27h34q50 0 74 32t29 74l-34 121q21 29 47 55zM323.5 485.5
q15.5 -15.5 24.5 -29.5q-19 -22 -52 -52q-19 24 -43 44q-16 -19 -44 -44q-26 30 -56 54q38 38 52 53q19 -12 46 -43q30 30 41 43q16 -10 31.5 -25.5z" />
    <glyph glyph-name="uniFB87" unicode="&#x68e;" horiz-adv-x="503" arabic-form="final" 
d="M358 203q18 -57 44 -81t69 -24h31v-98h-32q-62 0 -97 33q-19 17 -28.5 35t-17.5 48q-5 -25 -16 -49.5t-44.5 -48t-95.5 -23.5q-73 0 -107 40q-25 33 -25 85q0 18 5 46l17 4q3 -31 21 -51q25 -27 76 -27h34q50 0 74 32t29 74l-34 121q21 29 47 55zM197 565q31 29 52 53
q15 -10 30.5 -25.5t24.5 -29.5q-24 -28 -52 -52q-27 32 -55 54zM323.5 485.5q15.5 -15.5 24.5 -29.5q-19 -22 -52 -52q-19 24 -43 44q-16 -19 -44 -44q-26 30 -56 54q38 38 52 53q22 -15 46 -43q30 30 41 43q16 -10 31.5 -25.5z" />
    <glyph glyph-name="uniFB89" unicode="&#x688;" horiz-adv-x="503" arabic-form="final" 
d="M358 203q18 -57 44 -81t69 -24h31v-98h-32q-62 0 -97 33q-19 17 -28.5 35t-17.5 48q-5 -25 -16 -49.5t-44.5 -48t-95.5 -23.5q-73 0 -107 40q-25 33 -25 85q0 18 5 46l17 4q3 -31 21 -51q25 -27 76 -27h34q50 0 74 32t29 74l-34 121q21 29 47 55zM231 553q-6 -6 -8.5 -11
t-1.5 -18q5 -23 6.5 -32.5t0.5 -25.5q16 22 31 31.5t27 9.5t24 -9t12 -20q0 -28 -29 -52q-32 -22 -63 -22h-42l-10 32h29l11 20q-3 35 -10.5 60.5t-13.5 38.5l16 24q8 -13 21 -26zM293.5 475.5q-7.5 6.5 -21.5 6.5q-27 -1 -47 -46h26q17 0 32 6.5t23 16.5q-5 10 -12.5 16.5z
" />
    <glyph glyph-name="uniFB8B" unicode="&#x698;" horiz-adv-x="375" arabic-form="final" 
d="M217 124q16 -12 38.5 -19t40.5 -7h79v-98h-66q-19 0 -33.5 4t-22 8.5t-9.5 6.5q1 -3 2 -14t1 -27q0 -75 -29 -140q-23 -52 -57 -85q-18 -17 -36 -25t-46 -8q-10 0 -38 2q-26 2 -38 2q-26 0 -54 -8l-9 13l34 18q72 39 115 65t71 53q42 40 42 94q0 38 -17.5 67.5
t-51.5 60.5q24 45 48 72q23 -25 36 -35zM98 379q31 29 52 53q15 -10 30.5 -25.5t24.5 -29.5q-24 -28 -52 -52q-27 32 -55 54zM224.5 299.5q15.5 -15.5 24.5 -29.5q-19 -22 -52 -52q-19 24 -43 44q-16 -19 -44 -44q-26 30 -56 54q38 38 52 53q22 -15 46 -43q30 30 41 43
q16 -10 31.5 -25.5z" />
    <glyph glyph-name="uniFB8D" unicode="&#x691;" horiz-adv-x="375" arabic-form="final" 
d="M217 124q16 -12 38.5 -19t40.5 -7h79v-98h-66q-19 0 -33.5 4t-22 8.5t-9.5 6.5q1 -3 2 -14t1 -27q0 -75 -29 -140q-23 -52 -57 -85q-18 -17 -36 -25t-46 -8q-10 0 -38 2q-26 2 -38 2q-26 0 -54 -8l-9 13l34 18q72 39 115 65t71 53q42 40 42 94q0 38 -17.5 67.5
t-51.5 60.5q24 45 48 72q23 -25 36 -35zM132 367q-6 -6 -8.5 -11t-1.5 -18q5 -23 6.5 -32.5t0.5 -25.5q16 22 31 31.5t27 9.5t24 -9t12 -20q0 -28 -29 -52q-32 -22 -63 -22h-42l-10 32h29l11 20q-3 35 -10.5 60.5t-13.5 38.5l16 24q8 -13 21 -26zM194.5 289.5
q-7.5 6.5 -21.5 6.5q-27 -1 -47 -46h26q17 0 32 6.5t23 16.5q-5 10 -12.5 16.5z" />
    <glyph glyph-name="uniFB8F" unicode="&#x6a9;" horiz-adv-x="868" arabic-form="final" 
d="M522 367q7 -7 29 -29.5t53 -55.5q60 -66 87 -105q25 -36 52 -57.5t70 -21.5h55v-98h-54q-60 0 -94.5 25t-53.5 83q2 -53 -26 -81t-79 -31q-26 -2 -73 -2h-60h-31q-67 -1 -100 1.5t-65 7.5q-67 11 -104.5 38.5t-50.5 73.5q-7 27 -7 62q0 24 3 49l19 -7q6 -36 21 -60
q29 -45 116 -58q56 -8 178 -8l80 -1q18 0 66 2q24 1 40.5 12t25.5 22.5t9 13.5q-6 9 -27 40t-48 65q-23 29 -52 61l-7 -15l-28 31q2 32 8 56t7 27q86 70 272 158q-3 -31 -16 -88q-69 -27 -215 -110z" />
    <glyph glyph-name="uniFB90" unicode="&#x6a9;" horiz-adv-x="284" arabic-form="initial" 
d="M45 378q57 -39 89 -81q27 -35 44 -79.5t17 -89.5q0 -61 -32.5 -94.5t-91.5 -33.5h-92q-20 0 -34.5 14t-14.5 35q0 20 14.5 34.5t34.5 14.5h94q25 0 47 13t29 28q0 33 -43 84t-94 92l-9 -18l-27 30q4 37 16 83q83 69 272 158q-6 -47 -17 -88q-121 -57 -202 -102z" />
    <glyph glyph-name="uniFB91" unicode="&#x6a9;" horiz-adv-x="391" arabic-form="medial" 
d="M44 370q54 -54 81 -84q42 -45 89 -110q24 -35 51 -56.5t70 -21.5h56v-98h-55q-58 0 -92 27t-56 86q-7 -57 -32.5 -85t-72.5 -28h-104q-21 0 -35 14t-14 35q0 20 14.5 34.5t34.5 14.5h96q24 0 41 9.5t26 20t9 12.5q-59 89 -78 112q-41 52 -80 89q4 40 11 69q86 71 272 158
q-6 -46 -17 -88q-69 -27 -215 -110z" />
    <glyph glyph-name="uniFB93" unicode="&#x6af;" horiz-adv-x="868" arabic-form="final" 
d="M522 367q7 -7 29 -29.5t53 -55.5q60 -66 87 -105q25 -36 52 -57.5t70 -21.5h55v-98h-54q-60 0 -94.5 25t-53.5 83q2 -53 -26 -81t-79 -31q-26 -2 -73 -2h-60h-31q-67 -1 -100 1.5t-65 7.5q-67 11 -104.5 38.5t-50.5 73.5q-7 27 -7 62q0 24 3 49l19 -7q6 -36 21 -60
q29 -45 116 -58q56 -8 178 -8l80 -1q18 0 66 2q24 1 40.5 12t25.5 22.5t9 13.5q-6 9 -27 40t-48 65q-23 29 -52 61l-7 -15l-28 31q2 32 8 56t7 27q86 70 272 158q-3 -31 -16 -88q-69 -27 -215 -110zM508 508q44 29 90.5 53t111.5 56l-7 -33q-120 -55 -201 -111z" />
    <glyph glyph-name="uniFB94" unicode="&#x6af;" horiz-adv-x="284" arabic-form="initial" 
d="M45 378q57 -39 89 -81q27 -35 44 -79.5t17 -89.5q0 -61 -32.5 -94.5t-91.5 -33.5h-92q-20 0 -34.5 14t-14.5 35q0 20 14.5 34.5t34.5 14.5h94q25 0 47 13t29 28q0 33 -43 84t-94 92l-9 -18l-27 30q4 37 16 83q83 69 272 158q-6 -47 -17 -88q-121 -57 -202 -102zM9 506
q44 29 90.5 53t111.5 56l-7 -33q-120 -55 -201 -111z" />
    <glyph glyph-name="uniFB95" unicode="&#x6af;" horiz-adv-x="391" arabic-form="medial" 
d="M44 370q54 -54 81 -84q42 -45 89 -110q24 -35 51 -56.5t70 -21.5h56v-98h-55q-58 0 -92 27t-56 86q-7 -57 -32.5 -85t-72.5 -28h-104q-21 0 -35 14t-14 35q0 20 14.5 34.5t34.5 14.5h96q24 0 41 9.5t26 20t9 12.5q-59 89 -78 112q-41 52 -80 89q4 40 11 69q86 71 272 158
q-6 -46 -17 -88q-69 -27 -215 -110zM29 518q44 29 90.5 53t111.5 56l-7 -33q-120 -55 -201 -111z" />
    <glyph glyph-name="uniFB97" unicode="&#x6b3;" horiz-adv-x="868" arabic-form="final" 
d="M522 367q7 -7 29 -29.5t53 -55.5q60 -66 87 -105q25 -36 52 -57.5t70 -21.5h55v-98h-54q-60 0 -94.5 25t-53.5 83q2 -53 -26 -81t-79 -31q-26 -2 -73 -2h-60h-31q-67 -1 -100 1.5t-65 7.5q-67 11 -104.5 38.5t-50.5 73.5q-7 27 -7 62q0 24 3 49l19 -7q6 -36 21 -60
q29 -45 116 -58q56 -8 178 -8l80 -1q18 0 66 2q24 1 40.5 12t25.5 22.5t9 13.5q-6 9 -27 40t-48 65q-23 29 -52 61l-7 -15l-28 31q2 32 8 56t7 27q86 70 272 158q-3 -31 -16 -88q-69 -27 -215 -110zM508 508q44 29 90.5 53t111.5 56l-7 -33q-120 -55 -201 -111zM429 -195
q-19 -22 -52 -52q-24 29 -55 54l46 47q-20 21 -46 44q28 26 52 52q15 -11 30.5 -26.5t24.5 -28.5q-30 -33 -43 -44q29 -22 43 -46z" />
    <glyph glyph-name="uniFB98" unicode="&#x6b3;" horiz-adv-x="284" arabic-form="initial" 
d="M45 378q57 -39 89 -81q27 -35 44 -79.5t17 -89.5q0 -61 -32.5 -94.5t-91.5 -33.5h-92q-20 0 -34.5 14t-14.5 35q0 20 14.5 34.5t34.5 14.5h94q25 0 47 13t29 28q0 33 -43 84t-94 92l-9 -18l-27 30q4 37 16 83q83 69 272 158q-6 -47 -17 -88q-121 -57 -202 -102zM9 506
q44 29 90.5 53t111.5 56l-7 -33q-120 -55 -201 -111zM77 -189q-19 -22 -52 -52q-24 29 -55 54l46 47q-20 21 -46 44q28 26 52 52q15 -11 30.5 -26.5t24.5 -28.5q-30 -33 -43 -44q29 -22 43 -46z" />
    <glyph glyph-name="uniFB99" unicode="&#x6b3;" horiz-adv-x="391" arabic-form="medial" 
d="M44 370q54 -54 81 -84q42 -45 89 -110q24 -35 51 -56.5t70 -21.5h56v-98h-55q-58 0 -92 27t-56 86q-7 -57 -32.5 -85t-72.5 -28h-104q-21 0 -35 14t-14 35q0 20 14.5 34.5t34.5 14.5h96q24 0 41 9.5t26 20t9 12.5q-59 89 -78 112q-41 52 -80 89q4 40 11 69q86 71 272 158
q-6 -46 -17 -88q-69 -27 -215 -110zM29 518q44 29 90.5 53t111.5 56l-7 -33q-120 -55 -201 -111zM135 -199q-19 -22 -52 -52q-24 29 -55 54l46 47q-20 21 -46 44q28 26 52 52q15 -11 30.5 -26.5t24.5 -28.5q-30 -33 -43 -44q29 -22 43 -46z" />
    <glyph glyph-name="uniFB9B" unicode="&#x6b1;" horiz-adv-x="868" arabic-form="final" 
d="M522 367q7 -7 29 -29.5t53 -55.5q60 -66 87 -105q25 -36 52 -57.5t70 -21.5h55v-98h-54q-60 0 -94.5 25t-53.5 83q2 -53 -26 -81t-79 -31q-26 -2 -73 -2h-60h-31q-67 -1 -100 1.5t-65 7.5q-67 11 -104.5 38.5t-50.5 73.5q-7 27 -7 62q0 24 3 49l19 -7q6 -36 21 -60
q29 -45 116 -58q56 -8 178 -8l80 -1q18 0 66 2q24 1 40.5 12t25.5 22.5t9 13.5q-6 9 -27 40t-48 65q-23 29 -52 61l-7 -15l-28 31q2 32 8 56t7 27q86 70 272 158q-3 -31 -16 -88q-69 -27 -215 -110zM508 508q44 29 90.5 53t111.5 56l-7 -33q-120 -55 -201 -111zM662.5 695.5
q15.5 -15.5 24.5 -29.5q-19 -22 -52 -52q-19 24 -43 44q-16 -19 -44 -44q-26 30 -56 54q38 38 52 53q19 -12 46 -43q30 30 41 43q16 -10 31.5 -25.5z" />
    <glyph glyph-name="uniFB9C" unicode="&#x6b1;" horiz-adv-x="284" arabic-form="initial" 
d="M45 378q57 -39 89 -81q27 -35 44 -79.5t17 -89.5q0 -61 -32.5 -94.5t-91.5 -33.5h-92q-20 0 -34.5 14t-14.5 35q0 20 14.5 34.5t34.5 14.5h94q25 0 47 13t29 28q0 33 -43 84t-94 92l-9 -18l-27 30q4 37 16 83q83 69 272 158q-6 -47 -17 -88q-121 -57 -202 -102zM9 506
q44 29 90.5 53t111.5 56l-7 -33q-120 -55 -201 -111zM163.5 693.5q15.5 -15.5 24.5 -29.5q-19 -22 -52 -52q-19 24 -43 44q-16 -19 -44 -44q-26 30 -56 54q38 38 52 53q19 -12 46 -43q30 30 41 43q16 -10 31.5 -25.5z" />
    <glyph glyph-name="uniFB9D" unicode="&#x6b1;" horiz-adv-x="391" arabic-form="medial" 
d="M44 370q54 -54 81 -84q42 -45 89 -110q24 -35 51 -56.5t70 -21.5h56v-98h-55q-58 0 -92 27t-56 86q-7 -57 -32.5 -85t-72.5 -28h-104q-21 0 -35 14t-14 35q0 20 14.5 34.5t34.5 14.5h96q24 0 41 9.5t26 20t9 12.5q-59 89 -78 112q-41 52 -80 89q4 40 11 69q86 71 272 158
q-6 -46 -17 -88q-69 -27 -215 -110zM29 518q44 29 90.5 53t111.5 56l-7 -33q-120 -55 -201 -111zM183.5 705.5q15.5 -15.5 24.5 -29.5q-19 -22 -52 -52q-19 24 -43 44q-16 -19 -44 -44q-26 30 -56 54q38 38 52 53q19 -12 46 -43q30 30 41 43q16 -10 31.5 -25.5z" />
    <glyph glyph-name="uniFB9F" unicode="&#x6ba;" horiz-adv-x="657" arabic-form="final" 
d="M594 0q-24 0 -39.5 4t-30.5 15q9 -29 9 -70q0 -43 -13.5 -84.5t-43.5 -73.5q-20 -22 -49 -39.5t-58 -25.5q-38 -11 -87 -11q-73 0 -126 28q-52 28 -73 77q-13 29 -13 69q0 59 30 133l19 -7q-6 -33 -6 -61q0 -42 17 -67q19 -29 65 -45q40 -14 95 -14q85 0 141 32
q25 14 40.5 34t15.5 42q0 23 -17 60t-54 98q17 31 43 64l4 -5q27 -33 55 -44t50 -11h89v-98h-63z" />
    <glyph glyph-name="uniFBA1" unicode="&#x6bb;" horiz-adv-x="657" arabic-form="final" 
d="M594 0q-24 0 -39.5 4t-30.5 15q9 -29 9 -70q0 -43 -13.5 -84.5t-43.5 -73.5q-20 -22 -49 -39.5t-58 -25.5q-38 -11 -87 -11q-73 0 -126 28q-52 28 -73 77q-13 29 -13 69q0 59 30 133l19 -7q-6 -33 -6 -61q0 -42 17 -67q19 -29 65 -45q40 -14 95 -14q85 0 141 32
q25 14 40.5 34t15.5 42q0 23 -17 60t-54 98q17 31 43 64l4 -5q27 -33 55 -44t50 -11h89v-98h-63zM266 110q-6 -6 -8.5 -11t-1.5 -18q5 -23 6.5 -32.5t0.5 -25.5q16 22 31 31.5t27 9.5t24 -9t12 -20q0 -28 -29 -52q-32 -22 -63 -22h-42l-10 32h29l11 20q-3 35 -10.5 60.5
t-13.5 38.5l16 24q8 -13 21 -26zM328.5 32.5q-7.5 6.5 -21.5 6.5q-27 -1 -47 -46h26q17 0 32 6.5t23 16.5q-5 10 -12.5 16.5z" />
    <glyph glyph-name="uniFBA2" unicode="&#x6bb;" horiz-adv-x="223" arabic-form="initial" 
d="M149.5 237q13.5 -35 13.5 -72q0 -60 -31 -109q-36 -56 -106 -56h-47q-21 0 -35 14.5t-14 35.5t13.5 34.5t35.5 13.5h55q34 0 55 13.5t30.5 28.5t9.5 18l-61 72q20 44 43 69q25 -27 38.5 -62zM-28 452q-6 -6 -8.5 -11t-1.5 -18q5 -23 6.5 -32.5t0.5 -25.5q16 22 31 31.5
t27 9.5t24 -9t12 -20q0 -28 -29 -52q-32 -22 -63 -22h-42l-10 32h29l11 20q-3 35 -10.5 60.5t-13.5 38.5l16 24q8 -13 21 -26zM34.5 374.5q-7.5 6.5 -21.5 6.5q-27 -1 -47 -46h26q17 0 32 6.5t23 16.5q-5 10 -12.5 16.5z" />
    <glyph glyph-name="uniFBA3" unicode="&#x6bb;" horiz-adv-x="301" arabic-form="medial" 
d="M171 125q24 -27 76 -27h54v-98h-40q-55 0 -84 33q-18 21 -21 43q-1 -2 -5 -15t-20 -30q-29 -31 -76 -31h-76q-20 0 -34.5 14.5t-14.5 35.5q0 20 14.5 34t34.5 14h57q50 0 70.5 20t24.5 65l22 12q-3 -46 18 -70zM5 367q-6 -6 -8.5 -11t-1.5 -18q5 -23 6.5 -32.5t0.5 -25.5
q16 22 31 31.5t27 9.5t24 -9t12 -20q0 -28 -29 -52q-32 -22 -63 -22h-42l-10 32h29l11 20q-3 35 -10.5 60.5t-13.5 38.5l16 24q8 -13 21 -26zM67.5 289.5q-7.5 6.5 -21.5 6.5q-27 -1 -47 -46h26q17 0 32 6.5t23 16.5q-5 10 -12.5 16.5z" />
    <glyph glyph-name="uniFBA7" unicode="&#x6c1;" horiz-adv-x="420" arabic-form="final" 
d="M420 0h-36q-26 0 -43 8t-30 23q-12 14 -28 45q-15 30 -28.5 43.5t-35.5 13.5q-29 0 -50.5 -21.5t-42.5 -55.5q-24 -40 -38 -71l-18 -5q23 70 53 124q55 100 109 100q26 0 44 -17.5t39 -47.5q29 -41 71 -41h34v-98z" />
    <glyph glyph-name="uniFBA8" unicode="&#x6c1;" horiz-adv-x="223" arabic-form="initial" 
d="M132 56q-36 -56 -106 -56h-47q-21 0 -35 14.5t-14 35.5t13.5 34.5t35.5 13.5h55q34 0 55 13.5t30.5 28.5t9.5 18q-2 3 -32 38l-29 34q20 44 43 69q25 -27 38.5 -62t13.5 -72q0 -60 -31 -109zM25 -82.5q-17 -18.5 -17 -44.5q0 -14 8.5 -22t24.5 -13q-6 -26 -33 -26
q-14 0 -25 12.5t-11 31.5q0 5 2 15q16 68 113 107v-18q-45 -24 -62 -42.5z" />
    <glyph glyph-name="uniFBA9" unicode="&#x6c1;" horiz-adv-x="463" arabic-form="medial" 
d="M463 0h-33q-22 0 -34 3t-24 10q-30 17 -60 17q-51 0 -68 -41q-6 -14 -6 -30q0 -15 4 -28q8 -28 29 -54q-25 -33 -59 -61q-22 17 -36.5 32.5t-27.5 36.5q-24 39 -32 76q-9 39 -7 86q-14 -26 -33.5 -36.5t-53.5 -10.5h-42q-21 0 -35.5 14t-14.5 34q0 21 15 35.5t35 14.5h59
q43 0 67 22q20 19 22 43l21 11q-3 -30 -3 -56q0 -40 6 -70q6 -37 15 -57.5t31 -50.5q-6 19 -6 40q0 47 29 76q40 42 116 42h126v-98z" />
    <glyph glyph-name="uniFBAB" unicode="&#x6be;" horiz-adv-x="613" arabic-form="final" 
d="M613 0h-46q-61 0 -81 21q-16 16 -19 37q-4 -9 -14 -20t-13 -15l-28 -30q-75 37 -121 53q-44 -40 -97 -49q-42 -6 -66 -6q-32 0 -58 5l9 29q43 13 73.5 28t43.5 28q-21 25 -23 66q0 39 21 70q14 21 38 37t48 17l-18 9q-12 7 -18 13.5t-6 15.5q0 5 5 17l19 31q8 -5 46 -25
q35 -17 60 -32q58 -36 88 -73q37 -46 37 -101l-1 -15q7 -9 25.5 -11t51.5 -2h44v-98zM303 237q-7 6 -17 6q-19 0 -47 -24q-31 -28 -31 -42q0 -8 9 -17.5t21 -15.5q21 -13 35 -13q18 0 36 12q11 8 16.5 18t5.5 18q0 6 -3.5 17t-9.5 21q-8 14 -15 20zM351 240q13 -28 13 -53
q0 -44 -31 -75l114 -29q-3 48 -18 78q-24 46 -78 79z" />
    <glyph glyph-name="uniFBAC" unicode="&#x6be;" horiz-adv-x="417" arabic-form="initial" 
d="M322 41l-46 -48q-51 29 -122 54q-19 -26 -47.5 -36.5t-73.5 -10.5h-53q-21 0 -35.5 14t-14.5 35q0 20 15 34.5t35 14.5h71q-9 24 -12 42q-4 43 19 77q14 21 38 37t48 17l-18 9q-12 7 -18 13.5t-6 15.5q0 5 5 17l19 31q8 -5 46 -25q35 -17 60 -32q58 -36 88 -73
q37 -47 37 -104q-3 -47 -35 -82zM191.5 196q-3.5 11 -9.5 21q-8 14 -15 20t-17 6q-19 0 -47 -24q-31 -28 -31 -42q0 -8 9 -17.5t21 -15.5q21 -13 35 -13q18 0 36 12q11 8 16.5 18t5.5 18q0 6 -3.5 17zM293 161q-24 46 -78 79q13 -28 13 -53q0 -44 -31 -75l114 -29
q-3 48 -18 78z" />
    <glyph glyph-name="uniFBAD" unicode="&#x6be;" horiz-adv-x="477" arabic-form="medial" 
d="M477 0h-46q-61 0 -81 21q-16 16 -19 37q-4 -9 -14 -20t-13 -15l-28 -30q-51 29 -122 54q-19 -26 -47.5 -36.5t-73.5 -10.5h-53q-21 0 -35.5 14t-14.5 35q0 20 15 34.5t35 14.5h71q-9 24 -12 42q-4 43 19 77q14 21 38 37t48 17l-18 9q-12 7 -18 13.5t-6 15.5q0 5 5 17
l19 31q8 -5 46 -25q35 -17 60 -32q58 -36 88 -73q37 -46 37 -101l-1 -15q7 -9 25 -11t52 -2h44v-98zM167 237q-7 6 -17 6q-19 0 -47 -24q-31 -28 -31 -42q0 -8 9 -17.5t21 -15.5q21 -13 35 -13q18 0 36 12q11 8 16.5 18t5.5 18q0 6 -3.5 17t-9.5 21q-8 14 -15 20zM215 240
q13 -28 13 -53q0 -44 -31 -75l114 -29q-3 48 -18 78q-24 46 -78 79z" />
    <glyph glyph-name="uniFBAF" unicode="&#x6d2;" horiz-adv-x="603" arabic-form="final" 
d="M384 0q-60 0 -93 -33q-27 -23 -69 -43q-29 -15 -52 -24q-14 -4 -24 -15.5t-10 -22.5q0 -30 29.5 -39t78.5 -9h388q-12 -25 -26 -46t-39 -52h-301q-105 0 -156 36q-23 16 -31.5 35.5t-8.5 35.5q0 53 56 98q20 16 43 29t57 29q64 29 95 57q11 11 22.5 20t26.5 18
q44 24 100 24h134v-98h-220z" />
    <glyph glyph-name="uniFBB1" unicode="&#x6d3;" horiz-adv-x="603" arabic-form="final" 
d="M384 0q-60 0 -93 -33q-27 -23 -69 -43q-29 -15 -52 -24q-14 -4 -24 -15.5t-10 -22.5q0 -30 29.5 -39t78.5 -9h388q-12 -25 -26 -46t-39 -52h-301q-105 0 -156 36q-23 16 -31.5 35.5t-8.5 35.5q0 53 56 98q20 16 43 29t57 29q64 29 95 57q11 11 22.5 20t26.5 18
q44 24 100 24h134v-98h-220zM334 152q-35 -4 -72 -16q-43 -14 -84 -39q-3 0 -4.5 2.5t-1.5 5.5q0 4 4 8q15 14 31 24t41 20q-56 8 -56 43q0 6 4 11q17 25 31 36q27 23 60 23q19 0 29.5 -8.5t11.5 -17.5l-5 -7q-12 5 -32 5q-17 0 -31 -5t-32 -16q0 -17 8 -24t28 -13
q15 -4 34 -4q9 0 27 2l26 5q-11 -25 -17 -35z" />
    <glyph glyph-name="uniFBD4" unicode="&#x6ad;" horiz-adv-x="833" arabic-form="final" 
d="M833 0h-38q-87 0 -103 82q-2 -41 -30 -62.5t-76 -23.5q-104 -2 -228 -2q-80 0 -127 8q-71 12 -112 47q-32 26 -42 66q-7 25 -7 62q0 24 3 49l19 -7q6 -36 21 -60q29 -45 116 -58q51 -8 147 -8h31l156 2q40 0 64 27q20 23 17 54l-1 12q-4 28 -5 42q-3 19 -13 95.5
t-27 171.5q25 38 61 71q23 -239 41 -390q4 -34 19 -53q23 -27 63 -27h51v-98zM443 186.5q-14 -15.5 -47 -34.5q-31 -4 -65 -4q-21 0 -31 1q9 3 44.5 13.5t57 21t21.5 19.5q0 5 -8.5 7t-30.5 4q-48 3 -48 29q0 36 48 61q30 16 59 23q-7 -14 -19 -30q-41 -13 -64 -32
q0 -24 50 -24q27 0 37 -3.5t10 -18.5q0 -17 -14 -32.5zM337 528q31 29 52 53q15 -10 30.5 -25.5t24.5 -29.5q-24 -28 -52 -52q-27 32 -55 54zM463.5 448.5q15.5 -15.5 24.5 -29.5q-19 -22 -52 -52q-19 24 -43 44q-16 -19 -44 -44q-26 30 -56 54q38 38 52 53q22 -15 46 -43
q30 30 41 43q16 -10 31.5 -25.5z" />
    <glyph glyph-name="uniFBD5" unicode="&#x6ad;" horiz-adv-x="284" arabic-form="initial" 
d="M45 378q57 -39 89 -81q27 -35 44 -79.5t17 -89.5q0 -61 -32.5 -94.5t-91.5 -33.5h-92q-20 0 -34.5 14t-14.5 35q0 20 14.5 34.5t34.5 14.5h94q25 0 47 13t29 28q0 33 -43 84t-94 92l-9 -18l-27 30q4 37 16 83q83 69 272 158q-6 -47 -17 -88q-121 -57 -202 -102zM34 699
q31 29 52 53q15 -10 30.5 -25.5t24.5 -29.5q-24 -28 -52 -52q-27 32 -55 54zM160.5 619.5q15.5 -15.5 24.5 -29.5q-19 -22 -52 -52q-19 24 -43 44q-16 -19 -44 -44q-26 30 -56 54q38 38 52 53q22 -15 46 -43q30 30 41 43q16 -10 31.5 -25.5z" />
    <glyph glyph-name="uniFBD6" unicode="&#x6ad;" horiz-adv-x="391" arabic-form="medial" 
d="M44 370q54 -54 81 -84q42 -45 89 -110q24 -35 51 -56.5t70 -21.5h56v-98h-55q-58 0 -92 27t-56 86q-7 -57 -32.5 -85t-72.5 -28h-104q-21 0 -35 14t-14 35q0 20 14.5 34.5t34.5 14.5h96q24 0 41 9.5t26 20t9 12.5q-59 89 -78 112q-41 52 -80 89q4 40 11 69q86 71 272 158
q-6 -46 -17 -88q-69 -27 -215 -110zM54 711q31 29 52 53q15 -10 30.5 -25.5t24.5 -29.5q-24 -28 -52 -52q-27 32 -55 54zM180.5 631.5q15.5 -15.5 24.5 -29.5q-19 -22 -52 -52q-19 24 -43 44q-16 -19 -44 -44q-26 30 -56 54q38 38 52 53q22 -15 46 -43q30 30 41 43
q16 -10 31.5 -25.5z" />
    <glyph glyph-name="uniFBD8" unicode="&#x6c7;" horiz-adv-x="405" arabic-form="final" 
d="M405 0h-116q0 -39 -10.5 -95t-35.5 -102q-23 -41 -53 -61q-33 -21 -73 -21q-9 0 -31 2q-26 2 -37 2q-25 0 -60 -8l-9 13l47 25q20 11 42.5 23t40.5 22q41 24 69 50q49 46 65 112q5 20 5 38h-52q-64 0 -88 35q-20 28 -20 82q0 24 4 41t14 39q13 27 32.5 44t43.5 17
q26 0 47 -18t35 -48q10 -21 16 -46.5t6 -47.5h118v-98zM208.5 175.5q-14.5 10.5 -33.5 10.5q-23 0 -38.5 -13t-15.5 -31q0 -26 17 -35t48 -9h58q0 22 -13 50q-8 17 -22.5 27.5zM229 359l-31 13q-9 -13 -16.5 -21t-20.5 -18q-34 -25 -82 -25q-15 0 -23 1q3 9 11 26
q39 -1 64 8.5t48 34.5q-25 10 -36.5 21t-11.5 27t15 35q26 32 52 32q15 0 23.5 -10.5t8.5 -27.5q0 -27 -20 -61l15 -8q4 -12 4 -27zM208 440q0 10 -6 16q-5 7 -12.5 9t-15.5 0q-9 -2 -14.5 -8t-6.5 -14q-2 -16 20 -29l21 -12q14 23 14 38z" />
    <glyph glyph-name="uniFBDA" unicode="&#x6c6;" horiz-adv-x="405" arabic-form="final" 
d="M405 0h-116q0 -39 -10.5 -95t-35.5 -102q-23 -41 -53 -61q-33 -21 -73 -21q-9 0 -31 2q-26 2 -37 2q-25 0 -60 -8l-9 13l47 25q20 11 42.5 23t40.5 22q41 24 69 50q49 46 65 112q5 20 5 38h-52q-64 0 -88 35q-20 28 -20 82q0 24 4 41t14 39q13 27 32.5 44t43.5 17
q26 0 47 -18t35 -48q10 -21 16 -46.5t6 -47.5h118v-98zM208.5 175.5q-14.5 10.5 -33.5 10.5q-23 0 -38.5 -13t-15.5 -31q0 -26 17 -35t48 -9h58q0 22 -13 50q-8 17 -22.5 27.5zM188 366q-8 -20 -10 -48h-16q0 21 -9 45q-17 51 -52 90q3 15 10 25q31 -37 44 -65q3 -6 11 -28
q3 -9 4 -15t1 -8q0 2 0.5 8t3.5 15q7 19 13 29q11 24 41 64q8 -11 11 -25q-33 -38 -52 -87z" />
    <glyph glyph-name="uniFBDC" unicode="&#x6c8;" horiz-adv-x="405" arabic-form="final" 
d="M405 0h-116q0 -39 -10.5 -95t-35.5 -102q-23 -41 -53 -61q-33 -21 -73 -21q-9 0 -31 2q-26 2 -37 2q-25 0 -60 -8l-9 13l47 25q20 11 42.5 23t40.5 22q41 24 69 50q49 46 65 112q5 20 5 38h-52q-64 0 -88 35q-20 28 -20 82q0 24 4 41t14 39q13 27 32.5 44t43.5 17
q26 0 47 -18t35 -48q10 -21 16 -46.5t6 -47.5h118v-98zM208.5 175.5q-14.5 10.5 -33.5 10.5q-23 0 -38.5 -13t-15.5 -31q0 -26 17 -35t48 -9h58q0 22 -13 50q-8 17 -22.5 27.5zM174 308q1 8 1 24q0 48 -23 87q4 5 11 8.5t17 7.5q15 -34 15 -87q0 -19 -3 -39z" />
    <glyph glyph-name="uniFBDF" unicode="&#x6cb;" horiz-adv-x="405" arabic-form="final" 
d="M405 0h-116q0 -39 -10.5 -95t-35.5 -102q-23 -41 -53 -61q-33 -21 -73 -21q-9 0 -31 2q-26 2 -37 2q-25 0 -60 -8l-9 13l47 25q20 11 42.5 23t40.5 22q41 24 69 50q49 46 65 112q5 20 5 38h-52q-64 0 -88 35q-20 28 -20 82q0 24 4 41t14 39q13 27 32.5 44t43.5 17
q26 0 47 -18t35 -48q10 -21 16 -46.5t6 -47.5h118v-98zM208.5 175.5q-14.5 10.5 -33.5 10.5q-23 0 -38.5 -13t-15.5 -31q0 -26 17 -35t48 -9h58q0 22 -13 50q-8 17 -22.5 27.5zM120 469q31 29 52 53q15 -10 30.5 -25.5t24.5 -29.5q-24 -28 -52 -52q-27 32 -55 54z
M246.5 389.5q15.5 -15.5 24.5 -29.5q-19 -22 -52 -52q-19 24 -43 44q-16 -19 -44 -44q-26 30 -56 54q38 38 52 53q22 -15 46 -43q30 30 41 43q16 -10 31.5 -25.5z" />
    <glyph glyph-name="uniFBE1" unicode="&#x6c5;" horiz-adv-x="405" arabic-form="final" 
d="M405 98v-98h-116q0 -39 -10.5 -95t-35.5 -102q-23 -41 -53 -61q-33 -21 -73 -21q-9 0 -31 2q-26 2 -37 2q-25 0 -60 -8l-9 13l47 25q20 11 42.5 23t40.5 22q41 24 69 50q22 21 37 46h-95l-28 31h139q7 16 12 35q5 20 5 38h-52q-64 0 -88 35q-20 28 -20 82q0 24 4 41
t14 39q13 27 32.5 44t43.5 17q26 0 47 -18t35 -48q10 -21 16 -46.5t6 -47.5h118zM244 98q0 22 -13 50q-8 17 -22.5 27.5t-33.5 10.5q-23 0 -38.5 -13t-15.5 -31q0 -26 17 -35t48 -9h58z" />
    <glyph glyph-name="uniFBE3" unicode="&#x6c9;" horiz-adv-x="405" arabic-form="final" 
d="M405 0h-116q0 -39 -10.5 -95t-35.5 -102q-23 -41 -53 -61q-33 -21 -73 -21q-9 0 -31 2q-26 2 -37 2q-25 0 -60 -8l-9 13l47 25q20 11 42.5 23t40.5 22q41 24 69 50q49 46 65 112q5 20 5 38h-52q-64 0 -88 35q-20 28 -20 82q0 24 4 41t14 39q13 27 32.5 44t43.5 17
q26 0 47 -18t35 -48q10 -21 16 -46.5t6 -47.5h118v-98zM208.5 175.5q-14.5 10.5 -33.5 10.5q-23 0 -38.5 -13t-15.5 -31q0 -26 17 -35t48 -9h58q0 22 -13 50q-8 17 -22.5 27.5zM157 410q7 20 9 44h15q0 -20 12 -51q15 -38 44 -72q-2 -11 -9 -23q-27 31 -40 59q-6 12 -10 26
q-3 9 -4 14.5t-1 6.5q0 -1 -1 -7t-4 -14q-4 -14 -11 -27q-13 -26 -38 -58q-6 10 -10 23q30 34 48 79z" />
    <glyph glyph-name="uniFBE5" unicode="&#x6d0;" horiz-adv-x="680" arabic-form="final" 
d="M680 0h-117q26 -19 26 -58q0 -37 -22 -79q-15 -29 -43.5 -55t-66.5 -45q-39 -22 -84 -33t-90 -11q-84 0 -136 33q-44 25 -64 73q-13 29 -13 67q0 30 8 70.5t22 73.5l19 -7q-8 -40 -8 -71q0 -45 21 -72q44 -54 160 -54q77 0 155 29q43 15 69.5 33.5t26.5 34.5q0 34 -69 57
q-24 8 -52 13q29 61 60 99h198v-98zM346 -476q-19 -22 -52 -52q-24 29 -55 54l46 47q-20 21 -46 44q28 26 52 52q15 -11 30.5 -26.5t24.5 -28.5q-30 -33 -43 -44q29 -22 43 -46z" />
    <glyph glyph-name="uniFBE6" unicode="&#x6d0;" horiz-adv-x="223" arabic-form="initial" 
d="M149.5 237q13.5 -35 13.5 -72q0 -60 -31 -109q-36 -56 -106 -56h-47q-21 0 -35 14.5t-14 35.5t13.5 34.5t35.5 13.5h55q34 0 55 13.5t30.5 28.5t9.5 18l-61 72q20 44 43 69q25 -27 38.5 -62zM67 -190q-19 -22 -52 -52q-24 29 -55 54l46 47q-20 21 -46 44q28 26 52 52
q15 -11 30.5 -26.5t24.5 -28.5q-30 -33 -43 -44q29 -22 43 -46z" />
    <glyph glyph-name="uniFBE7" unicode="&#x6d0;" horiz-adv-x="301" arabic-form="medial" 
d="M171 125q24 -27 76 -27h54v-98h-40q-55 0 -84 33q-18 21 -21 43q-1 -2 -5 -15t-20 -30q-29 -31 -76 -31h-76q-20 0 -34.5 14.5t-14.5 35.5q0 20 14.5 34t34.5 14h57q50 0 70.5 20t24.5 65l22 12q-3 -46 18 -70zM70 -190q-19 -22 -52 -52q-24 29 -55 54l46 47
q-20 21 -46 44q28 26 52 52q15 -11 30.5 -26.5t24.5 -28.5q-30 -33 -43 -44q29 -22 43 -46z" />
    <glyph glyph-name="uniFBE8" unicode="&#x649;" horiz-adv-x="223" arabic-form="initial" 
d="M149.5 237q13.5 -35 13.5 -72q0 -60 -31 -109q-36 -56 -106 -56h-47q-21 0 -35 14.5t-14 35.5t13.5 34.5t35.5 13.5h55q34 0 55 13.5t30.5 28.5t9.5 18l-61 72q20 44 43 69q25 -27 38.5 -62z" />
    <glyph glyph-name="uniFBE9" unicode="&#x649;" horiz-adv-x="301" arabic-form="medial" 
d="M171 125q24 -27 76 -27h54v-98h-40q-55 0 -84 33q-18 21 -21 43q-1 -2 -5 -15t-20 -30q-29 -31 -76 -31h-76q-20 0 -34.5 14.5t-14.5 35.5q0 20 14.5 34t34.5 14h57q50 0 70.5 20t24.5 65l22 12q-3 -46 18 -70z" />
    <glyph glyph-name="uniFBFD" unicode="&#x6cc;" horiz-adv-x="680" arabic-form="final" 
d="M680 0h-117q26 -19 26 -58q0 -37 -22 -79q-15 -29 -43.5 -55t-66.5 -45q-39 -22 -84 -33t-90 -11q-84 0 -136 33q-44 25 -64 73q-13 29 -13 67q0 30 8 70.5t22 73.5l19 -7q-8 -40 -8 -71q0 -45 21 -72q44 -54 160 -54q77 0 155 29q43 15 69.5 33.5t26.5 34.5q0 34 -69 57
q-24 8 -52 13q29 61 60 99h198v-98z" />
    <glyph glyph-name="uniFBFE" unicode="&#x6cc;" horiz-adv-x="223" arabic-form="initial" 
d="M149.5 237q13.5 -35 13.5 -72q0 -60 -31 -109q-36 -56 -106 -56h-47q-21 0 -35 14.5t-14 35.5t13.5 34.5t35.5 13.5h55q34 0 55 13.5t30.5 28.5t9.5 18l-61 72q20 44 43 69q25 -27 38.5 -62zM87.5 -70.5q15.5 -15.5 24.5 -29.5q-19 -22 -52 -52q-19 24 -43 44
q-16 -19 -44 -44q-26 30 -56 54q38 38 52 53q19 -12 46 -43q30 30 41 43q16 -10 31.5 -25.5z" />
    <glyph glyph-name="uniFBFF" unicode="&#x6cc;" horiz-adv-x="301" arabic-form="medial" 
d="M171 125q24 -27 76 -27h54v-98h-40q-55 0 -84 33q-18 21 -21 43q-1 -2 -5 -15t-20 -30q-29 -31 -76 -31h-76q-20 0 -34.5 14.5t-14.5 35.5q0 20 14.5 34t34.5 14h57q50 0 70.5 20t24.5 65l22 12q-3 -46 18 -70zM90.5 -70.5q15.5 -15.5 24.5 -29.5q-19 -22 -52 -52
q-19 24 -43 44q-16 -19 -44 -44q-26 30 -56 54q38 38 52 53q19 -12 46 -43q30 30 41 43q16 -10 31.5 -25.5z" />
    <glyph glyph-name="uniFC5B" unicode="&#xfc5b;" horiz-adv-x="413" arabic-form="isolated" 
d="M339 102q-13 -34 -36 -58q-48 -50 -133 -50q-74 0 -106 41q-25 33 -25 86q0 25 4 43l17 4q3 -32 22 -51q12 -14 28 -20.5t40 -6.5h41q44 0 70.5 16.5t38 35t11.5 22.5q0 3 -19.5 29t-52 55t-75.5 46q6 34 24 84q17 -7 41.5 -23t47.5 -36q33 -30 54 -65t21 -83
q0 -35 -13 -69zM217.5 508q15.5 -15 24.5 -28q-20 -22 -52 -52q-27 32 -55 54q26 24 51 53q16 -12 31.5 -27zM180 565q1 8 1 24q0 48 -23 87q4 5 11 8.5t17 7.5q15 -34 15 -87q0 -19 -3 -39z" />
    <glyph glyph-name="uniFC5C" unicode="&#xfc5c;" horiz-adv-x="305" arabic-form="isolated" 
d="M212 168q15 -27 24 -58.5t9 -75.5q0 -42 -9.5 -91.5t-32.5 -90.5q-21 -37 -53 -59q-18 -13 -34.5 -18t-37.5 -5l-32 1q-26 2 -39 2q-27 0 -58 -7l-9 13l130 71q63 36 92 65q40 40 40 93q0 21 -6 38t-17 35q-21 34 -45 56q24 43 49 72q14 -14 29 -41zM134 253q1 8 1 24
q0 48 -23 87q4 5 11 8.5t17 7.5q15 -34 15 -87q0 -19 -3 -39z" />
    <glyph glyph-name="uniFC5D" unicode="&#xfc5d;" horiz-adv-x="659" arabic-form="isolated" 
d="M575.5 95q22.5 -17 22.5 -39q0 -27 -10 -62.5t-34 -68.5q-36 -51 -96 -80q-88 -44 -174 -44q-47 0 -88 13t-71 37q-56 46 -56 135q0 65 31 132l19 -7q-8 -40 -8 -69q0 -47 21 -74q44 -54 163 -54q90 0 157 29q32 14 55 31t34.5 29t13.5 16l-117 20q-38 6 -65 20
q-36 18 -36 48q0 19 12 62.5t33 85.5q32 62 66.5 86.5t66.5 24.5t50 -21q19 -20 25.5 -52.5t5.5 -54.5l-18 -8q-10 20 -18.5 30.5t-13.5 14.5t-6 4q-69 0 -118 -53q-16 -17 -24 -35.5t-8 -25.5q0 -17 20 -27.5t73 -16.5q70 -9 92.5 -26zM224 113q1 8 1 24q0 48 -23 87
q4 5 11 8.5t17 7.5q15 -34 15 -87q0 -19 -3 -39z" />
    <glyph glyph-name="uniFC90" unicode="&#xfc90;" horiz-adv-x="680" arabic-form="final" 
d="M680 0h-117q26 -19 26 -58q0 -37 -22 -79q-15 -29 -43.5 -55t-66.5 -45q-39 -22 -84 -33t-90 -11q-84 0 -136 33q-44 25 -64 73q-13 29 -13 67q0 30 8 70.5t22 73.5l19 -7q-8 -40 -8 -71q0 -45 21 -72q44 -54 160 -54q77 0 155 29q43 15 69.5 33.5t26.5 34.5q0 34 -69 57
q-24 8 -52 13q29 61 60 99h198v-98zM266 31q1 8 1 24q0 48 -23 87q4 5 11 8.5t17 7.5q15 -34 15 -87q0 -19 -3 -39z" />
    <glyph glyph-name="uniFCD9" unicode="&#xfcd9;" horiz-adv-x="417" arabic-form="initial" 
d="M322 41l-46 -48q-51 29 -122 54q-19 -26 -47.5 -36.5t-73.5 -10.5h-53q-21 0 -35.5 14t-14.5 35q0 20 15 34.5t35 14.5h71q-9 24 -12 42q-4 43 19 77q14 21 38 37t48 17l-18 9q-12 7 -18 13.5t-6 15.5q0 5 5 17l19 31q8 -5 46 -25q35 -17 60 -32q58 -36 88 -73
q37 -47 37 -104q-3 -47 -35 -82zM191.5 196q-3.5 11 -9.5 21q-8 14 -15 20t-17 6q-19 0 -47 -24q-31 -28 -31 -42q0 -8 9 -17.5t21 -15.5q21 -13 35 -13q18 0 36 12q11 8 16.5 18t5.5 18q0 6 -3.5 17zM293 161q-24 46 -78 79q13 -28 13 -53q0 -44 -31 -75l114 -29
q-3 48 -18 78zM127 407q1 8 1 24q0 48 -23 87q4 5 11 8.5t17 7.5q15 -34 15 -87q0 -19 -3 -39z" />
    <glyph glyph-name="uniFD3C" unicode="&#xfd3c;" horiz-adv-x="262" arabic-form="final" 
d="M160 647q-38 -12 -94 -35.5t-74 -31.5q3 17 7 25q79 39 169 68q-1 -12 -8 -26zM160 577q-38 -13 -94 -36t-74 -31q3 17 7 25q79 39 169 68q-1 -12 -8 -26zM262 0h-73q-57 0 -86 38q-29 39 -32 108q-2 52 -8.5 143t-12.5 130q15 25 33.5 50.5t21.5 29.5h11l10 -321
q2 -37 18 -56q21 -24 63 -24h55v-98z" />
    <glyph glyph-name="uniFD3D" unicode="&#xfd3d;" horiz-adv-x="155" arabic-form="isolated" 
d="M82 500h11q-1 -28 2.5 -60.5t4.5 -40.5l4 -44q11 -122 11 -189q0 -41 -3.5 -63t-11.5 -55q-9 -32 -15 -48h-15q1 7 1 26q0 16 -2 52l-1 23l-4 37l-3 28q-3 28 -16 123q-15 110 -15 137q25 44 52 74zM155 648q-38 -12 -94 -35.5t-74 -31.5q3 17 7 25q79 39 169 68
q-1 -12 -8 -26zM155 578q-38 -13 -94 -36t-74 -31q3 17 7 25q79 39 169 68q-1 -12 -8 -26z" />
    <glyph glyph-name="uniFDFC" unicode="&#xfdfc;" horiz-adv-x="1160" arabic-form="isolated" 
d="M95.5 95q30.5 44 80.5 44q91 0 135 -93q25 -51 33 -127q49 8 78 29q36 26 36 79q0 42 -16 144q-20 127 -39 207t-32 114l59 76q27 -49 59 -82q-13 -11 -18.5 -23.5t-5.5 -32.5q0 -17 1 -27q6 -55 8 -71q3 -34 9.5 -93t15.5 -159q3 -24 3 -47q0 -41 -9 -75
q-14 -58 -46 -94q-34 -40 -92 -54l4 -27l-32 -23l-7 44q-11 -1 -32 -1q-79 0 -144 38q-39 22 -59 62.5t-20 86.5q0 61 30.5 105zM550.5 338.5q4.5 -82.5 6.5 -192.5q2 -67 32 -108q29 -38 86 -38h76q70 0 106 56q31 49 31 119q0 37 -13.5 72t-38.5 62q-23 -25 -43 -69
q30 -34 61 -82q-22 -35 -40 -47.5t-55 -12.5h-66q-42 0 -63 24q-16 19 -18 56l-10 390h-11q-3 -4 -21.5 -29.5t-33.5 -50.5q10 -67 14.5 -149.5zM804 -172q31 7 58 7q13 0 39 -2l32 -1q21 0 37.5 5t34.5 18q32 22 53 59q23 41 32.5 90.5t9.5 91.5q0 44 -9 75.5t-24 58.5
t-29 41q-25 -29 -49 -72q24 -22 45 -56q11 -18 17 -35t6 -38q0 -53 -40 -93q-29 -29 -92 -65l-130 -71zM259.5 45.5q-29.5 48.5 -79.5 48.5q-26 0 -43 -22t-17 -52q0 -28 19.5 -53t59.5 -38q24 -8 46.5 -10.5t36.5 -2.5h17q-10 81 -39.5 129.5zM676 -142q28 25 44 44
q24 -20 43 -44q33 30 52 52q-9 14 -24.5 29.5t-31.5 25.5q-11 -13 -41 -43q-27 31 -46 43q-14 -15 -52 -53q30 -24 56 -54z" />
    <glyph glyph-name="uniFE82" unicode="&#x622;" horiz-adv-x="262" arabic-form="final" 
d="M262 0h-73q-57 0 -86 38q-29 39 -32 108q-2 52 -8.5 143t-12.5 130q15 25 33.5 50.5t21.5 29.5h11l10 -321q2 -37 18 -56q21 -24 63 -24h55v-98zM280 588q-7 -7 -27 -19q-23 -15 -57 -25t-73 -10q-33 0 -77 12q-28 7 -44 7q-19 0 -33 -8t-27 -25q-5 3 -8 8q21 87 75 87
q19 0 67 -14q32 -10 57.5 -15.5t54.5 -5.5q43 0 87 15q3 -3 5 -7z" />
    <glyph glyph-name="uniFE84" unicode="&#x623;" horiz-adv-x="262" arabic-form="final" 
d="M262 0h-73q-57 0 -86 38q-29 39 -32 108q-2 52 -8.5 143t-12.5 130q15 25 33.5 50.5t21.5 29.5h11l10 -321q2 -37 18 -56q21 -24 63 -24h55v-98zM163 564q-35 -4 -72 -16q-43 -14 -84 -39q-3 0 -4.5 2.5t-1.5 5.5q0 4 4 8q15 14 31 24t41 20q-56 8 -56 43q0 6 4 11
q17 25 31 36q27 23 60 23q19 0 29.5 -8.5t11.5 -17.5l-5 -7q-12 5 -32 5q-17 0 -31 -5t-32 -16q0 -17 8 -24t28 -13q15 -4 34 -4q9 0 27 2l26 5q-11 -25 -17 -35z" />
    <glyph glyph-name="uniFE86" unicode="&#x624;" horiz-adv-x="405" arabic-form="final" 
d="M405 0h-116q0 -39 -10.5 -95t-35.5 -102q-23 -41 -53 -61q-33 -21 -73 -21q-9 0 -31 2q-26 2 -37 2q-25 0 -60 -8l-9 13l47 25q20 11 42.5 23t40.5 22q41 24 69 50q49 46 65 112q5 20 5 38h-52q-64 0 -88 35q-20 28 -20 82q0 24 4 41t14 39q13 27 32.5 44t43.5 17
q26 0 47 -18t35 -48q10 -21 16 -46.5t6 -47.5h118v-98zM208.5 175.5q-14.5 10.5 -33.5 10.5q-23 0 -38.5 -13t-15.5 -31q0 -26 17 -35t48 -9h58q0 22 -13 50q-8 17 -22.5 27.5zM246 363q-35 -4 -72 -16q-43 -14 -84 -39q-3 0 -4.5 2.5t-1.5 5.5q0 4 4 8q15 14 31 24t41 20
q-56 8 -56 43q0 6 4 11q17 25 31 36q27 23 60 23q19 0 29.5 -8.5t11.5 -17.5l-5 -7q-12 5 -32 5q-17 0 -31 -5t-32 -16q0 -17 8 -24t28 -13q15 -4 34 -4q9 0 27 2l26 5q-11 -25 -17 -35z" />
    <glyph glyph-name="uniFE88" unicode="&#x625;" horiz-adv-x="262" arabic-form="final" 
d="M262 0h-73q-57 0 -86 38q-30 41 -32 108q-2 110 -6.5 192.5t-14.5 149.5q15 25 33.5 50.5t21.5 29.5h11l10 -390q2 -37 18 -56q21 -24 63 -24h55v-98zM165 -174q-35 -4 -72 -16q-43 -14 -84 -39q-3 0 -4.5 2.5t-1.5 5.5q0 4 4 8q15 14 31 24t41 20q-56 8 -56 43q0 6 4 11
q17 25 31 36q27 23 60 23q19 0 29.5 -8.5t11.5 -17.5l-5 -7q-12 5 -32 5q-17 0 -31 -5t-32 -16q0 -17 8 -24t28 -13q15 -4 34 -4q9 0 27 2l26 5q-11 -25 -17 -35z" />
    <glyph glyph-name="uniFE8A" unicode="&#x626;" horiz-adv-x="680" arabic-form="final" 
d="M680 0h-117q26 -19 26 -58q0 -37 -22 -79q-15 -29 -43.5 -55t-66.5 -45q-39 -22 -84 -33t-90 -11q-84 0 -136 33q-44 25 -64 73q-13 29 -13 67q0 30 8 70.5t22 73.5l19 -7q-8 -40 -8 -71q0 -45 21 -72q44 -54 160 -54q77 0 155 29q43 15 69.5 33.5t26.5 34.5q0 34 -69 57
q-24 8 -52 13q29 61 60 99h198v-98zM335 96q-35 -4 -72 -16q-43 -14 -84 -39q-3 0 -4.5 2.5t-1.5 5.5q0 4 4 8q15 14 31 24t41 20q-56 8 -56 43q0 6 4 11q17 25 31 36q27 23 60 23q19 0 29.5 -8.5t11.5 -17.5l-5 -7q-12 5 -32 5q-17 0 -31 -5t-32 -16q0 -17 8 -24t28 -13
q15 -4 34 -4q9 0 27 2l26 5q-11 -25 -17 -35z" />
    <glyph glyph-name="uniFE8B" unicode="&#x626;" horiz-adv-x="223" arabic-form="initial" 
d="M149.5 237q13.5 -35 13.5 -72q0 -60 -31 -109q-36 -56 -106 -56h-47q-21 0 -35 14.5t-14 35.5t13.5 34.5t35.5 13.5h55q34 0 55 13.5t30.5 28.5t9.5 18l-61 72q20 44 43 69q25 -27 38.5 -62zM64 358q-35 -4 -72 -16q-43 -14 -84 -39q-3 0 -4.5 2.5t-1.5 5.5q0 4 4 8
q15 14 31 24t41 20q-56 8 -56 43q0 6 4 11q17 25 31 36q27 23 60 23q19 0 29.5 -8.5t11.5 -17.5l-5 -7q-12 5 -32 5q-17 0 -31 -5t-32 -16q0 -17 8 -24t28 -13q15 -4 34 -4q9 0 27 2l26 5q-11 -25 -17 -35z" />
    <glyph glyph-name="uniFE8C" unicode="&#x626;" horiz-adv-x="301" arabic-form="medial" 
d="M171 125q24 -27 76 -27h54v-98h-40q-55 0 -84 33q-18 21 -21 43q-1 -2 -5 -15t-20 -30q-29 -31 -76 -31h-76q-20 0 -34.5 14.5t-14.5 35.5q0 20 14.5 34t34.5 14h57q50 0 70.5 20t24.5 65l22 12q-3 -46 18 -70zM97 273q-35 -4 -72 -16q-43 -14 -84 -39q-3 0 -4.5 2.5
t-1.5 5.5q0 4 4 8q15 14 31 24t41 20q-56 8 -56 43q0 6 4 11q17 25 31 36q27 23 60 23q19 0 29.5 -8.5t11.5 -17.5l-5 -7q-12 5 -32 5q-17 0 -31 -5t-32 -16q0 -17 8 -24t28 -13q15 -4 34 -4q9 0 27 2l26 5q-11 -25 -17 -35z" />
    <glyph glyph-name="uniFE8E" unicode="&#x627;" horiz-adv-x="262" arabic-form="final" 
d="M262 0h-73q-57 0 -86 38q-30 41 -32 108q-2 110 -6.5 192.5t-14.5 149.5q15 25 33.5 50.5t21.5 29.5h11l10 -390q2 -37 18 -56q21 -24 63 -24h55v-98z" />
    <glyph glyph-name="uniFE90" unicode="&#x628;" horiz-adv-x="893" arabic-form="final" 
d="M777 184l-24 -31q4 -17 25 -36t73 -19h42v-98h-45q-73 0 -105 41q-19 23 -24 57q-20 -28 -49 -46q-50 -33 -123 -45.5t-167 -12.5q-93 0 -147 9q-104 17 -142 84q-21 38 -21 92q0 21 4 49l19 -8q9 -45 31 -70.5t68 -39.5q39 -12 93 -15.5t163 -3.5q45 0 106 8q60 8 99 23
t59.5 30t41.5 37zM446.5 -82q15.5 -15 24.5 -28q-20 -22 -52 -52q-27 32 -55 54q26 24 51 53q16 -12 31.5 -27z" />
    <glyph glyph-name="uniFE91" unicode="&#x628;" horiz-adv-x="223" arabic-form="initial" 
d="M149.5 237q13.5 -35 13.5 -72q0 -60 -31 -109q-36 -56 -106 -56h-47q-21 0 -35 14.5t-14 35.5t13.5 34.5t35.5 13.5h55q34 0 55 13.5t30.5 28.5t9.5 18l-61 72q20 44 43 69q25 -27 38.5 -62zM42.5 -72q15.5 -15 24.5 -28q-20 -22 -52 -52q-27 32 -55 54q26 24 51 53
q16 -12 31.5 -27z" />
    <glyph glyph-name="uniFE92" unicode="&#x628;" horiz-adv-x="301" arabic-form="medial" 
d="M171 125q24 -27 76 -27h54v-98h-40q-55 0 -84 33q-18 21 -21 43q-1 -2 -5 -15t-20 -30q-29 -31 -76 -31h-76q-20 0 -34.5 14.5t-14.5 35.5q0 20 14.5 34t34.5 14h57q50 0 70.5 20t24.5 65l22 12q-3 -46 18 -70zM45.5 -72q15.5 -15 24.5 -28q-20 -22 -52 -52
q-27 32 -55 54q26 24 51 53q16 -12 31.5 -27z" />
    <glyph glyph-name="uniFE94" unicode="&#x629;" horiz-adv-x="433" arabic-form="final" 
d="M433 0h-42q-61 0 -93 48q-13 19 -23 45.5t-20 64.5q-19 -54 -55 -90q-26 -4 -44 -4q-29 0 -50 6q-40 11 -35 45l10 60q5 28 49 54q24 14 45.5 19.5t48.5 8.5l-13 36q17 22 47 43q16 -51 31 -94l11 -32q18 -51 26 -70q11 -24 25.5 -33t38.5 -9h43v-98zM219.5 155
q13.5 14 24.5 40l-14 44l-14 -29q-32 0 -45 -3q-23 -5 -38 -21t-17 -36l-1 -9h71q20 0 33.5 14zM224.5 424.5q15.5 -15.5 24.5 -29.5q-19 -22 -52 -52q-19 24 -43 44q-16 -19 -44 -44q-26 30 -56 54q38 38 52 53q19 -12 46 -43q30 30 41 43q16 -10 31.5 -25.5z" />
    <glyph glyph-name="uniFE96" unicode="&#x62a;" horiz-adv-x="893" arabic-form="final" 
d="M777 184l-24 -31q4 -17 25 -36t73 -19h42v-98h-45q-73 0 -105 41q-19 23 -24 57q-20 -28 -49 -46q-50 -33 -123 -45.5t-167 -12.5q-93 0 -147 9q-104 17 -142 84q-21 38 -21 92q0 21 4 49l19 -8q9 -45 31 -70.5t68 -39.5q39 -12 93 -15.5t163 -3.5q45 0 106 8q60 8 99 23
t59.5 30t41.5 37zM491.5 299.5q15.5 -15.5 24.5 -29.5q-19 -22 -52 -52q-19 24 -43 44q-16 -19 -44 -44q-26 30 -56 54q38 38 52 53q19 -12 46 -43q30 30 41 43q16 -10 31.5 -25.5z" />
    <glyph glyph-name="uniFE97" unicode="&#x62a;" horiz-adv-x="223" arabic-form="initial" 
d="M149.5 237q13.5 -35 13.5 -72q0 -60 -31 -109q-36 -56 -106 -56h-47q-21 0 -35 14.5t-14 35.5t13.5 34.5t35.5 13.5h55q34 0 55 13.5t30.5 28.5t9.5 18l-61 72q20 44 43 69q25 -27 38.5 -62zM64.5 384.5q15.5 -15.5 24.5 -29.5q-19 -22 -52 -52q-19 24 -43 44
q-16 -19 -44 -44q-26 30 -56 54q38 38 52 53q19 -12 46 -43q30 30 41 43q16 -10 31.5 -25.5z" />
    <glyph glyph-name="uniFE98" unicode="&#x62a;" horiz-adv-x="301" arabic-form="medial" 
d="M171 125q24 -27 76 -27h54v-98h-40q-55 0 -84 33q-18 21 -21 43q-1 -2 -5 -15t-20 -30q-29 -31 -76 -31h-76q-20 0 -34.5 14.5t-14.5 35.5q0 20 14.5 34t34.5 14h57q50 0 70.5 20t24.5 65l22 12q-3 -46 18 -70zM97.5 299.5q15.5 -15.5 24.5 -29.5q-19 -22 -52 -52
q-19 24 -43 44q-16 -19 -44 -44q-26 30 -56 54q38 38 52 53q19 -12 46 -43q30 30 41 43q16 -10 31.5 -25.5z" />
    <glyph glyph-name="uniFE9A" unicode="&#x62b;" horiz-adv-x="893" arabic-form="final" 
d="M777 184l-24 -31q4 -17 25 -36t73 -19h42v-98h-45q-73 0 -105 41q-19 23 -24 57q-20 -28 -49 -46q-50 -33 -123 -45.5t-167 -12.5q-93 0 -147 9q-104 17 -142 84q-21 38 -21 92q0 21 4 49l19 -8q9 -45 31 -70.5t68 -39.5q39 -12 93 -15.5t163 -3.5q45 0 106 8q60 8 99 23
t59.5 30t41.5 37zM365 379q31 29 52 53q15 -10 30.5 -25.5t24.5 -29.5q-24 -28 -52 -52q-27 32 -55 54zM491.5 299.5q15.5 -15.5 24.5 -29.5q-19 -22 -52 -52q-19 24 -43 44q-16 -19 -44 -44q-26 30 -56 54q38 38 52 53q22 -15 46 -43q30 30 41 43q16 -10 31.5 -25.5z" />
    <glyph glyph-name="uniFE9B" unicode="&#x62b;" horiz-adv-x="223" arabic-form="initial" 
d="M149.5 237q13.5 -35 13.5 -72q0 -60 -31 -109q-36 -56 -106 -56h-47q-21 0 -35 14.5t-14 35.5t13.5 34.5t35.5 13.5h55q34 0 55 13.5t30.5 28.5t9.5 18l-61 72q20 44 43 69q25 -27 38.5 -62zM-62 464q31 29 52 53q15 -10 30.5 -25.5t24.5 -29.5q-24 -28 -52 -52
q-27 32 -55 54zM64.5 384.5q15.5 -15.5 24.5 -29.5q-19 -22 -52 -52q-19 24 -43 44q-16 -19 -44 -44q-26 30 -56 54q38 38 52 53q22 -15 46 -43q30 30 41 43q16 -10 31.5 -25.5z" />
    <glyph glyph-name="uniFE9C" unicode="&#x62b;" horiz-adv-x="301" arabic-form="medial" 
d="M171 125q24 -27 76 -27h54v-98h-40q-55 0 -84 33q-18 21 -21 43q-1 -2 -5 -15t-20 -30q-29 -31 -76 -31h-76q-20 0 -34.5 14.5t-14.5 35.5q0 20 14.5 34t34.5 14h57q50 0 70.5 20t24.5 65l22 12q-3 -46 18 -70zM-29 379q31 29 52 53q15 -10 30.5 -25.5t24.5 -29.5
q-24 -28 -52 -52q-27 32 -55 54zM97.5 299.5q15.5 -15.5 24.5 -29.5q-19 -22 -52 -52q-19 24 -43 44q-16 -19 -44 -44q-26 30 -56 54q38 38 52 53q22 -15 46 -43q30 30 41 43q16 -10 31.5 -25.5z" />
    <glyph glyph-name="uniFE9E" unicode="&#x62c;" horiz-adv-x="651" arabic-form="final" 
d="M651 0h-88q-46 0 -76 16.5t-50 47.5q-18 28 -18 72q0 13 4 53q-56 0 -111 -18.5t-97 -52.5q-87 -69 -87 -161q0 -63 40 -109q23 -27 58.5 -45t77.5 -26q45 -7 98 -10q40 -2 82 -8l-5 -15q-30 -1 -51 -8t-44 -20t-43.5 -19.5t-51.5 -6.5q-49 0 -90.5 17.5t-70.5 48.5
q-28 31 -42.5 72t-14.5 89q0 42 10 82.5t29 72.5q36 64 94 102q45 31 107 46q-4 2 -39 15.5t-78 13.5q-60 0 -85 -43l-16 11q15 34 26.5 51.5t24.5 29.5q22 21 57 21q17 0 31 -3.5t40 -11.5q35 -11 93.5 -22.5t128.5 -11.5h24q-1 -3 -8.5 -29t-15.5 -45q-10 2 -24 2l-14 -1
l-1 -12q0 -33 25 -56q33 -31 94 -31h77v-98zM327.5 10q15.5 -15 24.5 -28q-20 -22 -52 -52q-27 32 -55 54q26 24 51 53q16 -12 31.5 -27z" />
    <glyph glyph-name="uniFE9F" unicode="&#x62c;" horiz-adv-x="557" arabic-form="initial" 
d="M453 139q-59 -1 -102.5 -18t-98.5 -50q-59 -35 -106 -53t-114 -18h-53q-22 0 -35.5 14.5t-13.5 34.5t14 34.5t35 14.5h48q60 0 113.5 9t88.5 21q31 11 57.5 25.5t26.5 15.5l-31 11q-52 19 -92.5 31t-72.5 12q-22 0 -34.5 -5.5t-19 -14t-20.5 -30.5l-16 11q16 53 44 84
q30 33 71 33q18 0 36.5 -5.5t47.5 -17.5q58 -23 110 -36t128 -13h33q-18 -42 -44 -90zM200.5 -71q15.5 -15 24.5 -28q-20 -22 -52 -52q-27 32 -55 54q26 24 51 53q16 -12 31.5 -27z" />
    <glyph glyph-name="uniFEA0" unicode="&#x62c;" horiz-adv-x="619" arabic-form="medial" 
d="M441 161q-4 1 -15 1q-21 0 -30 -3q4 -34 28.5 -47.5t71.5 -13.5h123v-98h-112q-38 0 -68.5 13t-48.5 38q-15 21 -20.5 45.5t-4.5 57.5q-17 -3 -52 -27l-29 -22q-7 -5 -37 -27t-64 -40q-76 -38 -152 -38h-52q-21 0 -35 14.5t-14 34.5t14.5 34.5t34.5 14.5h47q110 0 203 41
q33 15 49 25.5t33 26.5q-5 2 -70 27t-127 25q-26 0 -38 -8.5t-20.5 -21.5t-12.5 -19l-16 11q16 53 44 84q30 33 72 33q17 0 34 -5t48 -16l19 -7q45 -18 88 -28t108 -10l45 1q-24 -59 -44 -96zM181.5 -72q15.5 -15 24.5 -28q-20 -22 -52 -52q-27 32 -55 54q26 24 51 53
q16 -12 31.5 -27z" />
    <glyph glyph-name="uniFEA2" unicode="&#x62d;" horiz-adv-x="651" arabic-form="final" 
d="M651 0h-88q-46 0 -76 16.5t-50 47.5q-18 28 -18 72q0 13 4 53q-56 0 -111 -18.5t-97 -52.5q-87 -69 -87 -161q0 -63 40 -109q23 -27 58.5 -45t77.5 -26q45 -7 98 -10q40 -2 82 -8l-5 -15q-30 -1 -51 -8t-44 -20t-43.5 -19.5t-51.5 -6.5q-49 0 -90.5 17.5t-70.5 48.5
q-28 31 -42.5 72t-14.5 89q0 42 10 82.5t29 72.5q36 64 94 102q45 31 107 46q-4 2 -39 15.5t-78 13.5q-60 0 -85 -43l-16 11q15 34 26.5 51.5t24.5 29.5q22 21 57 21q17 0 31 -3.5t40 -11.5q35 -11 93.5 -22.5t128.5 -11.5h24q-1 -3 -8.5 -29t-15.5 -45q-10 2 -24 2l-14 -1
l-1 -12q0 -33 25 -56q33 -31 94 -31h77v-98z" />
    <glyph glyph-name="uniFEA3" unicode="&#x62d;" horiz-adv-x="557" arabic-form="initial" 
d="M453 139q-59 -1 -102.5 -18t-98.5 -50q-59 -35 -106 -53t-114 -18h-53q-22 0 -35.5 14.5t-13.5 34.5t14 34.5t35 14.5h48q60 0 113.5 9t88.5 21q31 11 57.5 25.5t26.5 15.5l-31 11q-52 19 -92.5 31t-72.5 12q-22 0 -34.5 -5.5t-19 -14t-20.5 -30.5l-16 11q16 53 44 84
q30 33 71 33q18 0 36.5 -5.5t47.5 -17.5q58 -23 110 -36t128 -13h33q-18 -42 -44 -90z" />
    <glyph glyph-name="uniFEA4" unicode="&#x62d;" horiz-adv-x="619" arabic-form="medial" 
d="M441 161q-4 1 -15 1q-21 0 -30 -3q4 -34 28.5 -47.5t71.5 -13.5h123v-98h-112q-38 0 -68.5 13t-48.5 38q-15 21 -20.5 45.5t-4.5 57.5q-17 -3 -52 -27l-29 -22q-7 -5 -37 -27t-64 -40q-76 -38 -152 -38h-52q-21 0 -35 14.5t-14 34.5t14.5 34.5t34.5 14.5h47q110 0 203 41
q33 15 49 25.5t33 26.5q-5 2 -70 27t-127 25q-26 0 -38 -8.5t-20.5 -21.5t-12.5 -19l-16 11q16 53 44 84q30 33 72 33q17 0 34 -5t48 -16l19 -7q45 -18 88 -28t108 -10l45 1q-24 -59 -44 -96z" />
    <glyph glyph-name="uniFEA6" unicode="&#x62e;" horiz-adv-x="651" arabic-form="final" 
d="M651 0h-88q-46 0 -76 16.5t-50 47.5q-18 28 -18 72q0 13 4 53q-56 0 -111 -18.5t-97 -52.5q-87 -69 -87 -161q0 -63 40 -109q23 -27 58.5 -45t77.5 -26q45 -7 98 -10q40 -2 82 -8l-5 -15q-30 -1 -51 -8t-44 -20t-43.5 -19.5t-51.5 -6.5q-49 0 -90.5 17.5t-70.5 48.5
q-28 31 -42.5 72t-14.5 89q0 42 10 82.5t29 72.5q36 64 94 102q45 31 107 46q-4 2 -39 15.5t-78 13.5q-60 0 -85 -43l-16 11q15 34 26.5 51.5t24.5 29.5q22 21 57 21q17 0 31 -3.5t40 -11.5q35 -11 93.5 -22.5t128.5 -11.5h24q-1 -3 -8.5 -29t-15.5 -45q-10 2 -24 2l-14 -1
l-1 -12q0 -33 25 -56q33 -31 94 -31h77v-98zM299.5 449q15.5 -15 24.5 -28q-20 -22 -52 -52q-27 32 -55 54q26 24 51 53q16 -12 31.5 -27z" />
    <glyph glyph-name="uniFEA7" unicode="&#x62e;" horiz-adv-x="557" arabic-form="initial" 
d="M453 139q-59 -1 -102.5 -18t-98.5 -50q-59 -35 -106 -53t-114 -18h-53q-22 0 -35.5 14.5t-13.5 34.5t14 34.5t35 14.5h48q60 0 113.5 9t88.5 21q31 11 57.5 25.5t26.5 15.5l-31 11q-52 19 -92.5 31t-72.5 12q-22 0 -34.5 -5.5t-19 -14t-20.5 -30.5l-16 11q16 53 44 84
q30 33 71 33q18 0 36.5 -5.5t47.5 -17.5q58 -23 110 -36t128 -13h33q-18 -42 -44 -90zM190.5 431q15.5 -15 24.5 -28q-20 -22 -52 -52q-27 32 -55 54q26 24 51 53q16 -12 31.5 -27z" />
    <glyph glyph-name="uniFEA8" unicode="&#x62e;" horiz-adv-x="619" arabic-form="medial" 
d="M441 161q-4 1 -15 1q-21 0 -30 -3q4 -34 28.5 -47.5t71.5 -13.5h123v-98h-112q-38 0 -68.5 13t-48.5 38q-15 21 -20.5 45.5t-4.5 57.5q-17 -3 -52 -27l-29 -22q-7 -5 -37 -27t-64 -40q-76 -38 -152 -38h-52q-21 0 -35 14.5t-14 34.5t14.5 34.5t34.5 14.5h47q110 0 203 41
q33 15 49 25.5t33 26.5q-5 2 -70 27t-127 25q-26 0 -38 -8.5t-20.5 -21.5t-12.5 -19l-16 11q16 53 44 84q30 33 72 33q17 0 34 -5t48 -16l19 -7q45 -18 88 -28t108 -10l45 1q-24 -59 -44 -96zM191.5 452q15.5 -15 24.5 -28q-20 -22 -52 -52q-27 32 -55 54q26 24 51 53
q16 -12 31.5 -27z" />
    <glyph glyph-name="uniFEAA" unicode="&#x62f;" horiz-adv-x="503" arabic-form="final" 
d="M358 203q18 -57 44 -81t69 -24h31v-98h-32q-62 0 -97 33q-19 17 -28.5 35t-17.5 48q-5 -25 -16 -49.5t-44.5 -48t-95.5 -23.5q-73 0 -107 40q-25 33 -25 85q0 18 5 46l17 4q3 -31 21 -51q25 -27 76 -27h34q50 0 74 32t29 74l-34 121q21 29 47 55z" />
    <glyph glyph-name="uniFEAC" unicode="&#x630;" horiz-adv-x="503" arabic-form="final" 
d="M358 203q18 -57 44 -81t69 -24h31v-98h-32q-62 0 -97 33q-19 17 -28.5 35t-17.5 48q-5 -25 -16 -49.5t-44.5 -48t-95.5 -23.5q-73 0 -107 40q-25 33 -25 85q0 18 5 46l17 4q3 -31 21 -51q25 -27 76 -27h34q50 0 74 32t29 74l-34 121q21 29 47 55zM278.5 484
q15.5 -15 24.5 -28q-20 -22 -52 -52q-27 32 -55 54q26 24 51 53q16 -12 31.5 -27z" />
    <glyph glyph-name="uniFEAE" unicode="&#x631;" horiz-adv-x="375" arabic-form="final" 
d="M217 124q16 -12 38.5 -19t40.5 -7h79v-98h-66q-19 0 -33.5 4t-22 8.5t-9.5 6.5q1 -3 2 -14t1 -27q0 -75 -29 -140q-23 -52 -57 -85q-18 -17 -36 -25t-46 -8q-10 0 -38 2q-26 2 -38 2q-26 0 -54 -8l-9 13l34 18q72 39 115 65t71 53q42 40 42 94q0 38 -17.5 67.5
t-51.5 60.5q24 45 48 72q23 -25 36 -35z" />
    <glyph glyph-name="uniFEB0" unicode="&#x632;" horiz-adv-x="375" arabic-form="final" 
d="M217 124q16 -12 38.5 -19t40.5 -7h79v-98h-66q-19 0 -33.5 4t-22 8.5t-9.5 6.5q1 -3 2 -14t1 -27q0 -75 -29 -140q-23 -52 -57 -85q-18 -17 -36 -25t-46 -8q-10 0 -38 2q-26 2 -38 2q-26 0 -54 -8l-9 13l34 18q72 39 115 65t71 53q42 40 42 94q0 38 -17.5 67.5
t-51.5 60.5q24 45 48 72q23 -25 36 -35zM179.5 298q15.5 -15 24.5 -28q-20 -22 -52 -52q-27 32 -55 54q26 24 51 53q16 -12 31.5 -27z" />
    <glyph glyph-name="uniFEB2" unicode="&#x633;" horiz-adv-x="919" arabic-form="final" 
d="M919 0h-43q-47 0 -68 23.5t-24 51.5q-12 -75 -72 -75q-33 0 -51.5 21t-21.5 54q-20 -73 -83 -73q-19 0 -32 5q4 -29 4 -57q0 -54 -17.5 -100t-50.5 -76q-30 -28 -76 -43q-45 -15 -100 -15q-76 0 -128 28t-72 78q-14 34 -14 72q0 23 7.5 58t22.5 71l19 -7q-7 -42 -7 -65
q0 -41 20 -66q21 -26 62 -41t98 -15q83 0 139 32q27 15 42 34.5t15 40.5q0 31 -29 80.5t-47 73.5q15 30 47 68q17 -23 43 -43t59 -20q37 0 53.5 26t18.5 57l22 12q-2 -12 -2 -24q0 -29 12.5 -50t45.5 -21q62 0 67 83l22 12q-1 -7 -1 -23q0 -30 15 -48q20 -21 59 -21h46v-98z
" />
    <glyph glyph-name="uniFEB3" unicode="&#x633;" horiz-adv-x="530" arabic-form="initial" 
d="M458 215q12 -31 12 -76q0 -12 -7 -40.5t-23 -51.5q-28 -39 -74 -39q-43 0 -64 20.5t-23 46.5q-7 -30 -30 -52.5t-62 -22.5q-36 0 -55.5 22t-23.5 54q0 -4 -4.5 -18.5t-15.5 -27.5q-26 -30 -70 -30h-38q-22 0 -36 14.5t-14 33.5q0 20 15 35t35 15h45q43 0 65 33
q8 13 11 27t4 20l22 12q-3 -24 -2 -38q3 -26 18.5 -42t53.5 -16q55 0 71 55q3 9 5 29l22 12q-2 -14 -2 -23q0 -34 16 -51q19 -22 59 -22q28 0 42.5 11t25.5 42l-44 61q17 31 40 54q14 -16 26 -47z" />
    <glyph glyph-name="uniFEB4" unicode="&#x633;" horiz-adv-x="549" arabic-form="medial" 
d="M549 0h-38q-42 0 -64 21t-22 54q-15 -77 -79 -77q-32 0 -50.5 23.5t-16.5 53.5q-9 -33 -31 -55t-61 -22q-38 0 -59 23t-20 54q-6 -34 -28 -54.5t-62 -20.5h-38q-21 0 -35.5 13.5t-14.5 34.5q0 20 15 35t35 15h45q43 0 65 33q8 13 11 27t4 20l22 12q-3 -24 -2 -38
q3 -26 18.5 -42t53.5 -16t57 26q17 22 19 58l22 12q-2 -15 -1 -30q2 -65 60 -65q36 0 51 31q11 19 13 52l22 12q-1 -7 -1 -23q0 -29 15 -47q19 -22 59 -22h36v-98z" />
    <glyph glyph-name="uniFEB6" unicode="&#x634;" horiz-adv-x="919" arabic-form="final" 
d="M919 0h-43q-47 0 -68 23.5t-24 51.5q-12 -75 -72 -75q-33 0 -51.5 21t-21.5 54q-20 -73 -83 -73q-19 0 -32 5q4 -29 4 -57q0 -54 -17.5 -100t-50.5 -76q-30 -28 -76 -43q-45 -15 -100 -15q-76 0 -128 28t-72 78q-14 34 -14 72q0 23 7.5 58t22.5 71l19 -7q-7 -42 -7 -65
q0 -41 20 -66q21 -26 62 -41t98 -15q83 0 139 32q27 15 42 34.5t15 40.5q0 31 -29 80.5t-47 73.5q15 30 47 68q17 -23 43 -43t59 -20q37 0 53.5 26t18.5 57l22 12q-2 -12 -2 -24q0 -29 12.5 -50t45.5 -21q62 0 67 83l22 12q-1 -7 -1 -23q0 -30 15 -48q20 -21 59 -21h46v-98z
M586 409q31 29 52 53q15 -10 30.5 -25.5t24.5 -29.5q-24 -28 -52 -52q-27 32 -55 54zM712.5 329.5q15.5 -15.5 24.5 -29.5q-19 -22 -52 -52q-19 24 -43 44q-16 -19 -44 -44q-26 30 -56 54q38 38 52 53q22 -15 46 -43q30 30 41 43q16 -10 31.5 -25.5z" />
    <glyph glyph-name="uniFEB7" unicode="&#x634;" horiz-adv-x="530" arabic-form="initial" 
d="M458 215q12 -31 12 -76q0 -12 -7 -40.5t-23 -51.5q-28 -39 -74 -39q-43 0 -64 20.5t-23 46.5q-7 -30 -30 -52.5t-62 -22.5q-36 0 -55.5 22t-23.5 54q0 -4 -4.5 -18.5t-15.5 -27.5q-26 -30 -70 -30h-38q-22 0 -36 14.5t-14 33.5q0 20 15 35t35 15h45q43 0 65 33
q8 13 11 27t4 20l22 12q-3 -24 -2 -38q3 -26 18.5 -42t53.5 -16q55 0 71 55q3 9 5 29l22 12q-2 -14 -2 -23q0 -34 16 -51q19 -22 59 -22q28 0 42.5 11t25.5 42l-44 61q17 31 40 54q14 -16 26 -47zM226 409q31 29 52 53q15 -10 30.5 -25.5t24.5 -29.5q-24 -28 -52 -52
q-27 32 -55 54zM352.5 329.5q15.5 -15.5 24.5 -29.5q-19 -22 -52 -52q-19 24 -43 44q-16 -19 -44 -44q-26 30 -56 54q38 38 52 53q22 -15 46 -43q30 30 41 43q16 -10 31.5 -25.5z" />
    <glyph glyph-name="uniFEB8" unicode="&#x634;" horiz-adv-x="549" arabic-form="medial" 
d="M549 0h-38q-42 0 -64 21t-22 54q-15 -77 -79 -77q-32 0 -50.5 23.5t-16.5 53.5q-9 -33 -31 -55t-61 -22q-38 0 -59 23t-20 54q-6 -34 -28 -54.5t-62 -20.5h-38q-21 0 -35.5 13.5t-14.5 34.5q0 20 15 35t35 15h45q43 0 65 33q8 13 11 27t4 20l22 12q-3 -24 -2 -38
q3 -26 18.5 -42t53.5 -16t57 26q17 22 19 58l22 12q-2 -15 -1 -30q2 -65 60 -65q36 0 51 31q11 19 13 52l22 12q-1 -7 -1 -23q0 -29 15 -47q19 -22 59 -22h36v-98zM226 410q31 29 52 53q15 -10 30.5 -25.5t24.5 -29.5q-24 -28 -52 -52q-27 32 -55 54zM352.5 330.5
q15.5 -15.5 24.5 -29.5q-19 -22 -52 -52q-19 24 -43 44q-16 -19 -44 -44q-26 30 -56 54q38 38 52 53q22 -15 46 -43q30 30 41 43q16 -10 31.5 -25.5z" />
    <glyph glyph-name="uniFEBA" unicode="&#x635;" horiz-adv-x="1072" arabic-form="final" 
d="M1072 0h-110l-79 1l-153 2h-56q-25 0 -37.5 0.5t2.5 0.5q-56 0 -79 7q-17 5 -38 19q10 -54 10 -90q0 -43 -19.5 -91.5t-62.5 -82.5q-63 -50 -166 -50q-76 0 -128 28t-72 78q-14 34 -14 72q0 23 7.5 58t22.5 71l19 -7q-7 -42 -7 -65q0 -41 20 -66q21 -26 62 -41t98 -15
q83 0 139 32q28 16 42.5 35.5t14.5 40.5q0 49 -76 153q16 34 48 69q27 -33 51 -45.5t60 -15.5q50 76 91 120q98 103 172 103q14 0 32.5 -7.5t34.5 -19.5q21 -17 29 -33.5t8 -29.5q0 -43 -26 -86q-25 -40 -67 -72q71 25 123 25h104v-98zM867 208q-12 15 -32.5 26.5
t-41.5 11.5q-27 0 -47.5 -9t-33 -20t-35.5 -34q-29 -28 -70 -85h115q56 0 99 19q23 10 35 19t30 29q-6 24 -19 43z" />
    <glyph glyph-name="uniFEBB" unicode="&#x635;" horiz-adv-x="608" arabic-form="initial" 
d="M541 187q-7 -22 -19 -42q-23 -39 -67 -73q-40 -31 -91 -49.5t-97 -18.5q-26 0 -47.5 1t-37.5 4l-8 -26h-28l8 34q-37 11 -49 51q-14 -68 -89 -68h-38q-26 0 -37 14.5t-11 33.5q0 22 14 36t34 14h39q23 0 38 8.5t27 25.5q9 12 13 24.5t6 30.5l22 12q-2 -11 -2 -29
q0 -31 16 -48q18 -21 44 -24q11 18 35.5 52.5t55.5 67.5q37 39 82.5 71t84.5 32q18 0 38 -7.5t35 -19.5q20 -15 28 -33.5t8 -35.5q0 -16 -7 -38zM487 190.5q-4 8.5 -11 17.5q-33 38 -77 38q-27 0 -53.5 -15t-59.5 -48q-33 -34 -69 -85h115q53 0 96 18q24 10 38.5 21t29.5 28
q-5 17 -9 25.5z" />
    <glyph glyph-name="uniFEBC" unicode="&#x635;" horiz-adv-x="688" arabic-form="medial" 
d="M688 0h-116l-79 1l-226 3q-26 0 -47.5 1t-37.5 4l-8 -26h-28l8 34q-21 7 -32.5 19t-16.5 32q-7 -35 -29 -51.5t-60 -16.5h-38q-21 0 -34.5 13.5t-13.5 34.5t14 35.5t34 14.5h39q23 0 38 8.5t27 25.5q9 12 13 24.5t6 30.5l21 12q-2 -18 -2 -28q0 -31 16 -49q19 -22 45 -24
q5 10 31 46.5t60 73.5q43 47 85 73q46 29 82 29q20 0 39.5 -7t33.5 -18q22 -17 29 -38t7 -35q0 -27 -18 -61.5t-37 -54.5q-23 -23 -37 -33q23 8 57.5 16.5t64.5 8.5h110v-98zM461 226.5q-25 19.5 -60 19.5q-33 0 -59 -17t-55 -46q-31 -31 -50.5 -57t-19.5 -28h115
q37 0 79 11q75 19 75 67q0 31 -25 50.5z" />
    <glyph glyph-name="uniFEBE" unicode="&#x636;" horiz-adv-x="1072" arabic-form="final" 
d="M1072 0h-110l-79 1l-153 2h-56q-25 0 -37.5 0.5t2.5 0.5q-56 0 -79 7q-17 5 -38 19q10 -54 10 -90q0 -43 -19.5 -91.5t-62.5 -82.5q-63 -50 -166 -50q-76 0 -128 28t-72 78q-14 34 -14 72q0 23 7.5 58t22.5 71l19 -7q-7 -42 -7 -65q0 -41 20 -66q21 -26 62 -41t98 -15
q83 0 139 32q28 16 42.5 35.5t14.5 40.5q0 49 -76 153q16 34 48 69q27 -33 51 -45.5t60 -15.5q50 76 91 120q98 103 172 103q14 0 32.5 -7.5t34.5 -19.5q21 -17 29 -33.5t8 -29.5q0 -43 -26 -86q-25 -40 -67 -72q71 25 123 25h104v-98zM867 208q-12 15 -32.5 26.5
t-41.5 11.5q-27 0 -47.5 -9t-33 -20t-35.5 -34q-29 -28 -70 -85h115q56 0 99 19q23 10 35 19t30 29q-6 24 -19 43zM842.5 451q15.5 -15 24.5 -28q-20 -22 -52 -52q-27 32 -55 54q26 24 51 53q16 -12 31.5 -27z" />
    <glyph glyph-name="uniFEBF" unicode="&#x636;" horiz-adv-x="608" arabic-form="initial" 
d="M541 187q-7 -22 -19 -42q-23 -39 -67 -73q-40 -31 -91 -49.5t-97 -18.5q-26 0 -47.5 1t-37.5 4l-8 -26h-28l8 34q-37 11 -49 51q-14 -68 -89 -68h-38q-26 0 -37 14.5t-11 33.5q0 22 14 36t34 14h39q23 0 38 8.5t27 25.5q9 12 13 24.5t6 30.5l22 12q-2 -11 -2 -29
q0 -31 16 -48q18 -21 44 -24q11 18 35.5 52.5t55.5 67.5q37 39 82.5 71t84.5 32q18 0 38 -7.5t35 -19.5q20 -15 28 -33.5t8 -35.5q0 -16 -7 -38zM487 190.5q-4 8.5 -11 17.5q-33 38 -77 38q-27 0 -53.5 -15t-59.5 -48q-33 -34 -69 -85h115q53 0 96 18q24 10 38.5 21t29.5 28
q-5 17 -9 25.5zM447.5 451q15.5 -15 24.5 -28q-20 -22 -52 -52q-27 32 -55 54q26 24 51 53q16 -12 31.5 -27z" />
    <glyph glyph-name="uniFEC0" unicode="&#x636;" horiz-adv-x="688" arabic-form="medial" 
d="M688 0h-116l-79 1l-226 3q-26 0 -47.5 1t-37.5 4l-8 -26h-28l8 34q-21 7 -32.5 19t-16.5 32q-7 -35 -29 -51.5t-60 -16.5h-38q-21 0 -34.5 13.5t-13.5 34.5t14 35.5t34 14.5h39q23 0 38 8.5t27 25.5q9 12 13 24.5t6 30.5l21 12q-2 -18 -2 -28q0 -31 16 -49q19 -22 45 -24
q5 10 31 46.5t60 73.5q43 47 85 73q46 29 82 29q20 0 39.5 -7t33.5 -18q22 -17 29 -38t7 -35q0 -27 -18 -61.5t-37 -54.5q-23 -23 -37 -33q23 8 57.5 16.5t64.5 8.5h110v-98zM461 226.5q-25 19.5 -60 19.5q-33 0 -59 -17t-55 -46q-31 -31 -50.5 -57t-19.5 -28h115
q37 0 79 11q75 19 75 67q0 31 -25 50.5zM447.5 450q15.5 -15 24.5 -28q-20 -22 -52 -52q-27 32 -55 54q26 24 51 53q16 -12 31.5 -27z" />
    <glyph glyph-name="uniFEC2" unicode="&#x637;" horiz-adv-x="726" arabic-form="final" 
d="M726 0h-108l-79 1h-76h-175l-52 -1l-75 -3q-47 36 -91 111q26 -3 77.5 -6t68.5 -4l43 53q-4 124 -33 259q-11 52 -23 82l49 76q26 -50 60 -86q-15 -13 -21.5 -28t-6.5 -39l1 -19q9 -66 11 -120q1 -26 0 -47t-3 -32t-3 -14l19 21q51 56 90.5 80t80.5 24q15 0 33 -7.5
t34 -20.5q37 -29 37 -63q0 -39 -20.5 -76t-60.5 -68q21 8 56 16.5t65 8.5h102v-98zM495.5 214q-21.5 15 -59.5 15q-30 0 -65.5 -23.5t-67.5 -56.5q2 2 -31 -34l-15 -17h111q49 0 93 16q23 9 38 20.5t34 30.5q-16 34 -37.5 49z" />
    <glyph glyph-name="uniFEC3" unicode="&#x637;" horiz-adv-x="465" arabic-form="initial" 
d="M382.5 137.5q-22.5 -38.5 -65.5 -69.5q-39 -29 -87 -47t-94 -19q-50 -2 -79 -2h-79q-21 0 -34.5 14t-13.5 35t14 35t34 14h59l43 53q-4 124 -33 259q-11 52 -23 82l49 76q26 -50 60 -86q-15 -13 -21.5 -28t-6.5 -39l1 -19q9 -66 11 -120q1 -26 0 -47t-3 -32t-3 -14l19 21
q51 56 90.5 80t80.5 24q15 0 33 -7.5t34 -20.5q37 -29 37 -63q0 -41 -22.5 -79.5zM316.5 214q-21.5 15 -59.5 15q-30 0 -65.5 -23.5t-67.5 -56.5q2 2 -31 -34l-15 -17h111q49 0 93 16q23 9 38 20.5t34 30.5q-16 34 -37.5 49z" />
    <glyph glyph-name="uniFEC4" unicode="&#x637;" horiz-adv-x="550" arabic-form="medial" 
d="M550 98v-98h-111l-79 1h-76h-175l-94 -1h-37q-19 0 -33.5 14.5t-14.5 34.5q0 21 13.5 35t34.5 14h59l43 53q-4 124 -33 259q-11 52 -23 82l49 76q26 -50 60 -86q-15 -13 -21.5 -28t-6.5 -39l1 -19q9 -66 11 -120q1 -26 0 -47t-3 -32t-3 -14l19 21q51 56 90.5 80t80.5 24
q15 0 33 -7.5t34 -20.5q37 -29 37 -63q0 -39 -20.5 -76t-60.5 -68q21 8 56 16.5t65 8.5h105zM320 134.5q15 11.5 34 30.5q-16 34 -37.5 49t-59.5 15q-30 0 -65.5 -23.5t-67.5 -56.5q2 2 -31 -34l-15 -17h111q49 0 93 16q23 9 38 20.5z" />
    <glyph glyph-name="uniFEC6" unicode="&#x638;" horiz-adv-x="726" arabic-form="final" 
d="M726 0h-108l-79 1h-76h-175l-52 -1l-75 -3q-47 36 -91 111q26 -3 77.5 -6t68.5 -4l43 53q-4 124 -33 259q-11 52 -23 82l49 76q26 -50 60 -86q-15 -13 -21.5 -28t-6.5 -39l1 -19q9 -66 11 -120q1 -26 0 -47t-3 -32t-3 -14l19 21q51 56 90.5 80t80.5 24q15 0 33 -7.5
t34 -20.5q37 -29 37 -63q0 -39 -20.5 -76t-60.5 -68q21 8 56 16.5t65 8.5h102v-98zM495.5 214q-21.5 15 -59.5 15q-30 0 -65.5 -23.5t-67.5 -56.5q2 2 -31 -34l-15 -17h111q49 0 93 16q23 9 38 20.5t34 30.5q-16 34 -37.5 49zM488.5 438q15.5 -15 24.5 -28q-20 -22 -52 -52
q-27 32 -55 54q26 24 51 53q16 -12 31.5 -27z" />
    <glyph glyph-name="uniFEC7" unicode="&#x638;" horiz-adv-x="465" arabic-form="initial" 
d="M382.5 137.5q-22.5 -38.5 -65.5 -69.5q-39 -29 -87 -47t-94 -19q-50 -2 -79 -2h-79q-21 0 -34.5 14t-13.5 35t14 35t34 14h59l43 53q-4 124 -33 259q-11 52 -23 82l49 76q26 -50 60 -86q-15 -13 -21.5 -28t-6.5 -39l1 -19q9 -66 11 -120q1 -26 0 -47t-3 -32t-3 -14l19 21
q51 56 90.5 80t80.5 24q15 0 33 -7.5t34 -20.5q37 -29 37 -63q0 -41 -22.5 -79.5zM316.5 214q-21.5 15 -59.5 15q-30 0 -65.5 -23.5t-67.5 -56.5q2 2 -31 -34l-15 -17h111q49 0 93 16q23 9 38 20.5t34 30.5q-16 34 -37.5 49zM309.5 438q15.5 -15 24.5 -28q-20 -22 -52 -52
q-27 32 -55 54q26 24 51 53q16 -12 31.5 -27z" />
    <glyph glyph-name="uniFEC8" unicode="&#x638;" horiz-adv-x="550" arabic-form="medial" 
d="M550 98v-98h-111l-79 1h-76h-175l-94 -1h-37q-19 0 -33.5 14.5t-14.5 34.5q0 21 13.5 35t34.5 14h59l43 53q-4 124 -33 259q-11 52 -23 82l49 76q26 -50 60 -86q-15 -13 -21.5 -28t-6.5 -39l1 -19q9 -66 11 -120q1 -26 0 -47t-3 -32t-3 -14l19 21q51 56 90.5 80t80.5 24
q15 0 33 -7.5t34 -20.5q37 -29 37 -63q0 -39 -20.5 -76t-60.5 -68q21 8 56 16.5t65 8.5h105zM320 134.5q15 11.5 34 30.5q-16 34 -37.5 49t-59.5 15q-30 0 -65.5 -23.5t-67.5 -56.5q2 2 -31 -34l-15 -17h111q49 0 93 16q23 9 38 20.5zM309.5 438q15.5 -15 24.5 -28
q-20 -22 -52 -52q-27 32 -55 54q26 24 51 53q16 -12 31.5 -27z" />
    <glyph glyph-name="uniFECA" unicode="&#x639;" horiz-adv-x="519" arabic-form="final" 
d="M519 0h-110q-48 0 -80 26q-19 15 -37 39t-22 29q-64 -27 -101 -71q-42 -52 -42 -116q0 -30 9.5 -52.5t29.5 -42.5q45 -45 148 -61q35 -5 88 -8l22 -2q27 -1 60 -6l-5 -16q-26 -1 -44.5 -7.5t-32 -13.5t-18.5 -10q-23 -12 -43.5 -18t-51.5 -6q-52 0 -95 18t-73 51
q-24 27 -37 63.5t-13 78.5q0 90 53 163q30 41 73 68q20 14 41 25q-29 27 -64 34q6 42 18 72q52 26 95 26q47 0 80 -15t33 -46q0 -22 -16.5 -41t-49.5 -43q29 -20 56 -20h129v-98z" />
    <glyph glyph-name="uniFECB" unicode="&#x639;" horiz-adv-x="384" arabic-form="initial" 
d="M292 55q-16 -6 -20.5 -8t-10.5 -4q-52 -20 -95.5 -31.5t-102.5 -11.5h-83q-21 0 -35.5 14.5t-14.5 35.5t14 34.5t36 13.5h74q-16 11 -26.5 31.5t-10.5 40.5q0 28 15 56.5t38 49.5q21 19 49 32.5t52 13.5q25 0 50 -13t43.5 -29t22.5 -23l-20 -18q-41 17 -87 17
q-68 0 -111 -34q6 -33 32.5 -71t60.5 -52q4 0 18.5 1.5t39 6.5t52.5 14l52 16q-15 -48 -32 -82z" />
    <glyph glyph-name="uniFECC" unicode="&#x639;" horiz-adv-x="415" arabic-form="medial" 
d="M415 0h-114q-43 0 -80 26q-15 10 -23.5 20.5t-16.5 26.5q-45 -41 -68 -53q-37 -20 -85 -20h-50q-20 0 -34 14.5t-14 34.5q0 16 13 32.5t35 16.5h88q22 0 37.5 5.5t34.5 17.5q-17 20 -31.5 30t-39.5 14q5 39 17 72q52 26 95 26q47 0 80.5 -15t33.5 -46q0 -19 -15 -37.5
t-31 -31t-21 -15.5q13 -11 25.5 -15.5t30.5 -4.5h133v-98z" />
    <glyph glyph-name="uniFECE" unicode="&#x63a;" horiz-adv-x="519" arabic-form="final" 
d="M519 0h-110q-48 0 -80 26q-19 15 -37 39t-22 29q-64 -27 -101 -71q-42 -52 -42 -116q0 -30 9.5 -52.5t29.5 -42.5q45 -45 148 -61q35 -5 88 -8l22 -2q27 -1 60 -6l-5 -16q-26 -1 -44.5 -7.5t-32 -13.5t-18.5 -10q-23 -12 -43.5 -18t-51.5 -6q-52 0 -95 18t-73 51
q-24 27 -37 63.5t-13 78.5q0 90 53 163q30 41 73 68q20 14 41 25q-29 27 -64 34q6 42 18 72q52 26 95 26q47 0 80 -15t33 -46q0 -22 -16.5 -41t-49.5 -43q29 -20 56 -20h129v-98zM315.5 393q15.5 -15 24.5 -28q-20 -22 -52 -52q-27 32 -55 54q26 24 51 53q16 -12 31.5 -27z
" />
    <glyph glyph-name="uniFECF" unicode="&#x63a;" horiz-adv-x="384" arabic-form="initial" 
d="M292 55q-16 -6 -20.5 -8t-10.5 -4q-52 -20 -95.5 -31.5t-102.5 -11.5h-83q-21 0 -35.5 14.5t-14.5 35.5t14 34.5t36 13.5h74q-16 11 -26.5 31.5t-10.5 40.5q0 28 15 56.5t38 49.5q21 19 49 32.5t52 13.5q25 0 50 -13t43.5 -29t22.5 -23l-20 -18q-41 17 -87 17
q-68 0 -111 -34q6 -33 32.5 -71t60.5 -52q4 0 18.5 1.5t39 6.5t52.5 14l52 16q-15 -48 -32 -82zM199.5 452q15.5 -15 24.5 -28q-20 -22 -52 -52q-27 32 -55 54q26 24 51 53q16 -12 31.5 -27z" />
    <glyph glyph-name="uniFED0" unicode="&#x63a;" horiz-adv-x="415" arabic-form="medial" 
d="M415 0h-114q-43 0 -80 26q-15 10 -23.5 20.5t-16.5 26.5q-45 -41 -68 -53q-37 -20 -85 -20h-50q-20 0 -34 14.5t-14 34.5q0 16 13 32.5t35 16.5h88q22 0 37.5 5.5t34.5 17.5q-17 20 -31.5 30t-39.5 14q5 39 17 72q52 26 95 26q47 0 80.5 -15t33.5 -46q0 -19 -15 -37.5
t-31 -31t-21 -15.5q13 -11 25.5 -15.5t30.5 -4.5h133v-98zM207.5 393q15.5 -15 24.5 -28q-20 -22 -52 -52q-27 32 -55 54q26 24 51 53q16 -12 31.5 -27z" />
    <glyph glyph-name="uniFED2" unicode="&#x641;" horiz-adv-x="946" arabic-form="final" 
d="M946 0h-106q-41 0 -62 16t-26 34q-41 -24 -138 -41q-38 -7 -97 -11.5t-122 -4.5q-91 0 -163 12q-85 15 -123.5 53.5t-38.5 120.5q0 21 1.5 35t1.5 15l18 -7q3 -29 13.5 -48.5t31.5 -33.5q37 -26 114 -37q58 -9 160 -9q70 0 117.5 3.5t69.5 7t27 4.5q-1 2 -5 9t-8 19.5
t-4 26.5q0 23 11 52.5t28 52.5q19 25 41 39t42 14q18 0 34 -10t26 -25q24 -34 24 -89q0 -25 -5 -47.5t-10.5 -36t-7.5 -16.5h25h131v-98zM769 197.5q-9 17.5 -24 31t-32 13.5q-20 0 -36 -16t-25.5 -35.5t-9.5 -21.5t9.5 -15.5t25.5 -25t37 -11.5q19 0 33.5 9.5t22.5 22.5
t8 22t-9 26.5zM757.5 452q15.5 -15 24.5 -28q-20 -22 -52 -52q-27 32 -55 54q26 24 51 53q16 -12 31.5 -27z" />
    <glyph glyph-name="uniFED3" unicode="&#x641;" horiz-adv-x="291" arabic-form="initial" 
d="M196 378q27 -46 33 -109q2 -22 2 -33q0 -51 -14 -99q-19 -65 -60 -99q-28 -23 -62.5 -30.5t-76.5 -7.5h-39q-20 0 -34.5 14.5t-14.5 35.5q0 20 14.5 34t34.5 14h78q83 0 116 40q11 12 17 30t4 35q-27 -26 -77 -26q-42 0 -65 21q-27 24 -27 71q0 25 7.5 52.5t19.5 49.5
q11 21 29.5 37t44.5 16q43 0 70 -46zM111 357q-28 0 -41 -19t-13 -37q0 -16 12.5 -33t47.5 -17q24 0 39.5 8t23.5 17q-17 81 -69 81zM154.5 554q15.5 -15 24.5 -28q-20 -22 -52 -52q-27 32 -55 54q26 24 51 53q16 -12 31.5 -27z" />
    <glyph glyph-name="uniFED4" unicode="&#x641;" horiz-adv-x="402" arabic-form="medial" 
d="M237.5 275.5q24.5 -32.5 24.5 -90.5q0 -24 -4 -43.5t-8.5 -30t-5.5 -13.5h158v-98h-81q-45 0 -66 14.5t-28 30.5q-26 -45 -129 -45h-119q-23 0 -36 14.5t-13 33.5q0 21 14.5 35.5t34.5 14.5h108q-2 2 -6.5 9t-9 20.5t-4.5 30.5q0 25 10.5 52t27.5 49q36 49 76 49
q32 0 56.5 -32.5zM205.5 207.5q-23.5 20.5 -42.5 20.5q-15 0 -29.5 -13t-23.5 -27t-11 -18q0 -3 7.5 -18t22 -28.5t35.5 -13.5q19 0 34 11t23 26t8 24q0 16 -23.5 36.5zM209.5 438q15.5 -15 24.5 -28q-20 -22 -52 -52q-27 32 -55 54q26 24 51 53q16 -12 31.5 -27z" />
    <glyph glyph-name="uniFED6" unicode="&#x642;" horiz-adv-x="642" arabic-form="final" 
d="M487 221q18 -32 25 -70.5t7 -52.5h123v-98h-123q0 -29 -9.5 -78.5t-48.5 -100.5q-29 -39 -72 -60q-48 -24 -110 -24q-69 0 -122 29q-51 28 -72 79q-13 31 -13 68q0 54 30 131l19 -7q-8 -40 -8 -65q0 -38 20 -65q42 -57 154 -57q49 0 83.5 12t60.5 38q30 30 36.5 56
t6.5 44h-41q-31 0 -49 5.5t-31 16.5q-33 30 -33 90q0 19 4 42t11 40q12 33 33.5 53t50.5 20q42 0 68 -46zM369.5 183q-15.5 -17 -15.5 -38q0 -47 59 -47h53q0 8 -4.5 32.5t-18 47t-38.5 22.5q-20 0 -35.5 -17zM492.5 398.5q15.5 -15.5 24.5 -29.5q-19 -22 -52 -52
q-19 24 -43 44q-16 -19 -44 -44q-26 30 -56 54q38 38 52 53q19 -12 46 -43q30 30 41 43q16 -10 31.5 -25.5z" />
    <glyph glyph-name="uniFED7" unicode="&#x642;" horiz-adv-x="291" arabic-form="initial" 
d="M196 378q27 -46 33 -109q2 -22 2 -33q0 -51 -14 -99q-19 -65 -60 -99q-28 -23 -62.5 -30.5t-76.5 -7.5h-39q-20 0 -34.5 14.5t-14.5 35.5q0 20 14.5 34t34.5 14h78q83 0 116 40q11 12 17 30t4 35q-27 -26 -77 -26q-42 0 -65 21q-27 24 -27 71q0 25 7.5 52.5t19.5 49.5
q11 21 29.5 37t44.5 16q43 0 70 -46zM111 357q-28 0 -41 -19t-13 -37q0 -16 12.5 -33t47.5 -17q24 0 39.5 8t23.5 17q-17 81 -69 81zM199.5 555.5q15.5 -15.5 24.5 -29.5q-19 -22 -52 -52q-19 24 -43 44q-16 -19 -44 -44q-26 30 -56 54q38 38 52 53q19 -12 46 -43
q30 30 41 43q16 -10 31.5 -25.5z" />
    <glyph glyph-name="uniFED8" unicode="&#x642;" horiz-adv-x="402" arabic-form="medial" 
d="M237.5 275.5q24.5 -32.5 24.5 -90.5q0 -24 -4 -43.5t-8.5 -30t-5.5 -13.5h158v-98h-81q-45 0 -66 14.5t-28 30.5q-26 -45 -129 -45h-119q-23 0 -36 14.5t-13 33.5q0 21 14.5 35.5t34.5 14.5h108q-2 2 -6.5 9t-9 20.5t-4.5 30.5q0 25 10.5 52t27.5 49q36 49 76 49
q32 0 56.5 -32.5zM205.5 207.5q-23.5 20.5 -42.5 20.5q-15 0 -29.5 -13t-23.5 -27t-11 -18q0 -3 7.5 -18t22 -28.5t35.5 -13.5q19 0 34 11t23 26t8 24q0 16 -23.5 36.5zM254.5 439.5q15.5 -15.5 24.5 -29.5q-19 -22 -52 -52q-19 24 -43 44q-16 -19 -44 -44q-26 30 -56 54
q38 38 52 53q19 -12 46 -43q30 30 41 43q16 -10 31.5 -25.5z" />
    <glyph glyph-name="uniFEDA" unicode="&#x643;" horiz-adv-x="833" arabic-form="final" 
d="M833 0h-38q-87 0 -103 82q-2 -41 -30 -62.5t-76 -23.5q-104 -2 -228 -2q-80 0 -127 8q-71 12 -112 47q-32 26 -42 66q-7 25 -7 62q0 24 3 49l19 -7q6 -36 21 -60q29 -45 116 -58q51 -8 147 -8h31l156 2q40 0 64 27q20 23 17 54l-1 12q-4 28 -5 42q-3 19 -13 95.5
t-27 171.5q25 38 61 71q23 -239 41 -390q4 -34 19 -53q23 -27 63 -27h51v-98zM443 186.5q-14 -15.5 -47 -34.5q-31 -4 -65 -4q-21 0 -31 1q9 3 44.5 13.5t57 21t21.5 19.5q0 5 -8.5 7t-30.5 4q-48 3 -48 29q0 36 48 61q30 16 59 23q-7 -14 -19 -30q-41 -13 -64 -32
q0 -24 50 -24q27 0 37 -3.5t10 -18.5q0 -17 -14 -32.5z" />
    <glyph glyph-name="uniFEDB" unicode="&#x643;" horiz-adv-x="284" arabic-form="initial" 
d="M45 378q57 -39 89 -81q27 -35 44 -79.5t17 -89.5q0 -61 -32.5 -94.5t-91.5 -33.5h-92q-20 0 -34.5 14t-14.5 35q0 20 14.5 34.5t34.5 14.5h94q25 0 47 13t29 28q0 33 -43 84t-94 92l-9 -18l-27 30q4 37 16 83q83 69 272 158q-6 -47 -17 -88q-121 -57 -202 -102z" />
    <glyph glyph-name="uniFEDC" unicode="&#x643;" horiz-adv-x="391" arabic-form="medial" 
d="M44 370q54 -54 81 -84q42 -45 89 -110q24 -35 51 -56.5t70 -21.5h56v-98h-55q-58 0 -92 27t-56 86q-7 -57 -32.5 -85t-72.5 -28h-104q-21 0 -35 14t-14 35q0 20 14.5 34.5t34.5 14.5h96q24 0 41 9.5t26 20t9 12.5q-59 89 -78 112q-41 52 -80 89q4 40 11 69q86 71 272 158
q-6 -46 -17 -88q-69 -27 -215 -110z" />
    <glyph glyph-name="uniFEDE" unicode="&#x644;" horiz-adv-x="628" arabic-form="final" 
d="M628 0h-44q-37 0 -55.5 9t-35.5 33l4 -60q1 -12 1 -35q0 -41 -8 -78q-12 -55 -46 -91q-54 -61 -160 -61q-77 0 -129 28q-50 27 -72 78q-13 31 -13 65q0 36 6.5 64.5t23.5 71.5l19 -7q-7 -42 -7 -60q0 -25 7 -46q17 -48 76 -67q44 -14 93 -14q89 0 128 28q38 25 38 76
q0 13 -1 22.5t-2 16.5q-6 53 -31.5 244t-37.5 279q28 42 61 71q5 -50 20.5 -196t21.5 -193q4 -27 9 -40.5t13 -21.5q11 -10 27 -14t26 -4h68v-98z" />
    <glyph glyph-name="uniFEDF" unicode="&#x644;" horiz-adv-x="218" arabic-form="initial" 
d="M134.5 455q-6.5 -15 -6.5 -38l1 -18l3 -24q6 -47 7 -53q10 -70 14 -103.5t5 -61.5q-5 -64 -31 -103q-28 -41 -74 -50q-16 -4 -42 -4h-32q-21 0 -35 13t-14 35q0 20 12.5 35t36.5 15h31q30 0 57 14.5t41 39.5q-7 65 -26 168q-9 46 -21.5 95.5t-23.5 76.5l58 76
q8 -20 22.5 -39.5t37.5 -45.5q-14 -13 -20.5 -28z" />
    <glyph glyph-name="uniFEE0" unicode="&#x644;" horiz-adv-x="294" arabic-form="medial" 
d="M294 0h-38q-87 0 -103 82q-2 -41 -30 -61.5t-76 -20.5h-68q-19 0 -34 14.5t-15 34.5t14.5 34.5t34.5 14.5h45q40 0 64 27q20 23 17 54q-1 11 -2 20.5t-2 18.5l-3 21q-16 121 -39 258q25 38 61 71q23 -239 41 -390q4 -34 19 -53q23 -27 63 -27h51v-98z" />
    <glyph glyph-name="uniFEE2" unicode="&#x645;" horiz-adv-x="529" arabic-form="final" 
d="M529 0h-36q-23 0 -36 8t-25 26q-31 -54 -54 -72q-69 0 -107 58q-20 33 -28 84q-35 2 -56.5 -4t-43.5 -25q-12 -12 -18 -26t-6 -24q0 -12 10 -74q7 -39 7 -47q11 -82 18 -234l-29 -9q-10 105 -50 330q-5 27 -5 47q0 40 16 74q19 38 60 62q23 12 45.5 17t53.5 5l26 37
l24 -24q18 -18 38 -34q52 -41 84 -59t69 -18h43v-98z" />
    <glyph glyph-name="uniFEE3" unicode="&#x645;" horiz-adv-x="410" arabic-form="initial" 
d="M311 17q-54 6 -93.5 20t-74.5 38q-14 -45 -43.5 -60t-88.5 -15h-32q-21 0 -35 14t-14 35t13.5 35t35.5 14h73q22 0 34 3t21 13q14 13 32 56l14 -9q15 40 32 62q35 49 80 49q32 0 55 -29q12 -16 18.5 -34.5t9.5 -45.5q2 -24 2 -33q0 -30 -7 -54zM202 190
q-12 -12 -17.5 -25t-5.5 -16q74 -44 141 -59q0 6 -3.5 25.5t-12.5 36.5q-12 23 -32 36.5t-39 13.5t-31 -12z" />
    <glyph glyph-name="uniFEE4" unicode="&#x645;" horiz-adv-x="491" arabic-form="medial" 
d="M491 0h-29q-47 0 -69 17.5t-31 57.5q-34 -62 -60 -83q-90 36 -172 115q-8 -52 -30 -77q-27 -30 -81 -30h-41q-20 0 -34 13.5t-14 34.5q0 20 12.5 35t35.5 15h45q31 0 49.5 12t35.5 30l47 54l11 -10q15 21 34 40q41 43 80 43q32 0 54 -27q11 -12 17.5 -26t14.5 -37
q11 -34 24 -52q21 -27 54 -27h47v-98zM220 191q-12 -8 -20.5 -17t-10.5 -12q27 -22 63.5 -47t54.5 -36q2 2 6.5 10t9 21t4.5 26q0 27 -17 47q-19 22 -46 22q-23 0 -44 -14z" />
    <glyph glyph-name="uniFEE6" unicode="&#x646;" horiz-adv-x="657" arabic-form="final" 
d="M594 0q-24 0 -39.5 4t-30.5 15q9 -29 9 -70q0 -43 -13.5 -84.5t-43.5 -73.5q-20 -22 -49 -39.5t-58 -25.5q-38 -11 -87 -11q-73 0 -126 28q-52 28 -73 77q-13 29 -13 69q0 59 30 133l19 -7q-6 -33 -6 -61q0 -42 17 -67q19 -29 65 -45q40 -14 95 -14q85 0 141 32
q25 14 40.5 34t15.5 42q0 23 -17 60t-54 98q17 31 43 64l4 -5q27 -33 55 -44t50 -11h89v-98h-63zM313.5 41q15.5 -15 24.5 -28q-20 -22 -52 -52q-27 32 -55 54q26 24 51 53q16 -12 31.5 -27z" />
    <glyph glyph-name="uniFEE7" unicode="&#x646;" horiz-adv-x="223" arabic-form="initial" 
d="M149.5 237q13.5 -35 13.5 -72q0 -60 -31 -109q-36 -56 -106 -56h-47q-21 0 -35 14.5t-14 35.5t13.5 34.5t35.5 13.5h55q34 0 55 13.5t30.5 28.5t9.5 18l-61 72q20 44 43 69q25 -27 38.5 -62zM19.5 383q15.5 -15 24.5 -28q-20 -22 -52 -52q-27 32 -55 54q26 24 51 53
q16 -12 31.5 -27z" />
    <glyph glyph-name="uniFEE8" unicode="&#x646;" horiz-adv-x="301" arabic-form="medial" 
d="M171 125q24 -27 76 -27h54v-98h-40q-55 0 -84 33q-18 21 -21 43q-1 -2 -5 -15t-20 -30q-29 -31 -76 -31h-76q-20 0 -34.5 14.5t-14.5 35.5q0 20 14.5 34t34.5 14h57q50 0 70.5 20t24.5 65l22 12q-3 -46 18 -70zM52.5 298q15.5 -15 24.5 -28q-20 -22 -52 -52
q-27 32 -55 54q26 24 51 53q16 -12 31.5 -27z" />
    <glyph glyph-name="uniFEEA" unicode="&#x647;" horiz-adv-x="433" arabic-form="final" 
d="M433 0h-42q-61 0 -93 48q-13 19 -23 45.5t-20 64.5q-19 -54 -55 -90q-26 -4 -44 -4q-29 0 -50 6q-40 11 -35 45l10 60q5 28 49 54q24 14 45.5 19.5t48.5 8.5l-13 36q17 22 47 43q16 -51 31 -94l11 -32q18 -51 26 -70q11 -24 25.5 -33t38.5 -9h43v-98zM219.5 155
q13.5 14 24.5 40l-14 44l-14 -29q-32 0 -45 -3q-23 -5 -38 -21t-17 -36l-1 -9h71q20 0 33.5 14z" />
    <glyph glyph-name="uniFEEB" unicode="&#x647;" horiz-adv-x="417" arabic-form="initial" 
d="M322 41l-46 -48q-51 29 -122 54q-19 -26 -47.5 -36.5t-73.5 -10.5h-53q-21 0 -35.5 14t-14.5 35q0 20 15 34.5t35 14.5h71q-9 24 -12 42q-4 43 19 77q14 21 38 37t48 17l-18 9q-12 7 -18 13.5t-6 15.5q0 5 5 17l19 31q8 -5 46 -25q35 -17 60 -32q58 -36 88 -73
q37 -47 37 -104q-3 -47 -35 -82zM191.5 196q-3.5 11 -9.5 21q-8 14 -15 20t-17 6q-19 0 -47 -24q-31 -28 -31 -42q0 -8 9 -17.5t21 -15.5q21 -13 35 -13q18 0 36 12q11 8 16.5 18t5.5 18q0 6 -3.5 17zM293 161q-24 46 -78 79q13 -28 13 -53q0 -44 -31 -75l114 -29
q-3 48 -18 78z" />
    <glyph glyph-name="uniFEEC" unicode="&#x647;" horiz-adv-x="437" arabic-form="medial" 
d="M437 0h-185q0 1 13.5 -12t24.5 -31.5t11 -41.5q0 -16 -6 -34t-15 -31q-24 -35 -67 -35q-55 0 -99 55q-38 48 -43 124q-16 -4 -37 -13l4 19h-59q-20 0 -34.5 14.5t-14.5 34.5t15 34.5t34 14.5h99q16 71 52 120q50 67 114 73q34 -48 34 -93q0 -30 -15.5 -57t-50.5 -62
q20 12 39.5 15.5t41.5 3.5h144v-98zM231.5 200.5q-9.5 17.5 -22.5 31.5q-34 -28 -54 -57q-15 -24 -21.5 -39.5t-10.5 -37.5q72 18 98 38q20 15 20 34q0 13 -9.5 30.5zM178.5 -5.5q-22.5 5.5 -38.5 5.5h-22q0 -18 7.5 -43t40.5 -46q43 -27 101 -24q0 53 -48 89
q-18 13 -40.5 18.5z" />
    <glyph glyph-name="uniFEEE" unicode="&#x648;" horiz-adv-x="405" arabic-form="final" 
d="M405 0h-116q0 -39 -10.5 -95t-35.5 -102q-23 -41 -53 -61q-33 -21 -73 -21q-9 0 -31 2q-26 2 -37 2q-25 0 -60 -8l-9 13l47 25q20 11 42.5 23t40.5 22q41 24 69 50q49 46 65 112q5 20 5 38h-52q-64 0 -88 35q-20 28 -20 82q0 24 4 41t14 39q13 27 32.5 44t43.5 17
q26 0 47 -18t35 -48q10 -21 16 -46.5t6 -47.5h118v-98zM208.5 175.5q-14.5 10.5 -33.5 10.5q-23 0 -38.5 -13t-15.5 -31q0 -26 17 -35t48 -9h58q0 22 -13 50q-8 17 -22.5 27.5z" />
    <glyph glyph-name="uniFEF0" unicode="&#x649;" horiz-adv-x="680" arabic-form="final" 
d="M680 0h-117q26 -19 26 -58q0 -37 -22 -79q-15 -29 -43.5 -55t-66.5 -45q-39 -22 -84 -33t-90 -11q-84 0 -136 33q-44 25 -64 73q-13 29 -13 67q0 30 8 70.5t22 73.5l19 -7q-8 -40 -8 -71q0 -45 21 -72q44 -54 160 -54q77 0 155 29q43 15 69.5 33.5t26.5 34.5q0 34 -69 57
q-24 8 -52 13q29 61 60 99h198v-98z" />
    <glyph glyph-name="uniFEF2" unicode="&#x64a;" horiz-adv-x="680" arabic-form="final" 
d="M680 0h-117q26 -19 26 -58q0 -37 -22 -79q-15 -29 -43.5 -55t-66.5 -45q-39 -22 -84 -33t-90 -11q-84 0 -136 33q-44 25 -64 73q-13 29 -13 67q0 30 8 70.5t22 73.5l19 -7q-8 -40 -8 -71q0 -45 21 -72q44 -54 160 -54q77 0 155 29q43 15 69.5 33.5t26.5 34.5q0 34 -69 57
q-24 8 -52 13q29 61 60 99h198v-98zM366.5 -356.5q15.5 -15.5 24.5 -29.5q-19 -22 -52 -52q-19 24 -43 44q-16 -19 -44 -44q-26 30 -56 54q38 38 52 53q19 -12 46 -43q30 30 41 43q16 -10 31.5 -25.5z" />
    <glyph glyph-name="uniFEF3" unicode="&#x64a;" horiz-adv-x="223" arabic-form="initial" 
d="M149.5 237q13.5 -35 13.5 -72q0 -60 -31 -109q-36 -56 -106 -56h-47q-21 0 -35 14.5t-14 35.5t13.5 34.5t35.5 13.5h55q34 0 55 13.5t30.5 28.5t9.5 18l-61 72q20 44 43 69q25 -27 38.5 -62zM87.5 -70.5q15.5 -15.5 24.5 -29.5q-19 -22 -52 -52q-19 24 -43 44
q-16 -19 -44 -44q-26 30 -56 54q38 38 52 53q19 -12 46 -43q30 30 41 43q16 -10 31.5 -25.5z" />
    <glyph glyph-name="uniFEF4" unicode="&#x64a;" horiz-adv-x="301" arabic-form="medial" 
d="M171 125q24 -27 76 -27h54v-98h-40q-55 0 -84 33q-18 21 -21 43q-1 -2 -5 -15t-20 -30q-29 -31 -76 -31h-76q-20 0 -34.5 14.5t-14.5 35.5q0 20 14.5 34t34.5 14h57q50 0 70.5 20t24.5 65l22 12q-3 -46 18 -70zM90.5 -70.5q15.5 -15.5 24.5 -29.5q-19 -22 -52 -52
q-19 24 -43 44q-16 -19 -44 -44q-26 30 -56 54q38 38 52 53q19 -12 46 -43q30 30 41 43q16 -10 31.5 -25.5z" />
    <glyph glyph-name="uniFEF5" unicode="&#xfef5;" horiz-adv-x="447" arabic-form="isolated" 
d="M405 421l-26 10q1 -9 1 -32q0 -111 -53 -203q13 -25 23.5 -59t9.5 -61l-7 -59q-49 -11 -100.5 -16.5t-128.5 -5.5q0 61 5 101l13 1q71 19 125 94q-47 79 -94 131.5t-73 73.5l-11 -17q-32 20 -69 51q2 24 7.5 46t9.5 29q4 9 13 9q2 0 11 -3q10 -5 41 -32q70 -62 124 -128
q46 -57 70 -103q26 49 33 111q2 26 2 38q0 56 -17 126q28 22 48 45q11 -30 28 -55t37 -40zM296 160q-21 -32 -44 -47.5t-25 -17.5q20 0 50 1.5t48 4.5q-3 8 -29 59zM170 617q-7 -7 -27 -19q-23 -15 -57 -25t-73 -10q-33 0 -77 12q-28 7 -44 7q-19 0 -33 -8t-27 -25
q-5 3 -8 8q21 87 75 87q19 0 67 -14q32 -10 57.5 -15.5t54.5 -5.5q43 0 87 15q3 -3 5 -7z" />
    <glyph glyph-name="uniFEF6" unicode="&#xfef6;" horiz-adv-x="559" arabic-form="final" 
d="M559 0h-32q-40 0 -65 9t-41 27q-28 32 -31 99q-5 -24 -33 -66t-105 -81q-25 -13 -45.5 -18.5t-58.5 -12.5q-51 -9 -75 -16l-2 13q104 51 154 92.5t71 68.5q3 36 -23 85.5t-67 100.5q-47 57 -106 104l-11 -20q-33 21 -69 49l4 39l4 28q1 7 5 11.5t9 4.5q12 0 45.5 -23
t70.5 -56q75 -65 125 -143q42 -66 57 -119q8 10 15 37t7 76q0 47 -7 117l-14 99q22 32 60 62l9 -85q1 -14 3 -33t4 -43l15 -156q4 -47 10 -74.5t15 -44.5q10 -18 25.5 -25.5t41.5 -7.5h35v-98zM209 615q-7 -7 -27 -19q-23 -15 -57 -25t-73 -10q-33 0 -77 12q-28 7 -44 7
q-19 0 -33 -8t-27 -25q-5 3 -8 8q21 87 75 87q19 0 67 -14q32 -10 57.5 -15.5t54.5 -5.5q43 0 87 15q3 -3 5 -7z" />
    <glyph glyph-name="uniFEF7" unicode="&#xfef7;" horiz-adv-x="447" arabic-form="isolated" 
d="M405 421l-26 10q1 -9 1 -32q0 -111 -53 -203q13 -25 23.5 -59t9.5 -61l-7 -59q-49 -11 -100.5 -16.5t-128.5 -5.5q0 61 5 101l13 1q71 19 125 94q-47 79 -94 131.5t-73 73.5l-11 -17q-32 20 -69 51q2 24 7.5 46t9.5 29q4 9 13 9q2 0 11 -3q10 -5 41 -32q70 -62 124 -128
q46 -57 70 -103q26 49 33 111q2 26 2 38q0 56 -17 126q28 22 48 45q11 -30 28 -55t37 -40zM296 160q-21 -32 -44 -47.5t-25 -17.5q20 0 50 1.5t48 4.5q-3 8 -29 59zM92 589q-35 -4 -72 -16q-43 -14 -84 -39q-3 0 -4.5 2.5t-1.5 5.5q0 4 4 8q15 14 31 24t41 20q-56 8 -56 43
q0 6 4 11q17 25 31 36q27 23 60 23q19 0 29.5 -8.5t11.5 -17.5l-5 -7q-12 5 -32 5q-17 0 -31 -5t-32 -16q0 -17 8 -24t28 -13q15 -4 34 -4q9 0 27 2l26 5q-11 -25 -17 -35z" />
    <glyph glyph-name="uniFEF8" unicode="&#xfef8;" horiz-adv-x="559" arabic-form="final" 
d="M559 0h-32q-40 0 -65 9t-41 27q-28 32 -31 99q-5 -24 -33 -66t-105 -81q-25 -13 -45.5 -18.5t-58.5 -12.5q-51 -9 -75 -16l-2 13q104 51 154 92.5t71 68.5q3 36 -23 85.5t-67 100.5q-47 57 -106 104l-11 -20q-33 21 -69 49l4 39l4 28q1 7 5 11.5t9 4.5q12 0 45.5 -23
t70.5 -56q75 -65 125 -143q42 -66 57 -119q8 10 15 37t7 76q0 47 -7 117l-14 99q22 32 60 62l9 -85q1 -14 3 -33t4 -43l15 -156q4 -47 10 -74.5t15 -44.5q10 -18 25.5 -25.5t41.5 -7.5h35v-98zM110 591q-35 -4 -72 -16q-43 -14 -84 -39q-3 0 -4.5 2.5t-1.5 5.5q0 4 4 8
q15 14 31 24t41 20q-56 8 -56 43q0 6 4 11q17 25 31 36q27 23 60 23q19 0 29.5 -8.5t11.5 -17.5l-5 -7q-12 5 -32 5q-17 0 -31 -5t-32 -16q0 -17 8 -24t28 -13q15 -4 34 -4q9 0 27 2l26 5q-11 -25 -17 -35z" />
    <glyph glyph-name="uniFEF9" unicode="&#xfef9;" horiz-adv-x="447" arabic-form="isolated" 
d="M405 421l-26 10q1 -9 1 -32q0 -111 -53 -203q13 -25 23.5 -59t9.5 -61l-7 -59q-49 -11 -100.5 -16.5t-128.5 -5.5q0 61 5 101l13 1q71 19 125 94q-47 79 -94 131.5t-73 73.5l-11 -17q-32 20 -69 51q2 24 7.5 46t9.5 29q4 9 13 9q2 0 11 -3q10 -5 41 -32q70 -62 124 -128
q46 -57 70 -103q26 49 33 111q2 26 2 38q0 56 -17 126q28 22 48 45q11 -30 28 -55t37 -40zM296 160q-21 -32 -44 -47.5t-25 -17.5q20 0 50 1.5t48 4.5q-3 8 -29 59zM210 -166q-35 -4 -72 -16q-43 -14 -84 -39q-3 0 -4.5 2.5t-1.5 5.5q0 4 4 8q15 14 31 24t41 20
q-56 8 -56 43q0 6 4 11q17 25 31 36q27 23 60 23q19 0 29.5 -8.5t11.5 -17.5l-5 -7q-12 5 -32 5q-17 0 -31 -5t-32 -16q0 -17 8 -24t28 -13q15 -4 34 -4q9 0 27 2l26 5q-11 -25 -17 -35z" />
    <glyph glyph-name="uniFEFA" unicode="&#xfefa;" horiz-adv-x="559" arabic-form="final" 
d="M559 0h-32q-40 0 -65 9t-41 27q-28 32 -31 99q-5 -24 -33 -66t-105 -81q-25 -13 -45.5 -18.5t-58.5 -12.5q-51 -9 -75 -16l-2 13q104 51 154 92.5t71 68.5q3 36 -23 85.5t-67 100.5q-47 57 -106 104l-11 -20q-33 21 -69 49l4 39l4 28q1 7 5 11.5t9 4.5q12 0 45.5 -23
t70.5 -56q75 -65 125 -143q42 -66 57 -119q8 10 15 37t7 76q0 47 -7 117l-14 99q22 32 60 62l9 -85q1 -14 3 -33t4 -43l15 -156q4 -47 10 -74.5t15 -44.5q10 -18 25.5 -25.5t41.5 -7.5h35v-98zM230 -203q-35 -4 -72 -16q-43 -14 -84 -39q-3 0 -4.5 2.5t-1.5 5.5q0 4 4 8
q15 14 31 24t41 20q-56 8 -56 43q0 6 4 11q17 25 31 36q27 23 60 23q19 0 29.5 -8.5t11.5 -17.5l-5 -7q-12 5 -32 5q-17 0 -31 -5t-32 -16q0 -17 8 -24t28 -13q15 -4 34 -4q9 0 27 2l26 5q-11 -25 -17 -35z" />
    <glyph glyph-name=".notdef" horiz-adv-x="364" 
d="M33 0v666h265v-666h-265zM66 33h199v600h-199v-600z" />
    <glyph glyph-name="uni0000" 
 />
    <glyph glyph-name="uni0000" 
 />
    <glyph glyph-name="uni000D" unicode="&#xd;" horiz-adv-x="333" 
 />
    <glyph glyph-name="space" unicode=" " horiz-adv-x="255" 
 />
    <glyph glyph-name="exclam" unicode="!" horiz-adv-x="239" 
d="M77 349q0 64 -5 112.5t-14 67.5q53 18 110 18q-5 -44 -8.5 -138.5t-3.5 -196.5q-40 -29 -66 -55h-13v192zM47 57q31 40 72 73q34 -39 73 -73q-34 -40 -73 -72q-32 40 -72 72z" />
    <glyph glyph-name="quotedbl" unicode="&#x22;" horiz-adv-x="285" 
d="M42 374v164q41 11 80 11q-8 -52 -10 -102t-2 -128h-18q-16 21 -50 55zM172 374v164q42 11 81 11q-8 -52 -10 -102t-2 -128h-18q-24 29 -51 55z" />
    <glyph glyph-name="numbersign" unicode="#" horiz-adv-x="644" 
d="M492 344l-36 -140q50 3 94 7q8 -20 8 -33q0 -11 -8 -35l-63 3l-45 2q-36 -154 -39 -195q-28 -8 -39 -8q-10 0 -22.5 3.5t-16.5 4.5q26 83 56 196q-33 1 -97 1t-88 -1q-37 -150 -40 -196q-26 -8 -39 -8q-10 0 -38 8q17 55 55 195l-83 -7q-9 17 -9 34q0 18 9 34
q50 -4 98 -5l14 53l22 87q-35 -1 -90 -6q-9 15 -9 33q0 17 9 35q52 -4 104 -5q31 128 34 173q26 8 39 8q10 0 38 -8q-18 -56 -50 -174q34 -1 101 -1q60 0 84 1q31 130 34 174q28 8 40 8q9 0 21.5 -3.5t16.5 -4.5q-19 -60 -49 -172q38 1 86 6q8 -22 8 -34t-8 -34
q-28 2 -102 4zM423 310l9 36q-35 1 -103 1q-60 0 -83 -1q-10 -35 -28 -107l-9 -36q36 -1 108 -1q56 0 78 1q10 35 28 107z" />
    <glyph glyph-name="dollar" unicode="$" horiz-adv-x="448" 
d="M195 -83q2 52 2 92q-91 3 -159 36q0 21 4 37t13 33q23 -24 63 -37.5t87 -13.5q54 0 82.5 18.5t28.5 52.5q0 31 -27.5 51.5t-86.5 47.5q-50 23 -82 42t-54 48t-22 69q0 46 41.5 78t112.5 39q-1 69 -6 99q20 5 31 5q16 0 31 -5q-3 -40 -3 -96q80 -2 135 -24q0 -22 -8 -50
t-19 -44q-42 30 -86.5 50t-72.5 20q-21 -4 -41 -21t-20 -41q0 -33 29 -55t90 -49q48 -22 79 -40t52 -46t21 -66q0 -60 -40 -94.5t-119 -41.5q4 -79 6 -94q-15 -3 -31 -3q-13 0 -31 3z" />
    <glyph glyph-name="percent" unicode="%" horiz-adv-x="748" 
d="M66 291.5q-37 37.5 -37 98.5q0 64 44.5 105.5t114.5 41.5q57 0 93 -36.5t36 -95.5q0 -67 -43.5 -109t-111.5 -42q-59 0 -96 37.5zM228 331.5q21 25.5 21 69.5q0 41 -18.5 68t-51.5 33q-36 0 -59.5 -27.5t-23.5 -70.5q0 -45 20.5 -71.5t54.5 -26.5q36 0 57 25.5zM226 -66
q120 306 218 633q25 9 41 9q13 0 36 -9q-120 -306 -218 -633q-25 -9 -41 -9q-13 0 -36 9zM465 31.5q-37 37.5 -37 98.5q0 64 44.5 105.5t114.5 41.5q57 0 93 -36.5t36 -95.5q0 -67 -43.5 -109t-111.5 -42q-59 0 -96 37.5zM627 71.5q21 25.5 21 69.5q0 41 -18.5 68t-51.5 33
q-36 0 -59.5 -27.5t-23.5 -70.5q0 -45 20.5 -71.5t54.5 -26.5q36 0 57 25.5z" />
    <glyph glyph-name="ampersand" unicode="&#x26;" horiz-adv-x="539" 
d="M72.5 24.5q-41.5 35.5 -41.5 92.5q0 52 36 94t100 65q-26 38 -37.5 67.5t-11.5 56.5q0 38 24.5 68t67.5 47.5t97 17.5q83 0 143 -34q0 -21 -8 -49t-19 -45q-30 33 -59 53t-68 34q-40 0 -64.5 -23t-24.5 -60q0 -28 48.5 -99t117.5 -148q25 58 30 126q50 6 95 6
q-21 -30 -53 -92q-26 -50 -41 -74q71 -76 123 -113q-26 -11 -54.5 -16t-67.5 -5l-56 62q-67 -67 -169 -67q-66 0 -107.5 35.5zM324 84q-99 112 -137 163q-29 -20 -45 -51t-16 -69q0 -41 26.5 -66t69.5 -25q56 0 102 48z" />
    <glyph glyph-name="quotesingle" unicode="'" horiz-adv-x="154" 
d="M42 374v164q41 11 80 11q-8 -52 -10 -102t-2 -128h-18q-16 21 -50 55z" />
    <glyph glyph-name="parenleft" unicode="(" horiz-adv-x="316" 
d="M116 -19q-63 100 -63 283q0 184 62.5 283.5t184.5 99.5q5 -25 5 -42q0 -18 -5 -43q-63 9 -107 9q-21 -7 -32.5 -96.5t-11.5 -210.5t11.5 -210t32.5 -96q44 0 107 9q5 -25 5 -44q0 -17 -5 -42q-121 0 -184 100z" />
    <glyph glyph-name="parenright" unicode=")" horiz-adv-x="316" 
d="M11 -77q0 19 5 44q63 -9 107 -9q21 7 32.5 96t11.5 210t-11.5 210.5t-32.5 96.5q-44 0 -107 -9q-5 25 -5 43q0 17 5 42q122 0 184.5 -99.5t62.5 -283.5q0 -183 -63 -283t-184 -100q-5 25 -5 42z" />
    <glyph glyph-name="asterisk" unicode="*" horiz-adv-x="405" 
d="M188 426q-67 -46 -128 -45q-13 49 -13 90q60 -14 137 -12q-48 62 -46 129q49 13 91 13q-13 -52 -13 -137q67 45 131 44q2 -10 7 -37t5 -51q-63 13 -139 12q47 -65 45 -130q-51 -12 -88 -12q12 65 11 136z" />
    <glyph glyph-name="plus" unicode="+" horiz-adv-x="533" 
d="M456 228q-104 4 -155 4q0 -73 3 -145q-18 -5 -37 -5q-18 0 -38 5q2 47 4 145q-51 0 -155 -4q-5 18 -5 37q0 18 5 38q78 -3 155 -3q0 92 -4 165q18 5 37 5q18 0 38 -5q-3 -55 -3 -165q77 0 155 3q5 -18 5 -37q0 -18 -5 -38z" />
    <glyph glyph-name="comma" unicode="," horiz-adv-x="211" 
d="M33 -107q15 20 23.5 47.5t8.5 56.5q0 49 -17 88q17 10 42 17t44 7l23 -25q-4 -58 -33.5 -110t-79.5 -93z" />
    <glyph glyph-name="hyphen" unicode="-" horiz-adv-x="426" 
d="M58 241q68 -5 150 -5q42 0 84.5 5.5t62.5 13.5q13 -45 13 -100q-66 5 -149 5q-44 0 -86 -5.5t-61 -13.5q-14 45 -14 100z" />
    <glyph glyph-name="period" unicode="." horiz-adv-x="210" 
d="M33 57q31 40 72 73q27 -33 72 -73q-36 -43 -72 -72q-32 40 -72 72z" />
    <glyph glyph-name="slash" unicode="/" horiz-adv-x="338" 
d="M53 -78q35 121 93 370.5t61 312.5q25 9 39 9q12 0 39 -9q-35 -121 -93 -370.5t-61 -312.5q-25 -9 -40 -9q-11 0 -38 9z" />
    <glyph glyph-name="zero" unicode="0" horiz-adv-x="581" 
d="M148 21.5q-53 32.5 -82.5 91.5t-29.5 137q0 82 35.5 146.5t99.5 100.5t145 36q67 0 118.5 -32t80 -89.5t28.5 -133.5q0 -84 -34.5 -150t-96.5 -102.5t-141 -36.5q-70 0 -123 32.5zM406 118q45 55 45 149q0 86 -39.5 143.5t-108.5 70.5q-49 0 -89 -27t-62.5 -74
t-22.5 -107q0 -62 19.5 -110t55 -74t82.5 -26q75 0 120 55z" />
    <glyph glyph-name="one" unicode="1" horiz-adv-x="340" 
d="M164 0q5 49 8 136.5t3 165.5q0 81 -2 113l-129 -81q-24 30 -33 72q47 23 95 50q31 18 62 40.5t45 36.5q26 0 59 -6q-5 -49 -8 -135.5t-3 -164.5q0 -183 16 -227q-28 -6 -56 -6q-24 0 -57 6z" />
    <glyph glyph-name="two" unicode="2" horiz-adv-x="504" 
d="M185 2q-106 0 -138 -2v36q141 119 211 209t70 158q0 70 -75 82q-29 -4 -74.5 -26t-90.5 -54q-11 16 -19 44t-8 50q21 15 76.5 25t108.5 10q88 0 133.5 -30t45.5 -89q0 -61 -64.5 -143t-202.5 -193q58 -9 128 -9q50 0 96.5 7t74.5 19q0 -29 -6 -59t-15 -42q-35 7 -251 7z
" />
    <glyph glyph-name="three" unicode="3" horiz-adv-x="489" 
d="M42 35q0 22 16 70q25 -28 67.5 -44.5t91.5 -16.5q64 0 99.5 28.5t35.5 79.5q0 41 -23 71.5t-66 45.5q-29 0 -53.5 -12.5t-34.5 -33.5q-8 0 -19 7.5t-11 12.5q9 22 34 41l196 157q-9 3 -194 3q-36 0 -58 -4t-39 -14q-8 21 -13 49.5t-5 51.5q38 -11 141 -11q78 0 120.5 6.5
t68.5 23.5q18 -9 28.5 -27t10.5 -40q0 -28 -15 -50t-53 -53l-90 -72q75 -2 122.5 -44t47.5 -108q0 -80 -57.5 -121.5t-168.5 -41.5q-104 0 -179 46z" />
    <glyph glyph-name="four" unicode="4" horiz-adv-x="481" 
d="M282 0q8 57 9 126h-60q-76 0 -118.5 -4t-71.5 -15q-20 11 -20 35q0 23 6.5 41.5t22.5 48.5q31 52 97 161.5t95 152.5q34 0 60 -7t49 -24q-46 -39 -113.5 -123t-139.5 -201q116 -2 195 -2q0 129 -16 153q27 6 56 6q25 0 56 -6q-8 -57 -10 -150q43 4 69 15q0 -21 -5 -46
t-13 -45l-52 6q2 -100 16 -122q-27 -6 -55 -6q-24 0 -57 6z" />
    <glyph glyph-name="five" unicode="5" horiz-adv-x="480" 
d="M42 35q0 20 4 36t13 34q24 -28 65 -44.5t88 -16.5q62 0 97 29.5t35 83.5q0 83 -85 122q-25 0 -61 -13.5t-75 -37.5q-16 2 -30 6.5t-14 7.5l20 285q22 -6 53 -8.5t84 -2.5q135 0 182 11q0 -23 -5 -51.5t-13 -49.5q-17 10 -41 14t-66 4q-50 0 -90 -1l-64 -2l-12 -158
q65 41 139 41q77 0 125 -46.5t48 -120.5q0 -83 -56 -125.5t-165 -42.5q-102 0 -176 46z" />
    <glyph glyph-name="six" unicode="6" horiz-adv-x="501" 
d="M138 20q-46 29 -71 81.5t-25 121.5q0 152 67.5 231t197.5 79q71 0 119 -24q0 -22 -8 -50t-19 -44q-35 30 -75 50.5t-64 20.5q-49 -16 -80 -66.5t-40 -129.5q68 44 144 44q78 0 126 -45.5t48 -120.5q0 -51 -27 -91.5t-76 -63t-111 -22.5q-60 0 -106 29zM332.5 78.5
q30.5 34.5 30.5 92.5q0 49 -35 78t-94 29q-58 -16 -97 -46v-11q0 -84 30 -130.5t84 -46.5q51 0 81.5 34.5z" />
    <glyph glyph-name="seven" unicode="7" horiz-adv-x="451" 
d="M118 1q-26 7 -48 24q54 62 124.5 167t143.5 250q-118 2 -194 2q-35 0 -57 -4.5t-38 -13.5q-8 21 -13 49t-5 52q55 -11 188 -11q61 0 100 6.5t67 23.5q32 -13 32 -47q0 -21 -6.5 -38.5t-22.5 -48.5q-36 -69 -108.5 -212.5t-101.5 -205.5q-35 0 -61 7z" />
    <glyph glyph-name="eight" unicode="8" horiz-adv-x="516" 
d="M97.5 24q-55.5 35 -55.5 93q0 42 32 77t90 58q-50 22 -77.5 54t-27.5 84q0 41 28 74t78 51t114 18q80 0 129.5 -36t49.5 -95q0 -37 -28 -69t-78 -52q58 -21 90.5 -52.5t32.5 -85.5q0 -46 -30 -81t-83 -54t-120 -19q-89 0 -144.5 35zM368 396q0 38 -26.5 63.5t-73.5 32.5
q-53 0 -86.5 -22.5t-33.5 -60.5q0 -31 20 -51t48.5 -31t82.5 -28q69 35 69 97zM346 60.5q33 24.5 33 65.5q0 26 -17.5 43.5t-44 28.5t-72.5 25l-31 10q-37 -17 -57 -44t-20 -61q0 -41 33 -66.5t85 -25.5q58 0 91 24.5z" />
    <glyph glyph-name="nine" unicode="9" horiz-adv-x="491" 
d="M119 1q-43 12 -77 34q0 20 4 36t13 34q23 -29 60.5 -45.5t80.5 -16.5q69 0 107 48t45 124q-70 -45 -146 -45q-73 0 -118 49t-45 129q0 54 24.5 96t69 65.5t101.5 23.5q62 0 110 -32t74.5 -89.5t26.5 -132.5q0 -143 -61 -216.5t-179 -73.5q-47 0 -90 12zM354 272
q-3 95 -33.5 147.5t-82.5 52.5q-46 0 -73 -31.5t-27 -84.5q0 -60 31.5 -95t86.5 -35q56 16 98 46z" />
    <glyph glyph-name="colon" unicode=":" horiz-adv-x="210" 
d="M33 57q31 40 72 73q27 -33 72 -73q-36 -43 -72 -72q-32 40 -72 72zM33 345q31 40 72 73q27 -33 72 -73q-36 -43 -72 -72q-32 40 -72 72z" />
    <glyph glyph-name="semicolon" unicode=";" horiz-adv-x="210" 
d="M33 -107q15 20 23.5 47.5t8.5 56.5q0 49 -17 88q17 10 42 17t44 7l23 -25q-4 -58 -33.5 -110t-79.5 -93zM33 345q31 40 72 73q27 -33 72 -73q-36 -43 -72 -72q-32 40 -72 72z" />
    <glyph glyph-name="less" unicode="&#x3c;" horiz-adv-x="533" 
d="M456 375l-287 -110l287 -109q-6 -41 -29 -70q-70 33 -176.5 76.5t-174.5 66.5q-3 18 -3 36q0 19 3 38q66 22 173 65.5t178 76.5q23 -25 29 -70z" />
    <glyph glyph-name="equal" unicode="=" horiz-adv-x="533" 
d="M73 165q0 18 5 38q63 -3 189 -3t189 3q5 -18 5 -37q0 -18 -5 -38q-84 4 -189 4t-189 -4q-5 18 -5 37zM73 365q0 18 5 38q63 -3 189 -3t189 3q5 -18 5 -37q0 -18 -5 -38q-84 4 -189 4t-189 -4q-5 18 -5 37z" />
    <glyph glyph-name="greater" unicode="&#x3e;" horiz-adv-x="533" 
d="M77 156l287 110l-287 109q6 41 29 70q71 -33 178 -76.5t173 -65.5q3 -19 3 -37q0 -19 -3 -37q-70 -24 -177 -67.5t-174 -75.5q-23 29 -29 70z" />
    <glyph glyph-name="question" unicode="?" horiz-adv-x="383" 
d="M138 249q52 19 79.5 55t27.5 84q0 50 -24.5 77t-68.5 27q-36 0 -67 -16t-51 -45q-14 34 -14 70q69 46 152 46q82 0 125 -41t43 -119q0 -51 -27.5 -90t-70.5 -61t-88 -27zM91 57q34 41 73 73q31 -38 72 -73q-36 -43 -72 -72q-30 37 -73 72z" />
    <glyph glyph-name="at" unicode="@" horiz-adv-x="832" 
d="M211.5 -82q-73.5 42 -114 118.5t-40.5 175.5q0 112 49 199t136.5 135.5t198.5 48.5q100 0 175.5 -43t117.5 -121t42 -180q0 -87 -26 -145t-66.5 -85.5t-83.5 -27.5q-45 0 -79 25t-44 76q-32 -21 -66.5 -33t-62.5 -12q-34 0 -56 21.5t-22 55.5q0 53 52 81.5t158 33.5
q1 49 -17.5 70.5t-60.5 21.5q-28 0 -57 -10t-51 -27l-7 25q25 37 66.5 59.5t85.5 22.5q59 0 91 -28.5t32 -81.5q0 -19 -5 -92q-4 -52 -4 -71q0 -50 16.5 -69.5t46.5 -19.5q21 0 41.5 18t34 55t13.5 92q0 126 -70 208t-195 101q-90 0 -161.5 -38.5t-112 -107.5t-40.5 -155
q0 -84 30.5 -149.5t88.5 -103t139 -37.5q32 0 62 8t48 21q16 -21 16 -47q-57 -30 -129 -30q-96 0 -169.5 42zM430.5 104q23.5 9 43.5 22q0 45 5 86q-59 -3 -90.5 -21.5t-31.5 -49.5q0 -14 8 -27t21 -21q21 2 44.5 11z" />
    <glyph glyph-name="A" unicode="A" horiz-adv-x="504" 
d="M389 2l-46 130q-47 4 -117 4q-74 0 -101 -5q-22 -58 -46 -129q-18 -6 -33 -6q-20 0 -41 6q28 50 99 236t106 291q27 5 44 5q18 0 40 -5q35 -105 106 -291t99 -236q-25 -7 -53 -7q-26 0 -57 7zM321 192q-49 134 -87 223q-36 -83 -85 -221q51 -3 115 -3q41 0 57 1z" />
    <glyph glyph-name="B" unicode="B" horiz-adv-x="520" 
d="M156.5 -4.5q-52.5 7.5 -86.5 19.5q4 44 6.5 130t2.5 167q0 158 -17 193q36 12 89.5 19.5t105.5 7.5q95 0 146 -36.5t51 -104.5q0 -37 -22 -67t-62 -49q51 -17 80 -51.5t29 -79.5q0 -75 -56.5 -115.5t-161.5 -40.5q-52 0 -104.5 7.5zM257 292q29 0 42 -2q60 41 60 90
q0 87 -113 87q-41 0 -75 -10q-4 -74 -6 -175q37 10 92 10zM383 144q0 37 -20.5 65t-59.5 43q-46 0 -139 -28q0 -119 6 -178q36 -13 80 -13q133 0 133 111z" />
    <glyph glyph-name="C" unicode="C" horiz-adv-x="488" 
d="M101 54q-59 65 -59 187q0 85 33.5 151.5t94 103.5t138.5 37q85 0 145 -24q0 -22 -7.5 -49.5t-18.5 -44.5q-42 29 -90 49t-76 20q-33 -8 -61.5 -40.5t-45.5 -79t-17 -95.5q0 -102 44.5 -152t117.5 -50q99 0 162 36l7 -25q-33 -40 -87.5 -64.5t-110.5 -24.5q-110 0 -169 65
z" />
    <glyph glyph-name="D" unicode="D" horiz-adv-x="573" 
d="M147 -1.5q-46 4.5 -79 11.5q5 48 8 131.5t3 158.5q0 167 -17 205q32 12 85.5 19.5t108.5 7.5q133 0 204 -69t71 -197q0 -80 -37 -141.5t-104 -96t-154 -34.5q-43 0 -89 4.5zM360 81.5q35 30.5 55.5 75t20.5 91.5q0 219 -201 219q-33 0 -64 -9q-7 -112 -7 -231
q0 -97 5 -162q75 -20 114 -20q42 6 77 36.5z" />
    <glyph glyph-name="E" unicode="E" horiz-adv-x="476" 
d="M77 154.5q2 53.5 2 145.5q0 165 -17 227q53 -7 161 -7q133 0 206 7q0 -27 -6 -58t-15 -43q-24 13 -62 20t-78 7q-53 0 -98 -8q-4 -84 -5 -150l25 -1q38 -2 57 -2q48 0 73.5 2.5t56.5 8.5q4 -20 4 -37q0 -14 -4 -38q-110 7 -172 7q-29 0 -41 -1q0 -109 4 -153
q48 -10 105 -10q44 0 88 7t72 20q0 -27 -6 -58.5t-15 -42.5q-64 7 -184 7q-107 0 -160 -7q7 104 9 157.5z" />
    <glyph glyph-name="F" unicode="F" horiz-adv-x="430" 
d="M68 0q5 44 8 121.5t3 146.5q0 190 -17 259q52 -7 161 -7q117 0 186 7q0 -27 -5.5 -58t-15.5 -43q-22 13 -54.5 20t-65.5 7q-52 0 -97 -8q-4 -94 -5 -150l23 -1q32 -2 48 -2q43 0 65.5 2.5t54.5 8.5q4 -20 4 -37q0 -16 -4 -38l-44 2q-62 5 -115 5q-24 0 -34 -1
q0 -192 16 -234q-27 -6 -56 -6q-24 0 -56 6z" />
    <glyph glyph-name="G" unicode="G" horiz-adv-x="531" 
d="M101 54q-59 65 -59 187q0 85 33.5 151.5t94 103.5t138.5 37q91 0 156 -24q0 -21 -8 -49t-19 -45q-45 29 -95.5 49t-80.5 20q-33 -8 -61.5 -40.5t-45.5 -79t-17 -95.5q0 -113 40.5 -162.5t133.5 -49.5q42 0 75 10q0 163 -16 201q26 6 50 6q25 0 57 -6q-9 -101 -9 -210
q-33 -31 -87.5 -50t-110.5 -19q-110 0 -169 65z" />
    <glyph glyph-name="H" unicode="H" horiz-adv-x="551" 
d="M68 0q5 49 8 136.5t3 165.5q0 183 -17 225q29 6 54 6q26 0 59 -6q-8 -87 -10 -230q54 -5 140 -5q13 0 82 3q0 186 -16 232q27 6 54 6q25 0 58 -6q-5 -49 -8 -136.5t-3 -165.5q0 -181 16 -225q-27 -6 -55 -6q-25 0 -57 6q8 85 10 232q-62 3 -129 3q-45 0 -93 -2
q0 -187 16 -233q-27 -6 -56 -6q-24 0 -56 6z" />
    <glyph glyph-name="I" unicode="I" horiz-adv-x="242" 
d="M68 0q5 49 8 136.5t3 165.5q0 183 -17 225q29 6 54 6q26 0 59 -6q-5 -49 -8 -135.5t-3 -164.5q0 -183 16 -227q-27 -6 -56 -6q-24 0 -56 6z" />
    <glyph glyph-name="J" unicode="J" horiz-adv-x="302" 
d="M-15 2q0 15 7 42.5t17 46.5q33 -28 64.5 -44.5t52.5 -16.5q14 10 20.5 32t8.5 73.5t2 164.5q0 178 -20 227q27 6 55 6q26 0 57 -6q-7 -67 -7 -300q0 -239 -163 -239q-50 0 -94 14z" />
    <glyph glyph-name="K" unicode="K" horiz-adv-x="499" 
d="M68 0q5 49 8 136.5t3 165.5q0 183 -17 225q29 6 54 6q26 0 59 -6q-9 -107 -11 -258q113 121 151.5 174.5t38.5 78.5q59 11 125 11q-74 -70 -207 -219q154 -246 227 -299q-27 -12 -55.5 -16.5t-65.5 -4.5q-47 79 -169 250l-20 -23q-16 -20 -25 -29q2 -153 16 -192
q-27 -6 -56 -6q-24 0 -56 6z" />
    <glyph glyph-name="L" unicode="L" horiz-adv-x="413" 
d="M77.5 168.5q1.5 45.5 1.5 133.5q0 184 -17 225q27 6 55 6q25 0 58 -6q-5 -54 -8 -141t-3 -159q0 -104 4 -145q45 -9 104 -9q36 0 71.5 7.5t59.5 19.5q0 -30 -7 -61t-15 -42q-66 7 -154 7q-106 0 -159 -7q8 126 9.5 171.5z" />
    <glyph glyph-name="M" unicode="M" horiz-adv-x="713" 
d="M67 0q8 106 8 302q0 102 -3 152.5t-10 72.5q27 6 54 6q22 0 58 -6q30 -71 86.5 -195t93.5 -197q38 77 91 194t88 198q20 6 56 6q25 0 56 -6q-4 -49 -7 -134.5t-3 -165.5q0 -187 16 -227q-27 -6 -54 -6q-26 0 -59 6q5 50 8 136.5t3 163.5q0 50 -2 114q-77 -155 -191 -414
q-13 -5 -22 -5q-8 0 -20 5q-27 64 -80 180t-98 208q-2 -104 -2 -161q0 -180 11 -227q-18 -6 -37 -6q-18 0 -41 6z" />
    <glyph glyph-name="N" unicode="N" horiz-adv-x="536" 
d="M61 0q8 106 8 302q0 178 -11 225q31 6 51 6q23 0 58 -6q39 -71 111 -196t128 -217q2 118 2 186q0 186 -11 227q20 6 39 6q18 0 40 -6q-3 -52 -5.5 -139.5t-2.5 -162.5q0 -178 11 -225q-16 -6 -51 -6q-22 0 -59 6q-38 69 -110 194.5t-128 217.5q-3 -88 -3 -185
q0 -180 11 -227q-18 -6 -39 -6q-16 0 -39 6z" />
    <glyph glyph-name="O" unicode="O" horiz-adv-x="611" 
d="M154 19q-54 32 -83.5 90.5t-29.5 134.5q0 85 36 151t100 103t146 37q73 0 128.5 -33t86 -92.5t30.5 -137.5q0 -83 -37 -147.5t-103 -101t-150 -36.5q-70 0 -124 32zM426.5 93.5q46.5 54.5 46.5 148.5q0 85 -41 140.5t-114 68.5q-52 0 -93.5 -26.5t-65 -73t-23.5 -105.5
q0 -93 45.5 -150t119.5 -57q79 0 125.5 54.5z" />
    <glyph glyph-name="P" unicode="P" horiz-adv-x="481" 
d="M68 0q5 50 8 137t3 165q0 165 -17 203q31 12 81.5 19.5t102.5 7.5q100 0 154 -45.5t54 -130.5q0 -57 -27.5 -101.5t-77 -69.5t-113.5 -25q-40 0 -71 7q2 -130 15 -167q-27 -6 -56 -6q-24 0 -56 6zM334.5 264q24.5 38 24.5 84q0 119 -134 119q-29 0 -54 -7
q-7 -110 -7 -227q73 -22 109 -22q37 15 61.5 53z" />
    <glyph glyph-name="Q" unicode="Q" horiz-adv-x="611" 
d="M513 96.5q-55 -73.5 -148 -98.5q66 -83 109 -111q-25 -12 -53 -16.5t-64 -4.5q-16 32 -72 121h-7q-70 0 -124 32t-83.5 90.5t-29.5 134.5q0 85 36 151t100 103t146 37q73 0 128.5 -33t86 -92.5t30.5 -137.5q0 -102 -55 -175.5zM426.5 93.5q46.5 54.5 46.5 148.5
q0 85 -41 140.5t-114 68.5q-52 0 -93.5 -26.5t-65 -73t-23.5 -105.5q0 -93 45.5 -150t119.5 -57q79 0 125.5 54.5z" />
    <glyph glyph-name="R" unicode="R" horiz-adv-x="503" 
d="M68 0q4 49 7.5 140t3.5 162q0 165 -17 203q31 12 81.5 19.5t102.5 7.5q100 0 154 -45.5t54 -130.5q0 -51 -26.5 -90.5t-75.5 -62.5q77 -151 123 -188q-27 -12 -55.5 -16.5t-63.5 -4.5q-21 54 -94 187q-4 -1 -18 -1q-20 0 -43.5 2t-36.5 6q1 -144 16 -188q-27 -6 -56 -6
q-24 0 -56 6zM335 278q24 31 24 70q0 119 -134 119q-29 0 -54 -7q-5 -73 -7 -204q70 -25 109 -25q38 16 62 47z" />
    <glyph glyph-name="S" unicode="S" horiz-adv-x="448" 
d="M38 25q0 21 4 37t13 33q23 -24 63 -37.5t87 -13.5q54 0 82.5 21t28.5 60q0 33 -28 55t-87 51q-52 27 -82.5 46.5t-52.5 51t-22 74.5q0 58 54.5 94t146.5 36q83 0 141 -24q0 -22 -8 -50t-19 -44q-42 30 -86.5 50t-72.5 20q-21 -4 -41 -24t-20 -48q0 -36 29 -59t89 -53
q50 -25 80 -44t51.5 -49t21.5 -71q0 -71 -49.5 -109.5t-148.5 -38.5q-100 0 -174 36z" />
    </font>
</defs>
</svg>
